<svg width="117" height="39" viewBox="0 0 117 39" fill="none" xmlns="http://www.w3.org/2000/svg">
<path d="M107.483 4.67968e-06H9.39788C9.04034 4.67968e-06 8.6871 4.67974e-06 8.33051 0.00195468C8.03202 0.00390468 7.7359 0.00956943 7.43454 0.0143372C6.77984 0.0220414 6.12668 0.079639 5.48073 0.186629C4.8357 0.295949 4.21087 0.502047 3.62738 0.797954C3.0446 1.09636 2.5121 1.48412 2.04919 1.94715C1.58386 2.40888 1.19596 2.94257 0.900429 3.52771C0.604078 4.11169 0.398587 4.73747 0.291054 5.38345C0.182498 6.02861 0.124083 6.68121 0.116334 7.3354C0.107286 7.63433 0.10633 7.93426 0.101562 8.23324V30.7696C0.10633 31.0724 0.107286 31.3657 0.116334 31.6685C0.124086 32.3226 0.182501 32.9752 0.291054 33.6203C0.39829 34.2667 0.603793 34.8928 0.900429 35.477C1.19583 36.0603 1.58378 36.5918 2.04919 37.051C2.51034 37.5161 3.04319 37.9041 3.62738 38.2002C4.21086 38.4969 4.83563 38.7042 5.48073 38.8152C6.12679 38.9214 6.77988 38.979 7.43454 38.9876C7.7359 38.9943 8.03202 38.9981 8.33051 38.9981C8.68709 39 9.04036 39 9.39788 39H107.483C107.833 39 108.189 39 108.54 38.9981C108.837 38.9981 109.142 38.9943 109.439 38.9876C110.092 38.9795 110.744 38.9218 111.389 38.8152C112.036 38.7035 112.663 38.4962 113.249 38.2002C113.833 37.9039 114.365 37.5159 114.826 37.051C115.29 36.59 115.679 36.0589 115.978 35.477C116.272 34.8924 116.476 34.2663 116.582 33.6203C116.69 32.9751 116.751 32.3227 116.763 31.6685C116.766 31.3657 116.766 31.0724 116.766 30.7696C116.774 30.4154 116.774 30.0632 116.774 29.7032V9.29773C116.774 8.94068 116.774 8.58648 116.766 8.23324C116.766 7.93426 116.766 7.63433 116.763 7.33536C116.751 6.68112 116.69 6.02866 116.582 5.38341C116.476 4.7378 116.272 4.11207 115.978 3.52767C115.376 2.35482 114.422 1.40013 113.249 0.797867C112.663 0.502683 112.036 0.296639 111.389 0.186542C110.744 0.0790799 110.092 0.0214622 109.439 0.0142007C109.142 0.00944268 108.837 0.00372918 108.54 0.00182793C108.189 -0.00012207 107.833 -0.00012207 107.483 -0.00012207V4.67968e-06Z" fill="#A6A6A6"/>
<path d="M8.33565 38.1469C8.03859 38.1469 7.7487 38.1431 7.45397 38.1365C6.8434 38.1285 6.23427 38.0754 5.63156 37.9774C5.06956 37.8807 4.52513 37.7006 4.01623 37.4432C3.512 37.188 3.05211 36.8533 2.65416 36.4521C2.25045 36.0555 1.91435 35.5956 1.65916 35.0905C1.40117 34.5821 1.22262 34.0372 1.12974 33.4747C1.02943 32.8703 0.975164 32.2592 0.967399 31.6466C0.961218 31.4409 0.953125 30.7563 0.953125 30.7563V8.23326C0.953125 8.23326 0.961744 7.55913 0.967448 7.36108C0.974883 6.74944 1.02884 6.13926 1.12884 5.53581C1.22189 4.97179 1.40058 4.4253 1.65871 3.91526C1.91296 3.41052 2.2472 2.95024 2.64847 2.55226C3.0493 2.15051 3.51067 1.81411 4.01576 1.55535C4.52348 1.29882 5.06688 1.12004 5.62774 1.02501C6.23244 0.926115 6.84369 0.872646 7.45637 0.865054L8.33613 0.853149H108.535L109.426 0.865532C110.033 0.872746 110.639 0.925738 111.238 1.02406C111.804 1.12028 112.353 1.3003 112.867 1.55821C113.879 2.07969 114.702 2.90471 115.221 3.91764C115.475 4.42416 115.651 4.96619 115.743 5.52534C115.844 6.13374 115.901 6.74872 115.913 7.36537C115.916 7.64149 115.916 7.93808 115.916 8.23326C115.923 8.59888 115.923 8.94689 115.923 9.29775V29.7032C115.923 30.0574 115.923 30.4031 115.916 30.7515C115.916 31.0686 115.916 31.359 115.912 31.658C115.9 32.2636 115.845 32.8676 115.745 33.4651C115.654 34.0317 115.477 34.5808 115.219 35.0934C114.962 35.593 114.627 36.049 114.228 36.4445C113.83 36.8479 113.369 37.1845 112.864 37.4414C112.352 37.7007 111.804 37.8814 111.238 37.9774C110.635 38.0759 110.026 38.129 109.415 38.1365C109.13 38.1431 108.831 38.1469 108.54 38.1469L107.483 38.1488L8.33565 38.1469Z" fill="black"/>
<path d="M24.2496 19.7936C24.2601 18.9798 24.4763 18.1819 24.878 17.474C25.2797 16.7662 25.854 16.1716 26.5473 15.7453C26.1068 15.1163 25.5258 14.5986 24.8503 14.2334C24.1748 13.8682 23.4234 13.6656 22.6559 13.6416C21.0187 13.4697 19.4314 14.6213 18.5971 14.6213C17.7466 14.6213 16.4621 13.6586 15.0788 13.6871C14.1841 13.716 13.3121 13.9762 12.5478 14.4423C11.7835 14.9084 11.153 15.5645 10.7177 16.3468C8.83205 19.6115 10.2386 24.4095 12.0449 27.0484C12.9486 28.3407 14.0048 29.7841 15.3868 29.7329C16.7392 29.6768 17.2443 28.8705 18.8767 28.8705C20.494 28.8705 20.9679 29.7329 22.3779 29.7004C23.8291 29.6768 24.7434 28.4024 25.6154 27.098C26.2648 26.1772 26.7644 25.1596 27.0959 24.0828C26.2528 23.7262 25.5333 23.1293 25.0272 22.3666C24.5211 21.6038 24.2506 20.709 24.2496 19.7936Z" fill="white"/>
<path d="M21.5873 11.906C22.3785 10.9562 22.7683 9.73531 22.6739 8.50269C21.4651 8.62965 20.3485 9.2074 19.5465 10.1208C19.1544 10.567 18.8541 11.0862 18.6628 11.6485C18.4715 12.2109 18.3928 12.8054 18.4314 13.3982C19.0361 13.4044 19.6342 13.2733 20.1809 13.0149C20.7275 12.7564 21.2084 12.3773 21.5873 11.906Z" fill="white"/>
<path d="M41.3461 26.4612H36.731L35.6227 29.7337H33.668L38.0393 17.6262H40.0702L44.4415 29.7337H42.4534L41.3461 26.4612ZM37.209 24.9511H40.8672L39.0638 19.64H39.0134L37.209 24.9511Z" fill="white"/>
<path d="M53.8815 25.3202C53.8815 28.0634 52.4133 29.8258 50.1977 29.8258C49.6364 29.8552 49.0782 29.7259 48.587 29.4527C48.0958 29.1796 47.6915 28.7737 47.4203 28.2814H47.3783V32.6537H45.5664V20.9061H47.3203V22.3743H47.3536C47.6373 21.8844 48.0485 21.4805 48.5434 21.2057C49.0384 20.9309 49.5985 20.7955 50.1644 20.8137C52.4047 20.8137 53.8815 22.5847 53.8815 25.3202ZM52.0191 25.3202C52.0191 23.5331 51.0956 22.3581 49.6864 22.3581C48.302 22.3581 47.3707 23.5578 47.3707 25.3202C47.3707 27.0988 48.302 28.29 49.6864 28.29C51.0956 28.29 52.0191 27.1236 52.0191 25.3202Z" fill="white"/>
<path d="M63.5983 25.3202C63.5983 28.0634 62.1301 29.8258 59.9145 29.8258C59.3532 29.8551 58.795 29.7259 58.3038 29.4527C57.8126 29.1796 57.4083 28.7736 57.1371 28.2814H57.0951V32.6537H55.2832V20.9061H57.0371V22.3743H57.0704C57.3541 21.8844 57.7652 21.4805 58.2602 21.2057C58.7551 20.9309 59.3153 20.7955 59.8811 20.8137C62.1216 20.8137 63.5983 22.5847 63.5983 25.3202ZM61.7359 25.3202C61.7359 23.533 60.8123 22.3581 59.4032 22.3581C58.0187 22.3581 57.0875 23.5578 57.0875 25.3202C57.0875 27.0988 58.0187 28.29 59.4032 28.29C60.8124 28.29 61.7359 27.1236 61.7359 25.3202H61.7359Z" fill="white"/>
<path d="M70.0189 26.3603C70.1531 27.5609 71.3195 28.3493 72.9134 28.3493C74.4407 28.3493 75.5394 27.5609 75.5394 26.4783C75.5394 25.5385 74.8767 24.9758 73.3076 24.5902L71.7385 24.2122C69.5152 23.6752 68.4831 22.6354 68.4831 20.9482C68.4831 18.8592 70.3036 17.4243 72.8887 17.4243C75.4471 17.4243 77.2009 18.8592 77.26 20.9482H75.4309C75.3214 19.7399 74.3226 19.0106 72.8629 19.0106C71.4033 19.0106 70.4045 19.7485 70.4045 20.8225C70.4045 21.6785 71.0424 22.1822 72.603 22.5678L73.9369 22.8953C76.4211 23.4828 77.4532 24.4807 77.4532 26.2517C77.4532 28.5168 75.6489 29.9355 72.7791 29.9355C70.0941 29.9355 68.2812 28.5501 68.1641 26.3602L70.0189 26.3603Z" fill="white"/>
<path d="M81.3638 18.8173V20.9063H83.0424V22.3412H81.3638V27.2077C81.3638 27.9637 81.6999 28.316 82.4378 28.316C82.6371 28.3125 82.836 28.2985 83.0338 28.274V29.7003C82.7021 29.7623 82.3649 29.7904 82.0274 29.7841C80.2402 29.7841 79.5433 29.1129 79.5433 27.4009V22.3412H78.2598V20.9063H79.5432V18.8173H81.3638Z" fill="white"/>
<path d="M84.0156 25.3205C84.0156 22.5431 85.6514 20.7978 88.2022 20.7978C90.7616 20.7978 92.3898 22.543 92.3898 25.3205C92.3898 28.1055 90.7702 29.8432 88.2022 29.8432C85.6352 29.8432 84.0156 28.1055 84.0156 25.3205ZM90.5435 25.3205C90.5435 23.4152 89.6704 22.2908 88.2022 22.2908C86.734 22.2908 85.8618 23.4238 85.8618 25.3205C85.8618 27.2334 86.734 28.3493 88.2022 28.3493C89.6704 28.3493 90.5435 27.2334 90.5435 25.3205H90.5435Z" fill="white"/>
<path d="M93.8828 20.906H95.611V22.4085H95.6529C95.7698 21.9392 96.0447 21.5245 96.4314 21.2341C96.8181 20.9436 97.2929 20.7952 97.7762 20.8136C97.985 20.8129 98.1932 20.8356 98.397 20.8812V22.576C98.1334 22.4955 97.8584 22.4585 97.5829 22.4665C97.3196 22.4559 97.0572 22.5023 96.8136 22.6026C96.57 22.7029 96.351 22.8547 96.1716 23.0477C95.9923 23.2406 95.8568 23.4701 95.7744 23.7204C95.6921 23.9706 95.6649 24.2357 95.6948 24.4975V29.7333H93.8828L93.8828 20.906Z" fill="white"/>
<path d="M106.752 27.141C106.508 28.7435 104.948 29.8432 102.951 29.8432C100.383 29.8432 98.7891 28.1227 98.7891 25.3624C98.7891 22.5935 100.392 20.7978 102.875 20.7978C105.317 20.7978 106.853 22.4755 106.853 25.152V25.7728H100.618V25.8823C100.589 26.2071 100.63 26.5344 100.737 26.8423C100.845 27.1503 101.017 27.4319 101.241 27.6683C101.466 27.9048 101.738 28.0908 102.04 28.214C102.342 28.3371 102.667 28.3946 102.993 28.3826C103.421 28.4227 103.851 28.3235 104.218 28.0998C104.585 27.8761 104.871 27.5398 105.031 27.141L106.752 27.141ZM100.627 24.5064H105.04C105.056 24.2143 105.012 23.922 104.91 23.6478C104.808 23.3736 104.65 23.1235 104.447 22.9131C104.244 22.7028 103.999 22.5367 103.728 22.4253C103.458 22.314 103.167 22.2597 102.875 22.266C102.58 22.2642 102.287 22.3209 102.014 22.4328C101.741 22.5447 101.493 22.7095 101.284 22.9178C101.075 23.1261 100.909 23.3737 100.796 23.6464C100.684 23.919 100.626 24.2113 100.627 24.5064V24.5064Z" fill="white"/>
<path d="M36.9822 8.51216C37.3621 8.4849 37.7433 8.54228 38.0983 8.68018C38.4533 8.81808 38.7733 9.03305 39.0352 9.30958C39.297 9.58612 39.4943 9.91732 39.6127 10.2793C39.731 10.6413 39.7676 11.025 39.7197 11.4029C39.7197 13.2615 38.7152 14.3298 36.9822 14.3298H34.8809V8.51216H36.9822ZM35.7844 13.5071H36.8813C37.1528 13.5233 37.4244 13.4788 37.6765 13.3768C37.9286 13.2748 38.1547 13.1179 38.3385 12.9175C38.5223 12.717 38.6591 12.4781 38.7389 12.2182C38.8187 11.9582 38.8395 11.6838 38.7999 11.4147C38.8367 11.1468 38.8137 10.874 38.7327 10.6159C38.6516 10.3579 38.5145 10.121 38.3311 9.92214C38.1478 9.7233 37.9227 9.56749 37.6721 9.46586C37.4214 9.36423 37.1514 9.3193 36.8813 9.33429H35.7844V13.5071Z" fill="white"/>
<path d="M40.7403 12.1327C40.7127 11.8442 40.7457 11.5531 40.8372 11.2781C40.9287 11.003 41.0766 10.7502 41.2716 10.5357C41.4665 10.3212 41.7041 10.1499 41.9692 10.0326C42.2342 9.91531 42.5209 9.85474 42.8107 9.85474C43.1005 9.85474 43.3872 9.91531 43.6522 10.0326C43.9173 10.1499 44.1549 10.3212 44.3499 10.5357C44.5448 10.7502 44.6928 11.003 44.7843 11.2781C44.8758 11.5531 44.9088 11.8442 44.8812 12.1327C44.9093 12.4215 44.8767 12.713 44.7854 12.9885C44.6942 13.264 44.5463 13.5173 44.3513 13.7322C44.1563 13.9471 43.9185 14.1188 43.6532 14.2363C43.3879 14.3539 43.1009 14.4146 42.8107 14.4146C42.5205 14.4146 42.2336 14.3539 41.9682 14.2363C41.7029 14.1188 41.4651 13.9471 41.2701 13.7322C41.0751 13.5173 40.9273 13.264 40.836 12.9885C40.7447 12.713 40.7121 12.4215 40.7403 12.1327ZM43.9899 12.1327C43.9899 11.181 43.5624 10.6245 42.8121 10.6245C42.059 10.6245 41.6353 11.181 41.6353 12.1327C41.6353 13.092 42.059 13.6442 42.8121 13.6442C43.5624 13.6442 43.9899 13.0882 43.9899 12.1327H43.9899Z" fill="white"/>
<path d="M50.3847 14.3298H49.4858L48.5784 11.0963H48.5099L47.6063 14.3298H46.716L45.5059 9.93945H46.3847L47.1712 13.2896H47.2359L48.1386 9.93945H48.9698L49.8724 13.2896H49.941L50.7236 9.93945H51.5901L50.3847 14.3298Z" fill="white"/>
<path d="M52.6094 9.93905H53.4435V10.6365H53.5082C53.618 10.386 53.8033 10.176 54.0381 10.0358C54.273 9.89558 54.5457 9.83214 54.8184 9.8543C55.032 9.83824 55.2465 9.87045 55.446 9.94854C55.6454 10.0266 55.8248 10.1486 55.9707 10.3054C56.1167 10.4623 56.2255 10.6499 56.289 10.8545C56.3526 11.0591 56.3693 11.2753 56.338 11.4872V14.3294H55.4715V11.7048C55.4715 10.9993 55.1649 10.6484 54.5241 10.6484C54.3791 10.6416 54.2343 10.6663 54.0997 10.7208C53.9651 10.7752 53.8439 10.8581 53.7443 10.9638C53.6447 11.0694 53.5692 11.1954 53.5228 11.333C53.4765 11.4706 53.4605 11.6166 53.4758 11.761V14.3294H52.6094L52.6094 9.93905Z" fill="white"/>
<path d="M57.7188 8.22559H58.5852V14.3298H57.7188V8.22559Z" fill="white"/>
<path d="M59.7891 12.1328C59.7615 11.8442 59.7945 11.5531 59.886 11.2781C59.9775 11.0031 60.1255 10.7502 60.3205 10.5357C60.5155 10.3212 60.7531 10.1499 61.0182 10.0326C61.2832 9.91531 61.5699 9.85474 61.8598 9.85474C62.1496 9.85474 62.4363 9.91531 62.7013 10.0326C62.9664 10.1499 63.204 10.3212 63.399 10.5357C63.594 10.7502 63.742 11.0031 63.8335 11.2781C63.925 11.5531 63.958 11.8442 63.9304 12.1328C63.9585 12.4216 63.9259 12.7131 63.8346 12.9886C63.7433 13.264 63.5954 13.5174 63.4004 13.7323C63.2054 13.9472 62.9676 14.1189 62.7023 14.2364C62.4369 14.3539 62.1499 14.4146 61.8598 14.4146C61.5696 14.4146 61.2826 14.3539 61.0172 14.2364C60.7519 14.1189 60.5141 13.9472 60.3191 13.7323C60.1241 13.5174 59.9762 13.264 59.8849 12.9886C59.7936 12.7131 59.761 12.4216 59.7891 12.1328ZM63.0387 12.1328C63.0387 11.1811 62.6112 10.6246 61.8609 10.6246C61.1078 10.6246 60.6841 11.1811 60.6841 12.1328C60.6841 13.0921 61.1078 13.6443 61.8609 13.6443C62.6112 13.6443 63.0387 13.0883 63.0387 12.1328H63.0387Z" fill="white"/>
<path d="M64.8438 13.0882C64.8438 12.2979 65.4322 11.8423 66.4767 11.7776L67.6659 11.709V11.3301C67.6659 10.8664 67.3593 10.6046 66.7671 10.6046C66.2834 10.6046 65.9482 10.7821 65.8521 11.0925H65.0132C65.1018 10.3384 65.8111 9.85474 66.8071 9.85474C67.9078 9.85474 68.5286 10.4027 68.5286 11.3301V14.3298H67.6945V13.7128H67.6259C67.4868 13.9342 67.2914 14.1146 67.0597 14.2357C66.828 14.3568 66.5683 14.4142 66.3072 14.4022C66.1229 14.4213 65.9366 14.4017 65.7604 14.3444C65.5841 14.2872 65.4218 14.1937 65.284 14.0699C65.1461 13.9461 65.0357 13.7948 64.9598 13.6257C64.884 13.4566 64.8445 13.2735 64.8438 13.0882ZM67.6659 12.7131V12.346L66.5938 12.4146C65.9892 12.455 65.715 12.6607 65.715 13.0478C65.715 13.4429 66.0577 13.6728 66.5291 13.6728C66.6672 13.6868 66.8067 13.6729 66.9393 13.6318C67.0719 13.5908 67.1949 13.5235 67.301 13.434C67.407 13.3444 67.494 13.2344 67.5567 13.1106C67.6194 12.9868 67.6565 12.8516 67.6659 12.7131Z" fill="white"/>
<path d="M69.666 12.1327C69.666 10.7455 70.3792 9.86663 71.4884 9.86663C71.7628 9.85399 72.0351 9.9197 72.2735 10.0561C72.5119 10.1925 72.7066 10.3939 72.8348 10.6369H72.8995V8.22559H73.766V14.3298H72.9357V13.6362H72.8671C72.7291 13.8775 72.5276 14.0764 72.2846 14.2114C72.0416 14.3464 71.7663 14.4124 71.4884 14.4022C70.3716 14.4022 69.666 13.5234 69.666 12.1327ZM70.5611 12.1327C70.5611 13.0639 71 13.6243 71.7341 13.6243C72.4644 13.6243 72.9157 13.0559 72.9157 12.1366C72.9157 11.2215 72.4597 10.645 71.7341 10.645C71.0047 10.645 70.561 11.2092 70.561 12.1327H70.5611Z" fill="white"/>
<path d="M77.3496 12.1327C77.322 11.8442 77.355 11.5531 77.4465 11.2781C77.538 11.003 77.686 10.7502 77.8809 10.5357C78.0759 10.3212 78.3135 10.1499 78.5785 10.0326C78.8436 9.91531 79.1302 9.85474 79.4201 9.85474C79.7099 9.85474 79.9966 9.91531 80.2616 10.0326C80.5267 10.1499 80.7643 10.3212 80.9592 10.5357C81.1542 10.7502 81.3021 11.003 81.3936 11.2781C81.4851 11.5531 81.5181 11.8442 81.4905 12.1327C81.5187 12.4215 81.486 12.713 81.3948 12.9885C81.3035 13.264 81.1557 13.5173 80.9607 13.7322C80.7657 13.9471 80.5279 14.1188 80.2626 14.2363C79.9972 14.3539 79.7103 14.4146 79.4201 14.4146C79.1299 14.4146 78.8429 14.3539 78.5776 14.2363C78.3123 14.1188 78.0745 13.9471 77.8795 13.7322C77.6845 13.5173 77.5366 13.264 77.4454 12.9885C77.3541 12.713 77.3215 12.4215 77.3496 12.1327ZM80.5993 12.1327C80.5993 11.181 80.1718 10.6245 79.4215 10.6245C78.6684 10.6245 78.2447 11.181 78.2447 12.1327C78.2447 13.092 78.6684 13.6442 79.4215 13.6442C80.1718 13.6442 80.5993 13.0882 80.5993 12.1327Z" fill="white"/>
<path d="M82.6543 9.93905H83.4884V10.6365H83.5531C83.663 10.386 83.8482 10.176 84.0831 10.0358C84.3179 9.89558 84.5907 9.83214 84.8633 9.8543C85.0769 9.83824 85.2914 9.87045 85.4909 9.94854C85.6904 10.0266 85.8697 10.1486 86.0157 10.3054C86.1616 10.4623 86.2704 10.6499 86.334 10.8545C86.3975 11.0591 86.4143 11.2753 86.3829 11.4872V14.3294H85.5165V11.7048C85.5165 10.9993 85.2099 10.6484 84.5691 10.6484C84.424 10.6416 84.2792 10.6663 84.1446 10.7208C84.01 10.7752 83.8888 10.8581 83.7892 10.9638C83.6896 11.0694 83.6141 11.1954 83.5678 11.333C83.5214 11.4706 83.5054 11.6166 83.5208 11.761V14.3294H82.6543V9.93905Z" fill="white"/>
<path d="M91.2792 8.84644V9.9595H92.2304V10.6893H91.2792V12.9469C91.2792 13.4068 91.4687 13.6081 91.9 13.6081C92.0104 13.6078 92.1208 13.6011 92.2304 13.5881V14.3099C92.0748 14.3377 91.9172 14.3525 91.7591 14.3541C90.7955 14.3541 90.4118 14.0152 90.4118 13.1687V10.6893H89.7148V9.95946H90.4118V8.84644H91.2792Z" fill="white"/>
<path d="M93.4121 8.22559H94.2709V10.645H94.3395C94.4547 10.3922 94.645 10.181 94.8846 10.0402C95.1241 9.89951 95.4012 9.83605 95.6782 9.85853C95.8907 9.84696 96.1031 9.88244 96.3003 9.96243C96.4976 10.0424 96.6747 10.165 96.8191 10.3213C96.9635 10.4776 97.0717 10.6639 97.1358 10.8668C97.2 11.0698 97.2185 11.2843 97.1902 11.4953V14.3298H96.3229V11.709C96.3229 11.0078 95.9962 10.6526 95.384 10.6526C95.2351 10.6404 95.0853 10.6609 94.9452 10.7126C94.805 10.7643 94.6778 10.8461 94.5725 10.9521C94.4672 11.0581 94.3863 11.1858 94.3356 11.3264C94.2848 11.4669 94.2654 11.6168 94.2786 11.7657V14.3298H93.4121L93.4121 8.22559Z" fill="white"/>
<path d="M102.244 13.1445C102.126 13.5457 101.871 13.8928 101.524 14.125C101.176 14.3572 100.757 14.4597 100.342 14.4146C100.052 14.4223 99.765 14.3669 99.4993 14.2523C99.2336 14.1377 98.9961 13.9667 98.8031 13.7511C98.6102 13.5354 98.4664 13.2804 98.3819 13.0037C98.2974 12.727 98.2741 12.4352 98.3136 12.1485C98.2751 11.861 98.2988 11.5686 98.3832 11.291C98.4675 11.0135 98.6105 10.7573 98.8024 10.5398C98.9943 10.3223 99.2308 10.1486 99.4957 10.0304C99.7606 9.91221 100.048 9.85234 100.338 9.85481C101.56 9.85481 102.296 10.6894 102.296 12.0681V12.3704H99.1963V12.419C99.1827 12.5801 99.203 12.7422 99.2557 12.8951C99.3085 13.0479 99.3926 13.188 99.5027 13.3064C99.6128 13.4249 99.7464 13.519 99.895 13.5827C100.044 13.6465 100.204 13.6785 100.366 13.6767C100.573 13.7016 100.783 13.6643 100.969 13.5695C101.155 13.4747 101.308 13.3268 101.41 13.1445L102.244 13.1445ZM99.1963 11.7296H101.414C101.425 11.5822 101.405 11.4342 101.355 11.2951C101.305 11.1559 101.227 11.0287 101.125 10.9216C101.024 10.8145 100.9 10.7299 100.764 10.6731C100.628 10.6164 100.481 10.5889 100.333 10.5923C100.183 10.5904 100.035 10.6185 99.8957 10.675C99.7569 10.7315 99.6308 10.8152 99.5249 10.9212C99.4189 11.0272 99.3353 11.1533 99.2788 11.2922C99.2224 11.431 99.1943 11.5797 99.1963 11.7296H99.1963Z" fill="white"/>
</svg>
