<svg width="26" height="26" viewBox="0 0 26 26" fill="none" xmlns="http://www.w3.org/2000/svg">
<g clip-path="url(#clip0_1068_4111)">
<path d="M21.7017 0.763846C21.2223 0.284447 20.4586 0.284447 19.9792 0.763846L10.7249 10.0182C10.5786 10.1563 10.4811 10.3351 10.4161 10.5301L8.90487 15.5757C8.77485 16.0064 8.89674 16.4694 9.21362 16.7863C9.4411 17.022 9.75798 17.1438 10.0749 17.1438C10.1886 17.1438 10.3105 17.1276 10.4242 17.0951L15.4698 15.5838C15.6649 15.5188 15.8436 15.4213 15.9817 15.2751L25.2361 6.0207C25.4636 5.79322 25.5936 5.48447 25.5936 5.15945C25.5936 4.83449 25.4636 4.52573 25.2361 4.2982L21.7017 0.763846Z" fill="#7E6613"/>
<path d="M24.375 11.7812C23.7018 11.7812 23.1562 12.3272 23.1562 13V21.125C23.1562 22.2454 22.245 23.1562 21.125 23.1562H4.875C3.75503 23.1562 2.84375 22.2454 2.84375 21.125V4.875C2.84375 3.75464 3.75503 2.84375 4.875 2.84375H13C13.6732 2.84375 14.2188 2.29785 14.2188 1.625C14.2188 0.952152 13.6732 0.40625 13 0.40625H4.875C2.41092 0.40625 0.40625 2.41131 0.40625 4.875V21.125C0.40625 23.5887 2.41092 25.5938 4.875 25.5938H21.125C23.5891 25.5938 25.5938 23.5887 25.5938 21.125V13C25.5938 12.3272 25.0482 11.7812 24.375 11.7812Z" fill="#7E6613"/>
</g>
<defs>
<clipPath id="clip0_1068_4111">
<rect width="26" height="26" fill="white"/>
</clipPath>
</defs>
</svg>
