<svg width="123" height="130" viewBox="0 0 123 130" fill="none" xmlns="http://www.w3.org/2000/svg">
<rect width="123" height="130" rx="7" fill="#294A29"/>
<g clip-path="url(#clip0_2782_34433)">
<path d="M89.0909 24.4708L89.91 15.5173C89.932 15.3799 89.9283 15.2397 89.8991 15.1036C89.8845 15.0566 89.8666 15.0106 89.8456 14.966C89.8282 14.9139 89.8074 14.863 89.7831 14.8138L89.7009 14.7937L89.5975 14.6563L89.3794 14.4784C89.3422 14.4621 89.3024 14.4524 89.2619 14.4497C89.1335 14.3873 88.9933 14.353 88.8506 14.3491L88.5803 14.2831L80.3329 15.5171C80.1472 15.4874 79.9571 15.5015 79.7777 15.5581C79.5983 15.6147 79.4346 15.7124 79.2996 15.8434C79.1646 15.9744 79.062 16.135 78.9999 16.3126C78.9379 16.4902 78.9181 16.6798 78.9421 16.8663C78.9661 17.0529 79.0333 17.2313 79.1384 17.3873C79.2434 17.5434 79.3834 17.6728 79.5472 17.7652C79.711 17.8577 79.8941 17.9107 80.082 17.92C80.2699 17.9293 80.4573 17.8947 80.6295 17.8189L85.9274 17.0344L70.9387 36.6215L69.3357 26.8267C69.299 26.6042 69.2007 26.3963 69.0521 26.2266C68.9034 26.057 68.7103 25.9322 68.4945 25.8665C68.2787 25.8008 68.0489 25.7967 67.8309 25.8548C67.6129 25.9128 67.4155 26.0306 67.2609 26.1949L57.8706 36.1788L39.2417 55.9842L36.047 46.4853C35.9841 46.3015 35.8778 46.1355 35.7372 46.0014C35.5966 45.8672 35.4257 45.769 35.239 45.7149C35.0532 45.6587 34.8566 45.6479 34.6658 45.6836C34.475 45.7194 34.2956 45.8005 34.1427 45.9201L16.3871 59.8616C16.2048 60 16.0655 60.1873 15.9854 60.4018C15.9053 60.6163 15.8877 60.8491 15.9347 61.0731C15.9816 61.2972 16.0912 61.5033 16.2506 61.6676C16.4101 61.8319 16.6129 61.9476 16.8354 62.0012C17.0137 62.0458 17.1998 62.0492 17.3795 62.0111C17.5593 61.9731 17.7281 61.8946 17.873 61.7816L34.3251 48.8416L37.6212 58.6393C37.6888 58.8366 37.8063 59.0131 37.9623 59.1516C38.1183 59.2902 38.3075 59.386 38.5114 59.4298C38.7138 59.4737 38.924 59.4649 39.122 59.4043C39.32 59.3437 39.4991 59.2332 39.6422 59.0836L56.9172 40.7405L67.3172 29.6834L68.9748 39.8152C69.0128 40.0496 69.119 40.2677 69.28 40.4421C69.4411 40.6166 69.65 40.7398 69.8806 40.7964C70.1098 40.8533 70.3506 40.8418 70.5733 40.7635C70.7961 40.6852 70.991 40.5434 71.1342 40.3556L87.1399 19.4106L86.6952 24.1839C86.6692 24.4745 86.749 24.7647 86.9201 25.0011C87.0912 25.2375 87.3419 25.404 87.6261 25.4701L87.8024 25.5132C88.1095 25.5361 88.4138 25.441 88.6532 25.2473C88.8926 25.0536 89.0492 24.7759 89.0909 24.4708Z" fill="white"/>
</g>
<path d="M98.3282 69.5281V65.3323C98.3282 63.7104 97.2675 62.279 95.7156 61.808L91.6127 60.5643L88.8042 63.9386L85.9956 60.5643L81.8927 61.808C80.3408 62.279 79.2802 63.7104 79.2802 65.3323V69.5281M44.2723 69.5281V65.3323C44.2723 63.7104 43.2116 62.279 41.6597 61.808L37.5568 60.5643L34.7482 63.9386L31.9397 60.5643L27.8368 61.808C26.2849 62.279 25.2242 63.7104 25.2242 65.3323V69.5281M71.3007 69.5281V65.3323C71.3007 63.7104 70.24 62.279 68.6881 61.808L64.5852 60.5643L61.7757 63.9377L58.9672 60.5634L54.8643 61.8071C53.3124 62.2781 52.2517 63.7095 52.2517 65.3314V69.5272M84.4318 51.2463L84.7666 53.8911C84.9175 55.0806 85.5725 56.0971 86.5007 56.7346C87.1782 57.2004 87.9811 57.4493 88.8033 57.4485C89.6533 57.4485 90.4481 57.1863 91.1058 56.7346C92.034 56.0971 92.689 55.0815 92.8399 53.8911L93.1748 51.2463C93.5087 48.6135 91.4563 46.2852 88.8023 46.2852C87.5705 46.2852 86.4685 46.7865 85.6746 47.5869C84.7592 48.5114 84.2533 49.8352 84.4318 51.2463ZM30.3749 51.2463L30.7098 53.8911C30.8606 55.0806 31.5156 56.0971 32.4438 56.7346C33.1213 57.2004 33.9243 57.4493 34.7464 57.4485C35.5964 57.4485 36.3912 57.1863 37.049 56.7346C37.9772 56.0971 38.6322 55.0815 38.7831 53.8911L39.1179 51.2463C39.4518 48.6135 37.3995 46.2852 34.7455 46.2852C33.5137 46.2852 32.4116 46.7865 31.6177 47.5869C30.7024 48.5114 30.1964 49.8352 30.3749 51.2463ZM57.4033 51.2463L57.7382 53.8911C57.889 55.0806 58.544 56.0971 59.4722 56.7346C60.1497 57.2004 60.9527 57.4493 61.7748 57.4485C62.6248 57.4485 63.4197 57.1863 64.0774 56.7346C65.0056 56.0971 65.6606 55.0815 65.8115 53.8911L66.1463 51.2463C66.4803 48.6135 64.4279 46.2852 61.7739 46.2852C60.5421 46.2852 59.44 46.7865 58.6461 47.5869C57.7308 48.5114 57.2249 49.8352 57.4033 51.2463ZM24.0007 78.789C24.0007 89.439 28.4081 99.0596 35.4989 105.927C42.2972 112.512 51.5627 116.564 61.7757 116.564C71.9879 116.564 81.2534 112.512 88.0526 105.927C95.1434 99.0596 99.5508 89.439 99.5508 78.789H24.0007Z" stroke="white" stroke-width="3" stroke-miterlimit="10" stroke-linejoin="round"/>
<path d="M35.499 105.926C42.2973 112.511 51.5628 116.563 61.7759 116.563C71.988 116.563 81.2535 112.511 88.0527 105.926C84.3344 102.325 79.8773 99.4803 74.9309 97.6441V97.6432C70.8344 96.1207 66.4022 95.2891 61.7759 95.2891C57.1496 95.2891 52.7173 96.1207 48.6209 97.6432V97.6441C43.6744 99.4803 39.2174 102.325 35.499 105.926Z" stroke="white" stroke-width="2.5" stroke-miterlimit="10" stroke-linejoin="round"/>
<path d="M46.5974 78.7891C46.5974 85.6563 47.3343 92.0949 48.6213 97.6439V97.6448C51.2431 108.954 56.1527 116.564 61.7763 116.564C67.3998 116.564 72.3094 108.954 74.9312 97.6448V97.6439C76.2182 92.0949 76.9551 85.6563 76.9551 78.7891H46.5974Z" stroke="white" stroke-width="2.5" stroke-miterlimit="10" stroke-linejoin="round"/>
<defs>
<clipPath id="clip0_2782_34433">
<rect width="49.6006" height="43.5517" fill="white" transform="translate(42.2715 11)"/>
</clipPath>
</defs>
</svg>
