<svg width="123" height="130" viewBox="0 0 123 130" fill="none" xmlns="http://www.w3.org/2000/svg">
<rect width="123" height="130" rx="7" fill="#294A29"/>
<path d="M82 60.25H82.25V60V58.9737C82.25 53.7357 80.1692 48.7122 76.4654 45.0083C72.7615 41.3045 67.738 39.2237 62.5 39.2237C57.262 39.2237 52.2385 41.3045 48.5346 45.0083C44.8308 48.7122 42.75 53.7357 42.75 58.9737V60V60.25H43H45.0526H45.3026V60V58.9737C45.3026 54.4127 47.1145 50.0384 50.3396 46.8133C53.5648 43.5882 57.939 41.7763 62.5 41.7763C67.061 41.7763 71.4352 43.5882 74.6604 46.8133C77.8855 50.0384 79.6974 54.4127 79.6974 58.9737V60V60.25H79.9474H82ZM57.7996 36.2452C59.1909 37.1749 60.8267 37.6711 62.5 37.6711C64.7439 37.6711 66.8958 36.7797 68.4825 35.193C70.0692 33.6064 70.9605 31.4544 70.9605 29.2105C70.9605 27.5372 70.4643 25.9014 69.5347 24.5101C68.605 23.1188 67.2837 22.0344 65.7377 21.394C64.1917 20.7537 62.4906 20.5861 60.8494 20.9126C59.2083 21.239 57.7007 22.0448 56.5175 23.228C55.3343 24.4113 54.5285 25.9188 54.202 27.56C53.8756 29.2011 54.0431 30.9023 54.6835 32.4482C55.3238 33.9942 56.4083 35.3155 57.7996 36.2452ZM59.2178 24.2983C60.1893 23.6491 61.3315 23.3026 62.5 23.3026C64.0669 23.3026 65.5696 23.9251 66.6775 25.033C67.7855 26.141 68.4079 27.6437 68.4079 29.2105C68.4079 30.379 68.0614 31.5212 67.4122 32.4928C66.7631 33.4643 65.8404 34.2216 64.7609 34.6687C63.6813 35.1159 62.4934 35.2329 61.3474 35.0049C60.2014 34.7769 59.1487 34.2143 58.3225 33.388C57.4963 32.5618 56.9336 31.5091 56.7056 30.3631C56.4777 29.2171 56.5947 28.0292 57.0418 26.9497C57.489 25.8701 58.2462 24.9475 59.2178 24.2983Z" fill="white" stroke="white" stroke-width="0.5"/>
<mask id="path-3-outside-1_2782_34456" maskUnits="userSpaceOnUse" x="29" y="45" width="66" height="66" fill="black">
<rect fill="white" x="29" y="45" width="66" height="66"/>
<path d="M61.9954 46C61.3669 46 61.1131 46.2354 60.8069 46.4366C60.4802 46.6596 60.1687 46.9039 59.8743 47.168C59.2251 47.7394 58.4937 48.464 57.7714 49.1886C57.0514 49.9109 56.3383 50.6331 55.7623 51.1749C55.5289 51.3974 55.2864 51.6101 55.0354 51.8126C54.976 51.8583 54.9349 51.8766 54.8891 51.9017C54.8411 51.9017 54.8069 51.9063 54.7406 51.8926C54.4316 51.8403 54.125 51.7747 53.8217 51.696C53.0743 51.5131 52.1143 51.232 51.152 50.96C50.2419 50.6916 49.3234 50.453 48.3977 50.2446C48.0166 50.1604 47.6302 50.1024 47.2411 50.0709C46.88 50.048 46.5463 49.968 45.9954 50.2903C45.4537 50.6057 45.3509 50.9303 45.1886 51.2594C45.0149 51.6163 44.8652 51.9843 44.7406 52.3611C44.4617 53.1817 44.1966 54.1737 43.9337 55.1611C43.6709 56.1486 43.4103 57.1314 43.184 57.888C43.0937 58.1968 42.9907 58.5019 42.8754 58.8023C42.8457 58.8754 42.8206 58.9097 42.7954 58.9554C42.752 58.9783 42.7246 59.0011 42.6606 59.0263C42.4503 59.1086 42.1349 59.2091 41.7623 59.3166C41.0217 59.5291 40.0594 59.7691 39.088 60.0137C38.1189 60.2583 37.1497 60.5074 36.3452 60.7726C35.9726 60.8888 35.6083 61.03 35.2549 61.1954C34.928 61.3554 34.6012 61.4514 34.2857 62.0046C33.9749 62.5509 34.0434 62.8846 34.0663 63.2503C34.0892 63.616 34.1532 64.0046 34.2377 64.4274C34.4046 65.2777 34.6674 66.2674 34.9326 67.2549C35.2 68.24 35.4674 69.2206 35.648 69.9909C35.7394 70.3749 35.808 70.7063 35.84 70.9371C35.8492 71.0126 35.8446 71.056 35.8446 71.1063C35.8217 71.1497 35.8057 71.184 35.7623 71.2366C35.5627 71.4792 35.353 71.7133 35.1337 71.9383C34.5989 72.4937 33.8834 73.1794 33.1657 73.8743C32.448 74.5714 31.7303 75.2754 31.1657 75.9063C30.9015 76.1925 30.6571 76.4964 30.4343 76.816C30.2286 77.1177 29.9977 77.3737 30 78.0091C30.0023 78.6377 30.2286 78.8869 30.4343 79.1909C30.6354 79.4971 30.8846 79.8034 31.1703 80.128C31.7394 80.7794 32.4594 81.5063 33.1817 82.2286C33.9063 82.9486 34.6332 83.6617 35.1749 84.2377C35.4446 84.5234 35.6686 84.7794 35.8126 84.9646C35.8583 85.024 35.8766 85.0629 35.9017 85.1063C35.9017 85.1566 35.9086 85.1954 35.8972 85.264C35.8445 85.5729 35.779 85.8795 35.7006 86.1829C35.5154 86.9303 35.2366 87.8857 34.9646 88.848C34.6903 89.8103 34.4252 90.7771 34.2492 91.6069C34.1634 91.9863 34.1039 92.3712 34.0709 92.7589C34.048 93.12 33.9703 93.4537 34.2903 94.0046C34.6057 94.5463 34.9303 94.6537 35.2594 94.816C35.5886 94.9806 35.952 95.12 36.3612 95.2594C37.1794 95.5383 38.1669 95.808 39.1566 96.0709C40.144 96.3337 41.1269 96.5897 41.8834 96.816C42.2629 96.9303 42.5874 97.0377 42.8046 97.1246C42.8732 97.152 42.9074 97.1794 42.9509 97.2046C42.9737 97.2457 42.9966 97.2754 43.0217 97.3394C43.104 97.5497 43.2046 97.8651 43.312 98.2377C43.5269 98.9783 43.7646 99.9406 44.0092 100.912C44.2537 101.881 44.5052 102.855 44.768 103.662C44.9006 104.064 45.0332 104.425 45.1909 104.75C45.3509 105.077 45.4514 105.403 46.0046 105.719C46.5509 106.03 46.8846 105.954 47.2503 105.934C47.616 105.911 48 105.849 48.4251 105.767C49.2709 105.598 50.2629 105.337 51.2503 105.072C52.2377 104.805 53.216 104.533 53.9863 104.352C54.3703 104.263 54.7063 104.197 54.9371 104.165C55.0149 104.155 55.0629 104.16 55.1154 104.16C55.1566 104.183 55.1886 104.197 55.2366 104.238C55.4126 104.379 55.6549 104.603 55.9337 104.871C56.4891 105.406 57.1771 106.119 57.8766 106.837C58.5714 107.552 59.2754 108.27 59.9063 108.834C60.2217 109.118 60.5166 109.365 60.816 109.566C61.1177 109.771 61.3646 110 62 110C62.0015 110 62.003 110 62.0046 110C62.6331 110 62.8869 109.771 63.1931 109.566C63.4971 109.365 63.7989 109.12 64.1257 108.834C64.7749 108.263 65.5063 107.541 66.2286 106.816C66.9486 106.094 67.6617 105.371 68.2377 104.83C68.5234 104.56 68.7794 104.336 68.9646 104.192C69.024 104.146 69.0651 104.123 69.1109 104.098C69.1589 104.098 69.1931 104.094 69.2594 104.107C69.4811 104.142 69.8034 104.21 70.1783 104.304C70.9257 104.487 71.8857 104.761 72.848 105.035C73.8103 105.31 74.7726 105.579 75.6023 105.755C76.0183 105.842 76.3977 105.904 76.7589 105.929C77.12 105.952 77.4537 106.037 78.0046 105.714C78.5463 105.399 78.6491 105.074 78.8114 104.745C78.976 104.416 79.12 104.048 79.2594 103.639C79.5383 102.818 79.8034 101.833 80.0663 100.843C80.3291 99.856 80.5897 98.8709 80.816 98.1166C80.9303 97.7371 81.0377 97.4171 81.1246 97.2023C81.152 97.1314 81.1748 97.0949 81.2 97.0491C81.2434 97.0263 81.2731 97.0034 81.3371 96.9783C81.5497 96.896 81.8674 96.7954 82.2377 96.688C82.9783 96.4754 83.9406 96.2354 84.912 95.9909C85.8811 95.7463 86.8503 95.4949 87.6548 95.232C88.0594 95.0994 88.4206 94.9669 88.7451 94.8091C89.072 94.6491 89.3988 94.5486 89.7143 93.9954C90.0251 93.4491 89.9566 93.12 89.9337 92.7543C89.9108 92.3886 89.8468 92 89.7623 91.5749C89.5608 90.626 89.3291 89.6838 89.0674 88.7497C88.8 87.7623 88.5326 86.784 88.352 86.0137C88.2752 85.701 88.2111 85.3853 88.16 85.0674C88.1508 84.9943 88.1554 84.9486 88.1554 84.8983C88.1783 84.8549 88.1943 84.8229 88.2377 84.768C88.4373 84.5254 88.647 84.2913 88.8663 84.0663C89.4011 83.5109 90.1166 82.8229 90.8343 82.1234C91.552 81.4286 92.2697 80.7246 92.8343 80.0937C93.1177 79.7783 93.3646 79.4834 93.5657 79.184C93.7714 78.8823 94.0023 78.6309 94 77.9954C93.9977 77.3669 93.7714 77.1177 93.5657 76.8114C93.3414 76.4831 93.0955 76.17 92.8297 75.8743C92.2606 75.2251 91.5406 74.4983 90.8183 73.776C90.0937 73.056 89.3668 72.3383 88.8251 71.7646C88.6028 71.5318 88.39 71.2901 88.1874 71.04C88.1417 70.9806 88.1234 70.9417 88.0983 70.8983C88.0983 70.848 88.0914 70.8091 88.1028 70.7406C88.1371 70.5166 88.2057 70.1966 88.2994 69.8217C88.4846 69.0743 88.7634 68.1189 89.0354 67.1566C89.3097 66.1943 89.5748 65.2274 89.7508 64.3977C89.8365 64.0167 89.8961 63.6303 89.9291 63.2411C89.952 62.88 90.0297 62.5463 89.7097 61.9954C89.3943 61.4537 89.0697 61.3509 88.7406 61.1886C88.3837 61.0161 88.0156 60.868 87.6388 60.7451C86.8206 60.4663 85.8331 60.1966 84.8434 59.9337C83.856 59.6709 82.8731 59.4149 82.1166 59.1886C81.8056 59.0977 81.4983 58.9948 81.1954 58.88C81.1268 58.8503 81.0903 58.8251 81.0446 58.8C81.0217 58.7589 81.0011 58.7314 80.976 58.6697C80.8676 58.3744 80.7715 58.0747 80.688 57.7714C80.4731 57.0309 80.2354 56.064 79.9908 55.0949C79.7679 54.171 79.5148 53.2547 79.232 52.3474C79.116 51.9755 78.9747 51.612 78.8091 51.2594C78.6491 50.9326 78.5486 50.6057 77.9954 50.2903C77.4491 49.9794 77.1154 50.0503 76.7497 50.0709C76.384 50.0937 76 50.1554 75.5748 50.2377C74.7291 50.4069 73.7371 50.6674 72.7497 50.9326C71.7623 51.2 70.784 51.472 70.0137 51.6526C69.6995 51.7282 69.3823 51.7907 69.0629 51.84C68.9851 51.8491 68.9417 51.8491 68.8891 51.8491C68.848 51.824 68.8137 51.8103 68.7634 51.7669C68.5226 51.5669 68.29 51.3572 68.0663 51.1383C67.5109 50.6034 66.8229 49.8857 66.1234 49.1703C65.4687 48.4833 64.7917 47.8178 64.0937 47.1749C63.8073 46.9108 63.5034 46.6664 63.184 46.4434C62.8823 46.2377 62.6354 46.0046 62 46.0046C61.9985 46.0046 61.997 46.0046 61.9954 46.0046V46ZM61.9909 48.4C62.1417 48.512 62.3314 48.6583 62.5669 48.8709C63.1109 49.3577 63.7966 50.0503 64.4869 50.7589C65.1771 51.4674 65.872 52.1943 66.4823 52.7817C66.7863 53.0743 67.0651 53.3326 67.3349 53.5497C67.6046 53.7646 67.792 53.9566 68.2857 54.0891C68.7749 54.2194 69.0377 54.1509 69.3829 54.112C69.7303 54.0617 70.1143 53.9794 70.5349 53.8789C71.376 53.6823 72.368 53.4103 73.344 53.1474C74.32 52.8846 75.2823 52.6286 76.0183 52.4823C76.3451 52.4183 76.6011 52.384 76.7954 52.368C76.8708 52.5349 76.96 52.7566 77.0583 53.0583C77.2868 53.7509 77.5291 54.6971 77.7714 55.6571C78.0137 56.6171 78.256 57.5931 78.4914 58.4069C78.608 58.8137 78.7223 59.1771 78.848 59.4994C78.9737 59.8217 79.04 60.08 79.4011 60.4411C79.76 60.8 80.0183 60.8754 80.3428 61.0034C80.6697 61.1337 81.0423 61.2549 81.456 61.3806C82.2834 61.6297 83.2777 61.888 84.2537 62.1463C85.232 62.4069 86.192 62.672 86.9028 62.9143C87.216 63.0217 87.4514 63.12 87.6297 63.2C87.6048 63.4457 87.5667 63.6899 87.5154 63.9314C87.3156 64.8069 87.0885 65.6759 86.8343 66.5371C86.5646 67.488 86.2857 68.4571 86.08 69.2777C85.9794 69.6891 85.8971 70.0594 85.8446 70.4023C85.792 70.7451 85.7211 71.0011 85.8537 71.4949C85.984 71.984 86.1737 72.1806 86.3886 72.4549C86.6057 72.7314 86.864 73.0194 87.1611 73.3349C87.7531 73.9634 88.4846 74.6834 89.2 75.3966C89.9177 76.112 90.6171 76.8251 91.1108 77.3874C91.3303 77.6389 91.4857 77.84 91.5977 78C91.4903 78.1509 91.3463 78.3429 91.1337 78.576C90.6468 79.1177 89.9543 79.8011 89.2457 80.4914C88.5371 81.1817 87.8057 81.8766 87.2183 82.4869C86.9496 82.761 86.6933 83.047 86.4503 83.344C86.2354 83.6137 86.0434 83.8011 85.9108 84.2949C85.7806 84.784 85.8468 85.0446 85.8971 85.392C85.9474 85.7394 86.0274 86.1189 86.1257 86.5394C86.3223 87.3806 86.5988 88.3726 86.8617 89.3486C87.1246 90.3246 87.376 91.2914 87.5223 92.0274C87.5863 92.352 87.6206 92.6057 87.6366 92.8C87.4697 92.8777 87.248 92.9691 86.9463 93.0674C86.2537 93.2937 85.312 93.5383 84.352 93.7806C83.392 94.0229 82.416 94.2606 81.6023 94.496C81.2329 94.5983 80.8683 94.7172 80.5097 94.8526C80.1874 94.9783 79.9246 95.0446 79.5634 95.4057C79.2046 95.7646 79.136 96.0274 79.0034 96.352C78.8607 96.7158 78.7341 97.0856 78.624 97.4606C78.3748 98.2857 78.1166 99.2823 77.8583 100.258C77.5977 101.237 77.3348 102.201 77.0948 102.91C76.9874 103.227 76.8868 103.461 76.8046 103.639C76.6194 103.616 76.384 103.589 76.0754 103.522C75.2001 103.323 74.3311 103.096 73.4697 102.843C72.5166 102.574 71.5543 102.295 70.7314 102.089C70.3587 101.994 69.9819 101.916 69.6023 101.854C69.2594 101.801 69.0034 101.726 68.5097 101.854C68.0206 101.984 67.8286 102.176 67.5543 102.393C67.2484 102.638 66.9533 102.896 66.6697 103.166C66.0411 103.755 65.3211 104.489 64.608 105.205C63.8926 105.922 63.184 106.622 62.6194 107.115C62.368 107.335 62.1623 107.49 62.0046 107.602C61.8061 107.456 61.6154 107.3 61.4331 107.134C60.7735 106.525 60.1332 105.895 59.5131 105.246C58.8229 104.537 58.128 103.81 57.5177 103.223C57.2451 102.954 56.9606 102.698 56.6651 102.455C56.3954 102.24 56.208 102.043 55.7143 101.911C55.2251 101.781 54.9623 101.851 54.6171 101.911C54.2697 101.961 53.8857 102.039 53.4651 102.139C52.624 102.336 51.632 102.608 50.656 102.871C49.68 103.134 48.7177 103.385 47.9817 103.531C47.7248 103.584 47.4654 103.625 47.2046 103.653C47.1046 103.427 47.0169 103.195 46.9417 102.96C46.7131 102.267 46.4709 101.326 46.2286 100.366C45.9863 99.4057 45.744 98.4297 45.5086 97.616C45.4061 97.2467 45.2871 96.8821 45.152 96.5234C45.0263 96.2011 44.96 95.9429 44.5989 95.5794C44.24 95.2229 43.9817 95.1497 43.6572 95.0171C43.2916 94.8764 42.9202 94.7513 42.544 94.6423C41.7166 94.3931 40.7223 94.1349 39.7463 93.8743C38.768 93.6137 37.808 93.3486 37.0972 93.1063C36.85 93.0238 36.6074 92.9285 36.3703 92.8206C36.3886 92.6377 36.4206 92.3977 36.4846 92.0891C36.6354 91.376 36.896 90.4389 37.1657 89.4857C37.4354 88.5349 37.7143 87.5657 37.92 86.7451C38.0206 86.3337 38.1029 85.9611 38.1554 85.6206C38.208 85.2777 38.2789 85.0217 38.1463 84.5257C38.016 84.0366 37.8263 83.8423 37.6114 83.5657C37.3668 83.2621 37.109 82.9692 36.8389 82.688C36.2469 82.0571 35.5154 81.3394 34.8 80.624C34.0823 79.9109 33.3829 79.1977 32.8892 78.6354C32.7159 78.4402 32.5534 78.2357 32.4023 78.0229C32.5097 77.872 32.6537 77.68 32.8663 77.4469C33.3532 76.9029 34.0457 76.2217 34.7543 75.5314C35.4629 74.8411 36.1943 74.1463 36.7817 73.536C37.0743 73.2297 37.3326 72.9486 37.5497 72.6789C37.7646 72.4091 37.9566 72.2217 38.0892 71.728C38.2194 71.2389 38.1532 70.976 38.1029 70.6309C38.0435 70.2445 37.9673 69.8608 37.8743 69.4811C37.6777 68.6423 37.4012 67.6526 37.1383 66.6743C36.8907 65.7883 36.6704 64.8949 36.4777 63.9954C36.4258 63.7401 36.3877 63.4822 36.3634 63.2229C36.5303 63.1451 36.752 63.0537 37.0537 62.9554C37.7463 62.7291 38.688 62.4823 39.648 62.24C40.608 62 41.584 61.76 42.3977 61.5269C42.7671 61.4246 43.1317 61.3056 43.4903 61.1703C43.8126 61.0446 44.0754 60.9783 44.4366 60.6171C44.7954 60.2583 44.864 59.9954 44.9966 59.6686C45.1269 59.344 45.2503 58.976 45.376 58.5623C45.6252 57.7349 45.8834 56.7406 46.1417 55.7623C46.4023 54.7863 46.6651 53.8194 46.9051 53.1109C47.0126 52.7954 47.1131 52.5623 47.1954 52.384C47.3806 52.4069 47.616 52.4343 47.9246 52.4983C48.6377 52.6514 49.5794 52.9097 50.5303 53.1794C51.4834 53.4491 52.4457 53.728 53.2686 53.9337C53.68 54.0343 54.0549 54.1166 54.3977 54.1691C54.7406 54.2217 54.9966 54.2971 55.4903 54.1691C55.9794 54.0389 56.1714 53.8469 56.4457 53.6297C56.7516 53.3851 57.0467 53.1273 57.3303 52.8571C57.9589 52.2651 58.6789 51.5314 59.392 50.816C60.1074 50.1006 60.816 49.3989 61.3806 48.9051C61.6297 48.6857 61.8309 48.5303 61.9909 48.4206V48.4ZM62.448 58.7086C57.6923 58.6008 53.0643 60.2532 49.4524 63.3488C45.8404 66.4444 43.4991 70.7649 42.8777 75.4811C42.2967 79.906 43.2666 84.3955 45.6223 88.186C47.978 91.9765 51.5741 94.8338 55.7989 96.272C60.0255 97.7041 64.6178 97.6275 68.7943 96.0551C72.9708 94.4828 76.4734 91.5119 78.7063 87.648C78.7825 87.518 78.8323 87.3742 78.8527 87.2248C78.8731 87.0755 78.8638 86.9236 78.8252 86.7779C78.7867 86.6322 78.7198 86.4955 78.6282 86.3758C78.5366 86.2561 78.4223 86.1556 78.2918 86.0803C78.1613 86.0049 78.0171 85.9561 77.8677 85.9367C77.7182 85.9173 77.5664 85.9276 77.4209 85.9671C77.2755 86.0066 77.1393 86.0744 77.0201 86.1668C76.901 86.2591 76.8013 86.3741 76.7268 86.5051C74.7608 89.9143 71.6728 92.5357 67.9896 93.9221C64.3065 95.3085 60.2564 95.374 56.5303 94.1074C52.8033 92.8438 49.6304 90.326 47.5528 86.9838C45.4753 83.6415 44.6219 79.6819 45.1383 75.7806C45.6502 71.8791 47.4999 68.2761 50.3719 65.5862C53.2439 62.8964 56.9602 61.2863 60.8869 61.0309C64.8142 60.7714 68.71 61.8828 71.9093 64.1754C75.1086 66.4681 77.4131 69.7999 78.4297 73.6023C78.4618 73.7544 78.5245 73.8984 78.6141 74.0254C78.7037 74.1524 78.8183 74.2598 78.9508 74.341C79.0833 74.4223 79.2311 74.4756 79.3849 74.4978C79.5388 74.52 79.6955 74.5105 79.8456 74.47C79.9957 74.4296 80.1359 74.3589 80.2578 74.2624C80.3796 74.1658 80.4805 74.0454 80.5542 73.9086C80.6279 73.7717 80.6729 73.6213 80.6865 73.4664C80.7001 73.3116 80.6819 73.1556 80.6331 73.008C79.5515 68.9808 77.1954 65.4118 73.9171 62.8348C70.6388 60.2577 66.6145 58.811 62.4457 58.7109L62.448 58.7086ZM73.4057 71.6571V71.6617C73.1871 71.6527 72.9705 71.7067 72.7817 71.8171L55.5634 81.6457L51.6297 74.9097C51.557 74.7746 51.4578 74.6555 51.3381 74.5596C51.2184 74.4636 51.0806 74.3927 50.9329 74.3512C50.7852 74.3096 50.6306 74.2982 50.4784 74.3177C50.3262 74.3371 50.1795 74.387 50.047 74.4644C49.9145 74.5418 49.7989 74.6451 49.7072 74.7681C49.6155 74.8911 49.5495 75.0313 49.5131 75.1803C49.4767 75.3294 49.4707 75.4843 49.4955 75.6357C49.5202 75.7871 49.5752 75.932 49.6572 76.0617L54.16 83.776C54.3119 84.0362 54.5604 84.226 54.8515 84.3039C55.1426 84.3818 55.4527 84.3416 55.7143 84.192L73.9154 73.7989C74.1337 73.6779 74.3064 73.4889 74.4072 73.2606C74.5079 73.0323 74.5312 72.7773 74.4734 72.5345C74.4156 72.2918 74.28 72.0746 74.0872 71.9162C73.8944 71.7577 73.6551 71.6668 73.4057 71.6571ZM79.8491 80.6034C79.7176 80.6085 79.5919 80.6588 79.4932 80.7458C79.3945 80.8329 79.3289 80.9513 79.3074 81.0811C79.1833 81.7746 79.0177 82.4601 78.8114 83.1337C78.7897 83.2056 78.7823 83.2811 78.7897 83.3558C78.7971 83.4306 78.8191 83.5031 78.8546 83.5693C78.89 83.6356 78.9382 83.6941 78.9963 83.7418C79.0543 83.7894 79.1212 83.8251 79.1931 83.8469C79.265 83.8686 79.3405 83.876 79.4152 83.8686C79.49 83.8612 79.5625 83.8391 79.6288 83.8037C79.695 83.7682 79.7536 83.7201 79.8012 83.662C79.8488 83.6039 79.8845 83.537 79.9063 83.4651C80.1257 82.7474 80.3017 82.0206 80.432 81.2823C80.4482 81.1978 80.4452 81.1108 80.4231 81.0277C80.401 80.9445 80.3604 80.8675 80.3044 80.8022C80.2483 80.7369 80.1783 80.6852 80.0995 80.6508C80.0207 80.6163 79.9351 80.6002 79.8491 80.6034Z"/>
</mask>
<path d="M61.9954 46C61.3669 46 61.1131 46.2354 60.8069 46.4366C60.4802 46.6596 60.1687 46.9039 59.8743 47.168C59.2251 47.7394 58.4937 48.464 57.7714 49.1886C57.0514 49.9109 56.3383 50.6331 55.7623 51.1749C55.5289 51.3974 55.2864 51.6101 55.0354 51.8126C54.976 51.8583 54.9349 51.8766 54.8891 51.9017C54.8411 51.9017 54.8069 51.9063 54.7406 51.8926C54.4316 51.8403 54.125 51.7747 53.8217 51.696C53.0743 51.5131 52.1143 51.232 51.152 50.96C50.2419 50.6916 49.3234 50.453 48.3977 50.2446C48.0166 50.1604 47.6302 50.1024 47.2411 50.0709C46.88 50.048 46.5463 49.968 45.9954 50.2903C45.4537 50.6057 45.3509 50.9303 45.1886 51.2594C45.0149 51.6163 44.8652 51.9843 44.7406 52.3611C44.4617 53.1817 44.1966 54.1737 43.9337 55.1611C43.6709 56.1486 43.4103 57.1314 43.184 57.888C43.0937 58.1968 42.9907 58.5019 42.8754 58.8023C42.8457 58.8754 42.8206 58.9097 42.7954 58.9554C42.752 58.9783 42.7246 59.0011 42.6606 59.0263C42.4503 59.1086 42.1349 59.2091 41.7623 59.3166C41.0217 59.5291 40.0594 59.7691 39.088 60.0137C38.1189 60.2583 37.1497 60.5074 36.3452 60.7726C35.9726 60.8888 35.6083 61.03 35.2549 61.1954C34.928 61.3554 34.6012 61.4514 34.2857 62.0046C33.9749 62.5509 34.0434 62.8846 34.0663 63.2503C34.0892 63.616 34.1532 64.0046 34.2377 64.4274C34.4046 65.2777 34.6674 66.2674 34.9326 67.2549C35.2 68.24 35.4674 69.2206 35.648 69.9909C35.7394 70.3749 35.808 70.7063 35.84 70.9371C35.8492 71.0126 35.8446 71.056 35.8446 71.1063C35.8217 71.1497 35.8057 71.184 35.7623 71.2366C35.5627 71.4792 35.353 71.7133 35.1337 71.9383C34.5989 72.4937 33.8834 73.1794 33.1657 73.8743C32.448 74.5714 31.7303 75.2754 31.1657 75.9063C30.9015 76.1925 30.6571 76.4964 30.4343 76.816C30.2286 77.1177 29.9977 77.3737 30 78.0091C30.0023 78.6377 30.2286 78.8869 30.4343 79.1909C30.6354 79.4971 30.8846 79.8034 31.1703 80.128C31.7394 80.7794 32.4594 81.5063 33.1817 82.2286C33.9063 82.9486 34.6332 83.6617 35.1749 84.2377C35.4446 84.5234 35.6686 84.7794 35.8126 84.9646C35.8583 85.024 35.8766 85.0629 35.9017 85.1063C35.9017 85.1566 35.9086 85.1954 35.8972 85.264C35.8445 85.5729 35.779 85.8795 35.7006 86.1829C35.5154 86.9303 35.2366 87.8857 34.9646 88.848C34.6903 89.8103 34.4252 90.7771 34.2492 91.6069C34.1634 91.9863 34.1039 92.3712 34.0709 92.7589C34.048 93.12 33.9703 93.4537 34.2903 94.0046C34.6057 94.5463 34.9303 94.6537 35.2594 94.816C35.5886 94.9806 35.952 95.12 36.3612 95.2594C37.1794 95.5383 38.1669 95.808 39.1566 96.0709C40.144 96.3337 41.1269 96.5897 41.8834 96.816C42.2629 96.9303 42.5874 97.0377 42.8046 97.1246C42.8732 97.152 42.9074 97.1794 42.9509 97.2046C42.9737 97.2457 42.9966 97.2754 43.0217 97.3394C43.104 97.5497 43.2046 97.8651 43.312 98.2377C43.5269 98.9783 43.7646 99.9406 44.0092 100.912C44.2537 101.881 44.5052 102.855 44.768 103.662C44.9006 104.064 45.0332 104.425 45.1909 104.75C45.3509 105.077 45.4514 105.403 46.0046 105.719C46.5509 106.03 46.8846 105.954 47.2503 105.934C47.616 105.911 48 105.849 48.4251 105.767C49.2709 105.598 50.2629 105.337 51.2503 105.072C52.2377 104.805 53.216 104.533 53.9863 104.352C54.3703 104.263 54.7063 104.197 54.9371 104.165C55.0149 104.155 55.0629 104.16 55.1154 104.16C55.1566 104.183 55.1886 104.197 55.2366 104.238C55.4126 104.379 55.6549 104.603 55.9337 104.871C56.4891 105.406 57.1771 106.119 57.8766 106.837C58.5714 107.552 59.2754 108.27 59.9063 108.834C60.2217 109.118 60.5166 109.365 60.816 109.566C61.1177 109.771 61.3646 110 62 110C62.0015 110 62.003 110 62.0046 110C62.6331 110 62.8869 109.771 63.1931 109.566C63.4971 109.365 63.7989 109.12 64.1257 108.834C64.7749 108.263 65.5063 107.541 66.2286 106.816C66.9486 106.094 67.6617 105.371 68.2377 104.83C68.5234 104.56 68.7794 104.336 68.9646 104.192C69.024 104.146 69.0651 104.123 69.1109 104.098C69.1589 104.098 69.1931 104.094 69.2594 104.107C69.4811 104.142 69.8034 104.21 70.1783 104.304C70.9257 104.487 71.8857 104.761 72.848 105.035C73.8103 105.31 74.7726 105.579 75.6023 105.755C76.0183 105.842 76.3977 105.904 76.7589 105.929C77.12 105.952 77.4537 106.037 78.0046 105.714C78.5463 105.399 78.6491 105.074 78.8114 104.745C78.976 104.416 79.12 104.048 79.2594 103.639C79.5383 102.818 79.8034 101.833 80.0663 100.843C80.3291 99.856 80.5897 98.8709 80.816 98.1166C80.9303 97.7371 81.0377 97.4171 81.1246 97.2023C81.152 97.1314 81.1748 97.0949 81.2 97.0491C81.2434 97.0263 81.2731 97.0034 81.3371 96.9783C81.5497 96.896 81.8674 96.7954 82.2377 96.688C82.9783 96.4754 83.9406 96.2354 84.912 95.9909C85.8811 95.7463 86.8503 95.4949 87.6548 95.232C88.0594 95.0994 88.4206 94.9669 88.7451 94.8091C89.072 94.6491 89.3988 94.5486 89.7143 93.9954C90.0251 93.4491 89.9566 93.12 89.9337 92.7543C89.9108 92.3886 89.8468 92 89.7623 91.5749C89.5608 90.626 89.3291 89.6838 89.0674 88.7497C88.8 87.7623 88.5326 86.784 88.352 86.0137C88.2752 85.701 88.2111 85.3853 88.16 85.0674C88.1508 84.9943 88.1554 84.9486 88.1554 84.8983C88.1783 84.8549 88.1943 84.8229 88.2377 84.768C88.4373 84.5254 88.647 84.2913 88.8663 84.0663C89.4011 83.5109 90.1166 82.8229 90.8343 82.1234C91.552 81.4286 92.2697 80.7246 92.8343 80.0937C93.1177 79.7783 93.3646 79.4834 93.5657 79.184C93.7714 78.8823 94.0023 78.6309 94 77.9954C93.9977 77.3669 93.7714 77.1177 93.5657 76.8114C93.3414 76.4831 93.0955 76.17 92.8297 75.8743C92.2606 75.2251 91.5406 74.4983 90.8183 73.776C90.0937 73.056 89.3668 72.3383 88.8251 71.7646C88.6028 71.5318 88.39 71.2901 88.1874 71.04C88.1417 70.9806 88.1234 70.9417 88.0983 70.8983C88.0983 70.848 88.0914 70.8091 88.1028 70.7406C88.1371 70.5166 88.2057 70.1966 88.2994 69.8217C88.4846 69.0743 88.7634 68.1189 89.0354 67.1566C89.3097 66.1943 89.5748 65.2274 89.7508 64.3977C89.8365 64.0167 89.8961 63.6303 89.9291 63.2411C89.952 62.88 90.0297 62.5463 89.7097 61.9954C89.3943 61.4537 89.0697 61.3509 88.7406 61.1886C88.3837 61.0161 88.0156 60.868 87.6388 60.7451C86.8206 60.4663 85.8331 60.1966 84.8434 59.9337C83.856 59.6709 82.8731 59.4149 82.1166 59.1886C81.8056 59.0977 81.4983 58.9948 81.1954 58.88C81.1268 58.8503 81.0903 58.8251 81.0446 58.8C81.0217 58.7589 81.0011 58.7314 80.976 58.6697C80.8676 58.3744 80.7715 58.0747 80.688 57.7714C80.4731 57.0309 80.2354 56.064 79.9908 55.0949C79.7679 54.171 79.5148 53.2547 79.232 52.3474C79.116 51.9755 78.9747 51.612 78.8091 51.2594C78.6491 50.9326 78.5486 50.6057 77.9954 50.2903C77.4491 49.9794 77.1154 50.0503 76.7497 50.0709C76.384 50.0937 76 50.1554 75.5748 50.2377C74.7291 50.4069 73.7371 50.6674 72.7497 50.9326C71.7623 51.2 70.784 51.472 70.0137 51.6526C69.6995 51.7282 69.3823 51.7907 69.0629 51.84C68.9851 51.8491 68.9417 51.8491 68.8891 51.8491C68.848 51.824 68.8137 51.8103 68.7634 51.7669C68.5226 51.5669 68.29 51.3572 68.0663 51.1383C67.5109 50.6034 66.8229 49.8857 66.1234 49.1703C65.4687 48.4833 64.7917 47.8178 64.0937 47.1749C63.8073 46.9108 63.5034 46.6664 63.184 46.4434C62.8823 46.2377 62.6354 46.0046 62 46.0046C61.9985 46.0046 61.997 46.0046 61.9954 46.0046V46ZM61.9909 48.4C62.1417 48.512 62.3314 48.6583 62.5669 48.8709C63.1109 49.3577 63.7966 50.0503 64.4869 50.7589C65.1771 51.4674 65.872 52.1943 66.4823 52.7817C66.7863 53.0743 67.0651 53.3326 67.3349 53.5497C67.6046 53.7646 67.792 53.9566 68.2857 54.0891C68.7749 54.2194 69.0377 54.1509 69.3829 54.112C69.7303 54.0617 70.1143 53.9794 70.5349 53.8789C71.376 53.6823 72.368 53.4103 73.344 53.1474C74.32 52.8846 75.2823 52.6286 76.0183 52.4823C76.3451 52.4183 76.6011 52.384 76.7954 52.368C76.8708 52.5349 76.96 52.7566 77.0583 53.0583C77.2868 53.7509 77.5291 54.6971 77.7714 55.6571C78.0137 56.6171 78.256 57.5931 78.4914 58.4069C78.608 58.8137 78.7223 59.1771 78.848 59.4994C78.9737 59.8217 79.04 60.08 79.4011 60.4411C79.76 60.8 80.0183 60.8754 80.3428 61.0034C80.6697 61.1337 81.0423 61.2549 81.456 61.3806C82.2834 61.6297 83.2777 61.888 84.2537 62.1463C85.232 62.4069 86.192 62.672 86.9028 62.9143C87.216 63.0217 87.4514 63.12 87.6297 63.2C87.6048 63.4457 87.5667 63.6899 87.5154 63.9314C87.3156 64.8069 87.0885 65.6759 86.8343 66.5371C86.5646 67.488 86.2857 68.4571 86.08 69.2777C85.9794 69.6891 85.8971 70.0594 85.8446 70.4023C85.792 70.7451 85.7211 71.0011 85.8537 71.4949C85.984 71.984 86.1737 72.1806 86.3886 72.4549C86.6057 72.7314 86.864 73.0194 87.1611 73.3349C87.7531 73.9634 88.4846 74.6834 89.2 75.3966C89.9177 76.112 90.6171 76.8251 91.1108 77.3874C91.3303 77.6389 91.4857 77.84 91.5977 78C91.4903 78.1509 91.3463 78.3429 91.1337 78.576C90.6468 79.1177 89.9543 79.8011 89.2457 80.4914C88.5371 81.1817 87.8057 81.8766 87.2183 82.4869C86.9496 82.761 86.6933 83.047 86.4503 83.344C86.2354 83.6137 86.0434 83.8011 85.9108 84.2949C85.7806 84.784 85.8468 85.0446 85.8971 85.392C85.9474 85.7394 86.0274 86.1189 86.1257 86.5394C86.3223 87.3806 86.5988 88.3726 86.8617 89.3486C87.1246 90.3246 87.376 91.2914 87.5223 92.0274C87.5863 92.352 87.6206 92.6057 87.6366 92.8C87.4697 92.8777 87.248 92.9691 86.9463 93.0674C86.2537 93.2937 85.312 93.5383 84.352 93.7806C83.392 94.0229 82.416 94.2606 81.6023 94.496C81.2329 94.5983 80.8683 94.7172 80.5097 94.8526C80.1874 94.9783 79.9246 95.0446 79.5634 95.4057C79.2046 95.7646 79.136 96.0274 79.0034 96.352C78.8607 96.7158 78.7341 97.0856 78.624 97.4606C78.3748 98.2857 78.1166 99.2823 77.8583 100.258C77.5977 101.237 77.3348 102.201 77.0948 102.91C76.9874 103.227 76.8868 103.461 76.8046 103.639C76.6194 103.616 76.384 103.589 76.0754 103.522C75.2001 103.323 74.3311 103.096 73.4697 102.843C72.5166 102.574 71.5543 102.295 70.7314 102.089C70.3587 101.994 69.9819 101.916 69.6023 101.854C69.2594 101.801 69.0034 101.726 68.5097 101.854C68.0206 101.984 67.8286 102.176 67.5543 102.393C67.2484 102.638 66.9533 102.896 66.6697 103.166C66.0411 103.755 65.3211 104.489 64.608 105.205C63.8926 105.922 63.184 106.622 62.6194 107.115C62.368 107.335 62.1623 107.49 62.0046 107.602C61.8061 107.456 61.6154 107.3 61.4331 107.134C60.7735 106.525 60.1332 105.895 59.5131 105.246C58.8229 104.537 58.128 103.81 57.5177 103.223C57.2451 102.954 56.9606 102.698 56.6651 102.455C56.3954 102.24 56.208 102.043 55.7143 101.911C55.2251 101.781 54.9623 101.851 54.6171 101.911C54.2697 101.961 53.8857 102.039 53.4651 102.139C52.624 102.336 51.632 102.608 50.656 102.871C49.68 103.134 48.7177 103.385 47.9817 103.531C47.7248 103.584 47.4654 103.625 47.2046 103.653C47.1046 103.427 47.0169 103.195 46.9417 102.96C46.7131 102.267 46.4709 101.326 46.2286 100.366C45.9863 99.4057 45.744 98.4297 45.5086 97.616C45.4061 97.2467 45.2871 96.8821 45.152 96.5234C45.0263 96.2011 44.96 95.9429 44.5989 95.5794C44.24 95.2229 43.9817 95.1497 43.6572 95.0171C43.2916 94.8764 42.9202 94.7513 42.544 94.6423C41.7166 94.3931 40.7223 94.1349 39.7463 93.8743C38.768 93.6137 37.808 93.3486 37.0972 93.1063C36.85 93.0238 36.6074 92.9285 36.3703 92.8206C36.3886 92.6377 36.4206 92.3977 36.4846 92.0891C36.6354 91.376 36.896 90.4389 37.1657 89.4857C37.4354 88.5349 37.7143 87.5657 37.92 86.7451C38.0206 86.3337 38.1029 85.9611 38.1554 85.6206C38.208 85.2777 38.2789 85.0217 38.1463 84.5257C38.016 84.0366 37.8263 83.8423 37.6114 83.5657C37.3668 83.2621 37.109 82.9692 36.8389 82.688C36.2469 82.0571 35.5154 81.3394 34.8 80.624C34.0823 79.9109 33.3829 79.1977 32.8892 78.6354C32.7159 78.4402 32.5534 78.2357 32.4023 78.0229C32.5097 77.872 32.6537 77.68 32.8663 77.4469C33.3532 76.9029 34.0457 76.2217 34.7543 75.5314C35.4629 74.8411 36.1943 74.1463 36.7817 73.536C37.0743 73.2297 37.3326 72.9486 37.5497 72.6789C37.7646 72.4091 37.9566 72.2217 38.0892 71.728C38.2194 71.2389 38.1532 70.976 38.1029 70.6309C38.0435 70.2445 37.9673 69.8608 37.8743 69.4811C37.6777 68.6423 37.4012 67.6526 37.1383 66.6743C36.8907 65.7883 36.6704 64.8949 36.4777 63.9954C36.4258 63.7401 36.3877 63.4822 36.3634 63.2229C36.5303 63.1451 36.752 63.0537 37.0537 62.9554C37.7463 62.7291 38.688 62.4823 39.648 62.24C40.608 62 41.584 61.76 42.3977 61.5269C42.7671 61.4246 43.1317 61.3056 43.4903 61.1703C43.8126 61.0446 44.0754 60.9783 44.4366 60.6171C44.7954 60.2583 44.864 59.9954 44.9966 59.6686C45.1269 59.344 45.2503 58.976 45.376 58.5623C45.6252 57.7349 45.8834 56.7406 46.1417 55.7623C46.4023 54.7863 46.6651 53.8194 46.9051 53.1109C47.0126 52.7954 47.1131 52.5623 47.1954 52.384C47.3806 52.4069 47.616 52.4343 47.9246 52.4983C48.6377 52.6514 49.5794 52.9097 50.5303 53.1794C51.4834 53.4491 52.4457 53.728 53.2686 53.9337C53.68 54.0343 54.0549 54.1166 54.3977 54.1691C54.7406 54.2217 54.9966 54.2971 55.4903 54.1691C55.9794 54.0389 56.1714 53.8469 56.4457 53.6297C56.7516 53.3851 57.0467 53.1273 57.3303 52.8571C57.9589 52.2651 58.6789 51.5314 59.392 50.816C60.1074 50.1006 60.816 49.3989 61.3806 48.9051C61.6297 48.6857 61.8309 48.5303 61.9909 48.4206V48.4ZM62.448 58.7086C57.6923 58.6008 53.0643 60.2532 49.4524 63.3488C45.8404 66.4444 43.4991 70.7649 42.8777 75.4811C42.2967 79.906 43.2666 84.3955 45.6223 88.186C47.978 91.9765 51.5741 94.8338 55.7989 96.272C60.0255 97.7041 64.6178 97.6275 68.7943 96.0551C72.9708 94.4828 76.4734 91.5119 78.7063 87.648C78.7825 87.518 78.8323 87.3742 78.8527 87.2248C78.8731 87.0755 78.8638 86.9236 78.8252 86.7779C78.7867 86.6322 78.7198 86.4955 78.6282 86.3758C78.5366 86.2561 78.4223 86.1556 78.2918 86.0803C78.1613 86.0049 78.0171 85.9561 77.8677 85.9367C77.7182 85.9173 77.5664 85.9276 77.4209 85.9671C77.2755 86.0066 77.1393 86.0744 77.0201 86.1668C76.901 86.2591 76.8013 86.3741 76.7268 86.5051C74.7608 89.9143 71.6728 92.5357 67.9896 93.9221C64.3065 95.3085 60.2564 95.374 56.5303 94.1074C52.8033 92.8438 49.6304 90.326 47.5528 86.9838C45.4753 83.6415 44.6219 79.6819 45.1383 75.7806C45.6502 71.8791 47.4999 68.2761 50.3719 65.5862C53.2439 62.8964 56.9602 61.2863 60.8869 61.0309C64.8142 60.7714 68.71 61.8828 71.9093 64.1754C75.1086 66.4681 77.4131 69.7999 78.4297 73.6023C78.4618 73.7544 78.5245 73.8984 78.6141 74.0254C78.7037 74.1524 78.8183 74.2598 78.9508 74.341C79.0833 74.4223 79.2311 74.4756 79.3849 74.4978C79.5388 74.52 79.6955 74.5105 79.8456 74.47C79.9957 74.4296 80.1359 74.3589 80.2578 74.2624C80.3796 74.1658 80.4805 74.0454 80.5542 73.9086C80.6279 73.7717 80.6729 73.6213 80.6865 73.4664C80.7001 73.3116 80.6819 73.1556 80.6331 73.008C79.5515 68.9808 77.1954 65.4118 73.9171 62.8348C70.6388 60.2577 66.6145 58.811 62.4457 58.7109L62.448 58.7086ZM73.4057 71.6571V71.6617C73.1871 71.6527 72.9705 71.7067 72.7817 71.8171L55.5634 81.6457L51.6297 74.9097C51.557 74.7746 51.4578 74.6555 51.3381 74.5596C51.2184 74.4636 51.0806 74.3927 50.9329 74.3512C50.7852 74.3096 50.6306 74.2982 50.4784 74.3177C50.3262 74.3371 50.1795 74.387 50.047 74.4644C49.9145 74.5418 49.7989 74.6451 49.7072 74.7681C49.6155 74.8911 49.5495 75.0313 49.5131 75.1803C49.4767 75.3294 49.4707 75.4843 49.4955 75.6357C49.5202 75.7871 49.5752 75.932 49.6572 76.0617L54.16 83.776C54.3119 84.0362 54.5604 84.226 54.8515 84.3039C55.1426 84.3818 55.4527 84.3416 55.7143 84.192L73.9154 73.7989C74.1337 73.6779 74.3064 73.4889 74.4072 73.2606C74.5079 73.0323 74.5312 72.7773 74.4734 72.5345C74.4156 72.2918 74.28 72.0746 74.0872 71.9162C73.8944 71.7577 73.6551 71.6668 73.4057 71.6571ZM79.8491 80.6034C79.7176 80.6085 79.5919 80.6588 79.4932 80.7458C79.3945 80.8329 79.3289 80.9513 79.3074 81.0811C79.1833 81.7746 79.0177 82.4601 78.8114 83.1337C78.7897 83.2056 78.7823 83.2811 78.7897 83.3558C78.7971 83.4306 78.8191 83.5031 78.8546 83.5693C78.89 83.6356 78.9382 83.6941 78.9963 83.7418C79.0543 83.7894 79.1212 83.8251 79.1931 83.8469C79.265 83.8686 79.3405 83.876 79.4152 83.8686C79.49 83.8612 79.5625 83.8391 79.6288 83.8037C79.695 83.7682 79.7536 83.7201 79.8012 83.662C79.8488 83.6039 79.8845 83.537 79.9063 83.4651C80.1257 82.7474 80.3017 82.0206 80.432 81.2823C80.4482 81.1978 80.4452 81.1108 80.4231 81.0277C80.401 80.9445 80.3604 80.8675 80.3044 80.8022C80.2483 80.7369 80.1783 80.6852 80.0995 80.6508C80.0207 80.6163 79.9351 80.6002 79.8491 80.6034Z" fill="white"/>
<path d="M61.9954 46C61.3669 46 61.1131 46.2354 60.8069 46.4366C60.4802 46.6596 60.1687 46.9039 59.8743 47.168C59.2251 47.7394 58.4937 48.464 57.7714 49.1886C57.0514 49.9109 56.3383 50.6331 55.7623 51.1749C55.5289 51.3974 55.2864 51.6101 55.0354 51.8126C54.976 51.8583 54.9349 51.8766 54.8891 51.9017C54.8411 51.9017 54.8069 51.9063 54.7406 51.8926C54.4316 51.8403 54.125 51.7747 53.8217 51.696C53.0743 51.5131 52.1143 51.232 51.152 50.96C50.2419 50.6916 49.3234 50.453 48.3977 50.2446C48.0166 50.1604 47.6302 50.1024 47.2411 50.0709C46.88 50.048 46.5463 49.968 45.9954 50.2903C45.4537 50.6057 45.3509 50.9303 45.1886 51.2594C45.0149 51.6163 44.8652 51.9843 44.7406 52.3611C44.4617 53.1817 44.1966 54.1737 43.9337 55.1611C43.6709 56.1486 43.4103 57.1314 43.184 57.888C43.0937 58.1968 42.9907 58.5019 42.8754 58.8023C42.8457 58.8754 42.8206 58.9097 42.7954 58.9554C42.752 58.9783 42.7246 59.0011 42.6606 59.0263C42.4503 59.1086 42.1349 59.2091 41.7623 59.3166C41.0217 59.5291 40.0594 59.7691 39.088 60.0137C38.1189 60.2583 37.1497 60.5074 36.3452 60.7726C35.9726 60.8888 35.6083 61.03 35.2549 61.1954C34.928 61.3554 34.6012 61.4514 34.2857 62.0046C33.9749 62.5509 34.0434 62.8846 34.0663 63.2503C34.0892 63.616 34.1532 64.0046 34.2377 64.4274C34.4046 65.2777 34.6674 66.2674 34.9326 67.2549C35.2 68.24 35.4674 69.2206 35.648 69.9909C35.7394 70.3749 35.808 70.7063 35.84 70.9371C35.8492 71.0126 35.8446 71.056 35.8446 71.1063C35.8217 71.1497 35.8057 71.184 35.7623 71.2366C35.5627 71.4792 35.353 71.7133 35.1337 71.9383C34.5989 72.4937 33.8834 73.1794 33.1657 73.8743C32.448 74.5714 31.7303 75.2754 31.1657 75.9063C30.9015 76.1925 30.6571 76.4964 30.4343 76.816C30.2286 77.1177 29.9977 77.3737 30 78.0091C30.0023 78.6377 30.2286 78.8869 30.4343 79.1909C30.6354 79.4971 30.8846 79.8034 31.1703 80.128C31.7394 80.7794 32.4594 81.5063 33.1817 82.2286C33.9063 82.9486 34.6332 83.6617 35.1749 84.2377C35.4446 84.5234 35.6686 84.7794 35.8126 84.9646C35.8583 85.024 35.8766 85.0629 35.9017 85.1063C35.9017 85.1566 35.9086 85.1954 35.8972 85.264C35.8445 85.5729 35.779 85.8795 35.7006 86.1829C35.5154 86.9303 35.2366 87.8857 34.9646 88.848C34.6903 89.8103 34.4252 90.7771 34.2492 91.6069C34.1634 91.9863 34.1039 92.3712 34.0709 92.7589C34.048 93.12 33.9703 93.4537 34.2903 94.0046C34.6057 94.5463 34.9303 94.6537 35.2594 94.816C35.5886 94.9806 35.952 95.12 36.3612 95.2594C37.1794 95.5383 38.1669 95.808 39.1566 96.0709C40.144 96.3337 41.1269 96.5897 41.8834 96.816C42.2629 96.9303 42.5874 97.0377 42.8046 97.1246C42.8732 97.152 42.9074 97.1794 42.9509 97.2046C42.9737 97.2457 42.9966 97.2754 43.0217 97.3394C43.104 97.5497 43.2046 97.8651 43.312 98.2377C43.5269 98.9783 43.7646 99.9406 44.0092 100.912C44.2537 101.881 44.5052 102.855 44.768 103.662C44.9006 104.064 45.0332 104.425 45.1909 104.75C45.3509 105.077 45.4514 105.403 46.0046 105.719C46.5509 106.03 46.8846 105.954 47.2503 105.934C47.616 105.911 48 105.849 48.4251 105.767C49.2709 105.598 50.2629 105.337 51.2503 105.072C52.2377 104.805 53.216 104.533 53.9863 104.352C54.3703 104.263 54.7063 104.197 54.9371 104.165C55.0149 104.155 55.0629 104.16 55.1154 104.16C55.1566 104.183 55.1886 104.197 55.2366 104.238C55.4126 104.379 55.6549 104.603 55.9337 104.871C56.4891 105.406 57.1771 106.119 57.8766 106.837C58.5714 107.552 59.2754 108.27 59.9063 108.834C60.2217 109.118 60.5166 109.365 60.816 109.566C61.1177 109.771 61.3646 110 62 110C62.0015 110 62.003 110 62.0046 110C62.6331 110 62.8869 109.771 63.1931 109.566C63.4971 109.365 63.7989 109.12 64.1257 108.834C64.7749 108.263 65.5063 107.541 66.2286 106.816C66.9486 106.094 67.6617 105.371 68.2377 104.83C68.5234 104.56 68.7794 104.336 68.9646 104.192C69.024 104.146 69.0651 104.123 69.1109 104.098C69.1589 104.098 69.1931 104.094 69.2594 104.107C69.4811 104.142 69.8034 104.21 70.1783 104.304C70.9257 104.487 71.8857 104.761 72.848 105.035C73.8103 105.31 74.7726 105.579 75.6023 105.755C76.0183 105.842 76.3977 105.904 76.7589 105.929C77.12 105.952 77.4537 106.037 78.0046 105.714C78.5463 105.399 78.6491 105.074 78.8114 104.745C78.976 104.416 79.12 104.048 79.2594 103.639C79.5383 102.818 79.8034 101.833 80.0663 100.843C80.3291 99.856 80.5897 98.8709 80.816 98.1166C80.9303 97.7371 81.0377 97.4171 81.1246 97.2023C81.152 97.1314 81.1748 97.0949 81.2 97.0491C81.2434 97.0263 81.2731 97.0034 81.3371 96.9783C81.5497 96.896 81.8674 96.7954 82.2377 96.688C82.9783 96.4754 83.9406 96.2354 84.912 95.9909C85.8811 95.7463 86.8503 95.4949 87.6548 95.232C88.0594 95.0994 88.4206 94.9669 88.7451 94.8091C89.072 94.6491 89.3988 94.5486 89.7143 93.9954C90.0251 93.4491 89.9566 93.12 89.9337 92.7543C89.9108 92.3886 89.8468 92 89.7623 91.5749C89.5608 90.626 89.3291 89.6838 89.0674 88.7497C88.8 87.7623 88.5326 86.784 88.352 86.0137C88.2752 85.701 88.2111 85.3853 88.16 85.0674C88.1508 84.9943 88.1554 84.9486 88.1554 84.8983C88.1783 84.8549 88.1943 84.8229 88.2377 84.768C88.4373 84.5254 88.647 84.2913 88.8663 84.0663C89.4011 83.5109 90.1166 82.8229 90.8343 82.1234C91.552 81.4286 92.2697 80.7246 92.8343 80.0937C93.1177 79.7783 93.3646 79.4834 93.5657 79.184C93.7714 78.8823 94.0023 78.6309 94 77.9954C93.9977 77.3669 93.7714 77.1177 93.5657 76.8114C93.3414 76.4831 93.0955 76.17 92.8297 75.8743C92.2606 75.2251 91.5406 74.4983 90.8183 73.776C90.0937 73.056 89.3668 72.3383 88.8251 71.7646C88.6028 71.5318 88.39 71.2901 88.1874 71.04C88.1417 70.9806 88.1234 70.9417 88.0983 70.8983C88.0983 70.848 88.0914 70.8091 88.1028 70.7406C88.1371 70.5166 88.2057 70.1966 88.2994 69.8217C88.4846 69.0743 88.7634 68.1189 89.0354 67.1566C89.3097 66.1943 89.5748 65.2274 89.7508 64.3977C89.8365 64.0167 89.8961 63.6303 89.9291 63.2411C89.952 62.88 90.0297 62.5463 89.7097 61.9954C89.3943 61.4537 89.0697 61.3509 88.7406 61.1886C88.3837 61.0161 88.0156 60.868 87.6388 60.7451C86.8206 60.4663 85.8331 60.1966 84.8434 59.9337C83.856 59.6709 82.8731 59.4149 82.1166 59.1886C81.8056 59.0977 81.4983 58.9948 81.1954 58.88C81.1268 58.8503 81.0903 58.8251 81.0446 58.8C81.0217 58.7589 81.0011 58.7314 80.976 58.6697C80.8676 58.3744 80.7715 58.0747 80.688 57.7714C80.4731 57.0309 80.2354 56.064 79.9908 55.0949C79.7679 54.171 79.5148 53.2547 79.232 52.3474C79.116 51.9755 78.9747 51.612 78.8091 51.2594C78.6491 50.9326 78.5486 50.6057 77.9954 50.2903C77.4491 49.9794 77.1154 50.0503 76.7497 50.0709C76.384 50.0937 76 50.1554 75.5748 50.2377C74.7291 50.4069 73.7371 50.6674 72.7497 50.9326C71.7623 51.2 70.784 51.472 70.0137 51.6526C69.6995 51.7282 69.3823 51.7907 69.0629 51.84C68.9851 51.8491 68.9417 51.8491 68.8891 51.8491C68.848 51.824 68.8137 51.8103 68.7634 51.7669C68.5226 51.5669 68.29 51.3572 68.0663 51.1383C67.5109 50.6034 66.8229 49.8857 66.1234 49.1703C65.4687 48.4833 64.7917 47.8178 64.0937 47.1749C63.8073 46.9108 63.5034 46.6664 63.184 46.4434C62.8823 46.2377 62.6354 46.0046 62 46.0046C61.9985 46.0046 61.997 46.0046 61.9954 46.0046V46ZM61.9909 48.4C62.1417 48.512 62.3314 48.6583 62.5669 48.8709C63.1109 49.3577 63.7966 50.0503 64.4869 50.7589C65.1771 51.4674 65.872 52.1943 66.4823 52.7817C66.7863 53.0743 67.0651 53.3326 67.3349 53.5497C67.6046 53.7646 67.792 53.9566 68.2857 54.0891C68.7749 54.2194 69.0377 54.1509 69.3829 54.112C69.7303 54.0617 70.1143 53.9794 70.5349 53.8789C71.376 53.6823 72.368 53.4103 73.344 53.1474C74.32 52.8846 75.2823 52.6286 76.0183 52.4823C76.3451 52.4183 76.6011 52.384 76.7954 52.368C76.8708 52.5349 76.96 52.7566 77.0583 53.0583C77.2868 53.7509 77.5291 54.6971 77.7714 55.6571C78.0137 56.6171 78.256 57.5931 78.4914 58.4069C78.608 58.8137 78.7223 59.1771 78.848 59.4994C78.9737 59.8217 79.04 60.08 79.4011 60.4411C79.76 60.8 80.0183 60.8754 80.3428 61.0034C80.6697 61.1337 81.0423 61.2549 81.456 61.3806C82.2834 61.6297 83.2777 61.888 84.2537 62.1463C85.232 62.4069 86.192 62.672 86.9028 62.9143C87.216 63.0217 87.4514 63.12 87.6297 63.2C87.6048 63.4457 87.5667 63.6899 87.5154 63.9314C87.3156 64.8069 87.0885 65.6759 86.8343 66.5371C86.5646 67.488 86.2857 68.4571 86.08 69.2777C85.9794 69.6891 85.8971 70.0594 85.8446 70.4023C85.792 70.7451 85.7211 71.0011 85.8537 71.4949C85.984 71.984 86.1737 72.1806 86.3886 72.4549C86.6057 72.7314 86.864 73.0194 87.1611 73.3349C87.7531 73.9634 88.4846 74.6834 89.2 75.3966C89.9177 76.112 90.6171 76.8251 91.1108 77.3874C91.3303 77.6389 91.4857 77.84 91.5977 78C91.4903 78.1509 91.3463 78.3429 91.1337 78.576C90.6468 79.1177 89.9543 79.8011 89.2457 80.4914C88.5371 81.1817 87.8057 81.8766 87.2183 82.4869C86.9496 82.761 86.6933 83.047 86.4503 83.344C86.2354 83.6137 86.0434 83.8011 85.9108 84.2949C85.7806 84.784 85.8468 85.0446 85.8971 85.392C85.9474 85.7394 86.0274 86.1189 86.1257 86.5394C86.3223 87.3806 86.5988 88.3726 86.8617 89.3486C87.1246 90.3246 87.376 91.2914 87.5223 92.0274C87.5863 92.352 87.6206 92.6057 87.6366 92.8C87.4697 92.8777 87.248 92.9691 86.9463 93.0674C86.2537 93.2937 85.312 93.5383 84.352 93.7806C83.392 94.0229 82.416 94.2606 81.6023 94.496C81.2329 94.5983 80.8683 94.7172 80.5097 94.8526C80.1874 94.9783 79.9246 95.0446 79.5634 95.4057C79.2046 95.7646 79.136 96.0274 79.0034 96.352C78.8607 96.7158 78.7341 97.0856 78.624 97.4606C78.3748 98.2857 78.1166 99.2823 77.8583 100.258C77.5977 101.237 77.3348 102.201 77.0948 102.91C76.9874 103.227 76.8868 103.461 76.8046 103.639C76.6194 103.616 76.384 103.589 76.0754 103.522C75.2001 103.323 74.3311 103.096 73.4697 102.843C72.5166 102.574 71.5543 102.295 70.7314 102.089C70.3587 101.994 69.9819 101.916 69.6023 101.854C69.2594 101.801 69.0034 101.726 68.5097 101.854C68.0206 101.984 67.8286 102.176 67.5543 102.393C67.2484 102.638 66.9533 102.896 66.6697 103.166C66.0411 103.755 65.3211 104.489 64.608 105.205C63.8926 105.922 63.184 106.622 62.6194 107.115C62.368 107.335 62.1623 107.49 62.0046 107.602C61.8061 107.456 61.6154 107.3 61.4331 107.134C60.7735 106.525 60.1332 105.895 59.5131 105.246C58.8229 104.537 58.128 103.81 57.5177 103.223C57.2451 102.954 56.9606 102.698 56.6651 102.455C56.3954 102.24 56.208 102.043 55.7143 101.911C55.2251 101.781 54.9623 101.851 54.6171 101.911C54.2697 101.961 53.8857 102.039 53.4651 102.139C52.624 102.336 51.632 102.608 50.656 102.871C49.68 103.134 48.7177 103.385 47.9817 103.531C47.7248 103.584 47.4654 103.625 47.2046 103.653C47.1046 103.427 47.0169 103.195 46.9417 102.96C46.7131 102.267 46.4709 101.326 46.2286 100.366C45.9863 99.4057 45.744 98.4297 45.5086 97.616C45.4061 97.2467 45.2871 96.8821 45.152 96.5234C45.0263 96.2011 44.96 95.9429 44.5989 95.5794C44.24 95.2229 43.9817 95.1497 43.6572 95.0171C43.2916 94.8764 42.9202 94.7513 42.544 94.6423C41.7166 94.3931 40.7223 94.1349 39.7463 93.8743C38.768 93.6137 37.808 93.3486 37.0972 93.1063C36.85 93.0238 36.6074 92.9285 36.3703 92.8206C36.3886 92.6377 36.4206 92.3977 36.4846 92.0891C36.6354 91.376 36.896 90.4389 37.1657 89.4857C37.4354 88.5349 37.7143 87.5657 37.92 86.7451C38.0206 86.3337 38.1029 85.9611 38.1554 85.6206C38.208 85.2777 38.2789 85.0217 38.1463 84.5257C38.016 84.0366 37.8263 83.8423 37.6114 83.5657C37.3668 83.2621 37.109 82.9692 36.8389 82.688C36.2469 82.0571 35.5154 81.3394 34.8 80.624C34.0823 79.9109 33.3829 79.1977 32.8892 78.6354C32.7159 78.4402 32.5534 78.2357 32.4023 78.0229C32.5097 77.872 32.6537 77.68 32.8663 77.4469C33.3532 76.9029 34.0457 76.2217 34.7543 75.5314C35.4629 74.8411 36.1943 74.1463 36.7817 73.536C37.0743 73.2297 37.3326 72.9486 37.5497 72.6789C37.7646 72.4091 37.9566 72.2217 38.0892 71.728C38.2194 71.2389 38.1532 70.976 38.1029 70.6309C38.0435 70.2445 37.9673 69.8608 37.8743 69.4811C37.6777 68.6423 37.4012 67.6526 37.1383 66.6743C36.8907 65.7883 36.6704 64.8949 36.4777 63.9954C36.4258 63.7401 36.3877 63.4822 36.3634 63.2229C36.5303 63.1451 36.752 63.0537 37.0537 62.9554C37.7463 62.7291 38.688 62.4823 39.648 62.24C40.608 62 41.584 61.76 42.3977 61.5269C42.7671 61.4246 43.1317 61.3056 43.4903 61.1703C43.8126 61.0446 44.0754 60.9783 44.4366 60.6171C44.7954 60.2583 44.864 59.9954 44.9966 59.6686C45.1269 59.344 45.2503 58.976 45.376 58.5623C45.6252 57.7349 45.8834 56.7406 46.1417 55.7623C46.4023 54.7863 46.6651 53.8194 46.9051 53.1109C47.0126 52.7954 47.1131 52.5623 47.1954 52.384C47.3806 52.4069 47.616 52.4343 47.9246 52.4983C48.6377 52.6514 49.5794 52.9097 50.5303 53.1794C51.4834 53.4491 52.4457 53.728 53.2686 53.9337C53.68 54.0343 54.0549 54.1166 54.3977 54.1691C54.7406 54.2217 54.9966 54.2971 55.4903 54.1691C55.9794 54.0389 56.1714 53.8469 56.4457 53.6297C56.7516 53.3851 57.0467 53.1273 57.3303 52.8571C57.9589 52.2651 58.6789 51.5314 59.392 50.816C60.1074 50.1006 60.816 49.3989 61.3806 48.9051C61.6297 48.6857 61.8309 48.5303 61.9909 48.4206V48.4ZM62.448 58.7086C57.6923 58.6008 53.0643 60.2532 49.4524 63.3488C45.8404 66.4444 43.4991 70.7649 42.8777 75.4811C42.2967 79.906 43.2666 84.3955 45.6223 88.186C47.978 91.9765 51.5741 94.8338 55.7989 96.272C60.0255 97.7041 64.6178 97.6275 68.7943 96.0551C72.9708 94.4828 76.4734 91.5119 78.7063 87.648C78.7825 87.518 78.8323 87.3742 78.8527 87.2248C78.8731 87.0755 78.8638 86.9236 78.8252 86.7779C78.7867 86.6322 78.7198 86.4955 78.6282 86.3758C78.5366 86.2561 78.4223 86.1556 78.2918 86.0803C78.1613 86.0049 78.0171 85.9561 77.8677 85.9367C77.7182 85.9173 77.5664 85.9276 77.4209 85.9671C77.2755 86.0066 77.1393 86.0744 77.0201 86.1668C76.901 86.2591 76.8013 86.3741 76.7268 86.5051C74.7608 89.9143 71.6728 92.5357 67.9896 93.9221C64.3065 95.3085 60.2564 95.374 56.5303 94.1074C52.8033 92.8438 49.6304 90.326 47.5528 86.9838C45.4753 83.6415 44.6219 79.6819 45.1383 75.7806C45.6502 71.8791 47.4999 68.2761 50.3719 65.5862C53.2439 62.8964 56.9602 61.2863 60.8869 61.0309C64.8142 60.7714 68.71 61.8828 71.9093 64.1754C75.1086 66.4681 77.4131 69.7999 78.4297 73.6023C78.4618 73.7544 78.5245 73.8984 78.6141 74.0254C78.7037 74.1524 78.8183 74.2598 78.9508 74.341C79.0833 74.4223 79.2311 74.4756 79.3849 74.4978C79.5388 74.52 79.6955 74.5105 79.8456 74.47C79.9957 74.4296 80.1359 74.3589 80.2578 74.2624C80.3796 74.1658 80.4805 74.0454 80.5542 73.9086C80.6279 73.7717 80.6729 73.6213 80.6865 73.4664C80.7001 73.3116 80.6819 73.1556 80.6331 73.008C79.5515 68.9808 77.1954 65.4118 73.9171 62.8348C70.6388 60.2577 66.6145 58.811 62.4457 58.7109L62.448 58.7086ZM73.4057 71.6571V71.6617C73.1871 71.6527 72.9705 71.7067 72.7817 71.8171L55.5634 81.6457L51.6297 74.9097C51.557 74.7746 51.4578 74.6555 51.3381 74.5596C51.2184 74.4636 51.0806 74.3927 50.9329 74.3512C50.7852 74.3096 50.6306 74.2982 50.4784 74.3177C50.3262 74.3371 50.1795 74.387 50.047 74.4644C49.9145 74.5418 49.7989 74.6451 49.7072 74.7681C49.6155 74.8911 49.5495 75.0313 49.5131 75.1803C49.4767 75.3294 49.4707 75.4843 49.4955 75.6357C49.5202 75.7871 49.5752 75.932 49.6572 76.0617L54.16 83.776C54.3119 84.0362 54.5604 84.226 54.8515 84.3039C55.1426 84.3818 55.4527 84.3416 55.7143 84.192L73.9154 73.7989C74.1337 73.6779 74.3064 73.4889 74.4072 73.2606C74.5079 73.0323 74.5312 72.7773 74.4734 72.5345C74.4156 72.2918 74.28 72.0746 74.0872 71.9162C73.8944 71.7577 73.6551 71.6668 73.4057 71.6571ZM79.8491 80.6034C79.7176 80.6085 79.5919 80.6588 79.4932 80.7458C79.3945 80.8329 79.3289 80.9513 79.3074 81.0811C79.1833 81.7746 79.0177 82.4601 78.8114 83.1337C78.7897 83.2056 78.7823 83.2811 78.7897 83.3558C78.7971 83.4306 78.8191 83.5031 78.8546 83.5693C78.89 83.6356 78.9382 83.6941 78.9963 83.7418C79.0543 83.7894 79.1212 83.8251 79.1931 83.8469C79.265 83.8686 79.3405 83.876 79.4152 83.8686C79.49 83.8612 79.5625 83.8391 79.6288 83.8037C79.695 83.7682 79.7536 83.7201 79.8012 83.662C79.8488 83.6039 79.8845 83.537 79.9063 83.4651C80.1257 82.7474 80.3017 82.0206 80.432 81.2823C80.4482 81.1978 80.4452 81.1108 80.4231 81.0277C80.401 80.9445 80.3604 80.8675 80.3044 80.8022C80.2483 80.7369 80.1783 80.6852 80.0995 80.6508C80.0207 80.6163 79.9351 80.6002 79.8491 80.6034Z" stroke="white" mask="url(#path-3-outside-1_2782_34456)"/>
</svg>
