<svg width="123" height="130" viewBox="0 0 123 130" fill="none" xmlns="http://www.w3.org/2000/svg">
<rect width="123" height="130" rx="7" fill="#294A29"/>
<path d="M21.9298 19.7109C21.5506 19.7109 21.1869 19.8616 20.9188 20.1297C20.6506 20.3979 20.5 20.7615 20.5 21.1408V98.3513C20.5 98.7305 20.6506 99.0942 20.9188 99.3623C21.1869 99.6305 21.5506 99.7811 21.9298 99.7811H64.8246C65.2038 99.7811 65.5675 99.6305 65.8356 99.3623C66.1037 99.0942 66.2544 98.7305 66.2544 98.3513V97.8594C69.237 99.1749 71.6448 99.7468 71.6448 99.7468C71.8611 99.7979 72.0863 99.7979 72.3025 99.7468C72.3025 99.7468 76.4061 98.7831 80.5469 96.4353C84.6877 94.0875 89.1316 90.1498 89.1316 84.2246V65.6369C89.131 65.3264 89.0295 65.0246 88.8422 64.7769C88.6549 64.5293 88.3921 64.3493 88.0935 64.2643L72.3655 59.8032C72.2271 59.7628 72.0835 59.7435 71.9394 59.746V59.7517C71.8185 59.7537 71.6984 59.771 71.5819 59.8032L66.2544 61.316V21.1408C66.2544 20.7615 66.1037 20.3979 65.8356 20.1297C65.5675 19.8616 65.2038 19.7109 64.8246 19.7109H21.9298ZM23.3596 22.5706H63.3947V62.1253L55.8538 64.2643C55.8083 64.2773 55.7635 64.2926 55.7194 64.31C55.6295 64.3442 55.5433 64.3873 55.4621 64.4387C55.3033 64.5441 55.1672 64.6803 55.0617 64.8391C55.036 64.877 55.0122 64.9161 54.9902 64.9563C54.8759 65.166 54.8159 65.401 54.8158 65.6398V84.2275C54.8129 85.0082 54.8987 85.7459 55.0388 86.458C55.0589 86.5638 55.0989 86.6582 55.1246 86.7611C55.2562 87.3474 55.4192 87.9193 55.6394 88.4598C55.7252 88.68 55.8481 88.8773 55.9482 89.0889C56.1398 89.4921 56.3257 89.8953 56.5573 90.2699C56.7175 90.5273 56.9005 90.7675 57.0778 91.0134C57.2837 91.2994 57.4867 91.5911 57.7155 91.8599C57.7727 91.9314 57.8213 92.0143 57.8813 92.0858C58.0157 92.2402 58.1702 92.3689 58.3103 92.5147C59.7981 94.0677 61.5099 95.3892 63.389 96.4353H63.3947V96.9215H23.3596V22.5706ZM37.6579 25.4302V28.2899H49.0965V25.4302H37.6579ZM27.5605 31.1495C27.3842 31.1492 27.2097 31.1836 27.0468 31.2509C26.8839 31.3181 26.7359 31.4169 26.6113 31.5415C26.4867 31.6661 26.3879 31.8141 26.3206 31.977C26.2534 32.1399 26.2189 32.3145 26.2193 32.4907V51.5017C26.22 51.8121 26.3287 52.1126 26.5266 52.3517C26.7245 52.5908 26.9993 52.7537 27.3041 52.8125C27.6089 52.8713 27.9247 52.8224 28.1973 52.674C28.47 52.5256 28.6826 52.2871 28.7987 51.9992C31.1779 46.1055 36.76 41.9905 43.3257 41.9905C49.9115 41.9905 55.5593 46.1312 57.9557 52.045C58.0721 52.3335 58.2854 52.5725 58.559 52.7208C58.8325 52.8691 59.1492 52.9174 59.4545 52.8575C59.7598 52.7976 60.0347 52.6332 60.2319 52.3925C60.4291 52.1518 60.5363 51.85 60.5351 51.5388V32.4907C60.5355 32.3145 60.501 32.1399 60.4338 31.977C60.3665 31.8141 60.2677 31.6661 60.1431 31.5415C60.0185 31.4169 59.8705 31.3181 59.7076 31.2509C59.5447 31.1836 59.3701 31.1492 59.1939 31.1495H27.5605ZM28.8959 33.8319H57.8585V46.626C54.4669 42.1964 49.2366 39.3138 43.3257 39.3138C37.4463 39.3138 32.2589 42.1706 28.8959 46.5659V33.829V33.8319ZM73.4035 49.7373V55.4566H76.2632V49.7373H73.4035ZM83.6296 51.1671L81.442 56.4517L84.0757 57.5498L86.2719 52.268L83.6296 51.1671ZM92.8291 56.8864L88.7856 60.9356L90.8073 62.9574L94.8509 58.9139L92.8291 56.8864ZM71.9737 62.6657L86.2719 66.7207V84.2275C86.2719 88.7114 82.8604 91.837 79.1342 93.9503C75.574 95.9692 72.2825 96.7527 71.9737 96.8271C71.6877 96.7556 68.8395 96.0435 65.6052 94.3592L65.5967 94.3478C65.5613 94.3272 65.525 94.3081 65.488 94.2906C64.5314 93.7816 63.6104 93.2084 62.7313 92.5748C62.6598 92.5262 62.5826 92.489 62.5111 92.4375C61.6172 91.7898 60.7955 91.0477 60.0604 90.2242L60.0375 90.2013L60.0318 90.1956C59.7367 89.8481 59.4626 89.4833 59.2111 89.1032C59.1539 89.0174 59.0824 88.9316 59.0281 88.8458C58.8651 88.5884 58.7392 88.3139 58.602 88.0451C58.4933 87.8249 58.3703 87.6104 58.2788 87.3817C58.1902 87.1615 58.1358 86.9241 58.0672 86.6954C57.9843 86.4294 57.8871 86.1692 57.8327 85.8918C57.7363 85.3779 57.6875 84.8562 57.6869 84.3333C57.6869 84.299 57.6754 84.2704 57.6754 84.2361V66.7321L65.2163 64.5931C65.2423 64.5843 65.2681 64.5748 65.2935 64.5645L71.9737 62.6743V62.6686V62.6657ZM27.5433 63.7953C27.1914 63.799 26.855 63.9413 26.6072 64.1913C26.3594 64.4412 26.22 64.7788 26.2193 65.1307V84.1474C26.2197 84.3232 26.2547 84.4971 26.3223 84.6593C26.3899 84.8216 26.4888 84.9689 26.6133 85.0929C26.7378 85.2169 26.8856 85.3152 27.0481 85.3821C27.2106 85.449 27.3847 85.4832 27.5605 85.4829H51.3928C51.5773 85.4823 51.7598 85.4436 51.9287 85.3691C52.0975 85.2946 52.2492 85.186 52.374 85.0501C52.4989 84.9142 52.5943 84.754 52.6543 84.5794C52.7143 84.4049 52.7375 84.2198 52.7225 84.0359C52.6796 83.5497 52.6253 83.2209 52.6253 82.9578V73.9499C52.6256 73.7179 52.5655 73.4898 52.4511 73.288C52.3366 73.0862 52.1716 72.9176 51.9724 72.7988C51.7731 72.68 51.5464 72.6151 51.3144 72.6103C51.0825 72.6055 50.8533 72.6612 50.6493 72.7717C48.4056 74.004 45.8884 74.653 43.3286 74.6591C36.76 74.6591 31.1779 70.5355 28.8016 64.6389C28.7007 64.3887 28.5266 64.1748 28.3021 64.0253C28.0775 63.8758 27.8131 63.7976 27.5433 63.801V63.7953ZM99.4349 65.4653L94.1874 67.733L95.3199 70.3582L100.57 68.0962L99.4349 65.4653ZM28.8988 70.0694C32.2617 74.4646 37.4491 77.3271 43.3286 77.3271C45.7278 77.3271 47.8554 76.4835 49.9487 75.6257V82.8062H28.8959L28.8988 70.0694ZM76.0201 75.2167L70.9642 80.2726L67.933 77.2414L65.9112 79.2603L70.9642 84.3161L78.0419 77.2385L76.0201 75.2167ZM96.2807 78.3337V81.1934H102V78.3337H96.2807ZM43.3772 88.3425C42.6188 88.3425 41.8914 88.6438 41.3551 89.1801C40.8188 89.7164 40.5175 90.4437 40.5175 91.2022C40.5175 91.9606 40.8188 92.688 41.3551 93.2242C41.8914 93.7605 42.6188 94.0618 43.3772 94.0618C44.1356 94.0618 44.863 93.7605 45.3993 93.2242C45.9356 92.688 46.2368 91.9606 46.2368 91.2022C46.2368 90.4437 45.9356 89.7164 45.3993 89.1801C44.863 88.6438 44.1356 88.3425 43.3772 88.3425ZM95.3199 89.1747L94.1874 91.7998L99.4378 94.0618L100.57 91.4367L95.3199 89.1747ZM90.8073 96.5754L88.7856 98.5972L92.8291 102.641L94.8509 100.619L90.8073 96.5754ZM83.5009 101.977L80.9987 103.361L83.7697 108.36L86.2719 106.982L83.5009 101.977ZM73.4035 104.071V109.79H76.2632V104.071H73.4035Z" fill="white"/>
<path d="M41.1517 71.1841V45.4473H42.7403V71.1841H41.1517ZM46.499 53.1683C46.3827 52.1496 45.9113 51.3587 45.0846 50.7957C44.258 50.2327 43.2441 49.9512 42.0429 49.9512C41.1646 49.9512 40.3961 50.0987 39.7373 50.3936C39.0851 50.6885 38.5749 51.094 38.2068 51.61C37.8451 52.1261 37.6643 52.7126 37.6643 53.3694C37.6643 53.919 37.7902 54.3915 38.0421 54.7869C38.3004 55.1757 38.6298 55.5007 39.0302 55.7621C39.4306 56.0168 39.8503 56.2279 40.2895 56.3955C40.7286 56.5563 41.1323 56.687 41.5004 56.7876L43.5153 57.3506C44.032 57.4913 44.6067 57.6857 45.2396 57.9337C45.879 58.1816 46.4893 58.5201 47.0705 58.9491C47.6582 59.3713 48.1425 59.9142 48.5236 60.5777C48.9046 61.2412 49.0951 62.0556 49.0951 63.0207C49.0951 64.1333 48.8142 65.1386 48.2523 66.0367C47.6969 66.9348 46.8832 67.6486 45.8112 68.1781C44.7456 68.7076 43.4507 68.9723 41.9266 68.9723C40.5058 68.9723 39.2756 68.7344 38.2358 68.2586C37.2025 67.7827 36.3888 67.1192 35.7947 66.268C35.207 65.4168 34.8744 64.4282 34.7969 63.3022H37.2768C37.3414 64.0797 37.5932 64.7231 38.0324 65.2325C38.478 65.7351 39.0398 66.1105 39.718 66.3584C40.4025 66.5997 41.1387 66.7204 41.9266 66.7204C42.8437 66.7204 43.6671 66.5662 44.3968 66.2579C45.1266 65.9429 45.7046 65.5073 46.1308 64.951C46.5571 64.388 46.7702 63.7311 46.7702 62.9805C46.7702 62.2969 46.5861 61.7406 46.218 61.3116C45.8499 60.8827 45.3656 60.5341 44.765 60.2661C44.1644 59.998 43.5153 59.7634 42.8178 59.5623L40.3767 58.8385C38.8267 58.376 37.5997 57.7158 36.6956 56.8579C35.7914 56 35.3394 54.8774 35.3394 53.49C35.3394 52.3372 35.6397 51.3319 36.2403 50.474C36.8473 49.6094 37.661 48.9392 38.6814 48.4633C39.7083 47.9807 40.8546 47.7395 42.1204 47.7395C43.3991 47.7395 44.5357 47.9774 45.5302 48.4532C46.5248 48.9224 47.3127 49.5658 47.8939 50.3835C48.4816 51.2012 48.7916 52.1295 48.8239 53.1683H46.499Z" fill="white"/>
</svg>
