<svg width="24" height="24" viewBox="0 0 24 24" fill="none" xmlns="http://www.w3.org/2000/svg">
<path d="M3.83222 4H8.32216L9.76937 7.61803L7.44449 9.16795C7.16629 9.35342 6.99919 9.66565 6.99919 10C7.00173 10.0936 6.99919 10.001 6.99919 10.001L6.9992 10.0043L6.99923 10.0093L6.99938 10.0217C6.99953 10.0309 6.99978 10.0421 7.0002 10.0552C7.00105 10.0814 7.00258 10.1153 7.00531 10.1564C7.01079 10.2385 7.0211 10.3494 7.04049 10.4852C7.07925 10.7565 7.15447 11.1281 7.30051 11.5662C7.59374 12.4459 8.16992 13.5849 9.29209 14.7071C10.4142 15.8293 11.5532 16.4054 12.433 16.6987C12.8711 16.8447 13.2427 16.9199 13.514 16.9587C13.6497 16.9781 13.7607 16.9884 13.8428 16.9939C13.8839 16.9966 13.9178 16.9981 13.944 16.999C13.9571 16.9994 13.9683 16.9997 13.9775 16.9998L13.9898 17H13.9949H13.9971H13.9982C13.9982 17 14.1098 16.9939 13.9992 17C14.378 17 14.7242 16.786 14.8936 16.4472L15.5633 15.1078L19.9992 15.8471V20.167C17.8881 20.4723 12.1866 20.7732 7.7063 16.2929C3.226 11.8126 3.52691 6.1111 3.83222 4ZM9.07284 10.4861L10.8788 9.28213C11.6657 8.75751 11.9776 7.75338 11.6263 6.87525L10.1791 3.25722C9.87539 2.4979 9.13997 2 8.32216 2H3.77997C2.87146 2 2.01628 2.63116 1.86713 3.6169C1.52782 5.8595 1.06598 12.481 6.29209 17.7071C11.5182 22.9332 18.1397 22.4714 20.3823 22.1321C21.368 21.9829 21.9992 21.1277 21.9992 20.2192V15.8471C21.9992 14.8694 21.2924 14.0351 20.328 13.8743L15.8921 13.135C15.026 12.9907 14.1671 13.4281 13.7745 14.2134L13.428 14.9064C13.3191 14.8796 13.1975 14.8453 13.0654 14.8013C12.4451 14.5946 11.5841 14.1707 10.7063 13.2929C9.82846 12.4151 9.40464 11.5541 9.19788 10.9338C9.142 10.7662 9.10178 10.6154 9.07284 10.4861Z" fill="#542C16"/>
</svg>
