<svg width="479" height="336" viewBox="0 0 479 336" fill="none" xmlns="http://www.w3.org/2000/svg">
<path d="M476.081 224.317C463.203 195.197 424.212 173.237 417.058 139.882C409.904 106.527 424.57 58.9672 373.059 30.3499C321.547 1.73254 240.346 -1.12918 222.281 40.3659C204.217 81.8611 133.144 42.1853 83.0398 81.8442C34.4841 120.278 11.4072 179.417 11.4072 264.387C11.4072 292.177 33.022 317.191 40.9286 334.767H454.163C470.97 279.679 485.371 245.324 476.081 224.317Z" fill="#C4CBC4"/>
<path d="M459.534 158.086C459.534 161.942 455.067 165.068 449.559 165.068C444.05 165.068 439.584 161.942 439.584 158.086C439.584 154.231 444.05 151.104 449.559 151.104C455.067 151.104 459.534 154.231 459.534 158.086Z" fill="#6C7C6C"/>
<path d="M449.559 123.44C449.559 129.485 443.307 134.384 435.594 134.384C427.881 134.384 421.629 129.485 421.629 123.44C421.629 117.396 427.881 112.495 435.594 112.495C443.307 112.495 449.559 117.396 449.559 123.44Z" fill="#6C7C6C"/>
<path d="M16.379 192.774C16.379 197.297 12.7122 200.963 8.18911 200.963C3.66648 200.963 0 197.297 0 192.774C0 188.25 3.66648 184.584 8.18911 184.584C12.7122 184.584 16.379 188.25 16.379 192.774Z" fill="#6C7C6C"/>
<path d="M196.75 45.8435C196.75 50.3666 191.676 54.0342 185.416 54.0342C179.156 54.0342 174.081 50.3666 174.081 45.8435C174.081 41.3213 179.156 37.6547 185.416 37.6547C191.676 37.6547 196.75 41.3213 196.75 45.8435Z" fill="#6C7C6C"/>
<path d="M11.4072 176.353C12.371 172.209 13.5308 168.109 14.8117 164.049C16.0848 159.986 17.4825 155.959 18.9749 151.964C20.4774 147.974 22.0778 144.014 23.793 140.1C24.6357 138.135 25.5385 136.198 26.4429 134.259L27.8301 131.364C28.2959 130.4 28.7869 129.447 29.2694 128.491C29.7461 127.531 30.2541 126.587 30.7528 125.637C31.2513 124.688 31.7504 123.738 32.2748 122.801C32.793 121.861 33.31 120.92 33.8488 119.99L35.4751 117.205C37.6751 113.506 40.0354 109.892 42.5242 106.352L44.4394 103.727C44.7557 103.288 45.0926 102.863 45.4272 102.435L46.4302 101.153C46.7663 100.725 47.0946 100.294 47.4377 99.8717L48.4831 98.6167C49.1848 97.785 49.8614 96.9325 50.6015 96.1276C51.3293 95.3138 52.056 94.499 52.802 93.6991L55.096 91.3442C55.4775 90.9437 55.8644 90.585 56.2487 90.2064L57.4034 89.0836C58.1681 88.3304 58.9572 87.5991 59.7385 86.8608C62.8899 83.9344 66.1286 81.0876 69.4783 78.3591L72.0242 76.3509L74.6139 74.3934C76.3606 73.1135 78.1181 71.8436 79.9315 70.6503C83.549 68.2526 87.2784 65.9999 91.1602 64.0196C92.1205 63.5069 93.1058 63.0408 94.0886 62.5698C95.0653 62.0869 96.063 61.6457 97.0626 61.2115C97.5644 60.9979 98.0562 60.7664 98.566 60.5686L100.084 59.9635C100.593 59.7667 101.093 59.5491 101.609 59.3703L103.147 58.8148C104.166 58.4312 105.206 58.1004 106.245 57.7744C107.279 57.4316 108.333 57.1484 109.38 56.8543C110.424 56.5463 111.486 56.3038 112.543 56.0455C113.595 55.7692 114.667 55.5775 115.731 55.3608C116.794 55.1313 117.87 54.9743 118.939 54.7945C120.007 54.6047 121.085 54.4815 122.16 54.3483C123.234 54.2012 124.315 54.1257 125.391 54.0284C126.467 53.921 127.547 53.8743 128.625 53.8227C132.939 53.6368 137.246 53.7541 141.509 54.1665C142.575 54.2728 143.639 54.3632 144.698 54.5222L146.285 54.7388C146.814 54.8054 147.342 54.8879 147.867 54.9823C148.918 55.1731 149.97 55.338 151.013 55.5487C152.058 55.7603 153.099 55.9819 154.136 56.2104C153.072 56.1776 152.011 56.1389 150.953 56.0892C149.894 56.0465 148.833 56.0514 147.777 56.0306C146.721 55.9958 145.662 56.0306 144.609 56.0316C144.081 56.0425 143.555 56.0266 143.028 56.0515L141.45 56.1041C137.246 56.2571 133.07 56.6089 128.949 57.2259C120.706 58.4362 112.697 60.6769 105.127 63.9123L103.708 64.5194C103.233 64.7161 102.774 64.9496 102.306 65.1623L100.908 65.8161C100.44 66.0288 99.9879 66.2762 99.5268 66.5037L98.1476 67.1953C97.6856 67.4199 97.2384 67.6782 96.7833 67.9177C95.8771 68.4046 94.9679 68.8845 94.0816 69.4122C90.5144 71.468 87.0339 73.6849 83.6698 76.0856C80.3034 78.4813 77.0135 81.0012 73.8337 83.6721C70.637 86.3212 67.5259 89.0896 64.4844 91.9433C63.7209 92.6548 62.9516 93.3583 62.2029 94.0866L61.0726 95.1717C60.7004 95.5334 60.308 95.8931 59.9574 96.2578L57.8033 98.4409C57.0984 99.1831 56.4179 99.9532 55.7146 100.699C52.9495 103.739 50.3431 106.945 47.8333 110.243C45.3372 113.553 42.9695 116.976 40.6588 120.447L38.9606 123.077C38.394 123.954 37.8603 124.853 37.2986 125.734C36.7361 126.615 36.1966 127.511 35.6575 128.409C35.1188 129.306 34.5699 130.197 34.0506 131.107L32.4689 133.824L30.9136 136.561C29.8958 138.396 28.882 140.236 27.8868 142.088C25.9022 145.796 23.9669 149.539 22.0949 153.319C18.3431 160.877 14.783 168.551 11.4072 176.353Z" fill="#6C7C6C"/>
<path d="M252.849 8.99664C254.867 8.05167 256.961 7.27365 259.068 6.5304C261.18 5.80701 263.323 5.16811 265.477 4.56297C266.558 4.27779 267.635 3.96974 268.726 3.7253L270.36 3.33676L272.001 2.98302C273.094 2.73659 274.194 2.53091 275.295 2.32025C276.394 2.09668 277.501 1.92578 278.607 1.73599C283.035 1.02454 287.503 0.537636 291.988 0.262398L293.671 0.165016L294.512 0.116356L295.354 0.0915146L298.727 5.34058e-05L302.1 0.00204468H302.944L303.786 0.0259171L305.475 0.0815659L307.161 0.137215C307.723 0.156097 308.285 0.202774 308.846 0.233574C309.97 0.306114 311.095 0.367737 312.218 0.450211C314.458 0.665833 316.705 0.848656 318.936 1.16265L320.613 1.3773L321.452 1.48462C321.731 1.52139 322.008 1.57105 322.287 1.61378L325.624 2.15534L326.458 2.29245L327.287 2.45344L328.947 2.78133L330.605 3.10825C331.159 3.21556 331.712 3.32285 332.26 3.45699C334.454 3.9727 336.661 4.4457 338.829 5.06873L342.093 5.95608L345.325 6.95173C347.492 7.58469 349.602 8.37962 351.733 9.11492C352.804 9.47263 353.847 9.89693 354.898 10.3053L358.048 11.5344C359.093 11.9587 360.119 12.4268 361.154 12.8709L362.704 13.5466C363.22 13.7741 363.742 13.9868 364.248 14.2382L367.303 15.6989L368.829 16.4302L370.331 17.2191L373.327 18.808C374.314 19.3605 375.286 19.9408 376.268 20.5062L377.734 21.3597C378.222 21.6479 378.693 21.9639 379.174 22.264L382.036 24.0993C385.78 26.6649 389.41 29.4123 392.8 32.4509C396.192 35.4905 399.322 38.8292 402.138 42.4143C402.486 42.8655 402.858 43.2977 403.189 43.7627L404.184 45.1538C404.511 45.6209 404.852 46.075 405.165 46.5519L406.089 47.9897C406.394 48.4717 406.715 48.9407 407.003 49.4325L407.859 50.9111L408.286 51.6494L408.499 52.019L408.696 52.3986L409.477 53.9149C411.534 57.9701 413.186 62.216 414.408 66.5602C415.622 70.9075 416.503 75.3203 417.094 79.75C417.397 81.9639 417.648 84.1787 417.893 86.3906C418.125 88.6045 418.365 90.8124 418.668 93.0183C418.095 90.8651 417.656 88.678 417.188 86.5019C416.741 84.3208 416.302 82.1427 415.806 79.9825C415.568 78.9004 415.296 77.8273 415.043 76.7521C414.919 76.2136 414.77 75.683 414.634 75.1474C414.492 74.6148 414.364 74.0772 414.205 73.5506C413.902 72.4904 413.605 71.4301 413.259 70.3868C413.088 69.8651 412.935 69.3365 412.751 68.8198L412.201 67.2687C409.276 59.0015 404.887 51.3533 399.26 44.7594C398.553 43.9386 397.867 43.1 397.104 42.3269L395.988 41.1445L395.431 40.5542L394.845 39.9898C394.058 39.2426 393.299 38.4695 392.5 37.7372L390.061 35.583C386.732 32.7938 383.22 30.2212 379.576 27.8384L376.791 26.1233C376.325 25.8401 375.87 25.542 375.397 25.2708L373.971 24.4659C373.019 23.9333 372.076 23.3858 371.116 22.8641L368.2 21.3657L366.746 20.6115L365.261 19.909L362.293 18.505C361.803 18.2625 361.292 18.0588 360.792 17.8392L359.281 17.1894C358.273 16.7611 357.273 16.3129 356.258 15.9006L353.199 14.6923C352.18 14.2919 351.165 13.8735 350.128 13.5228C348.06 12.7964 346.008 12.0233 343.91 11.3854L340.781 10.3779L337.621 9.47658C336.567 9.17649 335.516 8.86449 334.449 8.61508L331.261 7.81021C330.732 7.66812 330.197 7.55286 329.66 7.43759L328.055 7.08583L326.449 6.7331L325.644 6.56018L324.836 6.41016L321.604 5.80504C321.334 5.75536 321.065 5.69869 320.795 5.65498L319.982 5.52679L318.357 5.27144C316.195 4.89782 314.012 4.66926 311.836 4.37811C310.746 4.25788 309.653 4.15754 308.561 4.04625C308.013 3.99458 307.468 3.92902 306.921 3.89026L305.278 3.77499L303.634 3.65873L302.813 3.60012L301.99 3.56335L298.695 3.41231L295.398 3.35171L294.573 3.33778L293.749 3.34176L292.098 3.34972C287.697 3.39443 283.291 3.61006 278.898 4.02242C277.8 4.12974 276.699 4.21816 275.604 4.35827C274.508 4.48745 273.409 4.61165 272.317 4.7746L270.676 5.00512L269.039 5.27042C267.946 5.44133 266.859 5.64206 265.768 5.83086C263.592 6.23825 261.422 6.68837 259.267 7.21203C257.107 7.72277 254.965 8.30604 252.849 8.99664Z" fill="#6C7C6C"/>
<path d="M98.215 111.706L95.7716 106.438C95.6395 106.154 95.7637 105.815 96.0479 105.683C96.334 105.55 96.6719 105.675 96.804 105.96L99.2464 111.227C99.3796 111.511 99.2554 111.85 98.9702 111.982C98.685 112.115 98.3462 111.99 98.215 111.706Z" fill="white"/>
<path d="M100.382 108.127L95.1148 110.57C94.8297 110.702 94.4918 110.578 94.3597 110.293C94.2275 110.009 94.3507 109.67 94.6369 109.538L99.9033 107.094C100.188 106.963 100.526 107.087 100.659 107.372C100.791 107.657 100.667 107.995 100.382 108.127Z" fill="white"/>
<path d="M129.976 201.551L127.533 196.284C127.401 195.999 127.525 195.66 127.81 195.529C128.095 195.397 128.434 195.521 128.566 195.805L131.008 201.073C131.14 201.358 131.016 201.697 130.732 201.828C130.447 201.96 130.108 201.836 129.976 201.551Z" fill="white"/>
<path d="M132.144 197.973L126.877 200.416C126.591 200.548 126.254 200.424 126.121 200.139C125.989 199.854 126.112 199.516 126.398 199.383L131.665 196.94C131.95 196.809 132.288 196.933 132.42 197.218C132.552 197.502 132.429 197.841 132.144 197.973Z" fill="white"/>
<path d="M367.916 193.582L365.473 188.314C365.342 188.029 365.465 187.691 365.751 187.558C366.036 187.426 366.374 187.55 366.506 187.836L368.949 193.103C369.08 193.387 368.956 193.726 368.672 193.858C368.387 193.99 368.048 193.867 367.916 193.582Z" fill="white"/>
<path d="M370.084 190.002L364.817 192.446C364.532 192.578 364.194 192.454 364.062 192.17C363.929 191.884 364.054 191.546 364.339 191.413L369.606 188.971C369.89 188.839 370.229 188.962 370.36 189.247C370.493 189.532 370.369 189.87 370.084 190.002Z" fill="white"/>
<path d="M336.881 95.6326L338.561 90.0761C338.653 89.775 338.971 89.6041 339.271 89.6955C339.572 89.7869 339.742 90.1039 339.651 90.405L337.97 95.9625C337.879 96.2636 337.562 96.4335 337.261 96.3421C336.96 96.2507 336.79 95.9337 336.881 95.6326Z" fill="white"/>
<path d="M340.88 94.4045L335.323 92.7232C335.022 92.6318 334.851 92.3148 334.943 92.0138C335.034 91.7137 335.351 91.5428 335.652 91.6342L341.21 93.3145C341.51 93.4059 341.68 93.7229 341.589 94.0239C341.499 94.324 341.181 94.4949 340.88 94.4045Z" fill="white"/>
<path d="M196.41 144.04L195.958 138.251C195.933 137.938 196.168 137.664 196.482 137.639C196.795 137.615 197.068 137.849 197.093 138.162L197.545 143.951C197.569 144.264 197.335 144.538 197.021 144.562C196.708 144.586 196.434 144.353 196.41 144.04Z" fill="white"/>
<path d="M199.69 141.442L193.901 141.893C193.588 141.918 193.314 141.685 193.29 141.372C193.265 141.058 193.5 140.785 193.813 140.76L199.601 140.308C199.915 140.284 200.188 140.517 200.213 140.831C200.237 141.144 200.003 141.417 199.69 141.442Z" fill="white"/>
<path d="M159.248 114.682C153.74 114.682 149.273 111.556 149.273 107.7C149.273 103.844 153.74 100.718 159.248 100.718C164.757 100.718 169.223 103.844 169.223 107.7C169.223 111.556 164.757 114.682 159.248 114.682Z" fill="#F4F6FC"/>
<path d="M337.461 197.69C331.952 197.69 327.486 194.564 327.486 190.708C327.486 186.851 331.952 183.726 337.461 183.726C342.969 183.726 347.435 186.851 347.435 190.708C347.435 194.564 342.969 197.69 337.461 197.69Z" fill="#F4F6FC"/>
<path d="M185.149 224.171C181.293 224.171 178.167 221.044 178.167 217.188C178.167 213.332 181.293 210.206 185.149 210.206C189.006 210.206 192.132 213.332 192.132 217.188C192.132 221.044 189.006 224.171 185.149 224.171Z" fill="#F4F6FC"/>
<path d="M94.3846 224.171C90.5285 224.171 87.4023 221.044 87.4023 217.188C87.4023 213.332 90.5285 210.206 94.3846 210.206C98.24 210.206 101.367 213.332 101.367 217.188C101.367 221.044 98.24 224.171 94.3846 224.171Z" fill="#F4F6FC"/>
<path d="M220.223 112.637C217.496 112.637 215.285 110.427 215.285 107.7C215.285 104.973 217.496 102.763 220.223 102.763C222.949 102.763 225.159 104.973 225.159 107.7C225.159 110.427 222.949 112.637 220.223 112.637Z" fill="#F4F6FC"/>
<path d="M381.36 252.572C378.634 252.572 376.423 250.361 376.423 247.634C376.423 244.908 378.634 242.697 381.36 242.697C384.087 242.697 386.298 244.908 386.298 247.634C386.298 250.361 384.087 252.572 381.36 252.572Z" fill="#F4F6FC"/>
<path d="M210.443 186.92C207.717 186.92 205.507 184.71 205.507 181.983C205.507 179.257 207.717 177.046 210.443 177.046C213.171 177.046 215.381 179.257 215.381 181.983C215.381 184.71 213.171 186.92 210.443 186.92Z" fill="#F4F6FC"/>
<path d="M343.203 70.839C340.476 70.839 338.267 68.6291 338.267 65.9015C338.267 63.1749 340.476 60.965 343.203 60.965C345.93 60.965 348.141 63.1749 348.141 65.9015C348.141 68.6291 345.93 70.839 343.203 70.839Z" fill="#F4F6FC"/>
<path d="M440.531 289.98C437.804 289.98 435.594 287.77 435.594 285.044C435.594 282.316 437.804 280.106 440.531 280.106C443.258 280.106 445.468 282.316 445.468 285.044C445.468 287.77 443.258 289.98 440.531 289.98Z" fill="#F4F6FC"/>
<path d="M57.8406 281.053C55.1138 281.053 52.9033 278.842 52.9033 276.115C52.9033 273.389 55.1138 271.178 57.8406 271.178C60.5677 271.178 62.7778 273.389 62.7778 276.115C62.7778 278.842 60.5677 281.053 57.8406 281.053Z" fill="#F4F6FC"/>
<path d="M191.439 263.219C191.439 263.219 227.532 208.876 242.975 200.046C258.417 191.218 281.21 183.09 303.487 193.397C325.764 203.704 329.088 217.669 337.734 238.615C346.378 259.561 331.416 328.665 331.416 328.665L214.381 328.718L191.439 263.219Z" fill="#7D8488"/>
<path d="M276.077 210.294C270.906 210.295 265.068 207.921 262.736 203.185C261.493 200.658 261.144 198.665 261.7 197.263C262.117 196.211 262.907 195.905 262.94 195.893L263.202 196.59L263.071 196.241L263.206 196.589C263.185 196.598 262.67 196.813 262.382 197.566C262.067 198.39 261.989 199.978 263.405 202.856C266.051 208.231 273.533 210.371 278.948 209.273C283.987 208.25 293.184 203.654 295.084 199.641C296.326 197.017 296.578 195.314 295.901 194.122C295.212 192.906 293.515 192.181 290.713 191.909L290.785 191.167C293.846 191.466 295.731 192.311 296.549 193.753C297.585 195.581 296.67 198.03 295.757 199.961C293.734 204.235 284.401 208.926 279.097 210.003C278.14 210.196 277.122 210.294 276.077 210.294Z" fill="#263238"/>
<path d="M333.178 282.337C333.178 282.337 296.505 271.864 283.205 276.518C269.905 281.173 242.643 280.507 237.544 269.204C232.446 257.899 240.712 234.624 240.712 234.624C232.645 254.74 231.573 269.709 234.056 280.816L235.411 326.665L330.085 328.513L315.979 289.851L333.178 282.337Z" fill="#7D8488"/>
<path d="M342.81 281.7C342.695 288.206 342.353 294.406 341.914 300.007C340.689 315.672 338.691 326.664 338.691 326.664L312.895 322.13L260.683 312.951L260.68 312.948C260.68 312.948 326.429 323.154 335.406 312.948C339.36 308.453 341.573 295.163 342.81 281.7Z" fill="#4853AD"/>
<path d="M304.741 276.297C303.567 276.137 302.395 275.99 301.235 275.863L299.263 221.405C299.308 222.215 299.371 223.048 299.453 223.902C300.62 235.862 302.982 259.08 304.741 276.297Z" fill="#41494D"/>
<path d="M306.934 297.714L242.994 289.856C264.68 290.151 301.825 292.145 301.825 292.145L301.234 275.863C302.394 275.99 303.566 276.136 304.74 276.297C305.989 288.518 306.934 297.714 306.934 297.714Z" fill="#41494D"/>
<path d="M270.596 292.295L269.039 314.422L263.777 313.087L255.334 310.946L253.143 310.392L250.567 309.739L230.328 311.622L226.351 311.992C226.351 311.992 223.849 310.521 221.398 308.184C217.47 304.428 213.672 298.441 220.533 292.707C228.895 285.717 235.415 286.283 241.653 287.638C243.722 288.084 251.356 290.526 251.356 290.526L254.002 290.77L256.198 290.971L270.596 292.295Z" fill="#B55B52"/>
<path d="M263.777 313.088L250.566 309.739L230.327 311.622L234.23 306.393C234.23 306.393 248.897 308.571 251.937 304.892C251.937 304.892 254.398 307.578 260.679 307.033C265.072 306.654 264.512 310.65 263.777 313.088Z" fill="#B55B52"/>
<path d="M255.157 303.712C254.486 306.86 255.023 309.714 255.334 310.946L253.143 310.392L254.001 290.77L256.197 290.971L255.88 294.298C262.982 300.26 255.157 303.712 255.157 303.712Z" fill="#B55B52"/>
<path d="M342.809 281.7C342.696 288.206 342.352 294.407 341.915 300.008C341.534 304.887 341.077 309.312 340.629 313.092C339.638 321.451 338.691 326.663 338.691 326.663L327.091 324.623L312.895 322.13L258.349 312.541L260.086 290.727L306.933 297.716C306.933 297.716 301.449 244.351 299.454 223.902C297.459 203.454 306.933 195.476 306.933 195.476C337.725 204.19 343.424 247.253 342.809 281.7Z" fill="#7D8488"/>
<path d="M340.629 313.092C339.638 321.451 338.691 326.663 338.691 326.663L327.091 324.623C331.815 322.783 337.511 319.36 340.629 313.092Z" fill="#4852AD"/>
<path d="M307.171 296.901C307.171 296.901 322.393 296.414 324.658 305.476C324.658 305.476 320.447 299.654 307.171 296.901Z" fill="#41494D"/>
<path d="M304.326 297.94C304.326 297.94 319.465 299.613 320.425 308.903C320.425 308.903 317.08 302.544 304.326 297.94Z" fill="#41494D"/>
<path d="M262.758 291.198L261.457 313.088L262.758 313.317L263.932 291.302L262.758 291.198Z" fill="#263238"/>
<path d="M266.003 291.611L264.692 313.656L265.994 313.886L267.173 291.786L266.003 291.611Z" fill="#263238"/>
<path d="M250.566 309.739C250.566 309.739 249.612 299.514 251.356 290.526L255.879 290.942C255.879 290.942 253.51 307.388 254.691 310.784L250.566 309.739Z" fill="#263238"/>
<path d="M250.954 309.173C250.954 309.173 250.068 299.009 251.583 291.197L255.513 291.558C255.513 291.558 253.102 307.182 254.128 310.134L250.954 309.173Z" fill="#515B60"/>
<path d="M258.69 298.872C258.69 301.546 256.056 303.713 252.81 303.713C249.562 303.713 246.93 301.546 246.93 298.872C246.93 296.2 249.562 294.033 252.81 294.033C256.056 294.033 258.69 296.2 258.69 298.872Z" fill="#263238"/>
<path d="M258.035 298.872C258.035 301.248 255.695 303.175 252.81 303.175C249.922 303.175 247.582 301.248 247.582 298.872C247.582 296.497 249.922 294.57 252.81 294.57C255.695 294.57 258.035 296.497 258.035 298.872Z" fill="#515B60"/>
<path d="M248.539 297.323C248.539 297.323 249.463 294.909 253.093 294.819C253.093 294.819 250.73 295.132 248.539 297.323Z" fill="#263238"/>
<path d="M251.938 296.34V299.827L257.035 299.514H252.295L251.938 296.34Z" fill="#263238"/>
<path d="M253.177 305.747L251.349 305.59C251.198 305.578 251.085 305.444 251.099 305.292L251.116 305.098C251.128 304.947 251.262 304.834 251.413 304.847L253.24 305.004C253.392 305.018 253.504 305.151 253.492 305.302L253.475 305.496C253.462 305.648 253.328 305.761 253.177 305.747Z" fill="#263238"/>
<path d="M254.308 292.603L252.482 292.446C252.33 292.433 252.218 292.299 252.232 292.148L252.248 291.954C252.26 291.802 252.395 291.691 252.546 291.704L254.373 291.861C254.524 291.874 254.637 292.007 254.623 292.159L254.606 292.353C254.595 292.504 254.46 292.617 254.308 292.603Z" fill="#263238"/>
<path d="M254.209 293.769L252.38 293.612C252.229 293.598 252.117 293.465 252.13 293.314L252.147 293.119C252.16 292.968 252.293 292.855 252.444 292.867L254.272 293.026C254.424 293.038 254.536 293.171 254.523 293.323L254.507 293.517C254.493 293.669 254.36 293.781 254.209 293.769Z" fill="#263238"/>
<path d="M253.177 306.842L251.349 306.685C251.198 306.673 251.085 306.538 251.099 306.387L251.116 306.194C251.128 306.042 251.262 305.929 251.413 305.943L253.24 306.1C253.392 306.114 253.504 306.246 253.492 306.398L253.475 306.592C253.462 306.743 253.328 306.856 253.177 306.842Z" fill="#263238"/>
<path d="M253.177 307.938L251.349 307.781C251.198 307.769 251.085 307.635 251.099 307.483L251.116 307.289C251.128 307.138 251.262 307.025 251.413 307.038L253.24 307.195C253.392 307.209 253.504 307.342 253.492 307.494L253.475 307.688C253.462 307.839 253.328 307.952 253.177 307.938Z" fill="#263238"/>
<path d="M253.177 309.033L251.349 308.876C251.198 308.863 251.085 308.729 251.099 308.578L251.116 308.384C251.128 308.232 251.262 308.12 251.413 308.134L253.24 308.291C253.392 308.305 253.504 308.437 253.492 308.589L253.475 308.783C253.462 308.934 253.328 309.047 253.177 309.033Z" fill="#263238"/>
<path d="M287.814 176.949C287.814 176.949 314.413 153.508 297.456 124.416L282.172 151.1L287.814 176.949Z" fill="#263238"/>
<path d="M273.642 207.529C266.882 206.489 264.365 202.151 263.457 199.601C263.061 198.484 262.972 197.711 262.972 197.711L262.838 197.201L262.836 197.196L262.182 194.727L261.821 193.363L260.497 188.368L257.658 177.644L257.434 176.796L285.113 164.492C285.113 164.492 285.476 166.466 286.093 169.396C286.456 171.133 286.911 173.206 287.431 175.405C289.124 182.543 291.521 190.989 293.841 193.444L293.979 193.603C297.738 198.181 283.254 209.003 273.642 207.529Z" fill="#B55B52"/>
<path d="M286.911 173.206C284.283 181.906 272.55 196.424 267.912 196.239C265.386 196.138 263.321 194.794 261.821 193.363L260.497 188.368C265.32 183.636 280.802 168.897 286.093 169.396C286.456 171.133 286.393 171.008 286.911 173.206Z" fill="#88433D"/>
<path d="M294.388 147.71C294.366 149.08 294.297 150.461 294.176 151.854C293.708 157.2 292.533 162.251 290.788 166.843C284.919 182.327 272.622 192.607 259.375 191.449C250.283 190.654 242.564 184.636 237.622 175.68C235.007 170.953 233.167 165.41 232.308 159.386C232.001 157.267 231.818 155.088 231.763 152.863C231.711 150.752 231.778 148.601 231.967 146.419C232.084 145.107 232.24 143.816 232.442 142.543C235.762 121.123 250.551 105.408 266.768 106.826C282.921 108.237 294.734 126.148 294.388 147.71Z" fill="#B55B52"/>
<path d="M294.389 147.71C294.367 149.08 294.298 150.461 294.176 151.854C293.708 157.2 292.534 162.25 290.789 166.843C260.511 145.637 266.545 124.417 266.545 124.417L294.389 147.71Z" fill="#88433D"/>
<path d="M265.839 121.367C265.839 121.367 258.185 146.416 246.15 151.624C241.058 153.829 235.954 153.721 231.764 152.864C231.71 150.752 231.778 148.6 231.968 146.42C232.083 145.108 232.239 143.815 232.441 142.543L265.839 121.367Z" fill="#88433D"/>
<path d="M270.69 115.272C270.69 115.272 252.403 147.524 230.127 150.848C207.851 154.173 218.822 123.584 235.114 112.945C251.406 102.305 275.012 94.991 270.69 115.272Z" fill="#263238"/>
<path d="M267.781 108.539C266.992 108.554 263.042 127.574 269.36 141.207C275.677 154.838 294.63 166.475 294.63 166.475C294.63 166.475 318.235 107.625 267.781 108.539Z" fill="#263238"/>
<path d="M267.225 115.146C267.225 115.146 255.537 79.9787 283.031 82.6089C324.301 86.5577 332.975 121.121 288.475 130.033" fill="#263238"/>
<path d="M275.353 152.731C275.353 152.731 276.026 137.127 281.829 138.506C287.633 139.885 291.123 153.444 286.525 157.529C281.928 161.614 278.37 159.08 278.37 159.08L275.353 152.731Z" fill="#B55B52"/>
<path d="M266.036 102.571C266.036 102.571 278.323 100.828 289.33 110.003C300.356 119.194 299.379 126.981 299.379 126.981C299.379 126.981 295.163 107.595 266.036 102.571Z" fill="#D9D9D9"/>
<path d="M278.879 144.199C278.879 144.199 280.31 140.431 282.206 141.207C284.102 141.982 288.201 147.873 286.762 151.854C285.32 155.836 282.97 155.393 282.97 155.393C282.97 155.393 287.093 152.199 285.653 148.254C284.212 144.31 281.638 141.096 278.879 144.199Z" fill="#88433D"/>
<path d="M267.813 101.713C267.813 101.713 261.697 93.3771 265.513 86.9074C265.513 86.9074 262.582 91.7942 267.813 101.713Z" fill="#515B60"/>
<path d="M313.352 122.035C313.352 122.035 304.531 127.312 299.993 121.645C299.993 121.645 303.408 125.981 313.352 122.035Z" fill="#515B60"/>
<path d="M299.335 155.404C299.501 157.278 299.311 159.165 298.979 161.013C298.628 162.861 298.084 164.67 297.413 166.43C297.042 167.294 296.708 168.179 296.27 169.013C296.053 169.433 295.86 169.864 295.626 170.272L294.899 171.485C294.773 171.684 294.654 171.888 294.524 172.084L294.115 172.66C293.842 173.043 293.575 173.431 293.294 173.808C292.717 174.551 292.098 175.26 291.481 175.966L291.445 175.936C291.703 175.543 291.973 175.16 292.234 174.773C292.499 174.387 292.786 174.019 293.031 173.622C293.274 173.222 293.532 172.834 293.782 172.441L294.16 171.853C294.28 171.654 294.389 171.448 294.505 171.246L295.206 170.039C295.44 169.637 295.642 169.218 295.862 168.808C296.321 167.997 296.676 167.135 297.071 166.292C297.777 164.569 298.36 162.792 298.752 160.968C299.142 159.147 299.394 157.276 299.289 155.41L299.335 155.404Z" fill="#263238"/>
<path d="M300.911 155.188L300.484 155.009C305.336 143.468 303.522 135.073 301.144 130.063C298.568 124.631 294.793 121.888 294.755 121.861L295.022 121.486C295.061 121.513 298.92 124.312 301.552 129.843C303.976 134.942 305.833 143.478 300.911 155.188Z" fill="#263238"/>
<path d="M257.557 106.738C253.862 108.128 250.229 109.681 246.691 111.424C244.919 112.29 243.171 113.204 241.465 114.19C239.761 115.176 238.087 116.219 236.503 117.383C234.92 118.545 233.401 119.806 232.105 121.269C231.458 122.002 230.837 122.77 230.237 123.548C229.634 124.324 229.054 125.12 228.498 125.93C227.383 127.549 226.36 129.231 225.458 130.976C224.561 132.721 223.772 134.527 223.219 136.402C222.942 137.338 222.724 138.291 222.614 139.254C222.522 140.211 222.52 141.202 222.842 142.078C222.885 142.184 222.921 142.296 222.98 142.394C223.034 142.493 223.085 142.603 223.147 142.672C223.271 142.828 223.457 142.952 223.659 143.052C224.069 143.248 224.541 143.355 225.016 143.419C225.97 143.549 226.953 143.53 227.926 143.454C229.875 143.295 231.806 142.894 233.695 142.36C235.583 141.822 237.434 141.148 239.23 140.35C242.819 138.75 246.192 136.638 249.133 134.021C250.607 132.717 251.961 131.277 253.171 129.722C254.381 128.167 255.427 126.485 256.31 124.72C254.65 128.307 252.2 131.512 249.285 134.189C246.356 136.858 242.978 139.021 239.376 140.673C237.575 141.501 235.713 142.198 233.804 142.745C231.897 143.289 229.946 143.704 227.959 143.874C226.966 143.953 225.963 143.978 224.957 143.847C224.457 143.778 223.952 143.673 223.468 143.444C223.23 143.326 222.991 143.177 222.804 142.947C222.705 142.826 222.652 142.711 222.589 142.594C222.52 142.479 222.478 142.355 222.43 142.233C222.066 141.245 222.074 140.204 222.165 139.207C222.276 138.207 222.495 137.228 222.776 136.271C223.349 134.359 224.155 132.535 225.067 130.773C225.984 129.013 227.023 127.32 228.153 125.692C228.717 124.877 229.303 124.078 229.914 123.298C230.522 122.515 231.146 121.749 231.807 121.004C232.463 120.249 233.198 119.577 233.945 118.922C234.329 118.606 234.704 118.281 235.102 117.984C235.299 117.834 235.493 117.679 235.693 117.532L236.296 117.096C237.906 115.94 239.6 114.909 241.322 113.938C243.045 112.967 244.807 112.067 246.593 111.221C248.381 110.377 250.191 109.587 252.019 108.836C253.846 108.088 255.689 107.377 257.557 106.738Z" fill="#515B60"/>
<path d="M254.766 104.753C252.893 104.924 251.043 105.285 249.223 105.739C247.403 106.192 245.61 106.753 243.857 107.415C240.354 108.741 236.977 110.419 233.867 112.504C233.075 113.004 232.322 113.561 231.557 114.1C230.818 114.675 230.06 115.227 229.353 115.841C228.997 116.145 228.626 116.433 228.283 116.751L227.243 117.696C226.89 118.004 226.572 118.349 226.233 118.672L225.729 119.163C225.559 119.324 225.394 119.49 225.236 119.663C224.595 120.346 223.937 121.016 223.337 121.736C223.032 122.093 222.718 122.443 222.421 122.806L221.547 123.907L221.106 124.457C220.962 124.643 220.827 124.835 220.687 125.022L219.853 126.159L219.645 126.443L219.449 126.735L219.057 127.321L218.266 128.489C218.757 127.689 219.23 126.874 219.752 126.09L220.545 124.92C220.679 124.726 220.807 124.529 220.945 124.338L221.367 123.77L222.218 122.642C222.51 122.271 222.817 121.913 223.115 121.548C223.703 120.809 224.349 120.121 224.978 119.418C226.268 118.041 227.631 116.728 229.083 115.519C229.792 114.894 230.552 114.333 231.292 113.746C232.061 113.197 232.817 112.629 233.613 112.119C235.195 111.086 236.831 110.134 238.526 109.3C240.219 108.462 241.952 107.705 243.736 107.083C247.294 105.839 251.001 104.937 254.766 104.753Z" fill="#515B60"/>
<path d="M244.61 158.647C243.86 158.029 243.063 157.511 242.222 157.149C241.385 156.785 240.497 156.606 239.627 156.685C238.755 156.757 237.912 157.089 237.135 157.575C236.35 158.054 235.635 158.683 234.921 159.344C235.388 158.478 236.015 157.695 236.796 157.068C237.569 156.441 238.533 155.987 239.56 155.906C240.585 155.812 241.618 156.092 242.482 156.599C243.343 157.109 244.088 157.805 244.61 158.647Z" fill="#88433D"/>
<path d="M260.836 156.279C260.085 155.661 259.288 155.143 258.447 154.782C257.609 154.418 256.723 154.238 255.852 154.318C254.981 154.388 254.136 154.721 253.36 155.208C252.575 155.687 251.861 156.316 251.146 156.976C251.614 156.11 252.241 155.327 253.021 154.699C253.796 154.073 254.758 153.619 255.786 153.538C256.811 153.444 257.844 153.724 258.707 154.231C259.569 154.742 260.314 155.437 260.836 156.279Z" fill="#88433D"/>
<path d="M248.661 161.718C248.185 163.023 247.749 164.338 247.352 165.66C247.162 166.323 246.973 166.986 246.822 167.657C246.666 168.325 246.533 168.999 246.456 169.676C246.375 170.35 246.343 171.033 246.448 171.684C246.542 172.33 246.832 172.955 247.4 173.229C247.966 173.51 248.677 173.458 249.336 173.323C250.006 173.187 250.657 172.946 251.303 172.69C250.702 173.039 250.063 173.327 249.391 173.542C249.052 173.639 248.702 173.714 248.339 173.735C247.978 173.755 247.599 173.709 247.247 173.555C246.891 173.408 246.593 173.128 246.398 172.803C246.195 172.478 246.087 172.117 246.017 171.759C245.889 171.041 245.922 170.323 245.998 169.621C246.174 168.219 246.553 166.866 247.011 165.55C247.47 164.234 248.021 162.952 248.661 161.718Z" fill="#88433D"/>
<path d="M260.524 173.483C260.524 173.483 257.724 181.795 251.739 180.797C245.754 179.799 244.387 174.812 244.387 174.812C244.387 174.812 244.849 175.004 245.648 175.24C248.238 176.005 254.381 177.233 259.883 173.894H259.885C260.099 173.765 260.311 173.626 260.524 173.483Z" fill="white"/>
<path d="M280.332 81.2297C283.403 80.9306 286.509 81.0638 289.575 81.4374C291.111 81.6212 292.633 81.9074 294.141 82.2512C294.896 82.4191 295.642 82.6238 296.391 82.8255C297.131 83.0481 297.874 83.2667 298.604 83.5251C300.062 84.0447 301.502 84.627 302.887 85.3196C304.273 86.0092 305.638 86.7514 306.911 87.6358C309.496 89.3419 311.794 91.4654 313.748 93.8481C312.682 92.7362 311.616 91.6223 310.417 90.6585L309.982 90.2829L309.529 89.9292L308.619 89.2237C307.986 88.7904 307.374 88.3264 306.717 87.9319C304.137 86.2775 301.352 84.9509 298.452 83.9613C295.568 82.9219 292.56 82.2522 289.527 81.7881C288.009 81.5576 286.48 81.3996 284.946 81.3052C283.412 81.1979 281.872 81.1711 280.332 81.2297Z" fill="#515B60"/>
<path d="M273.642 207.529C266.882 206.489 264.365 202.151 263.457 199.601C265.238 201.588 269.846 206.092 275.142 206.243C281.943 206.434 289.606 200.59 289.606 200.59C289.606 200.59 293.501 196.637 293.979 193.603C297.738 198.181 283.254 209.003 273.642 207.529Z" fill="#88433D"/>
<path d="M287.06 159.827C287.06 162.19 285.733 164.105 284.099 164.105C282.77 164.105 281.645 162.841 281.27 161.1V161.097C281.182 160.696 281.136 160.27 281.136 159.827C281.136 157.465 282.461 155.552 284.099 155.552C285.193 155.552 286.146 156.407 286.66 157.676L286.662 157.683C286.916 158.311 287.06 159.045 287.06 159.827Z" fill="#D9D9D9"/>
<path d="M286.792 158.948C286.792 161.31 285.465 163.225 283.831 163.225C282.738 163.225 281.782 162.371 281.27 161.1V161.097C281.182 160.696 281.136 160.27 281.136 159.827C281.136 157.465 282.461 155.552 284.099 155.552C285.193 155.552 286.146 156.407 286.66 157.676L286.662 157.683C286.747 158.083 286.792 158.508 286.792 158.948Z" fill="#D9D9D9"/>
<path d="M95.2413 294.099C95.2781 292.533 95.2045 290.999 95.0933 289.456C94.976 287.916 94.8051 286.382 94.5855 284.856C94.1453 281.803 93.5113 278.779 92.6861 275.809C91.8602 272.837 90.8378 269.923 89.6179 267.092C88.401 264.26 86.9664 261.524 85.3455 258.904C82.0928 253.672 78.0033 248.96 73.2517 245.049C72.0589 244.079 70.8447 243.133 69.5774 242.262C68.9541 241.813 68.3042 241.401 67.6638 240.976C67.3437 240.763 67.0114 240.569 66.6857 240.366C66.357 240.166 66.0359 239.955 65.7002 239.768C63.0488 238.213 60.2871 236.85 57.4482 235.678C60.2759 236.877 63.0224 238.265 65.6552 239.843C65.9886 240.034 66.3069 240.248 66.6333 240.45C66.9567 240.657 67.2861 240.853 67.6037 241.068C68.2387 241.499 68.8838 241.915 69.5013 242.37C70.757 243.251 71.9587 244.206 73.1387 245.185C77.8384 249.129 81.8615 253.859 85.0451 259.089C86.6319 261.709 88.0311 264.441 89.2123 267.265C90.3972 270.088 91.3847 272.992 92.1758 275.947C92.9672 278.904 93.567 281.91 93.9744 284.94C94.1771 286.456 94.3321 287.978 94.4325 289.502C94.5298 291.023 94.5865 292.563 94.5368 294.068V294.079C94.5298 294.274 94.6829 294.437 94.8776 294.443C95.0724 294.449 95.2353 294.297 95.2413 294.102V294.099Z" fill="#899689"/>
<path d="M93.9955 283.31C93.9955 283.31 81.21 271.553 78.6293 279.996C76.5752 286.716 93.9955 283.31 93.9955 283.31Z" fill="#6C7C6C"/>
<path d="M93.9912 283.372C93.9912 283.372 98.417 266.576 105.144 272.293C110.497 276.845 93.9912 283.372 93.9912 283.372Z" fill="#556A55"/>
<path d="M90.9886 271.393C90.9886 271.393 78.17 261.1 76.2677 269.237C74.7535 275.712 90.9886 271.393 90.9886 271.393Z" fill="#6C7C6C"/>
<path d="M90.9883 271.409C90.9883 271.409 94.1038 255.267 100.819 260.241C106.163 264.199 90.9883 271.409 90.9883 271.409Z" fill="#556A55"/>
<path d="M86.2684 260.802C86.2684 260.802 71.6694 253.243 71.4113 261.596C71.206 268.243 86.2684 260.802 86.2684 260.802Z" fill="#6C7C6C"/>
<path d="M86.2687 260.773C86.2687 260.773 86.1356 244.334 93.7003 247.883C99.7208 250.709 86.2687 260.773 86.2687 260.773Z" fill="#556A55"/>
<path d="M69.9223 242.598C69.9223 242.598 58.4529 241.595 60.5121 247.073C62.1508 251.432 69.9223 242.598 69.9223 242.598Z" fill="#6C7C6C"/>
<path d="M69.9257 242.614C69.9257 242.614 65.4565 232.003 71.3021 232.285C75.9544 232.51 69.9257 242.614 69.9257 242.614Z" fill="#556A55"/>
<path d="M78.018 249.613C78.018 249.613 65.1331 245.653 66.1477 252.429C66.9558 257.822 78.018 249.613 78.018 249.613Z" fill="#6C7C6C"/>
<path d="M77.9601 249.666C77.9601 249.666 75.4445 236.423 82.067 238.178C87.3381 239.576 77.9601 249.666 77.9601 249.666Z" fill="#556A55"/>
<path d="M64.8368 239.262C64.8368 239.262 57.4756 232.002 55.7642 236.972C54.4022 240.925 64.8368 239.262 64.8368 239.262Z" fill="#556A55"/>
<path d="M112.344 290.642L106.215 323.264L105.846 325.225H80.8645L74.3669 290.642C74.1697 289.598 74.3522 288.583 74.8067 287.727C75.55 286.319 77.0277 285.334 78.7697 285.334H107.941C110.746 285.334 112.862 287.886 112.344 290.642Z" fill="#263238"/>
<path d="M106.215 323.264L105.846 325.225H80.8645L74.3669 290.642C74.1697 289.598 74.3522 288.583 74.8067 287.727C76.0429 293.084 79.4986 306.134 85.2032 313.227C90.265 319.521 100.451 322.206 106.215 323.264Z" fill="#263238"/>
<path d="M85.0271 319.766C84.4705 319.766 84.0195 319.134 84.0195 318.355C84.0195 317.576 84.4705 316.944 85.0271 316.944C85.5841 316.944 86.0352 317.576 86.0352 318.355C86.0352 319.134 85.5841 319.766 85.0271 319.766Z" fill="#263238"/>
<path d="M238.742 317.954H234.616V323.828L238.742 323.827" fill="#4B63B8"/>
<path d="M234.616 323.828H130.88L121.41 240.409L121.406 240.373H225.141L234.616 323.828Z" fill="#6C7C6C"/>
<path d="M238.741 317.954H270.549V323.827H238.741V317.954Z" fill="#6479C5"/>
<path d="M225.142 240.373L229.631 239.043L238.608 322.33L234.615 323.827L225.142 240.373Z" fill="#6C7C6C"/>
<path d="M121.406 240.373L126.559 239.043H229.63L225.141 240.373H121.406Z" fill="#556A55"/>
<path d="M187.704 280.741C187.704 285.562 183.128 289.47 177.481 289.47C171.834 289.47 167.257 285.562 167.257 280.741C167.257 275.922 171.834 272.014 177.481 272.014C183.128 272.014 187.704 275.922 187.704 280.741Z" fill="#556A55"/>
<path d="M219.785 323.828H130.88L121.41 240.408C121.722 242.27 135.126 319.609 219.785 323.828Z" fill="#6C7C6C"/>
<path d="M190.783 241.118H224.409L226.793 263.893L223.097 242.669L190.783 241.118Z" fill="#6C7C6C"/>
<path d="M297.736 18.4642L311.517 53.7788L249.672 77.9127L235.892 42.5981L297.736 18.4642Z" fill="#6C7C6C"/>
<path d="M297.357 18.6123L296.372 18.9969L285.68 43.3753L285.38 44.0579L278.348 60.0916L262.315 53.0584L261.633 52.7584L237.255 42.0666L236.271 42.4502L261.333 53.442L250.791 77.4756L251.775 77.092L262.015 53.7421L278.731 61.0733L286.063 44.357L309.414 54.5986L310.398 54.2151L286.363 43.6744L297.357 18.6123Z" fill="#F0F3FB"/>
<path d="M182.271 166.772V157.939C182.271 146.838 173.271 137.838 162.17 137.838H96.371C85.2698 137.838 76.2705 146.838 76.2705 157.939V166.772C76.2705 177.873 85.2698 186.872 96.371 186.872H143.681L176.817 196.755L171.383 184.641C177.85 181.299 182.271 174.552 182.271 166.772Z" fill="#6C7C6C"/>
<path d="M166.012 153.217H91.8675C90.3984 153.217 89.208 152.027 89.208 150.558C89.208 149.089 90.3984 147.898 91.8675 147.898H166.012C167.482 147.898 168.672 149.089 168.672 150.558C168.672 152.027 167.482 153.217 166.012 153.217Z" fill="#F0F3FB"/>
<path d="M166.012 164.522H91.8675C90.3984 164.522 89.208 163.332 89.208 161.862C89.208 160.393 90.3984 159.202 91.8675 159.202H166.012C167.482 159.202 168.672 160.393 168.672 161.862C168.672 163.332 167.482 164.522 166.012 164.522Z" fill="#F0F3FB"/>
<path d="M137.95 175.827H91.3358C90.1609 175.827 89.208 174.874 89.208 173.698V172.635C89.208 171.46 90.1609 170.507 91.3358 170.507H137.95C139.126 170.507 140.077 171.46 140.077 172.635V173.698C140.077 174.874 139.126 175.827 137.95 175.827Z" fill="#F0F3FB"/>
<path d="M395.01 287.867V294.102C395.01 295.203 394.117 296.097 393.015 296.097H392.517C391.413 296.097 390.521 295.203 390.521 294.102V287.867C390.521 287.488 390.628 287.133 390.812 286.828C391.163 286.256 391.794 285.872 392.517 285.872H393.015C393.657 285.872 394.228 286.174 394.59 286.646C394.853 286.983 395.01 287.408 395.01 287.867Z" fill="#727272"/>
<path d="M383.212 287.867V294.102C383.212 295.203 382.319 296.097 381.217 296.097H380.718C379.615 296.097 378.723 295.203 378.723 294.102V287.867C378.723 287.488 378.83 287.133 379.014 286.828C379.366 286.256 379.996 285.872 380.718 285.872H381.217C381.859 285.872 382.429 286.174 382.792 286.646C383.055 286.983 383.212 287.408 383.212 287.867Z" fill="#727272"/>
<path d="M406.863 323.847H365.69C363.148 323.847 361.407 320.583 362.344 317.574L363.229 314.736L368.855 296.674C369.401 294.929 370.726 293.78 372.201 293.78H400.351C401.827 293.78 403.151 294.929 403.697 296.674L408.469 311.994L410.208 317.574C411.145 320.583 409.405 323.847 406.863 323.847Z" fill="#263238"/>
<path d="M406.863 323.847H365.69C363.148 323.847 361.407 320.583 362.344 317.574L363.229 314.736C364.175 315.704 366.164 316.881 370.069 318.191C380.791 321.781 400.241 319.537 400.241 319.537C400.241 319.537 405.724 317.916 408.469 311.994L410.208 317.574C411.145 320.583 409.405 323.847 406.863 323.847Z" fill="#727272"/>
<path d="M416.304 295.056C416.306 296.653 415.006 297.946 413.408 297.946H407.237C405.876 297.946 404.713 296.997 404.408 295.672C403.865 293.305 402.443 289.828 398.723 288.95C398.524 288.901 398.319 288.886 398.114 288.886H374.55C374.346 288.886 374.14 288.901 373.941 288.95C370.222 289.828 368.797 293.305 368.254 295.672C367.952 296.997 366.789 297.946 365.428 297.946H359.257C357.658 297.946 356.359 296.653 356.361 295.056C356.363 292.883 356.652 289.83 357.949 287.14C360.03 282.832 365.957 281.709 367.197 281.52C367.339 281.497 367.483 281.487 367.625 281.487H405.036C405.181 281.487 405.325 281.497 405.467 281.52C406.708 281.709 412.634 282.832 414.712 287.14C416.013 289.83 416.301 292.883 416.304 295.056Z" fill="#263238"/>
<path d="M412.928 297.946H407.237C405.877 297.946 404.713 296.997 404.408 295.672C403.865 293.305 402.443 289.828 398.723 288.95C398.524 288.901 398.319 288.886 398.114 288.886H374.551C374.346 288.886 374.14 288.901 373.941 288.95C370.222 289.828 368.797 293.305 368.255 295.672C367.953 296.997 366.789 297.946 365.429 297.946H361.339C361.672 297.946 367.545 297.198 367.768 292.6C367.989 288.006 375.193 287.195 382.065 287.488C388.936 287.784 398.135 286.531 400.684 287.488C403.232 288.449 405.006 291.132 405.56 293.78C406.114 296.428 410.658 297.667 412.543 297.712C412.776 297.717 412.896 297.802 412.928 297.946Z" fill="#727272"/>
<path d="M384.349 302.964H378.581C378.297 302.964 378.066 302.733 378.066 302.449V300.706C378.066 300.421 378.297 300.192 378.581 300.192H384.349C384.633 300.192 384.863 300.421 384.863 300.706V302.449C384.863 302.733 384.633 302.964 384.349 302.964Z" fill="#727272"/>
<path d="M394.993 302.964H389.225C388.941 302.964 388.71 302.732 388.71 302.449V300.705C388.71 300.421 388.941 300.192 389.225 300.192H394.993C395.277 300.192 395.508 300.421 395.508 300.705V302.449C395.508 302.732 395.277 302.964 394.993 302.964Z" fill="#727272"/>
<path d="M384.349 307.557H378.581C378.297 307.557 378.066 307.326 378.066 307.042V305.298C378.066 305.015 378.297 304.785 378.581 304.785H384.349C384.633 304.785 384.863 305.015 384.863 305.298V307.042C384.863 307.326 384.633 307.557 384.349 307.557Z" fill="#727272"/>
<path d="M394.993 307.557H389.225C388.941 307.557 388.71 307.326 388.71 307.042V305.298C388.71 305.015 388.941 304.784 389.225 304.784H394.993C395.277 304.784 395.508 305.015 395.508 305.298V307.042C395.508 307.326 395.277 307.557 394.993 307.557Z" fill="#727272"/>
<path d="M384.349 312.151H378.581C378.297 312.151 378.066 311.92 378.066 311.636V309.892C378.066 309.608 378.297 309.378 378.581 309.378H384.349C384.633 309.378 384.863 309.608 384.863 309.892V311.636C384.863 311.92 384.633 312.151 384.349 312.151Z" fill="#727272"/>
<path d="M394.993 312.151H389.225C388.941 312.151 388.71 311.92 388.71 311.636V309.892C388.71 309.608 388.941 309.378 389.225 309.378H394.993C395.277 309.378 395.508 309.608 395.508 309.892V311.636C395.508 311.92 395.277 312.151 394.993 312.151Z" fill="#727272"/>
<path d="M400.39 149.094C389.863 161.901 370.948 163.75 358.14 153.223C345.332 142.696 343.484 123.78 354.01 110.973C364.537 98.1656 383.452 96.3164 396.26 106.843C409.068 117.369 410.917 136.285 400.39 149.094Z" fill="#6C7C6C"/>
<path d="M393.202 146.733L393.199 146.737L393.198 146.738C390.978 149.036 386.968 149.428 382.288 148.176C377.96 147.018 373.052 144.448 368.456 140.671C363.861 136.893 360.39 132.577 358.415 128.555C356.28 124.205 355.89 120.195 357.714 117.574L357.715 117.572L357.718 117.569C358.761 116.48 360.067 115.771 361.454 115.459C362.74 115.166 364.096 115.216 365.373 115.622C366.004 115.822 366.511 116.289 366.776 116.896C367.56 118.694 368.657 120.563 370.03 122.427C370.415 122.948 370.557 123.61 370.428 124.244C370.192 125.398 369.68 126.513 368.88 127.485L368.867 127.502C368.127 128.397 368.135 129.689 368.924 130.541C370.249 131.974 371.733 133.375 373.356 134.709C374.98 136.044 376.642 137.228 378.305 138.251C379.293 138.86 380.562 138.617 381.297 137.718L381.31 137.703C382.11 136.729 383.104 136.01 384.19 135.557C384.788 135.306 385.465 135.317 386.05 135.594C388.146 136.58 390.191 137.295 392.107 137.715C392.753 137.857 393.31 138.265 393.629 138.845C394.275 140.019 394.586 141.34 394.547 142.659C394.51 144.079 394.067 145.498 393.202 146.733Z" fill="#F0F3FB"/>
<path d="M388.19 130.692C388.075 130.597 387.996 130.458 387.98 130.298C387.829 128.745 387.386 127.259 386.665 125.883C385.918 124.459 384.904 123.215 383.65 122.184C382.397 121.154 380.98 120.401 379.438 119.944C377.949 119.504 376.406 119.357 374.853 119.509C374.533 119.539 374.247 119.306 374.215 118.985C374.184 118.664 374.418 118.379 374.739 118.347C376.443 118.181 378.136 118.342 379.769 118.826C381.461 119.327 383.017 120.153 384.392 121.283C385.766 122.413 386.878 123.778 387.698 125.341C388.49 126.852 388.974 128.48 389.141 130.184C389.172 130.505 388.938 130.791 388.617 130.821C388.457 130.837 388.306 130.787 388.19 130.692Z" fill="#F0F3FB"/>
<path d="M391.743 130.344C391.628 130.25 391.549 130.111 391.533 129.95C391.337 127.935 390.762 126.009 389.826 124.224C388.858 122.377 387.543 120.762 385.918 119.427C384.293 118.09 382.453 117.113 380.454 116.52C378.521 115.949 376.521 115.758 374.505 115.955C374.185 115.987 373.9 115.752 373.868 115.431C373.836 115.111 374.072 114.825 374.392 114.794C376.557 114.583 378.708 114.787 380.785 115.401C382.936 116.038 384.912 117.09 386.658 118.525C388.405 119.961 389.818 121.696 390.86 123.683C391.865 125.601 392.482 127.672 392.694 129.837C392.725 130.157 392.491 130.442 392.17 130.474C392.01 130.489 391.858 130.438 391.743 130.344Z" fill="#F0F3FB"/>
<path d="M395.017 130.024C394.902 129.929 394.823 129.791 394.807 129.631C394.569 127.19 393.873 124.857 392.74 122.696C391.567 120.458 389.975 118.503 388.006 116.885C386.038 115.267 383.811 114.083 381.389 113.366C379.05 112.673 376.625 112.442 374.185 112.682C373.865 112.713 373.58 112.478 373.548 112.157C373.516 111.837 373.752 111.552 374.071 111.52C376.662 111.267 379.235 111.511 381.72 112.248C384.293 113.009 386.657 114.266 388.747 115.984C390.836 117.701 392.528 119.777 393.774 122.154C394.976 124.45 395.714 126.927 395.968 129.516C395.999 129.837 395.765 130.122 395.444 130.154C395.283 130.17 395.132 130.118 395.017 130.024Z" fill="#F0F3FB"/>
<path d="M42.0976 335.49H442.255C443.652 335.49 444.784 334.359 444.784 332.962V326.099C444.784 324.702 443.652 323.57 442.255 323.57H42.0976C40.7016 323.57 39.5693 324.701 39.5693 326.099V332.962C39.5693 334.359 40.7016 335.49 42.0976 335.49Z" fill="#6C7C6C" stroke="#556A55"/>
</svg>
