<svg width="74" height="75" viewBox="0 0 74 75" fill="none" xmlns="http://www.w3.org/2000/svg">
<path d="M37.2701 74.0594C57.0445 74.0594 73.0516 57.765 73.0516 37.6937C73.0516 17.6224 57.0445 1.32803 37.2701 1.32803C17.4957 1.32803 1.48868 17.6224 1.48868 37.6937C1.48868 57.765 17.4957 74.0594 37.2701 74.0594Z" fill="white" stroke="black" stroke-width="1.6496"/>
<path d="M36.8333 55.6729C36.2206 55.7339 36.0366 55.266 36.0366 55.6729C36.0366 56.4052 35.2825 57.9927 34.3826 58.2571C33.521 58.5012 33.2721 58.4809 31.0895 57.8503C28.926 57.24 25.92 57.0976 24.1012 57.5045C23.2013 57.7079 21.7271 57.83 20.1762 57.83C18.7403 57.83 17.132 57.9723 16.3853 58.1351C15.1217 58.4199 12.8433 59.376 13.0156 59.559C13.073 59.5997 13.724 59.4573 14.4707 59.2539C15.2174 59.0505 16.2321 58.8064 16.7299 58.7453L17.6298 58.5826L17.2277 59.4166C16.998 59.8845 16.4619 60.6372 16.0024 61.105L15.1982 61.9391L15.9832 61.5322C16.8831 61.044 17.783 60.0269 18.1467 59.0912C18.3956 58.4402 18.4148 58.4402 19.7167 58.4402C21.0761 58.4402 21.3633 58.6233 20.5974 58.9895C19.4295 59.559 16.2513 62.9358 16.2513 63.6275C16.2513 63.7088 17.0746 62.9358 18.0702 61.9187C19.0849 60.9016 20.1762 59.9252 20.5017 59.7421L21.0952 59.4166L20.9612 60.0676C20.9038 60.4337 20.8463 60.7999 20.8463 60.8813C20.8463 60.9626 20.6357 61.105 20.3868 61.1661C19.6401 61.3695 18.0702 62.8138 17.7064 63.6275C17.5149 64.0343 17.4192 64.4208 17.4575 64.4818C17.5149 64.5225 17.8978 64.1767 18.3191 63.6885C18.7403 63.2003 19.4487 62.59 19.8699 62.3459L20.6549 61.878V62.3459C20.6357 62.9562 19.9656 64.5225 19.4678 65.0921C18.7211 65.9261 19.2381 65.7837 20.0231 64.9294L20.7889 64.1157L21.3824 64.8683C21.7462 65.3362 22.0717 66.0889 22.2057 66.7195C22.378 67.4721 22.512 67.7366 22.6461 67.5942C22.9524 67.2687 22.4738 65.2752 21.8036 64.1157C21.2675 63.1799 21.2293 63.0375 21.4399 62.2645C21.5547 61.817 21.7079 60.8813 21.7653 60.1896L21.8994 58.9488L22.8567 58.6233C23.3928 58.4402 24.1395 58.2165 24.5415 58.1554C25.2499 58.013 25.2499 58.013 25.2499 58.6843C25.2499 60.1083 24.1012 61.8984 22.378 63.1596L21.8994 63.5257L22.4355 63.3223C22.7418 63.2003 23.1822 62.9765 23.3928 62.8138C23.9671 62.3866 24.1012 62.4069 25.0968 63.3223L25.9966 64.136L25.0585 65.0717C24.082 66.0482 23.5268 67.0449 23.5268 67.8179C23.5268 68.2044 23.6608 68.062 24.216 67.1873C24.9053 66.0278 25.9392 64.97 26.3413 64.9497C26.6476 64.9497 27.1645 66.0075 27.1645 66.6177C27.1645 66.8822 27.0497 67.5738 26.8965 68.1637C26.5902 69.4453 26.8582 69.547 27.356 68.3672L27.7198 67.5128L27.9495 68.5096C28.141 69.2826 28.2176 69.4046 28.3133 69.0995C28.5048 68.5706 28.3516 67.3501 27.8921 65.7024C27.6623 64.909 27.5666 64.2377 27.6623 64.136C27.8155 63.9936 30.1322 63.3223 30.496 63.3223C30.6874 63.3223 29.9024 64.4411 29.2323 65.1124C28.7154 65.6413 28.5048 66.5771 28.8877 66.5771C29.0026 66.5771 29.0791 66.394 29.0791 66.1906C29.0791 65.6413 29.4429 65.4379 29.5769 65.9058C29.7684 66.5364 30.0939 67.1873 30.2279 67.1873C30.3045 67.1873 30.3236 66.6991 30.2662 66.1092C30.1896 65.1124 30.2279 64.9497 30.8023 64.2581C31.1469 63.8512 31.5873 63.424 31.7596 63.3223C32.0659 63.1392 32.0659 63.1799 31.817 63.9733C31.5681 64.7463 31.5873 65.1531 31.8745 66.2109C31.9319 66.4347 31.817 66.5974 31.5298 66.6788C30.4002 67.0449 29.0791 68.6113 29.0791 69.5674C29.0791 70.1573 29.3855 70.1776 29.5578 69.608C29.8641 68.5909 31.8936 66.8415 32.2765 67.2687C32.5829 67.5942 32.3914 69.3843 31.9702 70.1369L31.549 70.9099L31.9894 70.6048C32.5829 70.198 33.0998 69.0791 33.0998 68.2044C33.0998 67.8179 32.9275 67.0042 32.7169 66.4143C32.1808 64.909 32.2191 64.7056 33.1956 64.2174L34.038 63.7902L34.5358 64.3191C34.7847 64.6242 35.0719 65.1531 35.1293 65.5193C35.2825 66.3126 35.5888 66.1702 35.5888 65.2955C35.5888 64.848 35.3974 64.4208 35.0144 63.9733C34.2677 63.0986 34.2869 62.4476 35.0719 61.6339C35.9717 60.6982 36.3547 60.0472 36.3547 59.437C36.3547 59.0912 36.527 58.786 36.8333 58.5623C37.0822 58.3792 37.3311 58.2368 37.3503 58.2368C37.4843 58.2368 37.2737 60.3931 37.1205 60.7796C37.0248 61.0033 36.9099 61.4509 36.8333 61.7763C36.7759 62.1221 36.4121 62.6917 36.0483 63.0579C35.3974 63.7088 35.5314 63.7699 36.527 63.2613C36.7759 63.1189 37.1396 62.6714 37.3311 62.2239L37.6566 61.4509L37.8481 62.4069C38.0012 63.1596 37.9821 63.4851 37.7906 63.8105C37.6566 64.0546 37.4651 64.5835 37.4077 64.9904C37.312 65.5193 37.0439 65.9871 36.527 66.4754C36.1058 66.8619 35.876 67.1873 35.9717 67.1873C36.3738 67.1873 37.2928 66.5771 37.6949 66.0278L38.1161 65.4582L38.0395 67.1873C37.9821 68.1434 37.8098 69.3029 37.6566 69.7708C37.4843 70.259 37.446 70.6455 37.5417 70.6455C37.8098 70.6455 38.8245 68.1637 39.1117 66.8212L39.3606 65.6617L39.8392 66.4754C40.2987 67.2484 40.8348 68.6723 41.0072 69.5267C41.0646 69.7504 41.1029 69.4656 41.122 68.9164C41.1412 67.8179 40.4902 66.0278 39.7818 65.2141C39.5521 64.9904 39.418 64.6039 39.4563 64.3598C39.5138 63.9936 39.6286 64.0343 40.5285 64.909C41.3901 65.7024 41.5624 66.0075 41.6581 66.7195C41.7921 67.7772 42.041 67.8586 42.1942 66.9025C42.3282 66.1702 42.1176 65.56 41.4667 64.787L41.0837 64.3394H41.5815C42.2708 64.3394 43.0558 64.7463 43.0558 65.1124C43.0558 65.2955 43.209 65.6006 43.4004 65.8244C43.6685 66.1499 43.7259 66.5974 43.7259 68.3265C43.7259 69.486 43.745 70.4421 43.7833 70.4421C43.8216 70.4421 43.9556 70.1369 44.1088 69.7504C44.4917 68.774 44.7023 66.2719 44.4152 66.0889C44.3003 66.0075 44.2045 65.8447 44.2045 65.7227C44.2045 65.3565 45.1619 66.394 45.6788 67.3297C46.2723 68.4079 46.617 68.4689 46.2149 67.4518C45.5256 65.7227 44.3003 64.5632 42.1559 63.6071C40.4711 62.8748 39.6286 62.2239 39.3032 61.3491C39.016 60.6575 39.0925 59.5387 39.4563 58.786C39.6095 58.4606 39.6861 58.4402 40.0498 58.7047C40.2796 58.8674 40.7774 59.0505 41.1603 59.1318C41.9836 59.2946 42.3474 59.8845 42.3665 61.1864C42.3857 62.1018 42.3857 62.1221 42.7112 61.6746C42.9983 61.3085 43.0749 61.2881 43.1707 61.5729C43.2281 61.7356 43.2089 61.9797 43.1324 62.1221C43.0558 62.2645 43.0941 62.3256 43.2664 62.2645C43.7259 62.1018 43.7067 60.8813 43.2472 60.2303C43.0175 59.9048 42.8643 59.5794 42.9218 59.5387C43.1132 59.3149 44.0131 59.8845 44.4726 60.5355C44.8938 61.105 44.9895 61.4712 45.0278 62.6917C45.047 63.4851 45.1044 64.136 45.1427 64.136C45.181 64.136 45.315 63.9936 45.4299 63.8105C45.6214 63.5461 45.7362 63.5461 46.1766 63.7495C46.5787 63.9529 46.6935 64.1564 46.7893 64.9294C46.9233 66.0889 47.4594 68.0824 47.5934 67.9196C47.6508 67.8586 47.5934 67.3704 47.4785 66.8415C47.2105 65.682 47.3254 62.4883 47.6508 61.5322L47.8806 60.8406L48.4358 61.5526C49.0485 62.3256 50.6185 63.5257 51.0588 63.5257C51.1929 63.5257 50.9057 63.1596 50.3696 62.7324C49.8526 62.2849 49.2017 61.5322 48.9145 61.0237C48.4358 60.1286 47.8806 58.1351 48.0529 57.9317C48.1869 57.8096 49.4314 58.1554 50.6759 58.6843C51.6524 59.0912 51.6715 59.1115 51.5566 59.7828C51.4992 60.149 51.5375 61.0847 51.6715 61.878L51.9013 63.302L51.2886 64.2174C50.6376 65.2548 50.1398 66.5771 50.1398 67.3094C50.1398 68.062 50.4653 67.879 50.6185 67.0653C50.7525 66.2719 51.4035 65.0311 51.9396 64.5632C52.2076 64.3191 52.3416 64.4005 52.9926 65.1735C53.835 66.1702 54.2945 66.1499 53.5095 65.1531C53.0309 64.5429 52.3416 62.5086 52.4756 62.1018C52.5714 61.7967 54.6392 63.6071 55.0412 64.3191C55.3859 64.9497 55.6922 65.1328 55.6922 64.7463C55.6922 63.8716 54.0073 61.7356 52.9926 61.2881C52.4182 61.0237 52.1693 60.3727 52.4374 59.8845C52.5905 59.6201 53.0117 59.9862 54.7349 61.878C55.8837 63.1392 56.841 64.075 56.841 63.9326C56.841 63.5257 55.2327 61.2474 54.3137 60.332C53.835 59.8845 53.0883 59.2539 52.648 58.9284C51.6907 58.2571 51.7864 58.1351 53.7584 57.7486L55.0795 57.4841L55.4816 58.6233C55.9411 59.9455 56.7261 61.0237 57.6259 61.5729C58.2386 61.9391 58.2386 61.9187 57.3579 60.9016C56.841 60.332 56.458 59.7421 56.5155 59.5997C56.6303 59.2336 58.6024 59.3556 59.3682 59.7828L60.0001 60.1286L59.6171 59.6811C59.081 59.0301 58.1046 58.6436 57.0324 58.6436C56.1326 58.6436 55.9028 58.4199 55.8837 57.5452C55.8837 57.4435 57.1856 57.4028 58.9087 57.4638C61.7998 57.5655 61.8764 57.5655 61.1488 57.2604C60.0383 56.7925 53.6819 56.7925 51.6524 57.2604C50.3504 57.5655 50.0824 57.5655 49.1634 57.3214C48.0338 56.9959 44.3577 56.9146 43.2472 57.179C42.3091 57.4231 41.5652 56.4255 40.9717 55.6729C40.493 55.0829 40.2605 55.7347 38.9777 55.694C38.2118 55.6533 37.2162 55.6118 36.8333 55.6729ZM47.153 57.8706C47.2105 58.013 47.2679 58.5216 47.3254 58.9895L47.4211 59.8235L46.7701 59.5387C46.4255 59.376 45.5065 59.1522 44.7406 59.0505C43.9748 58.9284 43.0366 58.725 42.6729 58.603L42.0027 58.3588L43.0558 58.013C44.3194 57.5858 47.0573 57.5045 47.153 57.8706ZM28.7154 58.0537C30.2854 58.2775 31.3575 58.6233 30.5151 58.6436C29.9216 58.6436 27.8921 59.7421 27.3751 60.3524C27.0114 60.7796 26.9731 60.8813 27.222 60.8813C27.3943 60.8813 27.5858 60.7796 27.6432 60.6779C27.7581 60.4948 29.5195 59.4573 29.7301 59.4573C29.9982 59.4573 29.3855 60.8609 28.9451 61.2678L28.4282 61.756L28.8877 61.5932C29.5195 61.3898 30.2279 60.6982 30.2279 60.271C30.2279 59.6201 30.8023 59.0505 31.4724 59.0505C32.0276 59.0505 32.1042 59.1115 32.0085 59.498C31.9511 59.7625 31.7596 60.1286 31.6064 60.3117C31.2809 60.7185 31.415 60.7796 31.9511 60.4744C32.1425 60.3727 32.3914 59.9862 32.5063 59.6404C32.6595 59.1929 32.7935 59.0301 33.0232 59.1318C33.1764 59.1929 33.7508 59.2539 34.2677 59.2539C35.1293 59.2539 35.2059 59.2946 35.2059 59.7218C35.2059 59.9862 35.0144 60.3931 34.7847 60.6168C33.9997 61.3898 31.9319 62.3256 30.4577 62.6104C29.6344 62.7527 28.6005 63.0375 28.1218 63.2206C26.571 63.8309 26.5136 63.8105 26.3987 62.3052C26.3413 61.5729 26.2072 60.7999 26.0732 60.5761C25.92 60.2913 25.92 59.8438 26.0732 58.9895C26.303 57.6469 26.1689 57.7079 28.7154 58.0537ZM46.5787 60.332C46.9041 60.6575 46.9807 60.8813 46.8659 61.1864C46.7893 61.4102 46.7127 62.0001 46.6935 62.5086L46.6744 63.424L46.2149 62.8545C45.9468 62.5493 45.7362 62.0815 45.7362 61.8374C45.7362 61.5932 45.5639 61.0033 45.3533 60.5151L44.9704 59.6201L45.5639 59.7625C45.8703 59.8438 46.3298 60.1083 46.5787 60.332ZM25.8243 62.2442V62.7324L25.3074 62.2239C24.867 61.7763 24.8287 61.6746 25.0585 61.3898C25.3074 61.0644 25.3457 61.0847 25.5754 61.4102C25.7094 61.6136 25.8243 61.9797 25.8243 62.2442ZM33.119 63.8105C32.3723 64.5835 32.334 64.136 33.0424 63.1392C33.4827 62.529 33.5785 62.468 33.6359 62.7934C33.6934 63.0172 33.4636 63.424 33.119 63.8105Z" fill="#542C16"/>
</svg>
