<svg width="18" height="18" viewBox="0 0 18 18" fill="none" xmlns="http://www.w3.org/2000/svg">
<path d="M13.1959 12.6248C14.3363 11.3486 14.9662 9.69648 14.965 7.98469C14.965 4.13149 11.8304 1 7.98249 1C4.1305 1 1 4.13557 1 7.98469C1 11.8338 4.13458 14.9694 7.98249 14.9694C9.69373 14.9706 11.3453 14.3405 12.6212 13.1998L16.302 16.8817C16.3398 16.9198 16.3849 16.95 16.4346 16.9703C16.4844 16.9906 16.5377 17.0007 16.5914 17C16.6995 16.9995 16.8033 16.9571 16.8808 16.8817C16.9186 16.844 16.9486 16.7992 16.969 16.7499C16.9895 16.7005 17 16.6477 17 16.5943C17 16.5409 16.9895 16.488 16.969 16.4386C16.9486 16.3893 16.9186 16.3445 16.8808 16.3068L13.1959 12.6248ZM1.81116 7.98469C1.81116 4.58409 4.57888 1.81549 7.97841 1.81549C11.3779 1.81549 14.1457 4.58409 14.1457 7.98469C14.1457 11.3853 11.3779 14.1539 7.97841 14.1539C4.57888 14.1539 1.81116 11.3853 1.81116 7.98469Z" fill="#A9A9A9" stroke="#A9A9A9" stroke-width="0.8"/>
</svg>
