<svg width="171" height="45" viewBox="0 0 171 45" fill="none" xmlns="http://www.w3.org/2000/svg">
<path d="M147.69 30.8026C145.802 35.071 142.527 38.5551 138.409 40.6741C134.292 42.793 129.582 43.4187 125.064 42.4467C120.546 41.4747 116.494 38.9638 113.583 35.3328C110.672 31.7017 109.079 27.17 109.068 22.4932C109.058 17.8165 110.631 13.2774 113.525 9.63296C116.42 5.9885 120.461 3.45893 124.974 2.46609C129.487 1.47324 134.2 2.07712 138.327 4.17703C142.454 6.27694 145.745 9.74595 147.652 14.0056" stroke="#7E6613" stroke-width="3"/>
<path d="M131.787 22.4463H168.137M168.137 22.4463L157.232 9.95117M168.137 22.4463L157.232 34.9415" stroke="#7E6613" stroke-width="3"/>
<path d="M22.447 30.8026C24.3345 35.071 27.61 38.5551 31.7274 40.6741C35.8447 42.793 40.555 43.4187 45.0727 42.4467C49.5905 41.4747 53.6426 38.9638 56.5534 35.3328C59.4642 31.7017 61.0578 27.17 61.0683 22.4932C61.0788 17.8165 59.5057 13.2774 56.6113 9.63296C53.7169 5.9885 49.6761 3.45893 45.1628 2.46609C40.6495 1.47324 35.9364 2.07712 31.8096 4.17703C27.6827 6.27694 24.3915 9.74595 22.4848 14.0056" stroke="#222222" stroke-width="3"/>
<path d="M38.3496 22.4463H2.0001M2.0001 22.4463L12.9049 9.95117M2.0001 22.4463L12.9049 34.9415" stroke="#222222" stroke-width="3"/>
</svg>
