<svg width="23" height="20" viewBox="0 0 23 20" fill="none" xmlns="http://www.w3.org/2000/svg">
<path d="M3.60467 0.318545C3.50367 0.217554 3.38378 0.137443 3.25183 0.0827873C3.11988 0.0281312 2.97845 0 2.83563 0C2.69281 0 2.55138 0.0281312 2.41943 0.0827873C2.28748 0.137443 2.16758 0.217554 2.06659 0.318545C1.86263 0.522507 1.74805 0.799138 1.74805 1.08758C1.74805 1.37603 1.86263 1.65266 2.06659 1.85662L8.16473 7.95476C7.77891 8.67247 7.63462 9.4954 7.75323 10.3016C7.87184 11.1077 8.24704 11.8542 8.82322 12.4304C9.3994 13.0066 10.1459 13.3818 10.9521 13.5004C11.7582 13.619 12.5811 13.4747 13.2989 13.0889L19.397 19.187C19.4977 19.2885 19.6175 19.3691 19.7495 19.4241C19.8815 19.4791 20.023 19.5074 20.166 19.5074C20.309 19.5074 20.4506 19.4791 20.5826 19.4241C20.7146 19.3691 20.8344 19.2885 20.9351 19.187C21.0366 19.0863 21.1172 18.9665 21.1722 18.8345C21.2272 18.7025 21.2555 18.561 21.2555 18.418C21.2555 18.275 21.2272 18.1334 21.1722 18.0014C21.1172 17.8694 21.0366 17.7496 20.9351 17.649L3.60467 0.318545ZM11.5008 11.3775C11.0699 11.3775 10.6567 11.2063 10.352 10.9016C10.0473 10.5969 9.87611 10.1837 9.87611 9.75278V9.67696L11.5658 11.3667L11.5008 11.3775Z" fill="#A9A9A9"/>
<path d="M11.7382 15.1686C7.08062 15.2769 4.02613 11.2801 3.07296 9.75281C3.75152 8.67041 4.56702 7.68016 5.49922 6.80664L3.91782 5.2794C2.69529 6.4313 1.64798 7.75595 0.809177 9.21124C0.714111 9.3759 0.664062 9.56268 0.664062 9.75281C0.664062 9.94294 0.714111 10.1297 0.809177 10.2944C1.49156 11.475 5.14178 17.3349 11.5215 17.3349H11.7923C12.992 17.2993 14.1761 17.0537 15.2909 16.6092L13.5795 14.8978C12.9777 15.0561 12.3601 15.1469 11.7382 15.1686ZM22.1906 9.21124C21.4973 8.00894 17.6738 1.97579 11.2074 2.17076C10.0078 2.20634 8.82366 2.45197 7.70884 2.89647L9.42022 4.60785C10.0221 4.44952 10.6396 4.3587 11.2616 4.33706C15.9083 4.21791 18.9628 8.22557 19.9268 9.75281C19.2315 10.8384 18.3976 11.8288 17.4464 12.699L19.0819 14.2262C20.3198 13.0773 21.3818 11.7525 22.2339 10.2944C22.3225 10.1259 22.3651 9.93715 22.3575 9.747C22.3499 9.55685 22.2923 9.37206 22.1906 9.21124Z" fill="#A9A9A9"/>
</svg>
