<svg width="33" height="35" viewBox="0 0 33 35" fill="none" xmlns="http://www.w3.org/2000/svg">
<path d="M32.094 5.87027C31.8903 5.57927 31.6207 5.34237 31.308 5.17958C30.9953 5.01679 30.6486 4.93288 30.2973 4.93493H8.47654C8.46082 4.93493 8.44902 4.94293 8.4333 4.94426L7.65618 1.86913C7.53396 1.38479 7.25666 0.9556 6.86799 0.649219C6.47933 0.342838 6.00142 0.1767 5.50962 0.177002H1.25973C1.08595 0.177002 0.919289 0.24719 0.796407 0.372125C0.673526 0.49706 0.604492 0.666508 0.604492 0.843193C0.604492 1.01988 0.673526 1.18933 0.796407 1.31426C0.919289 1.4392 1.08595 1.50938 1.25973 1.50938H5.50962C5.71055 1.50923 5.9058 1.57712 6.06456 1.70234C6.22332 1.82756 6.33653 2.00297 6.38633 2.20089L12.176 25.1285C12.2979 25.6129 12.575 26.0422 12.9634 26.3488C13.3518 26.6554 13.8295 26.8219 14.3213 26.822H28.4273C28.6011 26.822 28.7677 26.7518 28.8906 26.6268C29.0135 26.5019 29.0825 26.3324 29.0825 26.1558C29.0825 25.9791 29.0135 25.8096 28.8906 25.6847C28.7677 25.5598 28.6011 25.4896 28.4273 25.4896H14.3213C14.1206 25.4894 13.9256 25.4214 13.7671 25.2962C13.6086 25.171 13.4956 24.9958 13.4459 24.7981L12.3713 20.5438H26.6568C27.1219 20.5439 27.5752 20.3953 27.9525 20.1188C28.3298 19.8423 28.6119 19.4522 28.7588 19.0035L32.3993 7.90081C32.5123 7.56227 32.5436 7.20105 32.4904 6.84765C32.4373 6.49425 32.3013 6.15902 32.094 5.87027ZM26.6581 19.2114H12.0345L8.76616 6.26732H30.2973C30.4409 6.26623 30.5826 6.30043 30.7104 6.36701C30.8382 6.43359 30.9482 6.53058 31.0312 6.64971C31.1156 6.76768 31.1709 6.90449 31.1926 7.04869C31.2142 7.19288 31.2016 7.34025 31.1557 7.47845L30.4297 9.6942H18.4205C18.2467 9.6942 18.08 9.76439 17.9571 9.88932C17.8343 10.0143 17.7652 10.1837 17.7652 10.3604C17.7652 10.5371 17.8343 10.7065 17.9571 10.8315C18.08 10.9564 18.2467 11.0266 18.4205 11.0266H29.9933L28.8702 14.4521H19.9812C19.8075 14.4521 19.6408 14.5223 19.5179 14.6473C19.395 14.7722 19.326 14.9416 19.326 15.1183C19.326 15.295 19.395 15.4645 19.5179 15.5894C19.6408 15.7143 19.8075 15.7845 19.9812 15.7845H28.4325L27.5152 18.5812C27.456 18.7647 27.3412 18.9245 27.1873 19.0377C27.0333 19.1509 26.8481 19.2117 26.6581 19.2114ZM14.5205 28.7286C13.7264 28.7293 12.965 29.0502 12.4034 29.621C11.8418 30.1918 11.5258 30.9657 11.5247 31.7731C11.5247 33.4532 12.868 34.8189 14.5205 34.8189C16.173 34.8189 17.5162 33.4532 17.5162 31.7731C17.5152 30.9657 17.1992 30.1918 16.6376 29.621C16.0759 29.0502 15.3146 28.7293 14.5205 28.7286ZM14.5205 33.4865C14.1868 33.4868 13.8605 33.3864 13.583 33.1981C13.3054 33.0098 13.089 32.742 12.9612 32.4286C12.8334 32.1152 12.7999 31.7703 12.8649 31.4375C12.93 31.1048 13.0906 30.7991 13.3266 30.5592C13.5625 30.3193 13.8632 30.156 14.1905 30.0899C14.5177 30.0237 14.857 30.0578 15.1652 30.1878C15.4734 30.3177 15.7368 30.5377 15.9221 30.8199C16.1073 31.1021 16.206 31.4338 16.2058 31.7731C16.2058 32.7177 15.4496 33.4865 14.5205 33.4865ZM27.0015 28.7286C26.2074 28.7293 25.446 29.0502 24.8844 29.621C24.3228 30.1918 24.0068 30.9657 24.0057 31.7731C24.0057 33.4532 25.349 34.8189 27.0015 34.8189C28.654 34.8189 29.9972 33.4532 29.9972 31.7731C29.9962 30.9657 29.6802 30.1918 29.1186 29.621C28.5569 29.0502 27.7956 28.7293 27.0015 28.7286ZM27.0015 33.4865C26.6678 33.4868 26.3415 33.3864 26.064 33.1981C25.7864 33.0098 25.57 32.742 25.4422 32.4286C25.3144 32.1152 25.2809 31.7703 25.3459 31.4375C25.411 31.1048 25.5716 30.7991 25.8076 30.5592C26.0435 30.3193 26.3442 30.156 26.6715 30.0899C26.9987 30.0237 27.338 30.0578 27.6462 30.1878C27.9544 30.3177 28.2178 30.5377 28.4031 30.8199C28.5883 31.1021 28.687 31.4338 28.6868 31.7731C28.6868 32.7177 27.9306 33.4865 27.0015 33.4865Z" fill="white"/>
</svg>
