<svg width="64" height="45" viewBox="0 0 64 45" fill="none" xmlns="http://www.w3.org/2000/svg">
<path d="M40.6214 30.8026C38.7339 35.071 35.4583 38.5551 31.341 40.6741C27.2237 42.793 22.5134 43.4187 17.9956 42.4467C13.4779 41.4747 9.42575 38.9638 6.51494 35.3328C3.60413 31.7017 2.01059 27.17 2.00005 22.4932C1.98952 17.8165 3.56263 13.2774 6.45705 9.63296C9.35147 5.9885 13.3923 3.45893 17.9056 2.46609C22.4189 1.47324 27.1319 2.07712 31.2588 4.17703C35.3856 6.27694 38.6768 9.74595 40.5835 14.0056" stroke="#7E6613" stroke-width="3"/>
<path d="M24.7188 22.4463H61.0683M61.0683 22.4463L50.1634 9.95117M61.0683 22.4463L50.1634 34.9415" stroke="#7E6613" stroke-width="3"/>
</svg>
