<svg width="170" height="55" viewBox="0 0 170 55" fill="none" xmlns="http://www.w3.org/2000/svg">
<path d="M147.69 38.0603C145.802 43.3777 142.527 47.7181 138.409 50.3577C134.292 52.9974 129.582 53.7768 125.064 52.566C120.546 51.3551 116.494 48.2272 113.583 43.7038C110.672 39.1805 109.079 33.5351 109.068 27.709C109.058 21.883 110.631 16.2285 113.525 11.6884C116.42 7.14834 120.461 3.99715 124.974 2.76031C129.487 1.52348 134.2 2.27576 138.327 4.89171C142.454 7.50767 145.745 11.8292 147.652 17.1356" stroke="#7E6613" stroke-width="3"/>
<path d="M131.787 27.6507H168.137M168.137 27.6507L157.232 12.0849M168.137 27.6507L157.232 43.2164" stroke="#7E6613" stroke-width="3"/>
<path d="M22.447 38.0603C24.3345 43.3777 27.61 47.7181 31.7274 50.3577C35.8447 52.9974 40.555 53.7768 45.0727 52.566C49.5905 51.3551 53.6426 48.2272 56.5534 43.7038C59.4642 39.1805 61.0578 33.5351 61.0683 27.709C61.0788 21.883 59.5057 16.2285 56.6113 11.6884C53.7169 7.14834 49.6761 3.99715 45.1628 2.76031C40.6495 1.52348 35.9364 2.27576 31.8096 4.89171C27.6827 7.50767 24.3915 11.8292 22.4848 17.1356" stroke="#222222" stroke-width="3"/>
<path d="M38.3496 27.6507H2.0001M2.0001 27.6507L12.9049 12.0849M2.0001 27.6507L12.9049 43.2164" stroke="#222222" stroke-width="3"/>
</svg>
