<svg width="71" height="70" viewBox="0 0 71 70" fill="none" xmlns="http://www.w3.org/2000/svg">
<path d="M70.2301 35.4143C70.2301 30.8749 69.3259 26.3799 67.5692 22.186C65.8124 17.9922 63.2375 14.1815 59.9915 10.9717C56.7455 7.7618 52.8919 5.2156 48.6508 3.47844C44.4096 1.74127 39.864 0.847168 35.2734 0.847168L35.2734 35.4143H70.2301Z" fill="#7FCB2D"/>
<path d="M0.319138 35.4143C0.319138 30.8749 1.22332 26.3799 2.98005 22.186C4.73679 17.9922 7.31168 14.1815 10.5577 10.9717C13.8037 7.7618 17.6573 5.2156 21.8985 3.47844C26.1396 1.74127 30.6852 0.847168 35.2758 0.847168L35.2758 35.4143H0.319138Z" fill="#BFCB37"/>
<path fill-rule="evenodd" clip-rule="evenodd" d="M57.235 25.7084C57.7523 25.4412 58.011 25.3077 58.011 25.3077C58.0353 26.3306 58.4434 27.0276 59.2349 27.3991C59.5692 27.5971 59.7646 27.8597 59.8215 28.1871C59.9672 28.045 60.0844 27.9055 60.173 27.7685C60.8843 28.6178 61.6801 29.0996 62.5606 29.2139C62.7526 28.907 62.8201 28.6398 62.7632 28.412C63.8096 29.087 64.8548 29.2805 65.8991 28.993C66.0123 28.1573 65.9704 27.5101 65.7734 27.0515C65.8233 27.0455 65.8737 27.0375 65.9242 27.0275C66.2494 27.0292 66.7536 26.9071 67.4368 26.661C67.2251 26.5321 67.0125 26.3213 66.799 26.0282C66.561 25.6549 66.3344 25.417 66.1193 25.3144L66.1114 25.304C66.1181 25.3012 66.1249 25.2986 66.1318 25.296C66.488 25.3078 66.8656 25.1518 67.2644 24.828C67.1192 24.8053 66.9094 24.575 66.6351 24.1377C66.5966 24.0684 66.5555 24.0008 66.5122 23.9353L66.5118 23.9346L66.5118 23.9346C66.3548 23.6968 66.169 23.4846 65.9696 23.305C66.1028 23.2249 66.2878 23.0524 66.5246 22.7872C66.2016 21.8574 65.3893 21.2138 64.3364 20.98C64.6917 20.9871 64.9426 20.6754 65.0892 20.045C64.8926 20.203 64.5212 20.1104 63.9751 19.7675C63.2574 19.3112 62.5618 19.1226 61.8882 19.2017C62.1123 18.9372 62.3008 18.6062 62.4376 18.1991C62.2698 18.1826 62.0672 18.1201 61.8299 18.0117C62.5215 17.4782 62.8139 16.8747 62.7068 16.2009C62.5605 15.8717 62.2324 15.7815 62.0114 15.7869C62.1491 15.2316 62.0443 14.6251 61.6971 13.9676C61.1204 13.891 60.6276 14.2868 60.17 14.5945C60.174 14.4236 60.0551 14.2097 59.8134 13.9524C59.0526 14.437 58.7475 14.9493 58.6256 15.566C58.6256 15.566 58.4753 15.4445 58.1748 15.2014C56.7061 16.6284 56.8613 18.0426 57.6678 18.9711C57.206 19.1362 56.8495 19.1899 56.5978 19.1324C55.0582 18.4982 53.5726 18.3613 52.1414 18.7217C51.8721 19.0281 51.9673 19.2903 52.1847 19.594C53.1778 19.2305 54.227 19.1881 55.373 19.4526C55.0812 19.2045 54.5744 19.0861 53.8516 19.0978C54.4328 19.0515 54.8913 19.0964 55.2268 19.2327C55.7244 19.4346 55.8326 19.8423 55.9573 20.3347C56.3864 22.026 55.0575 22.4649 55.179 23.5361C54.9529 22.3296 56.3466 21.8581 55.6522 20.0854C55.6385 20.2241 55.6148 20.3616 55.5815 20.4979C55.2613 21.7961 53.8082 22.748 54.5326 24.2467C54.7387 24.6737 55.1183 25.0607 55.6712 25.4075C55.1554 24.6248 55.9234 23.8622 56.2829 23.1869C57.0543 21.737 56.9839 20.5572 56.0713 19.6478C56.5011 19.7877 56.9448 19.9677 57.4045 20.187C57.5671 20.2739 57.6774 20.3647 57.7482 20.4589C57.6861 20.2779 57.5429 20.0917 57.3179 19.9003C57.9165 20.1965 58.062 20.6043 57.7548 21.1236L57.7546 21.1236C57.6698 21.3042 57.5438 21.4879 57.4412 21.6694L57.4377 21.6739L57.4392 21.6726C56.7694 22.858 56.5936 24.3181 57.235 25.7084ZM61.206 21.0114C61.8626 21.4125 62.6974 21.2519 63.7103 20.5291C62.6351 19.835 61.5416 19.7148 60.4294 20.1683C60.728 20.4833 61.4271 20.6448 62.5269 20.6529C61.9088 20.7267 61.4684 20.846 61.206 21.0114ZM59.1183 19.9043L59.1157 19.9059L59.1162 19.9045C58.7725 20.0967 58.3936 20.0708 57.9803 19.8268C57.7744 19.7051 57.5695 19.5922 57.3656 19.4876C57.5241 19.4283 57.6928 19.3269 57.8718 19.183C58.2204 19.5105 58.6542 19.76 59.1183 19.9043ZM57.9704 17.1498C57.791 17.5437 57.7334 17.8881 57.7981 18.1832C57.3525 17.4762 57.4639 16.6944 58.1325 15.8374C58.7973 16.6263 58.8639 17.3043 58.3323 17.8715C58.1322 17.6361 58.0115 17.3955 57.9704 17.1498ZM58.3171 19.0869C58.558 18.3255 58.9872 18.0469 59.6048 18.2506C59.3369 18.9222 58.9077 19.2009 58.3171 19.0869ZM60.1166 18.5637C60.6423 18.0096 61.0609 17.9712 61.3721 18.4485C61.0624 18.8615 60.644 18.8998 60.1166 18.5637ZM60.7304 17.6317C61.1267 17.0793 61.6183 16.8101 62.2051 16.8241C62.1057 17.6064 61.6141 17.8756 60.7304 17.6317ZM60.8502 15.8703C61.5334 15.7265 61.7628 15.3182 61.4584 14.3843C60.762 14.8536 60.3986 15.2246 60.4484 15.7584C60.7899 15.6055 61.001 15.4756 61.0823 15.3687C61.0477 15.6072 60.9701 15.7744 60.8502 15.8703ZM59.7321 16.9603C59.7037 17.2509 59.6341 17.4947 59.5234 17.6921C60.3295 17.2717 60.5499 16.695 60.1844 15.9622C59.4967 16.0726 59.0973 16.5374 58.986 17.3568C59.3315 17.2667 59.5802 17.1347 59.7321 16.9603ZM59.3603 15.9076C59.7805 15.5018 59.8457 15.0317 59.5558 14.4971C59.0036 15.1863 58.9382 15.6565 59.3603 15.9076ZM64.8025 25.1072C64.9597 25.2868 65.0649 25.4371 65.1182 25.558C64.9903 25.6077 64.8758 25.6363 64.7748 25.6437C65.1366 26.2969 65.7314 26.5884 66.5595 26.5183C66.2435 25.7341 65.6578 25.2638 64.8025 25.1072ZM63.951 27.471C63.8372 27.1554 63.5843 26.8811 63.1923 26.6476C64.4343 26.6764 65.1732 27.2505 65.4089 28.3701C64.2127 28.4972 63.3631 28.1551 62.8602 27.3431C63.5874 27.4285 63.951 27.471 63.951 27.471ZM60.9938 26.2974C62.1038 26.9284 62.5018 27.6129 62.1876 28.351C61.5144 28.3336 60.9552 27.7724 60.5103 26.6673C60.9052 26.9222 61.1746 27.0623 61.318 27.0873C61.2622 26.7454 61.154 26.4822 60.9938 26.2974ZM57.9035 21.5881C57.3029 22.9482 57.2832 23.9092 57.8447 24.4709C59.0045 24.0519 59.0242 23.091 57.9035 21.5881ZM59.305 23.9925C59.3791 24.8276 59.8622 25.3199 60.7539 25.4697C60.9682 24.3983 60.603 23.5484 59.6585 22.9203C59.5076 23.504 59.5692 23.9809 59.8435 24.3505C59.5946 24.2902 59.4152 24.1709 59.305 23.9925ZM61.5928 22.9528C61.3944 22.5749 61.3403 22.2745 61.4304 22.0519C62.3822 21.999 62.9036 22.5743 62.9946 23.7778C61.8283 24.1092 61.0049 23.8309 60.5244 22.9432C60.9221 22.9842 61.2784 22.9874 61.5928 22.9528ZM64.0389 22.0473C63.9005 21.8081 63.732 21.6387 63.5334 21.5397C64.6512 21.4092 65.4661 21.7582 65.9782 22.5869C64.4041 23.0463 63.3676 22.8961 62.8685 22.1366C63.2239 22.1531 63.614 22.1234 64.0389 22.0473ZM66.3317 24.2997C66.4458 24.4804 66.4985 24.6315 66.4899 24.7531C65.0719 24.7719 63.9645 25.0724 63.3534 23.326C63.5459 23.6211 64.1173 23.9051 65.0674 24.1773C64.714 23.9738 64.399 23.6363 64.1225 23.165C65.2101 23.3423 65.9465 23.7205 66.3317 24.2997ZM62.8431 25.2858C62.3544 24.948 62.0843 24.5907 62.0333 24.2141C63.1926 24.1458 63.8205 24.7381 63.917 25.9914C62.6761 26.2149 61.8165 25.8746 61.3384 24.9707C61.948 25.2995 62.4498 25.4044 62.8431 25.2858ZM58.7179 24.6325C58.6328 25.7254 58.9233 26.3798 59.5894 26.5955C59.7991 25.785 59.5086 25.1308 58.7179 24.6325ZM59.6308 21.7327C59.2843 21.3342 59.1436 20.8975 59.209 20.4228C60.2589 20.4458 60.8653 21.0514 61.0281 22.24C59.604 22.6693 58.7449 22.3939 58.4511 21.4134C58.9583 21.7319 59.3516 21.8384 59.6308 21.7327Z" fill="#1B421A"/>
<path fill-rule="evenodd" clip-rule="evenodd" d="M12.6713 25.7084C12.1539 25.4412 11.8953 25.3077 11.8953 25.3077C11.871 26.3306 11.4629 27.0276 10.6713 27.3991C10.3371 27.5971 10.1417 27.8597 10.0848 28.1871C9.93907 28.045 9.82181 27.9055 9.73321 27.7685C9.02197 28.6178 8.22617 29.0996 7.34562 29.2139C7.15367 28.907 7.08613 28.6398 7.14308 28.412C6.09667 29.087 5.05143 29.2805 4.00716 28.993C3.89395 28.1573 3.93588 27.5101 4.13284 27.0515C4.08296 27.0455 4.03259 27.0375 3.982 27.0275C3.65687 27.0292 3.15268 26.9071 2.4695 26.661C2.68116 26.5321 2.89373 26.3213 3.10723 26.0282C3.34528 25.6549 3.57186 25.417 3.78692 25.3144L3.79484 25.304C3.78818 25.3012 3.78136 25.2986 3.77441 25.296C3.41821 25.3078 3.04068 25.1518 2.64186 24.828C2.78707 24.8053 2.99685 24.575 3.27112 24.1377C3.3097 24.0684 3.35074 24.0008 3.394 23.9353L3.3944 23.9346L3.39444 23.9346C3.55144 23.6968 3.73728 23.4846 3.93661 23.305C3.80344 23.2249 3.61844 23.0524 3.38165 22.7872C3.70464 21.8574 4.51695 21.2138 5.56983 20.98C5.21458 20.9871 4.96365 20.6754 4.81702 20.045C5.01367 20.203 5.38507 20.1104 5.93118 19.7675C6.64882 19.3112 7.34446 19.1226 8.01803 19.2017C7.79393 18.9372 7.6054 18.6062 7.46861 18.1991C7.63643 18.1826 7.83904 18.1201 8.07639 18.0117C7.38474 17.4782 7.09233 16.8747 7.19942 16.2009C7.34577 15.8717 7.67385 15.7815 7.89481 15.7869C7.75713 15.2316 7.86192 14.6251 8.20911 13.9676C8.78589 13.891 9.27868 14.2868 9.7362 14.5945C9.73225 14.4236 9.85116 14.2097 10.0929 13.9524C10.8536 14.437 11.1587 14.9493 11.2806 15.566C11.2806 15.566 11.431 15.4445 11.7314 15.2014C13.2001 16.6284 13.0449 18.0426 12.2385 18.9711C12.7002 19.1362 13.0568 19.1899 13.3084 19.1324C14.848 18.4982 16.3336 18.3613 17.7649 18.7217C18.0342 19.0281 17.939 19.2903 17.7215 19.594C16.7285 19.2305 15.6793 19.1881 14.5332 19.4526C14.825 19.2045 15.3319 19.0861 16.0546 19.0978C15.4734 19.0515 15.0149 19.0964 14.6795 19.2327C14.1819 19.4346 14.0737 19.8423 13.9489 20.3347C13.5198 22.026 14.8488 22.4649 14.7273 23.5361C14.9533 22.3296 13.5597 21.8581 14.254 20.0854C14.2677 20.2241 14.2915 20.3616 14.3248 20.4979C14.6449 21.7961 16.0981 22.748 15.3737 24.2467C15.1676 24.6737 14.788 25.0607 14.2351 25.4075C14.7508 24.6248 13.9828 23.8622 13.6234 23.1869C12.8519 21.737 12.9224 20.5572 13.835 19.6478C13.4051 19.7877 12.9614 19.9677 12.5017 20.187C12.3392 20.2739 12.2288 20.3647 12.1581 20.4589C12.2202 20.2779 12.3634 20.0917 12.5884 19.9003C11.9897 20.1965 11.8442 20.6043 12.1514 21.1236L12.1516 21.1236C12.2364 21.3042 12.3625 21.4879 12.4651 21.6694L12.4686 21.6739L12.467 21.6726C13.1369 22.858 13.3126 24.3181 12.6713 25.7084ZM8.70029 21.0114C8.04363 21.4125 7.20887 21.2519 6.19598 20.5291C7.27115 19.835 8.36468 19.7148 9.47682 20.1683C9.17826 20.4833 8.47913 20.6448 7.37935 20.6529C7.99746 20.7267 8.43788 20.846 8.70029 21.0114ZM10.7879 19.9043L10.7906 19.9059L10.79 19.9045C11.1338 20.0967 11.5126 20.0708 11.9259 19.8268C12.1319 19.7051 12.3367 19.5922 12.5407 19.4876C12.3821 19.4283 12.2134 19.3269 12.0345 19.183C11.6859 19.5105 11.2521 19.76 10.7879 19.9043ZM11.9358 17.1498C12.1153 17.5437 12.1729 17.8881 12.1082 18.1832C12.5538 17.4762 12.4423 16.6944 11.7738 15.8374C11.1089 16.6263 11.0423 17.3043 11.574 17.8715C11.7741 17.6361 11.8947 17.3955 11.9358 17.1498ZM11.5892 19.0869C11.3482 18.3255 10.919 18.0469 10.3014 18.2506C10.5694 18.9222 10.9986 19.2009 11.5892 19.0869ZM9.78966 18.5637C9.26391 18.0096 8.84536 17.9712 8.53414 18.4485C8.84383 18.8615 9.26227 18.8998 9.78966 18.5637ZM9.17589 17.6317C8.77954 17.0793 8.28797 16.8101 7.7011 16.8241C7.80056 17.6064 8.2922 17.8756 9.17589 17.6317ZM9.05605 15.8703C8.37285 15.7265 8.14345 15.3182 8.44784 14.3843C9.14426 14.8536 9.50762 15.2246 9.45782 15.7584C9.11638 15.6055 8.90523 15.4756 8.82396 15.3687C8.85856 15.6072 8.9361 15.7744 9.05605 15.8703ZM10.1741 16.9603C10.2026 17.2509 10.2721 17.4947 10.3828 17.6921C9.57675 17.2717 9.35635 16.695 9.72182 15.9622C10.4096 16.0726 10.809 16.5374 10.9202 17.3568C10.5748 17.2667 10.326 17.1347 10.1741 16.9603ZM10.5459 15.9076C10.1257 15.5018 10.0605 15.0317 10.3505 14.4971C10.9027 15.1863 10.9681 15.6565 10.5459 15.9076ZM5.10372 25.1072C4.94654 25.2868 4.84132 25.4371 4.78802 25.558C4.91593 25.6077 5.03041 25.6363 5.13149 25.6437C4.7697 26.2969 4.17483 26.5884 3.3468 26.5183C3.66279 25.7341 4.24844 25.2638 5.10372 25.1072ZM5.95526 27.471C6.06903 27.1554 6.32194 26.8811 6.71392 26.6476C5.47192 26.6764 4.73305 27.2505 4.49739 28.3701C5.69354 28.4972 6.54311 28.1551 7.04603 27.3431C6.31884 27.4285 5.95526 27.471 5.95526 27.471ZM8.91243 26.2974C7.8025 26.9284 7.40446 27.6129 7.71862 28.351C8.39189 28.3336 8.95106 27.7724 9.39598 26.6673C9.00106 26.9222 8.73169 27.0623 8.58826 27.0873C8.64405 26.7454 8.75228 26.4822 8.91243 26.2974ZM12.0027 21.5881C12.6034 22.9482 12.623 23.9092 12.0616 24.4709C10.9017 24.0519 10.8821 23.091 12.0027 21.5881ZM10.6012 23.9925C10.5272 24.8276 10.044 25.3199 9.15232 25.4697C8.93807 24.3983 9.30329 23.5484 10.2477 22.9203C10.3987 23.504 10.337 23.9809 10.0628 24.3505C10.3116 24.2902 10.491 24.1709 10.6012 23.9925ZM8.31344 22.9528C8.51185 22.5749 8.56595 22.2745 8.47589 22.0519C7.5241 21.999 7.00265 22.5743 6.91162 23.7778C8.07797 24.1092 8.90136 23.8309 9.38181 22.9432C8.98412 22.9842 8.62787 22.9874 8.31344 22.9528ZM5.86736 22.0473C6.00578 21.8081 6.17429 21.6387 6.37286 21.5397C5.25509 21.4092 4.44015 21.7582 3.92805 22.5869C5.50212 23.0463 6.53868 22.8961 7.03774 22.1366C6.68236 22.1531 6.29223 22.1234 5.86736 22.0473ZM3.5746 24.2997C3.46049 24.4804 3.40773 24.6315 3.41639 24.7531C4.8343 24.7719 5.94173 25.0724 6.55281 23.326C6.36035 23.6211 5.789 23.9051 4.83883 24.1773C5.19226 23.9738 5.50729 23.6363 5.78377 23.165C4.6961 23.3423 3.95971 23.7205 3.5746 24.2997ZM7.06311 25.2858C7.55183 24.948 7.82193 24.5907 7.87298 24.2141C6.71361 24.1458 6.08573 24.7381 5.98929 25.9914C7.23019 26.2149 8.08977 25.8746 8.56782 24.9707C7.9582 25.2995 7.4565 25.4044 7.06311 25.2858ZM11.1883 24.6325C11.2734 25.7254 10.983 26.3798 10.3168 26.5955C10.1072 25.785 10.3976 25.1308 11.1883 24.6325ZM10.2754 21.7327C10.6219 21.3342 10.7626 20.8975 10.6972 20.4228C9.64736 20.4458 9.0409 21.0514 8.87814 22.24C10.3023 22.6693 11.1613 22.3939 11.4552 21.4134C10.9479 21.7319 10.5546 21.8384 10.2754 21.7327Z" fill="#1B421A"/>
</svg>
