<svg width="12" height="16" viewBox="0 0 12 16" fill="none" xmlns="http://www.w3.org/2000/svg">
<path d="M4.73798 4.67577C5.06142 4.35772 5.5084 4.16079 6.00294 4.16079C6.49746 4.16079 6.94445 4.35772 7.26789 4.67576L7.79054 5.91609C7.79054 6.40006 7.59128 6.83843 7.26789 7.15643C6.94445 7.47447 6.49747 7.67141 6.00294 7.67141C5.50841 7.67141 5.06142 7.47447 4.73798 7.15643C4.41459 6.83843 4.21533 6.40006 4.21533 5.91609C4.21533 5.43214 4.41459 4.99378 4.73798 4.67577ZM4.73798 4.67577L4.63281 4.56881L4.73798 4.67577ZM4.07823 7.81226L4.1834 7.70531L4.07823 7.81226C4.57108 8.2969 5.25184 8.59645 6.00294 8.59645C6.75403 8.59645 7.43479 8.2969 7.92764 7.81226L7.82247 7.70531L7.92764 7.81226C8.42054 7.32757 8.72618 6.65701 8.72618 5.91609C8.72618 5.17519 8.42053 4.50462 7.92764 4.01994C7.43479 3.53531 6.75403 3.23574 6.00294 3.23574C5.25184 3.23574 4.57108 3.53531 4.07823 4.01994C3.58533 4.50462 3.27969 5.17519 3.27969 5.91609C3.27969 6.65701 3.58534 7.32757 4.07823 7.81226Z" fill="#1B421A" stroke="#1B421A" stroke-width="0.3"/>
<path d="M5.65129 15.3115L5.58819 15.1997C5.17967 14.4761 4.68285 13.6555 4.16311 12.7969L4.15818 12.7888C3.06431 10.9819 1.86862 9.00688 1.21578 7.47095L1.21578 7.47095C1.09621 7.18959 1.00399 6.8962 0.942358 6.59376L0.942358 6.59375C0.881771 6.29641 0.85 5.99169 0.85 5.68252C0.85 4.3448 1.4293 3.13546 2.36196 2.26203C3.29445 1.38876 4.58106 0.85 6 0.85C7.41894 0.85 8.70555 1.38876 9.63804 2.26203L9.5355 2.37151L9.63804 2.26203C10.5707 3.13547 11.15 4.34481 11.15 5.68252C11.15 5.99537 11.1177 6.30308 11.0561 6.60266C10.9932 6.90809 10.8995 7.2038 10.778 7.48669C10.778 7.4867 10.778 7.4867 10.778 7.4867L10.6402 7.42752C9.98406 8.95572 8.80474 10.9053 7.7139 12.7086L7.71365 12.709L7.71364 12.7091C7.1939 13.5682 6.69443 14.3939 6.28057 15.1271L5.65129 15.3115ZM5.65129 15.3115L5.66947 15.3047L5.65129 15.3115ZM10.139 6.43059L10.139 6.43057C10.1884 6.1904 10.2143 5.94037 10.2143 5.6825C10.2143 4.59855 9.74549 3.61541 8.98355 2.90186L9.08608 2.79238L8.98355 2.90186C8.22145 2.18815 7.16695 1.74526 6 1.74526C4.83304 1.74526 3.77854 2.18815 3.01646 2.90186L3.01645 2.90186C2.25452 3.61541 1.78566 4.59856 1.78566 5.6825C1.78566 5.93886 1.81109 6.18683 1.85954 6.42454L1.85954 6.42455L10.139 6.43059ZM10.139 6.43059C10.0879 6.67918 10.012 6.9189 9.91385 7.14743L10.0517 7.20661M10.139 6.43059L10.0517 7.20661M10.0517 7.20661L9.91385 7.14744C9.27828 8.62782 8.11664 10.5488 7.03409 12.3384L7.03227 12.3414C6.67115 12.9384 6.31908 13.5204 5.99989 14.0641M10.0517 7.20661L5.99989 14.0641M5.99989 14.0641C5.71671 13.5822 5.4067 13.0686 5.08708 12.5404L5.08711 12.5404L4.97097 12.3486C3.88047 10.5473 2.7055 8.6058 2.08036 7.13503L5.99989 14.0641Z" fill="#1B421A" stroke="#1B421A" stroke-width="0.3"/>
</svg>
