<svg width="53" height="58" viewBox="0 0 53 58" fill="none" xmlns="http://www.w3.org/2000/svg">
<path d="M18.5246 12.7296C19.6145 12.4866 20.5786 12.6209 20.678 13.0287C20.7771 13.4366 19.9741 13.9641 18.8841 14.2071C17.7944 14.45 16.8302 14.3157 16.7309 13.9079C16.6319 13.5001 17.435 12.9713 18.5246 12.7296ZM22.0701 8.34109C22.9862 8.13596 23.8095 8.30202 23.9088 8.70986C24.0079 9.11769 23.3457 9.61466 22.4296 9.81857C21.5134 10.0225 20.6904 9.85643 20.591 9.4486C20.4919 9.04076 21.1539 8.54501 22.0701 8.34109ZM27.6151 10.4364C28.9576 10.1373 30.2237 10.6245 30.4426 11.5256C30.6617 12.4267 29.7508 13.3987 28.4085 13.6979C27.0657 13.997 25.7997 13.5086 25.5806 12.6087C25.3616 11.7075 26.2724 10.7356 27.6151 10.4364ZM33.4097 8.62683C33.8311 8.19457 34.8255 8.35209 35.6307 8.97849C36.4361 9.60489 36.7471 10.4633 36.3256 10.8955C35.9042 11.3278 34.9097 11.1703 34.1046 10.5439C33.2994 9.91748 32.9882 9.05908 33.4097 8.62683ZM38.4153 13.8297C38.7796 13.45 39.575 13.5257 40.1922 13.9982C40.8094 14.4708 41.0143 15.1619 40.6501 15.5404C40.2857 15.9202 39.4902 15.8445 38.8731 15.3719C38.2558 14.8994 38.051 14.2083 38.4153 13.8297ZM12.34 21.9547C13.6971 22.3674 15.1428 22.3955 16.5974 22.277C15.0681 21.697 14.17 20.9693 14.1789 20.1646C14.2017 18.101 20.155 16.3122 27.4763 16.1705C34.7974 16.0276 40.7139 17.5857 40.6911 19.6493C40.6788 20.7849 38.8673 21.8362 36.0227 22.5762C36.2916 22.5615 36.5604 22.5505 36.8292 22.5347C39.1681 22.3857 41.846 21.9864 43.1312 20.1951C43.957 19.0449 43.9711 17.5601 43.5245 16.2841C43.0782 15.0093 42.2229 13.8957 41.3791 12.8028C39.3385 10.1605 37.2979 7.5181 35.2571 4.87574C34.4374 3.81464 33.6042 2.7401 32.499 1.91345C31.3937 1.08801 29.9653 0.526329 28.508 0.664309C26.6699 0.837698 25.1562 2.04777 23.7993 3.20534C21.756 4.94778 19.7364 6.71343 17.7169 8.47786C15.5483 10.3729 13.3797 12.268 11.2111 14.1631C10.2293 15.0215 9.2043 15.9446 8.86032 17.1242C8.25431 19.2048 10.1086 21.2782 12.34 21.9547Z" fill="url(#paint0_linear_12664_1182)"/>
<path d="M31.1778 41.0868C31.1778 41.52 31.1155 41.9363 31.0025 42.329C30.8982 42.6902 30.75 43.0312 30.5641 43.3428C30.3666 43.6748 30.128 43.9741 29.8545 44.2318L29.8502 44.2352C29.6687 44.4062 29.3879 44.2622 29.3917 44.0011C29.3948 43.7896 29.3978 43.578 29.4008 43.3665C29.4056 43.0368 29.4104 42.7071 29.4151 42.3774C29.4172 42.2322 29.4194 42.086 29.4213 41.9408C29.4253 41.6708 29.2855 41.4153 29.0565 41.3152C28.658 41.1408 28.3851 41.5954 28.3737 41.9892C28.3692 42.1434 28.3895 42.2975 28.4109 42.4517C28.4521 42.7487 28.4974 43.0458 28.3752 43.3474C28.3626 43.3789 28.3468 43.407 28.3296 43.4351C28.2333 43.5904 28.0703 43.6872 27.8974 43.6647C27.7841 43.65 27.698 43.5904 27.6328 43.5026C27.4774 43.2956 27.442 42.9321 27.4569 42.6373C27.4584 42.6081 27.4598 42.5799 27.4613 42.5507C27.6176 39.4675 27.7738 36.3844 27.9301 33.3013C27.9416 33.0706 27.8558 32.8422 27.6858 32.706C27.3195 32.4123 26.9327 32.8253 26.8734 33.2349C26.8225 33.586 26.9216 33.9415 26.9259 34.2971C26.9262 34.3196 26.9259 34.3421 26.9251 34.3646C26.9242 34.3871 26.9208 34.4062 26.9161 34.4265C26.8906 34.323 26.8568 34.2206 26.8118 34.1204C26.7257 33.9269 26.6088 33.7514 26.4714 33.5871C26.47 29.974 26.4685 26.3597 26.467 22.7455C26.4668 22.1243 26.4666 21.5021 26.4662 20.881C26.4661 20.5546 26.4676 20.2182 26.5812 19.9166L26.5897 19.8941C26.6769 19.6781 26.8664 19.5296 27.0819 19.5104C27.1808 19.5014 27.2806 19.4969 27.3814 19.4969H27.3841C27.5949 19.4981 27.7928 19.6218 27.8946 19.8232L27.9002 19.8345C28.0307 20.1012 28.0688 20.4084 28.1046 20.7077C28.1829 21.3592 28.2612 22.013 28.3393 22.6656C28.5558 24.4693 28.7721 26.2742 28.9885 28.078L28.9911 28.1005C29.086 28.8904 30.1393 28.8802 30.2172 28.0881C30.3132 27.1114 30.221 26.0885 30.074 25.1141C29.9718 24.4378 29.8467 23.7582 29.7484 23.0774C29.7131 22.8321 29.7723 22.6318 29.8824 22.4855C30.1021 22.1919 30.5252 22.112 30.8145 22.3168C30.9478 22.4113 31.0529 22.5654 31.096 22.7882C31.1496 23.0662 31.1778 23.3531 31.1778 23.6468V41.0868ZM17.2599 52.204C17.1358 52.2378 17.0055 52.168 16.9365 52.0488C16.7826 51.7798 16.8688 51.4861 16.822 51.206C16.7813 50.9618 16.5734 50.703 16.3408 50.8448C16.2074 50.9269 16.1426 51.0979 16.1678 51.2645C16.2325 51.6898 16.2971 52.1152 16.3615 52.5394C16.3863 52.7014 16.2243 52.815 16.0971 52.725L16.0941 52.7228C15.5272 52.3188 15.1125 51.6639 15.0056 50.8842L14.4289 46.6792L14.2929 45.689L13.5216 40.065C13.4965 39.8828 13.4896 39.7027 13.4993 39.5261C13.5069 39.3843 13.5592 39.2796 13.6338 39.2087C13.7958 39.058 14.0651 39.0715 14.2262 39.2346C14.3071 39.3168 14.3609 39.4349 14.3599 39.5902C14.3568 40.0212 14.337 40.4532 14.3312 40.882C14.3227 41.4986 14.3527 42.1411 14.4953 42.7386C14.611 43.2236 15.2655 43.1403 15.257 42.6418L15.2569 42.6283C15.2374 41.4896 15.2181 40.352 15.1988 39.2144C15.1918 38.8037 15.1849 38.3918 15.1778 37.98C15.1747 37.791 15.1722 37.5974 15.2305 37.4219L15.2331 37.414C15.279 37.2801 15.3911 37.1867 15.5219 37.1687L15.5236 37.1676C15.586 37.1597 15.6485 37.1541 15.7105 37.1507C15.8457 37.1439 15.9762 37.2205 16.0485 37.3465L16.0556 37.36C16.1518 37.5378 16.1814 37.7459 16.2092 37.9485C16.2617 38.3333 16.3145 38.7193 16.3673 39.1052C16.6307 41.0316 16.894 42.9569 17.1574 44.8833C17.2027 45.2141 17.2478 45.5438 17.2929 45.8746C17.3125 46.0175 17.3321 46.1604 17.3516 46.3022C17.3786 46.5002 17.1067 46.5486 17.0719 46.3517C17.0693 46.3382 17.0672 46.3247 17.0655 46.3101C17.0504 46.1886 17.0527 46.0659 17.048 45.9433C17.044 45.8431 17.0354 45.743 17.0077 45.6462C16.9361 45.3975 16.661 45.1747 16.4587 45.3874C16.3648 45.4864 16.3311 45.6361 16.358 45.7779C16.3793 45.8915 16.4009 46.0051 16.4224 46.1188C16.7635 47.9225 17.1047 49.7263 17.4458 51.53C17.4945 51.7877 17.4932 52.141 17.2599 52.204ZM20.3452 33.1629C19.6485 33.1055 19.1054 32.8467 19.1322 32.5845C19.1591 32.3235 19.7457 32.158 20.4425 32.2154C21.1393 32.2739 21.6823 32.5327 21.6557 32.7949C21.6288 33.056 21.0419 33.2214 20.3452 33.1629ZM17.7724 30.7425C17.1867 30.6941 16.7337 30.4421 16.7604 30.181C16.7873 29.9188 17.2839 29.7467 17.8696 29.7951C18.4553 29.8434 18.9083 30.0955 18.8815 30.3565C18.8545 30.6187 18.358 30.7909 17.7724 30.7425ZM16.055 32.7409C15.9957 33.3182 15.252 33.7289 14.3934 33.658C13.5352 33.586 12.8873 33.0605 12.9466 32.4832C13.0059 31.906 13.7498 31.4953 14.6081 31.5673C15.4664 31.6382 16.1143 32.1637 16.055 32.7409ZM10.5915 32.1862C10.1452 32.643 9.54174 32.8253 9.24356 32.5935C8.94526 32.3606 9.06509 31.8013 9.51136 31.3445C9.95763 30.8877 10.5611 30.7054 10.8594 30.9372C11.1576 31.1701 11.0376 31.7293 10.5915 32.1862ZM8.04406 35.5866C7.70143 35.9332 7.21431 36.0468 6.95607 35.8432C6.69783 35.6384 6.76613 35.1928 7.10888 34.8473C7.4514 34.5008 7.93862 34.3871 8.19664 34.5908C8.45499 34.7956 8.38669 35.2412 8.04406 35.5866ZM48.6396 47.5253C43.8629 45.2299 38.4136 43.4756 32.6392 42.3695C32.3619 42.3538 32.0833 42.3436 31.8043 42.3369C31.8984 41.9374 31.9486 41.5188 31.9486 41.0868V23.6468C31.9486 23.1055 31.8687 22.5846 31.723 22.0962C33.4009 21.627 34.4583 20.944 34.4583 20.1845C34.4583 18.7689 30.7968 17.6212 26.2801 17.6212C21.7636 17.6212 18.1021 18.7689 18.1021 20.1845C18.1021 21.2253 20.0854 22.121 22.932 22.5227C22.8558 22.8839 22.8142 23.2597 22.8142 23.6468V30.9788C22.0701 30.4893 21.326 29.9998 20.582 29.5092C19.1788 28.5865 17.7757 27.6639 16.3599 26.7569C15.4197 26.1538 14.3775 25.5316 13.2226 25.5799C12.3068 25.6193 11.4685 26.0897 10.8531 26.6962C10.2376 27.3015 9.81236 28.0397 9.394 28.7677C8.35293 30.5805 7.31176 32.3932 6.27069 34.206C5.84029 34.9565 5.40449 35.7194 5.23604 36.5487C5.0676 37.378 5.20251 38.2973 5.81284 38.9409C6.76253 39.9435 8.45781 39.9626 9.92151 39.8557C10.0896 39.8434 10.2573 39.8276 10.4253 39.8141C8.59767 39.597 7.38456 39.0985 7.28014 38.3952C7.0902 37.1169 10.6283 35.6474 15.1822 35.1129C18.4593 34.7269 21.3692 34.9317 22.8142 35.5529C23.3773 35.7948 23.718 36.0997 23.7712 36.4587C23.8344 36.8851 23.4803 37.333 22.8142 37.7594C22.7014 37.8315 22.5808 37.9035 22.4505 37.9744C22.572 37.9676 22.6933 37.9597 22.8142 37.9496V41.0868C22.8142 41.8744 22.9813 42.6182 23.2781 43.2798C21.9614 43.5724 20.6668 43.91 19.3834 44.2622L18.7101 39.3539C18.6772 39.1131 18.6193 38.8836 18.5413 38.6664C20.2731 38.1747 21.4273 37.45 21.3386 36.8041C21.2182 35.9264 18.8491 35.5259 16.0472 35.9107C13.2452 36.2944 11.0714 37.3183 11.1918 38.196C11.2565 38.6675 11.9707 39.0017 13.0513 39.1502C13.0025 39.4653 12.9973 39.795 13.0434 40.1303L13.8238 45.8206C11.3682 46.5115 8.91263 47.2013 6.45703 47.8922C4.96239 48.3119 3.435 48.7462 2.25992 49.4562C0.840549 50.3137 0.0433221 51.5559 0.138517 52.7824C0.234049 54.0101 1.22482 55.2017 2.79125 55.9556C4.69784 56.8715 7.24368 57.0977 9.65584 57.0741C14.6619 57.0245 19.6323 56.0141 23.7128 54.216C25.6084 53.3799 27.3899 52.356 29.6358 51.9813C31.9019 51.6021 34.2703 51.9452 36.4882 52.4865L36.4715 52.482C34.1954 51.8361 31.6441 51.2915 29.2273 51.6954C27.2842 52.0195 25.7426 52.9051 24.1025 53.6286C20.5721 55.1848 16.2715 56.0591 11.9403 56.1019C9.85321 56.1221 7.65045 55.9263 6.00086 55.1342C4.64563 54.4826 3.78832 53.4508 3.70573 52.3886C3.62325 51.3275 4.31313 50.2529 5.5412 49.5102C6.55785 48.8959 7.87933 48.5212 9.17244 48.1577C9.80674 47.9788 10.4409 47.801 11.0751 47.6221C10.0077 48.3141 9.33121 49.6498 9.57584 50.9134C9.8496 52.3289 11.0807 53.4103 12.4399 53.8896C13.7993 54.369 15.2792 54.3465 16.7184 54.2666C17.6446 54.2148 18.5852 54.1383 19.452 53.8075C20.3187 53.4767 21.1152 52.8533 21.4512 51.9891C21.9539 50.6951 21.3885 49.0466 22.2556 47.963C22.8878 47.1731 24.0498 47.0336 25.0462 47.2114C26.0426 47.3881 26.988 47.8134 27.9939 47.9237C29.4517 48.0834 30.8981 47.5658 32.2216 46.9346C33.5453 46.3033 34.824 45.5438 36.2405 45.1635L36.2595 45.159C37.2208 44.9035 38.2381 44.9531 39.1838 45.2614C39.5632 45.3851 39.9397 45.5112 40.3133 45.6417C42.1824 46.2921 43.9755 47.0257 45.6697 47.8404C47.6155 48.7755 49.6055 50.0897 49.223 51.5975C48.8341 53.1301 46.0339 54.0382 43.5335 53.9673C42.2697 53.9324 41.0612 53.7175 39.8809 53.4317C41.9031 54.0123 43.9643 54.5457 46.1705 54.6075C49.0607 54.6886 52.2968 53.6398 52.7464 51.8676C53.1886 50.1246 50.8887 48.6067 48.6396 47.5253Z" fill="url(#paint1_linear_12664_1182)"/>
<path d="M47.0577 50.3739C47.2244 50.1128 46.9278 49.6256 46.3948 49.2847C45.8622 48.9448 45.295 48.8796 45.1284 49.1406C44.9618 49.4006 45.2585 49.8889 45.7913 50.2287C46.324 50.5697 46.891 50.635 47.0577 50.3739Z" fill="#0F240F"/>
<path d="M33.7124 48.9359C33.5457 49.1969 33.8425 49.6842 34.3753 50.0251C34.9081 50.3661 35.4749 50.4302 35.6418 50.1691C35.8084 49.9092 35.5116 49.422 34.9788 49.081C34.4461 48.7401 33.8791 48.6759 33.7124 48.9359Z" fill="#0F240F"/>
<path d="M24.2026 48.3636C24.036 48.6247 24.3327 49.1119 24.8655 49.4529C25.3983 49.7938 25.9653 49.8579 26.1319 49.598C26.2987 49.337 26.0019 48.8497 25.4691 48.5088C24.9364 48.1678 24.3694 48.1037 24.2026 48.3636Z" fill="#0F240F"/>
<path d="M5.10496 51.579C4.93832 51.84 5.23504 52.3272 5.76772 52.6682C6.30052 53.0091 6.86753 53.0733 7.03428 52.8122C7.20093 52.5523 6.9041 52.0639 6.37141 51.7241C5.83861 51.3832 5.27161 51.3179 5.10496 51.579Z" fill="#0F240F"/>
<defs>
<linearGradient id="paint0_linear_12664_1182" x1="26.2808" y1="22.5762" x2="26.2808" y2="0.643461" gradientUnits="userSpaceOnUse">
<stop/>
<stop offset="1" stop-color="#1B421A"/>
</linearGradient>
<linearGradient id="paint1_linear_12664_1182" x1="26.4661" y1="57.0757" x2="26.4661" y2="17.6212" gradientUnits="userSpaceOnUse">
<stop/>
<stop offset="1" stop-color="#1B421A"/>
</linearGradient>
</defs>
</svg>
