<svg width="60" height="62" viewBox="0 0 60 62" fill="none" xmlns="http://www.w3.org/2000/svg">
<rect width="60" height="61.4634" rx="10" fill="#FFC9D4"/>
<path d="M53.2538 23.7597C53.2538 22.0293 52.8324 20.5437 52.0015 19.337C51.3314 18.3638 50.4044 17.5929 49.2467 17.0325C47.3348 16.107 45.4379 16.11 45.3582 16.11H45.3466L45.3353 16.0975C45.2553 16.0996 43.3596 16.1446 41.4513 17.1216C40.4456 17.6364 39.3354 18.4654 38.5416 19.7713C37.7478 18.4654 36.6373 17.6364 35.6319 17.1216C33.7232 16.1446 31.8275 16.0996 31.7478 16.0975L31.7363 16.11H31.7248C31.645 16.11 29.748 16.107 27.8366 17.0325C26.6787 17.5929 25.7518 18.3638 25.0816 19.337C24.2507 20.5437 23.8293 22.0293 23.8293 23.7597C23.8293 33.0044 38.5416 42.9417 38.5416 42.9417C38.5416 42.9417 53.2538 33.0044 53.2538 23.7597Z" fill="#FF1D25"/>
<path d="M35.4747 41.9978C35.4333 41.9978 35.3918 41.997 35.3499 41.9957C34.5289 41.9671 33.5399 41.658 32.2371 41.0232C31.3503 40.5911 30.3957 40.0502 29.3852 39.4776C28.7713 39.1296 28.1364 38.7699 27.4849 38.4167C27.1747 38.2484 26.8692 38.0808 26.5737 37.9188C23.9422 36.4751 21.8638 35.3348 19.9256 35.5407C19.6376 35.5713 19.3794 35.3624 19.3489 35.0745C19.3183 34.7863 19.527 34.5281 19.815 34.4976C22.0797 34.2575 24.3961 35.5281 27.0781 36.9993C27.3725 37.1608 27.6769 37.3275 27.9849 37.4948C28.645 37.8527 29.2841 38.2148 29.9022 38.5651C30.8983 39.1296 31.8388 39.6627 32.6964 40.0804C35.4013 41.3982 36.3517 41.0544 36.9469 40.1328C37.1871 39.7605 37.1803 39.305 36.926 38.7785C36.8525 38.6259 36.7584 38.4689 36.6459 38.3105C36.3898 37.95 36.0439 37.5882 35.6173 37.235C34.2324 36.0871 32.1883 35.0053 30.5456 34.1363C29.7981 33.7407 29.1525 33.399 28.6973 33.1177C27.4027 32.3172 26.6225 31.3964 25.6347 30.2304C25.1334 29.6386 24.5651 28.9679 23.848 28.2243C21.2543 25.535 17.5481 25.5066 13.6244 25.4765C12.54 25.4681 11.4187 25.4597 10.3232 25.391C9.14754 25.3173 7.7989 25.1881 6.31474 25.0064C6.02729 24.9712 5.82276 24.7096 5.85794 24.4222C5.89312 24.1346 6.15459 23.93 6.44216 23.9652C7.90583 24.1445 9.23367 24.272 10.3887 24.3443C11.4555 24.4109 12.5622 24.4196 13.6325 24.4277C15.5957 24.4426 17.6258 24.4584 19.4862 24.8357C21.6199 25.2683 23.2936 26.1388 24.6029 27.4962C25.3434 28.2642 25.9233 28.9485 26.435 29.5526C27.3627 30.6475 28.0955 31.5125 29.2488 32.2257C29.6741 32.4884 30.3052 32.8225 31.0362 33.2092C32.7214 34.1009 34.8187 35.2106 36.2867 36.4274C36.7836 36.8391 37.1921 37.268 37.5004 37.7027C37.6473 37.9088 37.7721 38.1178 37.8709 38.3236C38.2886 39.1884 38.2739 40.0109 37.8282 40.7015C37.2726 41.562 36.481 41.9978 35.4747 41.9978Z" fill="black"/>
<path d="M26.9795 44.7007C25.9143 44.7007 24.8731 44.5604 23.6725 44.1973C23.1251 44.031 22.6472 43.8163 21.7796 43.4261C20.0496 42.6485 18.9372 41.8899 17.5288 40.9292C16.5328 40.2499 15.4038 39.4798 13.7718 38.4989C11.0353 36.8541 8.85326 35.7689 6.90483 35.0843C6.63161 34.9881 6.48798 34.6889 6.58401 34.4157C6.68003 34.1422 6.97935 33.9986 7.25263 34.0948C9.26984 34.8038 11.513 35.9176 14.3121 37.6001C15.9699 38.5964 17.1121 39.3755 18.1198 40.0629C19.5388 41.0307 20.5641 41.73 22.2096 42.4696C23.0648 42.854 23.494 43.047 23.9766 43.1936C26.4238 43.9337 28.1191 43.6661 31.1966 43.1802C31.9194 43.0659 32.7383 42.9366 33.6518 42.8074C42.3386 41.5774 44.7327 40.4339 45.3865 39.8618C45.722 39.5687 45.7234 39.2816 45.6659 39.0923C45.5909 38.8447 45.386 38.6712 45.2394 38.6523C44.7535 38.5957 39.4595 38.9307 37.4351 39.0737C37.1461 39.0938 36.8955 38.8765 36.8752 38.5875C36.8547 38.2986 37.0721 38.0479 37.3608 38.0275C37.3755 38.0264 39.1801 37.9019 41.0998 37.7857C44.9234 37.5545 45.2503 37.5964 45.3732 37.6122C45.9576 37.6874 46.4785 38.1594 46.6695 38.7868C46.8719 39.4528 46.6505 40.1497 46.0773 40.6513C45.2821 41.3466 43.5422 41.9909 40.7576 42.6204C38.8729 43.0467 36.5315 43.4589 33.799 43.8459C32.894 43.9739 32.0791 44.1026 31.3603 44.2161C29.6369 44.488 28.29 44.7007 26.9795 44.7007Z" fill="black"/>
<path d="M32.4668 41.0759C32.4657 41.0759 32.4644 41.0759 32.4631 41.0759C32.1737 41.0738 31.9403 40.8376 31.9424 40.5479C31.9513 39.2749 32.5656 38.1894 33.6281 37.5696C34.7537 36.9128 36.1714 36.9044 37.3279 37.5478C37.5809 37.6886 37.6719 38.008 37.5311 38.261C37.3906 38.514 37.0712 38.605 36.818 38.4642C35.9836 38.0001 34.964 38.0043 34.1567 38.4755C33.4112 38.9102 32.9975 39.6488 32.9912 40.5552C32.9891 40.8436 32.7547 41.0759 32.4668 41.0759Z" fill="black"/>
</svg>
