<svg width="22" height="22" viewBox="0 0 22 22" fill="none" xmlns="http://www.w3.org/2000/svg">
<path d="M16.2449 15.7811C17.6704 14.1857 18.4578 12.1206 18.4562 9.98087C18.4562 5.16436 14.538 1.25 9.72811 1.25C4.91313 1.25 1 5.16946 1 9.98087C1 14.7923 4.91822 18.7117 9.72811 18.7117C11.8672 18.7133 13.9317 17.9257 15.5265 16.4997L20.1275 21.1021C20.1748 21.1498 20.2312 21.1874 20.2933 21.2128C20.3555 21.2382 20.4221 21.2509 20.4892 21.25C20.6244 21.2494 20.7541 21.1964 20.851 21.1021C20.8982 21.055 20.9357 20.999 20.9613 20.9373C20.9868 20.8757 21 20.8096 21 20.7428C21 20.6761 20.9868 20.61 20.9613 20.5483C20.9357 20.4867 20.8982 20.4306 20.851 20.3835L16.2449 15.7811ZM2.01395 9.98087C2.01395 5.73011 5.4736 2.26937 9.72301 2.26937C13.9724 2.26937 17.4321 5.73011 17.4321 9.98087C17.4321 14.2316 13.9724 17.6924 9.72301 17.6924C5.4736 17.6924 2.01395 14.2316 2.01395 9.98087Z" fill="#A9A9A9" stroke="#A9A9A9" stroke-width="0.8"/>
</svg>
