<svg width="60" height="62" viewBox="0 0 60 62" fill="none" xmlns="http://www.w3.org/2000/svg">
<rect width="60" height="61.4634" rx="10" fill="#FFC9D4"/>
<path d="M53.2535 23.7555C53.2535 22.0252 52.8321 20.5395 52.0012 19.3329C51.3312 18.3596 50.4041 17.5888 49.2465 17.0283C47.3345 16.1028 45.4376 16.1059 45.358 16.1059H45.3463L45.335 16.0933C45.2551 16.0955 43.3594 16.1405 41.4511 17.1174C40.4454 17.6323 39.3352 18.4613 38.5414 19.7672C37.7476 18.4613 36.6371 17.6323 35.6316 17.1174C33.723 16.1405 31.8273 16.0955 31.7476 16.0933L31.7361 16.1059H31.7245C31.6448 16.1059 29.7478 16.1028 27.8363 17.0283C26.6785 17.5888 25.7516 18.3596 25.0814 19.3329C24.2504 20.5395 23.8291 22.0252 23.8291 23.7555C23.8291 33.0002 38.5414 42.9375 38.5414 42.9375C38.5414 42.9375 53.2535 33.0002 53.2535 23.7555Z" fill="#FF1D25"/>
<path d="M35.4742 41.9922C35.4328 41.9922 35.3913 41.9914 35.3494 41.9901C34.5285 41.9615 33.5395 41.6524 32.2366 41.0176C31.3498 40.5855 30.3952 40.0446 29.3847 39.4719C28.7708 39.124 28.1359 38.7643 27.4844 38.4111C27.1742 38.2428 26.8687 38.0752 26.5732 37.9132C23.9417 36.4695 21.8633 35.3292 19.9251 35.5351C19.6371 35.5657 19.3789 35.3568 19.3484 35.0689C19.3178 34.7807 19.5265 34.5224 19.8145 34.492C22.0792 34.2519 24.3956 35.5225 27.0776 36.9937C27.372 37.1552 27.6764 37.3219 27.9845 37.4892C28.6445 37.8471 29.2836 38.2092 29.9017 38.5595C30.8978 39.124 31.8383 39.6571 32.696 40.0747C35.4008 41.3925 36.3513 41.0488 36.9464 40.1272C37.1866 39.7549 37.1798 39.2994 36.9255 38.7729C36.8521 38.6203 36.7579 38.4633 36.6454 38.3049C36.3893 37.9444 36.0434 37.5826 35.6168 37.2294C34.2319 36.0815 32.1878 34.9996 30.5452 34.1307C29.7976 33.7351 29.152 33.3934 28.6968 33.1121C27.4022 32.3116 26.622 31.3908 25.6343 30.2248C25.1329 29.633 24.5646 28.9623 23.8475 28.2187C21.2538 25.5293 17.5476 25.501 13.6239 25.4709C12.5395 25.4625 11.4182 25.4541 10.3227 25.3854C9.14705 25.3117 7.79842 25.1825 6.31425 25.0008C6.0268 24.9656 5.82227 24.7039 5.85745 24.4166C5.89263 24.129 6.1541 23.9244 6.44168 23.9596C7.90534 24.1389 9.23319 24.2663 10.3882 24.3387C11.455 24.4053 12.5617 24.414 13.632 24.4221C15.5952 24.437 17.6253 24.4528 19.4858 24.8301C21.6194 25.2627 23.2931 26.1332 24.6024 27.4906C25.343 28.2586 25.9229 28.9429 26.4345 29.547C27.3622 30.6419 28.095 31.5069 29.2484 32.2201C29.6736 32.4828 30.3047 32.8169 31.0357 33.2036C32.7209 34.0953 34.8182 35.2049 36.2862 36.4218C36.7831 36.8335 37.1916 37.2624 37.4999 37.6971C37.6468 37.9032 37.7716 38.1122 37.8704 38.318C38.2881 39.1827 38.2734 40.0053 37.8277 40.6959C37.2721 41.5564 36.4805 41.9922 35.4742 41.9922Z" fill="black"/>
<path d="M26.979 44.6953C25.9138 44.6953 24.8726 44.555 23.672 44.1919C23.1246 44.0257 22.6467 43.8109 21.7791 43.4208C20.0491 42.6431 18.9367 41.8846 17.5284 40.9239C16.5323 40.2445 15.4033 39.4744 13.7713 38.4935C11.0348 36.8488 8.85277 35.7635 6.90434 35.0789C6.63112 34.9827 6.4875 34.6836 6.58352 34.4103C6.67954 34.1369 6.97886 33.9932 7.25214 34.0894C9.26935 34.7984 11.5126 35.9122 14.3116 37.5947C15.9694 38.5911 17.1116 39.3701 18.1193 40.0576C19.5383 41.0253 20.5636 41.7246 22.2091 42.4643C23.0643 42.8487 23.4935 43.0416 23.9761 43.1882C26.4234 43.9284 28.1186 43.6607 31.1961 43.1748C31.9189 43.0605 32.7378 42.9312 33.6513 42.802C42.3381 41.572 44.7322 40.4286 45.3861 39.8565C45.7215 39.5633 45.7229 39.2762 45.6655 39.0869C45.5904 38.8394 45.3855 38.6658 45.2389 38.6469C44.753 38.5903 39.459 38.9254 37.4346 39.0683C37.1456 39.0885 36.895 38.8711 36.8747 38.5822C36.8542 38.2932 37.0716 38.0426 37.3603 38.0221C37.375 38.0211 39.1796 37.8965 41.0993 37.7804C44.9229 37.5491 45.2498 37.5911 45.3727 37.6068C45.9571 37.682 46.478 38.154 46.669 38.7814C46.8714 39.4474 46.65 40.1443 46.0768 40.6459C45.2816 41.3413 43.5417 41.9855 40.7571 42.615C38.8724 43.0414 36.531 43.4535 33.7985 43.8405C32.8935 43.9685 32.0786 44.0972 31.3598 44.2108C29.6364 44.4827 28.2895 44.6953 26.979 44.6953Z" fill="black"/>
<path d="M32.4668 41.0703C32.4657 41.0703 32.4644 41.0703 32.4631 41.0703C32.1737 41.0682 31.9403 40.832 31.9424 40.5422C31.9513 39.2693 32.5656 38.1838 33.6281 37.5639C34.7537 36.9071 36.1714 36.8988 37.3279 37.5422C37.5809 37.683 37.6719 38.0023 37.5311 38.2554C37.3906 38.5084 37.0712 38.5994 36.818 38.4586C35.9836 37.9945 34.964 37.9987 34.1567 38.4698C33.4112 38.9046 32.9975 39.6432 32.9912 40.5496C32.9891 40.838 32.7547 41.0703 32.4668 41.0703Z" fill="black"/>
</svg>
