<svg width="42" height="42" viewBox="0 0 42 42" fill="none" xmlns="http://www.w3.org/2000/svg">
<circle cx="21" cy="21" r="21" fill="#E9E9E9"/>
<path d="M27.4381 16.3058C29.4555 16.3058 31.091 14.6704 31.091 12.6529C31.091 10.6355 29.4555 9 27.4381 9C25.4206 9 23.7852 10.6355 23.7852 12.6529C23.7852 14.6704 25.4206 16.3058 27.4381 16.3058Z" stroke="#222222" stroke-width="1.3"/>
<path d="M27.4381 32.6296C29.4555 32.6296 31.091 30.9941 31.091 28.9766C31.091 26.9592 29.4555 25.3237 27.4381 25.3237C25.4206 25.3237 23.7852 26.9592 23.7852 28.9766C23.7852 30.9941 25.4206 32.6296 27.4381 32.6296Z" stroke="#222222" stroke-width="1.3"/>
<path d="M13.6529 24.4672C15.6704 24.4672 17.3058 22.8317 17.3058 20.8143C17.3058 18.7968 15.6704 17.1614 13.6529 17.1614C11.6355 17.1614 10 18.7968 10 20.8143C10 22.8317 11.6355 24.4672 13.6529 24.4672Z" stroke="#222222" stroke-width="1.3"/>
<path fill-rule="evenodd" clip-rule="evenodd" d="M23.8616 14.0918L16.5547 17.9979L23.8605 14.0918H23.8616ZM23.8616 27.2267L16.5547 23.3195L23.8605 27.2267H23.8616Z" stroke="#222222" stroke-width="1.3"/>
</svg>
