<svg width="71" height="72" viewBox="0 0 71 72" fill="none" xmlns="http://www.w3.org/2000/svg">
<path d="M70.2306 35.6937C70.2306 31.0264 69.3264 26.4048 67.5697 22.0928C65.8129 17.7808 63.238 13.8628 59.992 10.5625C56.746 7.26224 52.8924 4.64432 48.6513 2.85822C44.4101 1.07212 39.8645 0.152832 35.2739 0.152832L35.2739 35.6937H70.2306Z" fill="#7FCB2D"/>
<path d="M0.317673 35.6937C0.317673 31.0264 1.22185 26.4048 2.97859 22.0928C4.73532 17.7808 7.31021 13.8628 10.5562 10.5625C13.8023 7.26224 17.6559 4.64432 21.897 2.85822C26.1381 1.07212 30.6837 0.152832 35.2743 0.152832L35.2743 35.6937H0.317673Z" fill="#BFCB37"/>
<path fill-rule="evenodd" clip-rule="evenodd" d="M57.1943 25.7155C57.7166 25.4382 57.9778 25.2996 57.9778 25.2996C57.9947 26.3464 58.4001 27.0568 59.1935 27.4312C59.5283 27.6313 59.7229 27.8987 59.7777 28.2334C59.9253 28.0868 60.0443 27.9432 60.1344 27.8022C60.8436 28.6662 61.6405 29.1535 62.5254 29.264C62.7208 28.9484 62.7907 28.6744 62.7351 28.4416C63.7827 29.1247 64.8326 29.3151 65.8852 29.013C66.0052 28.1567 65.9678 27.4946 65.773 27.0267C65.8233 27.0201 65.874 27.0116 65.9249 27.001C66.252 27.0003 66.76 26.8715 67.449 26.6146C67.2371 26.4842 67.0248 26.27 66.8122 25.9717C66.5755 25.5913 66.3494 25.3494 66.1338 25.2461L66.1259 25.2354C66.1326 25.2326 66.1395 25.2299 66.1465 25.2271C66.5047 25.2366 66.8856 25.0741 67.2892 24.7396C67.1433 24.7175 66.934 24.4834 66.6613 24.0378C66.623 23.9671 66.5822 23.8982 66.5392 23.8315L66.5388 23.8308L66.5387 23.8308C66.3826 23.5886 66.1972 23.3728 65.998 23.1904C66.1326 23.1074 66.3199 22.9295 66.5601 22.6563C66.242 21.707 65.4297 21.0543 64.3723 20.8229C64.7296 20.8274 64.9843 20.5065 65.1364 19.8602C64.9375 20.0233 64.5646 19.9313 64.0178 19.5844C63.2993 19.1228 62.6009 18.9348 61.9228 19.0208C62.1502 18.7484 62.3423 18.4082 62.4829 17.9905C62.3142 17.9748 62.1108 17.9124 61.8729 17.8032C62.5725 17.252 62.8711 16.6321 62.7683 15.9433C62.6236 15.6074 62.2942 15.5175 62.0719 15.5247C62.2145 14.9553 62.1136 14.3352 61.7692 13.6648C61.1896 13.5908 60.691 13.9995 60.2285 14.3179C60.2337 14.143 60.1157 13.9248 59.8745 13.6633C59.1056 14.165 58.795 14.6917 58.6678 15.3238C58.6678 15.3238 58.5175 15.2005 58.217 14.9539C56.7292 16.4255 56.8749 17.8719 57.6793 18.8163C57.2135 18.9887 56.8545 19.0463 56.6018 18.9894C55.0578 18.3516 53.5645 18.2226 52.1222 18.6021C51.849 18.9178 51.9428 19.1855 52.1594 19.4947C53.1609 19.1152 54.2166 19.064 55.3674 19.3262C55.0758 19.0744 54.5668 18.957 53.8397 18.9743C54.4246 18.9227 54.8855 18.9652 55.222 19.1022C55.721 19.3052 55.8268 19.7217 55.9487 20.2247C56.3679 21.9527 55.0279 22.4118 55.1422 23.5073C54.9237 22.2741 56.329 21.7811 55.6436 19.9718C55.6288 20.1139 55.6039 20.2549 55.5694 20.3945C55.2378 21.7258 53.7691 22.7109 54.4867 24.2395C54.6909 24.6751 55.0699 25.0683 55.6235 25.4192C55.1104 24.6219 55.8886 23.8356 56.2551 23.1417C57.0418 21.6519 56.9797 20.4448 56.0684 19.5208C56.4997 19.6608 56.9447 19.8417 57.4055 20.0628C57.5684 20.1505 57.6787 20.2426 57.7491 20.3385C57.688 20.1537 57.5453 19.9642 57.3205 19.7699C57.9204 20.0687 58.0638 20.485 57.7509 21.0188L57.7508 21.0189C57.6641 21.2043 57.536 21.3933 57.4314 21.5798L57.4279 21.5844L57.4294 21.5831C56.7469 22.8014 56.5594 24.2973 57.1943 25.7155ZM61.2232 20.8783C61.8808 21.2839 62.7216 21.1133 63.7458 20.366C62.6694 19.6635 61.5704 19.5486 60.4483 20.021C60.7463 20.3413 61.4484 20.5014 62.5546 20.5015C61.9323 20.5816 61.4884 20.707 61.2232 20.8783ZM59.1315 19.7606L59.1288 19.7623L59.1293 19.7608C58.7821 19.9602 58.4013 19.9365 57.9874 19.6897C57.781 19.5668 57.5758 19.4527 57.3715 19.3472C57.5314 19.2853 57.7018 19.1802 57.8829 19.0316C58.2311 19.3643 58.6656 19.6164 59.1315 19.7606ZM57.9971 16.9498C57.8137 17.3543 57.7532 17.7073 57.8161 18.0089C57.3731 17.2885 57.491 16.4874 58.1698 15.6053C58.8327 16.4077 58.8947 17.1013 58.3558 17.6858C58.1562 17.4464 58.0366 17.201 57.9971 16.9498ZM58.3315 18.9299C58.5795 18.1489 59.0133 17.8604 59.633 18.0644C59.3585 18.7538 58.9247 19.0422 58.3315 18.9299ZM60.1455 18.381C60.6784 17.81 61.0997 17.7676 61.4092 18.2537C61.0947 18.6788 60.6735 18.7212 60.1455 18.381ZM60.7697 17.4225C61.1725 16.8542 61.6689 16.5749 62.2591 16.5848C62.1533 17.3863 61.6568 17.6655 60.7697 17.4225ZM60.9032 15.6187C61.5915 15.4664 61.8253 15.0467 61.526 14.0932C60.822 14.5787 60.4538 14.9611 60.4999 15.5071C60.8445 15.3481 61.0578 15.2135 61.1404 15.1036C61.1038 15.3479 61.0246 15.5196 60.9032 15.6187ZM59.7705 16.7427C59.7398 17.0404 59.6681 17.2904 59.5552 17.4933C60.3691 17.0569 60.5951 16.4651 60.2329 15.7177C59.5403 15.8359 59.1351 16.3146 59.0172 17.1541C59.3653 17.0593 59.6165 16.9224 59.7705 16.7427ZM59.4043 15.668C59.83 15.2495 59.899 14.7678 59.6113 14.2227C59.0508 14.9324 58.9815 15.4141 59.4043 15.668ZM64.8108 25.0438C64.9675 25.2264 65.0723 25.3795 65.125 25.5028C64.996 25.5547 64.8806 25.5848 64.7789 25.5932C65.138 26.259 65.7342 26.553 66.5676 26.4751C66.2556 25.6747 65.6699 25.1977 64.8108 25.0438ZM63.9368 27.4697C63.8247 27.1474 63.5723 26.8685 63.1797 26.6325C64.4288 26.6527 65.1678 27.2348 65.3966 28.379C64.1925 28.518 63.3405 28.1742 62.8406 27.3469C63.5714 27.4288 63.9368 27.4697 63.9368 27.4697ZM60.9709 26.2904C62.0827 26.928 62.478 27.6257 62.1566 28.3835C61.4795 28.3707 60.9212 27.8005 60.4818 26.6726C60.8771 26.9306 61.1471 27.072 61.2911 27.0965C61.2375 26.7469 61.1306 26.4784 60.9709 26.2904ZM57.8971 21.4932C57.2829 22.8898 57.2561 23.8735 57.8166 24.4444C58.9864 24.0068 59.0133 23.0231 57.8971 21.4932ZM59.2891 23.9438C59.3575 24.798 59.8399 25.2983 60.7357 25.4449C60.9591 24.3467 60.598 23.4796 59.6526 22.8437C59.4965 23.4423 59.555 23.9299 59.8281 24.3062C59.5783 24.2463 59.3987 24.1255 59.2891 23.9438ZM61.598 22.8625C61.4012 22.4772 61.349 22.1701 61.4413 21.9416C62.399 21.8804 62.9193 22.4653 63.002 23.6965C61.8264 24.0444 61.0002 23.7657 60.5235 22.8607C60.9232 22.8997 61.2815 22.9003 61.598 22.8625ZM64.0652 21.9174C63.9277 21.6736 63.7595 21.5016 63.5604 21.4017C64.6857 21.2597 65.5029 21.6109 66.0119 22.4553C64.4252 22.9373 63.3837 22.7913 62.8873 22.0176C63.2446 22.0318 63.6372 21.9985 64.0652 21.9174ZM66.3548 24.2059C66.4683 24.3899 66.5202 24.5443 66.5106 24.6688C65.0842 24.6986 63.9681 25.0144 63.3663 23.2314C63.5577 23.532 64.1303 23.8184 65.0841 24.09C64.7301 23.8843 64.4157 23.5412 64.141 23.0609C65.2338 23.2342 65.9717 23.6158 66.3548 24.2059ZM62.8385 25.2412C62.3494 24.899 62.0804 24.5354 62.0318 24.1503C63.1985 24.0718 63.8257 24.6733 63.9135 25.9554C62.6636 26.1934 61.8015 25.8515 61.3273 24.9299C61.9381 25.2618 62.442 25.3655 62.8385 25.2412ZM58.6939 24.6033C58.6002 25.7225 58.8875 26.3902 59.556 26.606C59.7729 25.7748 59.4856 25.1073 58.6939 24.6033ZM59.6335 21.6283C59.2879 21.223 59.1496 20.777 59.2189 20.2907C60.2747 20.3064 60.8803 20.9217 61.0353 22.1372C59.5996 22.5872 58.7375 22.3117 58.4492 21.3103C58.9571 21.6325 59.3519 21.7386 59.6335 21.6283Z" fill="#1B421A"/>
<path fill-rule="evenodd" clip-rule="evenodd" d="M12.712 25.7155C12.1896 25.4382 11.9285 25.2996 11.9285 25.2996C11.9115 26.3464 11.5062 27.0568 10.7127 27.4312C10.378 27.6313 10.1833 27.8987 10.1285 28.2334C9.98092 28.0868 9.86195 27.9432 9.77181 27.8022C9.06264 28.6662 8.26571 29.1535 7.38083 29.264C7.18548 28.9484 7.11558 28.6744 7.17118 28.4416C6.12359 29.1247 5.07363 29.3151 4.0211 29.013C3.90106 28.1567 3.93848 27.4946 4.13321 27.0267C4.08299 27.0201 4.03227 27.0116 3.98131 27.001C3.65427 27.0003 3.14623 26.8715 2.45721 26.6146C2.66917 26.4842 2.88144 26.27 3.09403 25.9717C3.33073 25.5913 3.55689 25.3494 3.77246 25.2461L3.78035 25.2354C3.77364 25.2326 3.76676 25.2299 3.75974 25.2271C3.40153 25.2366 3.02063 25.0741 2.61709 24.7396C2.76298 24.7175 2.9723 24.4834 3.24496 24.0378C3.28326 23.9671 3.32404 23.8982 3.36707 23.8315L3.36747 23.8308L3.36751 23.8308C3.52368 23.5886 3.70906 23.3728 3.90823 23.1904C3.77369 23.1074 3.58633 22.9295 3.34619 22.6563C3.66423 21.707 4.47658 21.0543 5.53393 20.8229C5.17664 20.8274 4.92194 20.5065 4.76981 19.8602C4.96878 20.0233 5.34168 19.9313 5.88848 19.5844C6.60697 19.1228 7.30532 18.9348 7.98344 19.0208C7.75607 18.7484 7.56399 18.4082 7.42339 17.9905C7.59208 17.9748 7.79542 17.9124 8.03337 17.8032C7.33372 17.252 7.03514 16.6321 7.1379 15.9433C7.28269 15.6074 7.61204 15.5175 7.83434 15.5247C7.69175 14.9553 7.79269 14.3352 8.13708 13.6648C8.71669 13.5908 9.21529 13.9995 9.67778 14.3179C9.67254 14.143 9.79058 13.9248 10.0318 13.6633C10.8006 14.165 11.1113 14.6917 11.2384 15.3238C11.2384 15.3238 11.3888 15.2005 11.6892 14.9539C13.1771 16.4255 13.0314 17.8719 12.227 18.8163C12.6927 18.9887 13.0517 19.0463 13.3044 18.9894C14.8484 18.3516 16.3418 18.2226 17.7841 18.6021C18.0572 18.9178 17.9634 19.1855 17.7469 19.4947C16.7453 19.1152 15.6896 19.064 14.5388 19.3262C14.8305 19.0744 15.3394 18.957 16.0666 18.9743C15.4816 18.9227 15.0207 18.9652 14.6843 19.1022C14.1853 19.3052 14.0794 19.7217 13.9576 20.2247C13.5384 21.9527 14.8784 22.4118 14.7641 23.5073C14.9826 22.2741 13.5772 21.7811 14.2626 19.9718C14.2774 20.1139 14.3023 20.2549 14.3368 20.3945C14.6684 21.7258 16.1371 22.7109 15.4195 24.2395C15.2153 24.6751 14.8364 25.0683 14.2828 25.4192C14.7958 24.6219 14.0176 23.8356 13.6511 23.1417C12.8645 21.6519 12.9266 20.4448 13.8379 19.5208C13.4065 19.6608 12.9615 19.8417 12.5008 20.0628C12.3379 20.1505 12.2276 20.2426 12.1571 20.3385C12.2182 20.1537 12.3609 19.9642 12.5858 19.7699C11.9858 20.0687 11.8425 20.485 12.1553 21.0188L12.1555 21.0189C12.2421 21.2043 12.3703 21.3933 12.4748 21.5798L12.4784 21.5844L12.4768 21.5831C13.1593 22.8014 13.3469 24.2973 12.712 25.7155ZM8.68304 20.8783C8.02547 21.2839 7.18462 21.1133 6.16044 20.366C7.23682 19.6635 8.3359 19.5486 9.45793 20.021C9.15993 20.3413 8.45788 20.5014 7.35169 20.5015C7.97398 20.5816 8.41786 20.707 8.68304 20.8783ZM10.7748 19.7606L10.7775 19.7623L10.7769 19.7608C11.1241 19.9602 11.505 19.9365 11.9189 19.6897C12.1252 19.5668 12.3304 19.4527 12.5348 19.3472C12.3749 19.2853 12.2044 19.1802 12.0234 19.0316C11.6751 19.3643 11.2406 19.6164 10.7748 19.7606ZM11.9092 16.9498C12.0926 17.3543 12.153 17.7073 12.0902 18.0089C12.5331 17.2885 12.4153 16.4874 11.7365 15.6053C11.0736 16.4077 11.0116 17.1013 11.5505 17.6858C11.7501 17.4464 11.8696 17.201 11.9092 16.9498ZM11.5748 18.9299C11.3268 18.1489 10.893 17.8604 10.2733 18.0644C10.5478 18.7538 10.9815 19.0422 11.5748 18.9299ZM9.76079 18.381C9.22786 17.81 8.80657 17.7676 8.49703 18.2537C8.81159 18.6788 9.23277 18.7212 9.76079 18.381ZM9.13655 17.4225C8.73379 16.8542 8.23735 16.5749 7.64713 16.5848C7.75293 17.3863 8.24945 17.6655 9.13655 17.4225ZM9.00302 15.6187C8.31474 15.4664 8.08099 15.0467 8.38028 14.0932C9.08426 14.5787 9.45249 14.9611 9.40633 15.5071C9.06175 15.3481 8.84841 15.2135 8.76587 15.1036C8.80244 15.3479 8.88166 15.5196 9.00302 15.6187ZM10.1357 16.7427C10.1665 17.0404 10.2382 17.2904 10.351 17.4933C9.5371 17.0569 9.31117 16.4651 9.67339 15.7177C10.366 15.8359 10.7712 16.3146 10.8891 17.1541C10.541 17.0593 10.2898 16.9224 10.1357 16.7427ZM10.5019 15.668C10.0763 15.2495 10.0072 14.7678 10.2949 14.2227C10.8555 14.9324 10.9247 15.4141 10.5019 15.668ZM5.09549 25.0438C4.9387 25.2264 4.83396 25.3795 4.78124 25.5028C4.91027 25.5547 5.02564 25.5848 5.12737 25.5932C4.76826 26.259 4.17204 26.553 3.33862 26.4751C3.6507 25.6747 4.23633 25.1977 5.09549 25.0438ZM5.96944 27.4697C6.08156 27.1474 6.33394 26.8685 6.7265 26.6325C5.47741 26.6527 4.73842 27.2348 4.50962 28.379C5.71374 28.518 6.5658 28.1742 7.06569 27.3469C6.33485 27.4288 5.96944 27.4697 5.96944 27.4697ZM8.93537 26.2904C7.82355 26.928 7.42822 27.6257 7.74966 28.3835C8.42676 28.3707 8.98508 27.8005 9.42448 26.6726C9.02912 26.9306 8.75919 27.072 8.61511 27.0965C8.6687 26.7469 8.77563 26.4784 8.93537 26.2904ZM12.0091 21.4932C12.6234 22.8898 12.6502 23.8735 12.0896 24.4444C10.9198 24.0068 10.893 23.0231 12.0091 21.4932ZM10.6171 23.9438C10.5488 24.798 10.0664 25.2983 9.17056 25.4449C8.94716 24.3467 9.30827 23.4796 10.2537 22.8437C10.4098 23.4423 10.3513 23.9299 10.0781 24.3062C10.328 24.2463 10.5076 24.1255 10.6171 23.9438ZM8.30822 22.8625C8.50501 22.4772 8.55721 22.1701 8.46498 21.9416C7.5072 21.8804 6.98692 22.4653 6.90423 23.6965C8.07988 24.0444 8.90606 23.7657 9.38279 22.8607C8.98307 22.8997 8.62475 22.9003 8.30822 22.8625ZM5.84107 21.9174C5.97855 21.6736 6.1468 21.5016 6.34581 21.4017C5.22051 21.2597 4.40334 21.6109 3.89433 22.4553C5.48105 22.9373 6.5226 22.7913 7.019 22.0176C6.66164 22.0318 6.26901 21.9985 5.84107 21.9174ZM3.55141 24.2059C3.43797 24.3899 3.38601 24.5443 3.39562 24.6688C4.82201 24.6986 5.93816 25.0144 6.53998 23.2314C6.34855 23.532 5.77594 23.8184 4.82218 24.09C5.1762 23.8843 5.49059 23.5412 5.76523 23.0609C4.67247 23.2342 3.93453 23.6158 3.55141 24.2059ZM7.06772 25.2412C7.55682 24.899 7.82587 24.5354 7.87445 24.1503C6.70776 24.0718 6.08055 24.6733 5.99278 25.9554C7.24262 26.1934 8.10476 25.8515 8.57896 24.9299C7.96817 25.2618 7.46429 25.3655 7.06772 25.2412ZM11.2124 24.6033C11.306 25.7225 11.0187 26.3902 10.3502 26.606C10.1334 25.7748 10.4207 25.1073 11.2124 24.6033ZM10.2728 21.6283C10.6184 21.223 10.7567 20.777 10.6874 20.2907C9.63151 20.3064 9.02595 20.9217 8.87099 22.1372C10.3067 22.5872 11.1688 22.3117 11.4571 21.3103C10.9492 21.6325 10.5544 21.7386 10.2728 21.6283Z" fill="#1B421A"/>
</svg>
