<svg width="122" height="121" viewBox="0 0 122 121" fill="none" xmlns="http://www.w3.org/2000/svg">
<path d="M121.965 60.5C121.965 52.555 120.4 44.6878 117.36 37.3476C114.319 30.0074 109.863 23.338 104.245 17.72C98.6268 12.1021 91.9574 7.64569 84.6172 4.60529C77.277 1.56488 69.4098 -3.47286e-07 61.4648 0L61.4648 60.5H121.965Z" fill="#7FCB2D"/>
<path d="M0.964897 60.5C0.964897 52.555 2.52978 44.6878 5.57018 37.3476C8.6106 30.0074 13.067 23.338 18.6849 17.72C24.3029 12.1021 30.9723 7.64569 38.3125 4.60529C45.6527 1.56488 53.5199 -3.47286e-07 61.4649 0L61.4649 60.5H0.964897Z" fill="#BFCB37"/>
<path fill-rule="evenodd" clip-rule="evenodd" d="M99.4437 43.5139C100.343 43.0445 100.792 42.81 100.792 42.81C100.829 44.5968 101.533 45.8125 102.905 46.4576C103.483 46.8018 103.821 47.2596 103.918 47.8313C104.172 47.5823 104.376 47.338 104.53 47.0981C105.76 48.5783 107.138 49.416 108.665 49.6114C108.999 49.0742 109.118 48.607 109.02 48.2092C110.832 49.3832 112.645 49.7161 114.458 49.2085C114.658 47.7478 114.589 46.6173 114.25 45.8172C114.336 45.8064 114.424 45.7922 114.511 45.7745C115.076 45.7758 115.951 45.5598 117.137 45.1265C116.771 44.9024 116.403 44.5351 116.034 44.0242C115.623 43.3732 115.231 42.9586 114.859 42.7806L114.845 42.7623C114.857 42.7575 114.869 42.7529 114.881 42.7483C115.499 42.7672 116.154 42.4927 116.848 41.9249C116.596 41.886 116.233 41.4848 115.76 40.7222C115.693 40.6012 115.622 40.4833 115.548 40.3691L115.547 40.3679L115.547 40.3679C115.276 39.9532 114.954 39.5835 114.61 39.2707C114.841 39.13 115.163 38.8278 115.575 38.3632C115.019 36.7405 113.614 35.6202 111.788 35.2171C112.404 35.2275 112.841 34.6818 113.099 33.5797C112.757 33.8567 112.113 33.6968 111.168 33.1004C109.925 32.307 108.719 31.9809 107.55 32.1225C107.94 31.6593 108.269 31.08 108.509 30.3681C108.217 30.3401 107.866 30.232 107.455 30.0438C108.658 29.1083 109.168 28.0523 108.986 26.8758C108.734 26.3013 108.165 26.1454 107.782 26.1561C108.023 25.1852 107.845 24.126 107.246 22.9791C106.246 22.8483 105.389 23.5422 104.593 24.0821C104.601 23.7836 104.396 23.4104 103.978 22.9621C102.656 23.8126 102.124 24.7092 101.909 25.7873C101.909 25.7873 101.649 25.5757 101.129 25.1525C98.5733 27.653 98.8352 30.123 100.23 31.7411C99.4275 32.0318 98.8087 32.1275 98.3724 32.0283C95.7047 30.928 93.1281 30.6964 90.6433 31.3333C90.1745 31.87 90.3382 32.3276 90.714 32.8571C92.4386 32.217 94.2591 32.1377 96.2459 32.5939C95.741 32.162 94.8623 31.9576 93.6083 31.9817C94.6169 31.898 95.4121 31.9741 95.9934 32.2105C96.8556 32.5607 97.0412 33.2724 97.255 34.1321C97.9907 37.0848 95.6829 37.8582 95.8881 39.7291C95.5022 37.6224 97.9224 36.7916 96.727 33.6981C96.7025 33.9405 96.6607 34.1809 96.6022 34.419C96.04 36.6888 93.5141 38.3592 94.763 40.9738C95.1183 41.7189 95.7749 42.393 96.7323 42.9961C95.8416 41.6313 97.1779 40.2951 97.805 39.1134C99.1509 36.5764 99.0348 34.5156 97.4563 32.9314C98.2013 33.1737 98.9701 33.4858 99.7665 33.8667C100.048 34.0177 100.239 34.1758 100.361 34.34C100.254 34.024 100.007 33.6995 99.6177 33.3662C100.655 33.8807 100.905 34.5924 100.369 35.5012L100.369 35.5013C100.221 35.8172 100.001 36.1388 99.8224 36.4564L99.8163 36.4642L99.819 36.462C98.6507 38.5363 98.3382 41.0882 99.4437 43.5139ZM106.357 35.2877C107.494 35.9852 108.943 35.7003 110.704 34.4325C108.843 33.2252 106.946 33.0207 105.014 33.8186C105.531 34.3675 106.743 34.6461 108.651 34.6547C107.578 34.7868 106.813 34.9975 106.357 35.2877ZM102.741 33.3641L102.737 33.3669L102.737 33.3644C102.14 33.7021 101.483 33.6587 100.767 33.2344C100.411 33.0229 100.056 32.8266 99.7025 32.645C99.9779 32.5406 100.271 32.3625 100.582 32.1102C101.185 32.6807 101.937 33.1144 102.741 33.3641ZM100.764 28.5575C100.451 29.2466 100.349 29.8487 100.46 30.364C99.6903 29.131 99.8876 27.7645 101.052 26.2639C102.201 27.6387 102.313 28.8229 101.388 29.8166C101.042 29.4064 100.834 28.9866 100.764 28.5575ZM101.355 31.9401C101.777 30.6087 102.523 30.1197 103.594 30.4725C103.125 31.6472 102.379 32.1363 101.355 31.9401ZM104.48 31.0168C105.395 30.0462 106.121 29.977 106.659 30.8093C106.119 31.5323 105.393 31.6015 104.48 31.0168ZM105.55 29.3855C106.24 28.4185 107.094 27.9457 108.112 27.967C107.936 29.3343 107.081 29.8071 105.55 29.3855ZM105.767 26.3076C106.953 26.0529 107.353 25.3383 106.829 23.7084C105.619 24.5318 104.987 25.1818 105.07 26.1141C105.663 25.8453 106.03 25.6172 106.172 25.4301C106.111 25.847 105.975 26.1394 105.767 26.3076ZM103.821 28.2175C103.77 28.7254 103.649 29.1517 103.455 29.4972C104.856 28.7585 105.241 27.75 104.611 26.4716C103.417 26.6679 102.722 27.482 102.525 28.9141C103.125 28.755 103.557 28.5231 103.821 28.2175ZM103.182 26.3803C103.913 25.6692 104.028 24.8475 103.528 23.915C102.567 25.122 102.451 25.9437 103.182 26.3803ZM112.575 42.4253C112.847 42.7382 113.029 43.0002 113.121 43.2112C112.899 43.2987 112.7 43.3492 112.524 43.3627C113.149 44.502 114.179 45.0083 115.616 44.8816C115.072 43.5131 114.058 42.6945 112.575 42.4253ZM111.086 46.5594C110.89 46.0085 110.453 45.5304 109.774 45.1245C111.929 45.1686 113.207 46.1679 113.61 48.1226C111.535 48.3508 110.062 47.7574 109.194 46.3414C110.455 46.4868 111.086 46.5594 111.086 46.5594ZM105.962 44.5239C107.884 45.6207 108.571 46.8145 108.022 48.1056C106.854 48.0786 105.887 47.101 105.121 45.1725C105.805 45.616 106.271 45.8593 106.52 45.9023C106.425 45.3051 106.239 44.8459 105.962 44.5239ZM100.625 36.312C99.5758 38.6913 99.5368 40.3702 100.508 41.3488C102.522 40.6109 102.561 38.9319 100.625 36.312ZM103.044 40.5056C103.168 41.9642 104.004 42.8218 105.55 43.079C105.927 41.2061 105.298 39.7232 103.663 38.6306C103.398 39.6512 103.502 40.484 103.976 41.1283C103.545 41.0242 103.234 40.8166 103.044 40.5056ZM107.018 38.6775C106.676 38.0183 106.584 37.4938 106.741 37.1043C108.393 37.0072 109.294 38.0096 109.446 40.1117C107.421 40.6966 105.994 40.2146 105.165 38.6662C105.855 38.7359 106.473 38.7396 107.018 38.6775ZM111.267 37.0831C111.028 36.6659 110.736 36.3709 110.392 36.1989C112.332 35.9652 113.744 36.5708 114.628 38.0161C111.895 38.8267 110.097 38.5696 109.236 37.2451C109.852 37.2722 110.529 37.2183 111.267 37.0831ZM115.232 41.0067C115.429 41.3217 115.52 41.5856 115.505 41.798C113.045 41.838 111.122 42.3687 110.071 39.3207C110.403 39.8352 111.393 40.3284 113.04 40.7992C112.428 40.4455 111.883 39.8575 111.406 39.0355C113.292 39.3397 114.567 39.9966 115.232 41.0067ZM109.175 42.7472C108.329 42.1594 107.862 41.5366 107.776 40.8789C109.787 40.7538 110.874 41.7853 111.035 43.9744C108.881 44.3712 107.391 43.7811 106.566 42.2043C107.622 42.7756 108.492 42.9564 109.175 42.7472ZM102.022 41.6267C101.869 43.5365 102.369 44.6783 103.524 45.0518C103.892 43.6347 103.391 42.4932 102.022 41.6267ZM103.621 36.5559C103.022 35.8614 102.78 35.0991 102.896 34.2696C104.717 34.3044 105.766 35.3593 106.042 37.4351C103.569 38.1923 102.08 37.7155 101.576 36.0041C102.454 36.5578 103.136 36.742 103.621 36.5559Z" fill="#1B421A"/>
<path fill-rule="evenodd" clip-rule="evenodd" d="M22.3747 43.5139C21.4758 43.0445 21.0263 42.81 21.0263 42.81C20.9895 44.5968 20.2851 45.8125 18.9138 46.4576C18.3349 46.8018 17.9973 47.2596 17.9003 47.8313C17.6468 47.5823 17.4427 47.338 17.2882 47.0981C16.0587 48.5783 14.6806 49.416 13.1536 49.6114C12.819 49.0742 12.7004 48.607 12.7981 48.2092C10.9862 49.3832 9.17385 49.7161 7.3607 49.2085C7.15996 47.7478 7.22936 46.6173 7.56867 45.8172C7.4821 45.8064 7.39468 45.7922 7.30686 45.7745C6.7428 45.7758 5.86749 45.5598 4.68098 45.1265C5.04752 44.9024 5.41521 44.5351 5.78407 44.0242C6.19512 43.3732 6.58696 42.9586 6.95954 42.7806L6.97323 42.7623C6.96166 42.7575 6.94982 42.7529 6.93774 42.7483C6.31984 42.7672 5.66407 42.4927 4.97051 41.9249C5.2223 41.886 5.58504 41.4848 6.05859 40.7222C6.12517 40.6012 6.19601 40.4833 6.27073 40.3691L6.27142 40.3679L6.27148 40.3679C6.54262 39.9532 6.86394 39.5835 7.2088 39.2707C6.97736 39.13 6.65551 38.8278 6.24335 38.3632C6.79886 36.7405 8.20476 35.6202 10.0301 35.2171C9.41388 35.2275 8.97693 34.6818 8.71929 33.5797C9.06126 33.8567 9.7051 33.6968 10.6508 33.1004C11.8934 32.307 13.0992 31.9809 14.2682 32.1225C13.8781 31.6593 13.5493 31.08 13.3098 30.3681C13.6009 30.3401 13.9521 30.232 14.3633 30.0438C13.1606 29.1083 12.6502 28.0523 12.8325 26.8758C13.0846 26.3013 13.6534 26.1454 14.0367 26.1561C13.795 25.1852 13.9736 24.126 14.5725 22.9791C15.5728 22.8483 16.4298 23.5422 17.2251 24.0821C17.2173 23.7836 17.4225 23.4104 17.8405 22.9621C19.1628 23.8126 19.6948 24.7092 19.9095 25.7873C19.9095 25.7873 20.1697 25.5757 20.6897 25.1525C23.2451 27.653 22.9831 30.123 21.5888 31.7411C22.3908 32.0318 23.0096 32.1275 23.4459 32.0283C26.1136 30.928 28.6902 30.6964 31.1751 31.3333C31.6439 31.87 31.4801 32.3276 31.1044 32.8571C29.3797 32.217 27.5593 32.1377 25.5724 32.5939C26.0774 32.162 26.9561 31.9576 28.21 31.9817C27.2015 31.898 26.4063 31.9741 25.825 32.2105C24.9628 32.5607 24.7772 33.2724 24.5633 34.1321C23.8277 37.0848 26.1355 37.8582 25.9302 39.7291C26.3161 37.6224 23.8959 36.7916 25.0913 33.6981C25.1159 33.9405 25.1577 34.1809 25.2162 34.419C25.7783 36.6888 28.3043 38.3592 27.0554 40.9738C26.7 41.7189 26.0435 42.393 25.0861 42.9961C25.9768 41.6313 24.6404 40.2951 24.0133 39.1134C22.6675 36.5764 22.7835 34.5156 24.3621 32.9314C23.6171 33.1737 22.8482 33.4858 22.0519 33.8667C21.7703 34.0177 21.5793 34.1758 21.4571 34.34C21.5639 34.024 21.8114 33.6995 22.2007 33.3662C21.1637 33.8807 20.9134 34.5924 21.449 35.5012L21.4494 35.5013C21.5974 35.8172 21.817 36.1388 21.996 36.4564L22.0021 36.4642L21.9994 36.462C23.1676 38.5363 23.4801 41.0882 22.3747 43.5139ZM15.4612 35.2877C14.3241 35.9852 12.8751 35.7003 11.1141 34.4325C12.9758 33.2252 14.8722 33.0207 16.804 33.8186C16.2877 34.3675 15.0756 34.6461 13.1677 34.6547C14.2404 34.7868 15.0051 34.9975 15.4612 35.2877ZM19.0772 33.3641L19.0818 33.3669L19.0809 33.3644C19.6782 33.7021 20.3353 33.6587 21.051 33.2344C21.4078 33.0229 21.7626 32.8266 22.1158 32.645C21.8404 32.5406 21.5473 32.3625 21.2361 32.1102C20.633 32.6807 19.8817 33.1144 19.0772 33.3641ZM21.0544 28.5575C21.3677 29.2466 21.4694 29.8487 21.3588 30.364C22.1281 29.131 21.9307 27.7645 20.7664 26.2639C19.6171 27.6387 19.5051 28.8229 20.4303 29.8166C20.7763 29.4064 20.9844 28.9866 21.0544 28.5575ZM20.4631 31.9401C20.0411 30.6087 19.295 30.1197 18.2246 30.4725C18.693 31.6472 19.4391 32.1363 20.4631 31.9401ZM17.3384 31.0168C16.4234 30.0462 15.6971 29.977 15.1597 30.8093C15.6991 31.5323 16.4252 31.6015 17.3384 31.0168ZM16.2688 29.3855C15.5783 28.4185 14.7241 27.9457 13.706 27.967C13.8826 29.3343 14.737 29.8071 16.2688 29.3855ZM16.0517 26.3076C14.8657 26.0529 14.4656 25.3383 14.9889 23.7084C16.1995 24.5318 16.8318 25.1818 16.7482 26.1141C16.155 25.8453 15.788 25.6172 15.6465 25.4301C15.7078 25.847 15.8431 26.1394 16.0517 26.3076ZM17.9971 28.2175C18.048 28.7254 18.1698 29.1517 18.363 29.4972C16.9623 28.7585 16.577 27.75 17.2072 26.4716C18.401 26.6679 19.0963 27.482 19.2935 28.9141C18.6938 28.755 18.2615 28.5231 17.9971 28.2175ZM18.6367 26.3803C17.9056 25.6692 17.79 24.8475 18.2902 23.915C19.2518 25.122 19.3677 25.9437 18.6367 26.3803ZM9.24293 42.4253C8.97117 42.7382 8.7894 43.0002 8.69756 43.2112C8.91973 43.2987 9.11848 43.3492 9.29388 43.3627C8.66961 44.502 7.63912 45.0083 6.20223 44.8816C6.74637 43.5131 7.75995 42.6945 9.24293 42.4253ZM10.7325 46.5594C10.9282 46.0085 11.3656 45.5304 12.0444 45.1245C9.88983 45.1686 8.61097 46.1679 8.20795 48.1226C10.2838 48.3508 11.7559 47.7574 12.6242 46.3414C11.363 46.4868 10.7325 46.5594 10.7325 46.5594ZM15.8567 44.5239C13.9344 45.6207 13.2474 46.8145 13.7962 48.1056C14.9642 48.0786 15.9313 47.101 16.6975 45.1725C16.0137 45.616 15.5471 45.8593 15.2984 45.9023C15.3934 45.3051 15.5798 44.8459 15.8567 44.5239ZM21.1934 36.312C22.2426 38.6913 22.2816 40.3702 21.3105 41.3488C19.2961 40.6109 19.2571 38.9319 21.1934 36.312ZM18.7746 40.5056C18.6504 41.9642 17.8147 42.8218 16.2685 43.079C15.8913 41.2061 16.5205 39.7232 18.1557 38.6306C18.4206 39.6512 18.3161 40.484 17.8422 41.1283C18.2736 41.0242 18.5843 40.8166 18.7746 40.5056ZM14.8002 38.6775C15.1424 38.0183 15.2347 37.4938 15.0773 37.1043C13.4258 37.0072 12.5241 38.0096 12.3725 40.1117C14.3976 40.6966 15.8247 40.2146 16.6536 38.6662C15.9638 38.7359 15.3458 38.7396 14.8002 38.6775ZM10.5518 37.0831C10.7908 36.6659 11.0822 36.3709 11.4262 36.1989C9.48635 35.9652 8.07435 36.5708 7.19023 38.0161C9.9234 38.8267 11.7209 38.5696 12.5828 37.2451C11.9663 37.2722 11.2893 37.2183 10.5518 37.0831ZM6.58592 41.0067C6.3889 41.3217 6.29815 41.5856 6.31381 41.798C8.77378 41.838 10.6966 42.3687 11.7477 39.3207C11.4153 39.8352 10.4255 40.3284 8.77855 40.7992C9.39065 40.4455 9.93542 39.8575 10.4126 39.0355C8.52661 39.3397 7.25103 39.9966 6.58592 41.0067ZM12.6431 42.7472C13.4892 42.1594 13.9559 41.5366 14.0426 40.8789C12.0309 40.7538 10.9446 41.7853 10.7838 43.9744C12.9378 44.3712 14.4273 43.7811 15.2519 42.2043C14.196 42.7756 13.3262 42.9564 12.6431 42.7472ZM19.7963 41.6267C19.9497 43.5365 19.4492 44.6783 18.2946 45.0518C17.9267 43.6347 18.4272 42.4932 19.7963 41.6267ZM18.1976 36.5559C18.7967 35.8614 19.0385 35.0991 18.9225 34.2696C17.1013 34.3044 16.0523 35.3593 15.7761 37.4351C18.249 38.1923 19.738 37.7155 20.2426 36.0041C19.3642 36.5578 18.6825 36.742 18.1976 36.5559Z" fill="#1B421A"/>
</svg>
