<svg width="31" height="33" viewBox="0 0 31 33" fill="none" xmlns="http://www.w3.org/2000/svg">
<path d="M10.6804 7.26274C11.3102 7.1239 11.8672 7.20065 11.9246 7.43367C11.9819 7.66668 11.5179 7.96807 10.8881 8.10691C10.2585 8.24574 9.70137 8.169 9.64401 7.93598C9.58679 7.70296 10.0508 7.40088 10.6804 7.26274ZM12.729 4.75534C13.2583 4.63814 13.734 4.73302 13.7914 4.96604C13.8486 5.19906 13.466 5.483 12.9367 5.59951C12.4073 5.71602 11.9318 5.62114 11.8744 5.38812C11.8171 5.1551 12.1996 4.87185 12.729 4.75534ZM15.9329 5.95253C16.7085 5.7816 17.4401 6.05997 17.5666 6.57484C17.6932 7.08971 17.1668 7.64506 16.3913 7.81598C15.6154 7.98691 14.8839 7.70784 14.7574 7.19367C14.6308 6.67879 15.157 6.12345 15.9329 5.95253ZM19.2809 4.9186C19.5244 4.67163 20.099 4.76162 20.5642 5.11952C21.0296 5.47742 21.2093 5.96788 20.9657 6.21485C20.7223 6.46182 20.1477 6.37183 19.6825 6.01393C19.2172 5.65603 19.0374 5.16557 19.2809 4.9186ZM22.1732 7.89133C22.3837 7.67436 22.8433 7.71761 23.1998 7.9876C23.5565 8.2576 23.6749 8.65247 23.4644 8.86875C23.2539 9.08572 22.7942 9.04247 22.4377 8.77247C22.081 8.50248 21.9627 8.1076 22.1732 7.89133ZM7.10695 12.5336C7.89107 12.7694 8.72641 12.7854 9.5669 12.7177C8.68323 12.3864 8.16432 11.9706 8.16947 11.5108C8.18266 10.3317 11.6224 9.30967 15.8527 9.22875C20.0828 9.14712 23.5013 10.0373 23.4881 11.2164C23.481 11.8652 22.4343 12.4659 20.7908 12.8887C20.9461 12.8803 21.1014 12.874 21.2568 12.865C22.6081 12.7798 24.1554 12.5517 24.898 11.5282C25.3752 10.871 25.3833 10.0227 25.1253 9.29363C24.8674 8.56527 24.3732 7.929 23.8857 7.3046C22.7066 5.79486 21.5275 4.28512 20.3484 2.77538C19.8748 2.16912 19.3933 1.55517 18.7548 1.08285C18.1161 0.611235 17.2908 0.290312 16.4488 0.369148C15.3867 0.468215 14.5121 1.1596 13.7281 1.82098C12.5475 2.81655 11.3806 3.82536 10.2137 4.83348C8.96071 5.91625 7.70771 6.99902 6.4547 8.08179C5.88739 8.57224 5.29517 9.09968 5.09643 9.77362C4.74628 10.9624 5.81768 12.1471 7.10695 12.5336Z" fill="url(#paint0_linear_12664_888)"/>
<path d="M17.9915 23.4647C17.9915 23.7122 17.9555 23.9501 17.8902 24.1745C17.83 24.3808 17.7444 24.5756 17.6369 24.7537C17.5228 24.9434 17.3849 25.1144 17.227 25.2616L17.2244 25.2636C17.1196 25.3613 16.9573 25.279 16.9596 25.1298C16.9613 25.009 16.9631 24.8881 16.9648 24.7672C16.9675 24.5789 16.9703 24.3905 16.9731 24.2021C16.9742 24.1192 16.9755 24.0356 16.9767 23.9527C16.9789 23.7984 16.8982 23.6524 16.7659 23.5952C16.5356 23.4955 16.3779 23.7553 16.3714 23.9803C16.3688 24.0684 16.3805 24.1565 16.3928 24.2445C16.4166 24.4143 16.4428 24.584 16.3722 24.7563C16.3649 24.7743 16.3558 24.7904 16.3459 24.8064C16.2902 24.8952 16.196 24.9505 16.0961 24.9376C16.0307 24.9292 15.9809 24.8952 15.9432 24.845C15.8534 24.7267 15.833 24.5191 15.8416 24.3506C15.8425 24.3339 15.8433 24.3178 15.8441 24.3011C15.9345 22.5395 16.0247 20.778 16.115 19.0164C16.1217 18.8846 16.0721 18.7541 15.9739 18.6763C15.7622 18.5085 15.5387 18.7444 15.5044 18.9785C15.4751 19.1791 15.5323 19.3822 15.5348 19.5854C15.535 19.5982 15.5348 19.6111 15.5343 19.6239C15.5338 19.6368 15.5319 19.6477 15.5291 19.6593C15.5144 19.6002 15.4949 19.5417 15.4689 19.4844C15.4191 19.3739 15.3516 19.2736 15.2722 19.1797C15.2714 17.1153 15.2705 15.0503 15.2697 12.9852C15.2695 12.6304 15.2694 12.2748 15.2692 11.9199C15.2691 11.7335 15.27 11.5413 15.3357 11.369L15.3405 11.3561C15.3909 11.2327 15.5004 11.1478 15.6249 11.1369C15.6821 11.1317 15.7397 11.1292 15.798 11.1292H15.7995C15.9213 11.1298 16.0357 11.2005 16.0945 11.3156L16.0978 11.322C16.1731 11.4744 16.1952 11.6499 16.2158 11.8209C16.2611 12.1932 16.3063 12.5667 16.3515 12.9396C16.4766 13.9702 16.6015 15.0014 16.7265 16.032L16.7281 16.0449C16.7829 16.4962 17.3915 16.4904 17.4365 16.0378C17.492 15.4797 17.4387 14.8953 17.3537 14.3386C17.2947 13.9522 17.2224 13.5639 17.1657 13.1749C17.1452 13.0348 17.1794 12.9203 17.2431 12.8367C17.37 12.6689 17.6145 12.6233 17.7816 12.7403C17.8587 12.7943 17.9194 12.8824 17.9443 13.0097C17.9752 13.1685 17.9915 13.3324 17.9915 13.5002V23.4647ZM9.94985 29.8166C9.87813 29.8359 9.80285 29.7961 9.76299 29.7279C9.67405 29.5743 9.72385 29.4065 9.69681 29.2464C9.67327 29.1069 9.55319 28.959 9.4188 29.04C9.34169 29.0869 9.30424 29.1847 9.31881 29.2798C9.35619 29.5228 9.39351 29.7659 9.43076 30.0082C9.44507 30.1008 9.35144 30.1657 9.27798 30.1143L9.27622 30.113C8.94867 29.8822 8.70909 29.5081 8.64733 29.0625L8.31406 26.66L8.23552 26.0942L7.78984 22.8809C7.77534 22.7768 7.77137 22.6739 7.77696 22.573C7.78139 22.492 7.81155 22.4322 7.85466 22.3917C7.94828 22.3055 8.10386 22.3132 8.19696 22.4065C8.24371 22.4534 8.27479 22.5209 8.2742 22.6096C8.27245 22.8559 8.26101 23.1027 8.25762 23.3477C8.25275 23.7 8.27004 24.0671 8.35248 24.4085C8.41932 24.6856 8.79745 24.638 8.79257 24.3532L8.79251 24.3455C8.78126 23.6949 8.77008 23.0449 8.75896 22.3949C8.75486 22.1602 8.7509 21.9249 8.7468 21.6896C8.74498 21.5816 8.74355 21.471 8.77723 21.3707L8.77872 21.3662C8.80525 21.2897 8.87007 21.2364 8.94562 21.2261L8.94659 21.2254C8.98268 21.2209 9.01876 21.2177 9.05458 21.2158C9.13273 21.2119 9.20809 21.2556 9.24989 21.3277L9.25399 21.3354C9.30957 21.4369 9.32667 21.5559 9.34273 21.6716C9.37309 21.8915 9.40359 22.112 9.43408 22.3325C9.58628 23.4332 9.73842 24.5332 9.89062 25.6339C9.91675 25.8229 9.94282 26.0113 9.9689 26.2003C9.98021 26.2819 9.99152 26.3636 10.0028 26.4446C10.0184 26.5577 9.86129 26.5854 9.8412 26.4729C9.83971 26.4652 9.83848 26.4574 9.8375 26.4491C9.82879 26.3796 9.83009 26.3096 9.82742 26.2395C9.82508 26.1823 9.82014 26.1251 9.80408 26.0698C9.76273 25.9277 9.60377 25.8004 9.48687 25.9219C9.43265 25.9785 9.41315 26.064 9.42868 26.145C9.44104 26.2099 9.45352 26.2749 9.46594 26.3398C9.663 27.3704 9.86012 28.401 10.0573 29.4315C10.0854 29.5788 10.0846 29.7806 9.94985 29.8166ZM11.7325 18.9373C11.3299 18.9045 11.0162 18.7567 11.0316 18.6069C11.0472 18.4577 11.3861 18.3632 11.7887 18.396C12.1913 18.4294 12.5051 18.5773 12.4897 18.7271C12.4741 18.8762 12.1351 18.9707 11.7325 18.9373ZM10.2459 17.5544C9.90752 17.5268 9.64577 17.3828 9.66124 17.2336C9.67678 17.0838 9.96369 16.9854 10.3021 17.0131C10.6405 17.0407 10.9023 17.1847 10.8868 17.3339C10.8712 17.4837 10.5843 17.5821 10.2459 17.5544ZM9.25366 18.6962C9.2194 19.026 8.78964 19.2607 8.29358 19.2202C7.7977 19.179 7.42335 18.8788 7.45761 18.549C7.49187 18.2192 7.92169 17.9845 8.41763 18.0257C8.91356 18.0662 9.28792 18.3664 9.25366 18.6962ZM6.09683 18.3793C5.83898 18.6403 5.49031 18.7444 5.31801 18.612C5.14566 18.4789 5.2149 18.1594 5.47275 17.8984C5.7306 17.6374 6.07928 17.5332 6.25164 17.6656C6.42393 17.7987 6.35462 18.1182 6.09683 18.3793ZM4.62495 20.3221C4.42698 20.5202 4.14553 20.5851 3.99631 20.4687C3.8471 20.3517 3.88657 20.0971 4.08461 19.8998C4.28251 19.7017 4.56403 19.6368 4.71311 19.7532C4.86239 19.8702 4.82292 20.1248 4.62495 20.3221ZM28.0809 27.1434C25.3209 25.8319 22.1724 24.8296 18.8359 24.1976C18.6757 24.1886 18.5147 24.1828 18.3536 24.179C18.4079 23.9507 18.4369 23.7116 18.4369 23.4647V13.5002C18.4369 13.191 18.3907 12.8933 18.3065 12.6143C19.2761 12.3462 19.887 11.956 19.887 11.522C19.887 10.7132 17.7714 10.0574 15.1617 10.0574C12.552 10.0574 10.4364 10.7132 10.4364 11.522C10.4364 12.1167 11.5824 12.6284 13.2271 12.858C13.1831 13.0643 13.1591 13.2791 13.1591 13.5002V17.6894C12.7291 17.4098 12.2992 17.1301 11.8693 16.8498C11.0586 16.3226 10.2479 15.7954 9.42979 15.2772C8.88658 14.9326 8.28441 14.5771 7.61709 14.6047C7.08793 14.6272 6.60357 14.896 6.248 15.2425C5.89236 15.5884 5.64667 16.0101 5.40494 16.4261C4.80342 17.4618 4.20183 18.4976 3.60031 19.5333C3.35162 19.9621 3.09982 20.398 3.00249 20.8718C2.90516 21.3457 2.98311 21.8709 3.33576 22.2387C3.88449 22.8115 4.86401 22.8224 5.70973 22.7613C5.80687 22.7543 5.90374 22.7453 6.00081 22.7376C4.94483 22.6135 4.24389 22.3287 4.18356 21.9268C4.07381 21.1965 6.11809 20.3569 8.74934 20.0515C10.6428 19.831 12.3241 19.948 13.1591 20.3029C13.4844 20.4411 13.6813 20.6153 13.712 20.8204C13.7486 21.0641 13.544 21.3199 13.1591 21.5636C13.0939 21.6047 13.0242 21.6459 12.9489 21.6864C13.0192 21.6825 13.0892 21.678 13.1591 21.6723V23.4647C13.1591 23.9147 13.2556 24.3397 13.4271 24.7177C12.6663 24.8849 11.9183 25.0778 11.1768 25.279L10.7878 22.4746C10.7687 22.337 10.7353 22.2059 10.6902 22.0818C11.6908 21.8008 12.3578 21.3868 12.3065 21.0178C12.2369 20.5163 10.8681 20.2874 9.24911 20.5073C7.63016 20.7265 6.37413 21.3116 6.44369 21.8131C6.48108 22.0824 6.89373 22.2734 7.51814 22.3582C7.48992 22.5383 7.48693 22.7266 7.51352 22.9182L7.96447 26.1694C6.54564 26.5642 5.1268 26.9583 3.70797 27.353C2.84437 27.5928 1.96185 27.841 1.2829 28.2467C0.46279 28.7366 0.00215566 29.4463 0.0571587 30.1471C0.112357 30.8485 0.684818 31.5294 1.5899 31.9601C2.69152 32.4834 4.1625 32.6127 5.55623 32.5992C8.4487 32.5709 11.3206 31.9935 13.6783 30.9662C14.7735 30.4885 15.8029 29.9034 17.1006 29.6894C18.4099 29.4727 19.7784 29.6688 21.0599 29.978L21.0502 29.9754C19.7351 29.6064 18.261 29.2952 16.8646 29.5261C15.7418 29.7112 14.8511 30.2172 13.9034 30.6306C11.8636 31.5197 9.37875 32.0193 6.87618 32.0437C5.67027 32.0553 4.39753 31.9434 3.4444 31.4908C2.66135 31.1185 2.166 30.529 2.11828 29.9221C2.07062 29.3158 2.46923 28.7018 3.17881 28.2775C3.76623 27.9265 4.52977 27.7124 5.27693 27.5047C5.64342 27.4025 6.00984 27.3009 6.37627 27.1987C5.75953 27.5941 5.36866 28.3572 5.51 29.0792C5.66819 29.888 6.37952 30.5058 7.16484 30.7797C7.9503 31.0536 8.80538 31.0407 9.63693 30.9951C10.1721 30.9655 10.7156 30.9218 11.2164 30.7328C11.7172 30.5438 12.1774 30.1876 12.3715 29.6939C12.662 28.9545 12.3353 28.0126 12.8363 27.3935C13.2016 26.9422 13.873 26.8625 14.4487 26.9641C15.0244 27.065 15.5707 27.308 16.1519 27.371C16.9942 27.4623 17.8299 27.1666 18.5946 26.8059C19.3595 26.4452 20.0983 26.0113 20.9167 25.794L20.9277 25.7914C21.4831 25.6454 22.0709 25.6737 22.6174 25.8499C22.8366 25.9206 23.0541 25.9926 23.27 26.0672C24.3499 26.4388 25.386 26.858 26.3649 27.3234C27.4892 27.8577 28.639 28.6086 28.418 29.4701C28.1933 30.3458 26.5753 30.8646 25.1306 30.8241C24.4004 30.8042 23.7021 30.6814 23.0202 30.5181C24.1886 30.8498 25.3795 31.1545 26.6543 31.1899C28.3242 31.2362 30.194 30.637 30.4538 29.6244C30.7093 28.6285 29.3804 27.7613 28.0809 27.1434Z" fill="url(#paint1_linear_12664_888)"/>
<path d="M27.1669 28.7714C27.2632 28.6222 27.0918 28.3438 26.7839 28.149C26.4761 27.9549 26.1485 27.9176 26.0522 28.0667C25.9559 28.2152 26.1273 28.4943 26.4352 28.6884C26.743 28.8832 27.0706 28.9205 27.1669 28.7714Z" fill="#0F240F"/>
<path d="M19.4565 27.95C19.3602 28.0992 19.5316 28.3776 19.8395 28.5724C20.1473 28.7672 20.4749 28.8038 20.5713 28.6547C20.6675 28.5061 20.4961 28.2278 20.1882 28.033C19.8804 27.8382 19.5528 27.8015 19.4565 27.95Z" fill="#0F240F"/>
<path d="M13.9604 27.6225C13.8641 27.7717 14.0355 28.05 14.3434 28.2448C14.6512 28.4396 14.9788 28.4763 15.0751 28.3278C15.1715 28.1786 15 27.9002 14.6921 27.7054C14.3843 27.5106 14.0567 27.474 13.9604 27.6225Z" fill="#0F240F"/>
<path d="M2.92523 29.4598C2.82894 29.609 3.00039 29.8873 3.30817 30.0821C3.61601 30.2769 3.94363 30.3136 4.03998 30.1644C4.13627 30.0159 3.96476 29.7369 3.65698 29.5427C3.34913 29.3479 3.02152 29.3106 2.92523 29.4598Z" fill="#0F240F"/>
<defs>
<linearGradient id="paint0_linear_12664_888" x1="15.1619" y1="12.8887" x2="15.1619" y2="0.357237" gradientUnits="userSpaceOnUse">
<stop/>
<stop offset="1" stop-color="#1B421A"/>
</linearGradient>
<linearGradient id="paint1_linear_12664_888" x1="15.2692" y1="32.6001" x2="15.2692" y2="10.0574" gradientUnits="userSpaceOnUse">
<stop/>
<stop offset="1" stop-color="#1B421A"/>
</linearGradient>
</defs>
</svg>
