<svg width="16" height="22" viewBox="0 0 16 22" fill="none" xmlns="http://www.w3.org/2000/svg">
<path d="M6.18798 6.1031C6.65166 5.64714 7.29242 5.36491 8.00098 5.36491C8.70955 5.36491 9.35031 5.64714 9.81399 6.1031C10.2776 6.55902 10.5636 7.18792 10.5636 7.88233C10.5636 8.57677 10.2776 9.20568 9.81399 9.66159C9.35031 10.1175 8.70955 10.3998 8.00098 10.3998C7.29242 10.3998 6.65166 10.1175 6.18798 9.66159C5.72434 9.20568 5.43833 8.57677 5.43833 7.88233C5.43833 7.18792 5.72434 6.55902 6.18798 6.1031ZM6.18798 6.1031L6.08281 5.99614L6.18798 6.1031ZM5.34847 10.4942L5.45364 10.3872L5.34847 10.4942C6.02759 11.162 6.96568 11.5748 8.00098 11.5748C9.03629 11.5748 9.97438 11.162 10.6535 10.4942L10.5483 10.3872L10.6535 10.4942C11.3327 9.82633 11.7535 8.90273 11.7535 7.88233C11.7535 6.86195 11.3327 5.93835 10.6535 5.27051C9.97438 4.6027 9.03629 4.18984 8.00098 4.18984C6.96567 4.18984 6.02759 4.60271 5.34847 5.27051C4.6693 5.93835 4.24844 6.86196 4.24844 7.88233C4.24844 8.90273 4.6693 9.82633 5.34847 10.4942Z" fill="#1B421A" stroke="#1B421A" stroke-width="0.3"/>
<path d="M7.5373 20.9592L7.47571 20.8501C6.90325 19.8361 6.20718 18.6864 5.47968 17.4846L5.47468 17.4764C3.9419 14.9445 2.26961 12.1822 1.35732 10.0359L1.35731 10.0359C1.19145 9.64557 1.06356 9.23865 0.978093 8.81928L0.978092 8.81927C0.894055 8.40684 0.85 7.98425 0.85 7.55553C0.85 5.70061 1.65316 4.02302 2.94776 2.81063M7.5373 20.9592L2.94776 2.81063M7.5373 20.9592L7.55079 20.9545M7.5373 20.9592L7.55079 20.9545M2.94776 2.81063C4.24217 1.59842 6.02879 0.85 8 0.85C9.9712 0.85 11.7578 1.59842 13.0522 2.81063L12.9497 2.92012L13.0522 2.81063C14.3468 4.02303 15.15 5.70062 15.15 7.55553C15.15 7.98937 15.1052 8.41612 15.0197 8.83163C14.9326 9.25518 14.8025 9.66529 14.634 10.0577M2.94776 2.81063L7.55079 20.9545M7.55079 20.9545C7.59906 21.0077 7.6583 21.0528 7.72685 21.0866C8.01079 21.2266 8.36773 21.1282 8.52343 20.8516C9.1015 19.8276 9.79949 18.6737 10.5275 17.4703L10.5324 17.4621C12.0563 14.9429 13.7114 12.2067 14.634 10.0577M14.634 10.0577C14.634 10.0577 14.634 10.0577 14.634 10.0577L14.4962 9.99853L14.634 10.0577ZM7.99986 19.4083C7.57642 18.6858 7.10809 17.9105 6.62484 17.1121L6.62487 17.1121L6.51014 16.9227L6.50803 16.9191C4.98221 14.3987 3.33454 11.6764 2.45728 9.6125C2.3212 9.2923 2.21578 8.95587 2.14456 8.60635L2.14456 8.60634C2.07593 8.26956 2.03992 7.91838 2.03992 7.55551C2.03992 6.02009 2.70418 4.62821 3.78202 3.61882L3.78202 3.61881C4.86001 2.60926 6.35095 1.98337 8 1.98337C9.64904 1.98337 11.14 2.60926 12.218 3.61882C13.2958 4.62821 13.9601 6.02008 13.9601 7.55551C13.9601 7.92056 13.9234 8.27465 13.8534 8.61489L13.8534 8.61491C13.781 8.96697 13.6735 9.30646 13.5345 9.63008L13.6724 9.68926L13.5345 9.63008C12.6427 11.7073 11.0138 14.4007 9.49906 16.9049L9.49662 16.9089C8.97136 17.7772 8.46006 18.6225 7.99986 19.4083Z" fill="#1B421A" stroke="#1B421A" stroke-width="0.3"/>
</svg>
