<svg width="26" height="26" viewBox="0 0 26 26" fill="none" xmlns="http://www.w3.org/2000/svg">
<circle cx="13" cy="13" r="13" fill="#F2FFE4"/>
<path d="M19.382 14.6929C19.2801 14.5333 19.1161 14.4225 18.9255 14.3915L14.733 13.7179C14.538 13.6869 14.3342 13.7445 14.1879 13.8774C13.8555 14.1699 13.5896 14.5156 13.3946 14.8968C12.9204 14.6264 12.4861 14.294 12.0961 13.904C11.7061 13.514 11.3737 13.0797 11.1034 12.6055C11.4845 12.4105 11.8302 12.1446 12.1227 11.8122C12.2556 11.6615 12.3132 11.4621 12.2822 11.2671L11.6086 7.07459C11.5776 6.88402 11.4668 6.72005 11.3072 6.61812C11.0059 6.42755 10.6735 6.29902 10.35 6.23255C10.1018 6.16607 9.83143 6.13062 9.55222 6.13062C7.6687 6.13062 6.13086 7.66846 6.13086 9.55198C6.13086 15.2424 10.7577 19.8693 16.4481 19.8693C18.3361 19.8693 19.8695 18.3314 19.8695 16.4479C19.8695 16.1643 19.834 15.8983 19.7764 15.6856C19.7055 15.3266 19.5726 14.9943 19.382 14.6929Z" fill="#4B8323"/>
<path d="M13.539 9.04634C13.1889 9.03481 12.8729 9.34105 12.8711 9.70801C12.8707 9.79531 12.8875 9.88183 12.9205 9.96264C12.9535 10.0435 13.0022 10.117 13.0636 10.179C13.1251 10.241 13.1981 10.2903 13.2786 10.3241C13.3591 10.3579 13.4455 10.3755 13.5328 10.3759C13.8073 10.376 14.0791 10.4302 14.3326 10.5355C14.5862 10.6407 14.8165 10.7949 15.0103 10.9892C15.2046 11.1831 15.3588 11.4133 15.464 11.6668C15.5693 11.9202 15.6235 12.1919 15.6237 12.4664C15.6244 12.6422 15.6948 12.8106 15.8193 12.9347C15.9439 13.0588 16.1126 13.1285 16.2885 13.1285H16.2916C16.4678 13.1277 16.6365 13.0569 16.7606 12.9317C16.8847 12.8066 16.954 12.6373 16.9532 12.4611C16.9529 12.0128 16.8642 11.569 16.6921 11.155C16.52 10.7411 16.2679 10.3652 15.9503 10.0488C15.634 9.73145 15.2582 9.47957 14.8444 9.30755C14.4307 9.13554 13.9871 9.04677 13.539 9.04634Z" fill="#4B8323"/>
<path d="M18.2387 12.8444C18.415 12.8444 18.5841 12.7744 18.7087 12.6497C18.8334 12.5251 18.9034 12.356 18.9034 12.1797C18.9052 11.5119 18.7747 10.8504 18.5192 10.2334C18.2638 9.61635 17.8885 9.05611 17.4152 8.58503C16.9443 8.11169 16.3841 7.73644 15.7672 7.48099C15.1502 7.22554 14.4888 7.09497 13.821 7.09682C13.6447 7.09682 13.4756 7.16686 13.351 7.29153C13.2263 7.4162 13.1562 7.58529 13.1562 7.76159C13.1562 7.9379 13.2263 8.10699 13.351 8.23166C13.4756 8.35633 13.6447 8.42637 13.821 8.42637C14.8235 8.42637 15.7666 8.81637 16.4752 9.52546C16.8246 9.87333 17.1016 10.287 17.2901 10.7426C17.4786 11.1982 17.5749 11.6866 17.5734 12.1797C17.5734 12.356 17.6435 12.5251 17.7682 12.6497C17.8928 12.7744 18.0624 12.8444 18.2387 12.8444Z" fill="#4B8323"/>
</svg>
