<svg width="31" height="34" viewBox="0 0 31 34" fill="none" xmlns="http://www.w3.org/2000/svg">
<path d="M10.6814 7.80543C11.3111 7.66269 11.8682 7.74159 11.9256 7.98118C11.9829 8.22076 11.5189 8.53064 10.8891 8.67338C10.2595 8.81613 9.70235 8.73722 9.64499 8.49764C9.58777 8.25806 10.0518 7.94746 10.6814 7.80543ZM12.73 5.22741C13.2593 5.1069 13.735 5.20445 13.7923 5.44404C13.8496 5.68362 13.467 5.97556 12.9377 6.09536C12.4083 6.21515 11.9328 6.11759 11.8754 5.87801C11.8181 5.63843 12.2006 5.3472 12.73 5.22741ZM15.9339 6.45831C16.7095 6.28257 17.4411 6.56878 17.5676 7.09816C17.6941 7.62754 17.1678 8.19852 16.3922 8.37426C15.6164 8.55 14.8849 8.26308 14.7583 7.73442C14.6318 7.20504 15.158 6.63406 15.9339 6.45831ZM19.2819 5.39526C19.5254 5.14133 20.1 5.23386 20.5652 5.60185C21.0306 5.96983 21.2103 6.4741 20.9667 6.72803C20.7232 6.98196 20.1487 6.88942 19.6834 6.52144C19.2182 6.15346 19.0384 5.64919 19.2819 5.39526ZM22.1741 8.45173C22.3847 8.22865 22.8442 8.27312 23.2008 8.55072C23.5575 8.82832 23.6758 9.23432 23.4654 9.45668C23.2549 9.67977 22.7952 9.6353 22.4386 9.3577C22.082 9.08009 21.9637 8.6741 22.1741 8.45173ZM7.10793 13.2247C7.89205 13.4672 8.72739 13.4837 9.56787 13.4141C8.68421 13.0734 8.1653 12.6459 8.17045 12.1731C8.18364 10.9609 11.6234 9.91003 15.8537 9.82682C20.0837 9.7429 23.5023 10.6582 23.4891 11.8704C23.482 12.5375 22.4353 13.1552 20.7917 13.5898C20.9471 13.5812 21.1024 13.5748 21.2577 13.5655C22.6091 13.4779 24.1564 13.2434 24.899 12.1911C25.3762 11.5154 25.3843 10.6431 25.1263 9.89353C24.8684 9.14465 24.3742 8.49047 23.8867 7.84847C22.7076 6.29621 21.5285 4.74394 20.3494 3.19167C19.8758 2.56833 19.3943 1.93709 18.7557 1.45147C18.1171 0.966563 17.2918 0.6366 16.4497 0.717656C15.3877 0.819515 14.5131 1.53038 13.7291 2.21039C12.5485 3.234 11.3816 4.27123 10.2147 5.30775C8.96169 6.42102 7.70868 7.53428 6.45568 8.64756C5.88837 9.15183 5.29615 9.69412 5.0974 10.387C4.74725 11.6093 5.81866 12.8273 7.10793 13.2247Z" fill="url(#paint0_linear_12664_1973)"/>
<path d="M17.9925 24.4637C17.9925 24.7182 17.9565 24.9628 17.8912 25.1935C17.831 25.4057 17.7453 25.6059 17.6379 25.7891C17.5238 25.9841 17.3859 26.1599 17.2279 26.3113L17.2254 26.3132C17.1205 26.4137 16.9583 26.3291 16.9605 26.1757C16.9623 26.0515 16.964 25.9272 16.9658 25.8029C16.9685 25.6093 16.9713 25.4156 16.9741 25.2219C16.9752 25.1366 16.9765 25.0507 16.9776 24.9654C16.9799 24.8068 16.8992 24.6567 16.7668 24.5979C16.5366 24.4954 16.3789 24.7625 16.3723 24.9938C16.3697 25.0844 16.3814 25.175 16.3938 25.2655C16.4176 25.44 16.4438 25.6145 16.3732 25.7917C16.3659 25.8102 16.3568 25.8267 16.3468 25.8433C16.2912 25.9345 16.197 25.9913 16.0971 25.9781C16.0317 25.9695 15.9819 25.9345 15.9442 25.8829C15.8544 25.7613 15.834 25.5478 15.8426 25.3746C15.8434 25.3574 15.8443 25.3409 15.8451 25.3237C15.9354 23.5125 16.0257 21.7013 16.116 19.8901C16.1227 19.7546 16.0731 19.6204 15.9748 19.5404C15.7632 19.3679 15.5397 19.6105 15.5054 19.8511C15.476 20.0573 15.5333 20.2662 15.5358 20.4751C15.536 20.4883 15.5358 20.5015 15.5353 20.5148C15.5348 20.528 15.5329 20.5392 15.5301 20.5511C15.5154 20.4903 15.4959 20.4302 15.4699 20.3713C15.4201 20.2576 15.3526 20.1545 15.2732 20.058C15.2723 17.9355 15.2715 15.8123 15.2706 13.6891C15.2705 13.3242 15.2704 12.9586 15.2702 12.5938C15.2701 12.4021 15.271 12.2044 15.3366 12.0273L15.3415 12.014C15.3919 11.8871 15.5014 11.7999 15.6259 11.7886C15.683 11.7833 15.7407 11.7807 15.799 11.7807H15.8005C15.9223 11.7814 16.0367 11.8541 16.0955 11.9724L16.0988 11.979C16.1741 12.1357 16.1961 12.3161 16.2168 12.492C16.2621 12.8747 16.3073 13.2587 16.3524 13.6421C16.4775 14.7018 16.6025 15.762 16.7275 16.8216L16.7291 16.8349C16.7839 17.2989 17.3925 17.293 17.4375 16.8276C17.4929 16.2538 17.4397 15.653 17.3547 15.0805C17.2957 14.6832 17.2234 14.284 17.1666 13.8841C17.1462 13.74 17.1804 13.6223 17.2441 13.5364C17.371 13.3638 17.6154 13.3169 17.7826 13.4372C17.8596 13.4927 17.9204 13.5833 17.9453 13.7142C17.9762 13.8775 17.9925 14.046 17.9925 14.2185V24.4637ZM9.95082 30.9946C9.87911 31.0144 9.80382 30.9734 9.76397 30.9034C9.67503 30.7454 9.72483 30.5729 9.69778 30.4083C9.67425 30.2648 9.55416 30.1128 9.41978 30.1961C9.34267 30.2443 9.30522 30.3448 9.31978 30.4426C9.35717 30.6925 9.39449 30.9424 9.43174 31.1916C9.44604 31.2868 9.35242 31.3535 9.27895 31.3006L9.2772 31.2993C8.94965 31.062 8.71007 30.6773 8.6483 30.2192L8.31504 27.749L8.2365 27.1673L7.79081 23.8635C7.77632 23.7564 7.77235 23.6506 7.77794 23.5469C7.78236 23.4636 7.81253 23.4021 7.85564 23.3605C7.94926 23.2719 8.10484 23.2798 8.19794 23.3757C8.24469 23.4239 8.27576 23.4933 8.27518 23.5845C8.27342 23.8377 8.26198 24.0915 8.2586 24.3434C8.25372 24.7056 8.27102 25.0831 8.35346 25.4341C8.42029 25.719 8.79842 25.6701 8.79355 25.3772L8.79348 25.3693C8.78224 24.7003 8.77105 24.0321 8.75993 23.3638C8.75584 23.1225 8.75187 22.8806 8.74778 22.6386C8.74596 22.5276 8.74453 22.4139 8.7782 22.3108L8.7797 22.3061C8.80623 22.2275 8.87105 22.1726 8.94659 22.162L8.94757 22.1614C8.98365 22.1567 9.01974 22.1534 9.05556 22.1515C9.13371 22.1475 9.20906 22.1924 9.25087 22.2665L9.25496 22.2744C9.31055 22.3788 9.32765 22.5011 9.34371 22.6201C9.37407 22.8462 9.40456 23.0729 9.43505 23.2996C9.58726 24.4313 9.73939 25.5623 9.89159 26.694C9.91773 26.8883 9.9438 27.082 9.96987 27.2763C9.98119 27.3603 9.9925 27.4442 10.0038 27.5275C10.0194 27.6439 9.86227 27.6723 9.84218 27.5566C9.84069 27.5487 9.83945 27.5408 9.83848 27.5322C9.82976 27.4608 9.83106 27.3887 9.8284 27.3167C9.82606 27.2578 9.82112 27.199 9.80506 27.1422C9.76371 26.9961 9.60475 26.8652 9.48785 26.9901C9.43362 27.0483 9.41412 27.1362 9.42966 27.2195C9.44201 27.2863 9.4545 27.353 9.46691 27.4198C9.66398 28.4794 9.8611 29.539 10.0582 30.5986C10.0864 30.75 10.0856 30.9576 9.95082 30.9946ZM11.7335 19.8088C11.3309 19.7751 11.0171 19.6231 11.0326 19.469C11.0482 19.3157 11.3871 19.2185 11.7897 19.2522C12.1923 19.2866 12.5061 19.4386 12.4907 19.5926C12.4751 19.746 12.1361 19.8432 11.7335 19.8088ZM10.2469 18.3869C9.9085 18.3585 9.64675 18.2104 9.66222 18.0571C9.67776 17.9031 9.96467 17.8019 10.3031 17.8304C10.6415 17.8588 10.9032 18.0069 10.8878 18.1602C10.8722 18.3142 10.5853 18.4154 10.2469 18.3869ZM9.25464 19.5609C9.22037 19.9 8.79062 20.1413 8.29455 20.0996C7.79868 20.0573 7.42432 19.7486 7.45859 19.4095C7.49285 19.0704 7.92267 18.8292 8.4186 18.8715C8.91454 18.9131 9.2889 19.2218 9.25464 19.5609ZM6.09781 19.235C5.83996 19.5034 5.49128 19.6105 5.31899 19.4743C5.14663 19.3375 5.21588 19.009 5.47373 18.7406C5.73158 18.4722 6.08026 18.3651 6.25261 18.5013C6.4249 18.6381 6.3556 18.9667 6.09781 19.235ZM4.62593 21.2326C4.42795 21.4362 4.1465 21.503 3.99729 21.3833C3.84808 21.263 3.88755 21.0013 4.08558 20.7983C4.28349 20.5947 4.56501 20.528 4.71409 20.6476C4.86336 20.7679 4.8239 21.0297 4.62593 21.2326ZM28.0819 28.2461C25.3219 26.8976 22.1733 25.8671 18.8369 25.2173C18.6767 25.208 18.5157 25.2021 18.3545 25.1981C18.4089 24.9634 18.4379 24.7175 18.4379 24.4637V14.2185C18.4379 13.9006 18.3917 13.5945 18.3075 13.3077C19.277 13.032 19.888 12.6308 19.888 12.1846C19.888 11.353 17.7724 10.6788 15.1627 10.6788C12.553 10.6788 10.4374 11.353 10.4374 12.1846C10.4374 12.796 11.5834 13.3222 13.2281 13.5582C13.1841 13.7704 13.1601 13.9912 13.1601 14.2185V18.5258C12.7301 18.2382 12.3002 17.9507 11.8703 17.6625C11.0595 17.1204 10.2489 16.5784 9.43077 16.0456C8.88756 15.6913 8.28539 15.3258 7.61807 15.3542C7.08891 15.3773 6.60454 15.6536 6.24897 16.0099C5.89334 16.3655 5.64764 16.7992 5.40592 17.2269C4.80439 18.2918 4.20281 19.3567 3.60128 20.4216C3.3526 20.8625 3.10079 21.3106 3.00347 21.7978C2.90614 22.285 2.98409 22.825 3.33674 23.2031C3.88547 23.7921 4.86499 23.8033 5.71071 23.7405C5.80784 23.7333 5.90472 23.724 6.00178 23.7161C4.9458 23.5885 4.24487 23.2957 4.18454 22.8825C4.07479 22.1316 6.11907 21.2683 8.75031 20.9543C10.6438 20.7276 12.3251 20.8479 13.1601 21.2128C13.4854 21.3549 13.6823 21.5341 13.713 21.7449C13.7495 21.9955 13.5449 22.2585 13.1601 22.5091C13.0949 22.5514 13.0252 22.5937 12.9499 22.6353C13.0201 22.6314 13.0902 22.6267 13.1601 22.6208V24.4637C13.1601 24.9264 13.2566 25.3634 13.4281 25.752C12.6673 25.9239 11.9193 26.1222 11.1777 26.3291L10.7887 23.4457C10.7697 23.3043 10.7363 23.1694 10.6912 23.0419C11.6918 22.753 12.3587 22.3273 12.3074 21.9479C12.2379 21.4323 10.869 21.1969 9.25009 21.423C7.63114 21.6484 6.3751 22.2499 6.44467 22.7655C6.48205 23.0425 6.89471 23.2388 7.51912 23.3261C7.4909 23.5112 7.48791 23.7049 7.5145 23.9018L7.96545 27.2446C6.54661 27.6505 5.12778 28.0557 3.70895 28.4616C2.84535 28.7081 1.96283 28.9633 1.28387 29.3804C0.463767 29.8841 0.00313223 30.6138 0.0581353 31.3344C0.113333 32.0555 0.685795 32.7556 1.59087 33.1984C2.6925 33.7365 4.16347 33.8694 5.55721 33.8555C8.44968 33.8264 11.3215 33.2328 13.6793 32.1765C14.7745 31.6854 15.8039 31.0838 17.1015 30.8637C18.4109 30.6409 19.7793 30.8426 21.0609 31.1605L21.0512 31.1579C19.736 30.7784 18.2619 30.4585 16.8655 30.6958C15.7428 30.8862 14.8521 31.4064 13.9044 31.8314C11.8646 32.7456 9.37973 33.2592 6.87715 33.2844C5.67125 33.2963 4.3985 33.1812 3.44538 32.7159C2.66233 32.3332 2.16698 31.727 2.11926 31.103C2.0716 30.4797 2.47021 29.8484 3.17979 29.4121C3.7672 29.0512 4.53074 28.8311 5.2779 28.6176C5.64439 28.5125 6.01082 28.408 6.37725 28.3029C5.76051 28.7094 5.36964 29.4941 5.51098 30.2364C5.66916 31.068 6.3805 31.7032 7.16582 31.9848C7.95127 32.2664 8.80636 32.2532 9.6379 32.2062C10.1731 32.1758 10.7166 32.1309 11.2174 31.9365C11.7181 31.7422 12.1784 31.376 12.3725 30.8683C12.663 30.1082 12.3363 29.1398 12.8373 28.5032C13.2026 28.0392 13.874 27.9572 14.4497 28.0616C15.0254 28.1654 15.5717 28.4153 16.1528 28.4801C16.9952 28.5739 17.8309 28.2699 18.5956 27.899C19.3604 27.5282 20.0993 27.082 20.9177 26.8586L20.9287 26.8559C21.4841 26.7059 22.0719 26.735 22.6184 26.9161C22.8375 26.9888 23.0551 27.0628 23.271 27.1395C24.3509 27.5216 25.387 27.9526 26.3659 28.4312C27.4902 28.9805 28.64 29.7525 28.419 30.6383C28.1942 31.5386 26.5763 32.0721 25.1316 32.0304C24.4014 32.0099 23.7031 31.8837 23.0211 31.7158C24.1895 32.0568 25.3805 32.3702 26.6552 32.4065C28.3252 32.4541 30.195 31.838 30.4548 30.7969C30.7103 29.773 29.3814 28.8813 28.0819 28.2461Z" fill="url(#paint1_linear_12664_1973)"/>
<path d="M27.1679 29.9199C27.2642 29.7665 27.0928 29.4803 26.7849 29.28C26.4771 29.0804 26.1494 29.0421 26.0532 29.1954C25.9569 29.3481 26.1283 29.635 26.4362 29.8346C26.7439 30.0349 27.0716 30.0733 27.1679 29.9199Z" fill="#0F240F"/>
<path d="M19.457 29.0755C19.3607 29.2289 19.5321 29.5151 19.84 29.7154C20.1478 29.9157 20.4754 29.9534 20.5718 29.8C20.668 29.6473 20.4966 29.3611 20.1887 29.1608C19.8809 28.9605 19.5533 28.9228 19.457 29.0755Z" fill="#0F240F"/>
<path d="M13.9618 28.7387C13.8656 28.8921 14.037 29.1783 14.3449 29.3786C14.6527 29.5789 14.9803 29.6166 15.0766 29.4639C15.173 29.3105 15.0014 29.0243 14.6936 28.824C14.3858 28.6237 14.0582 28.5861 13.9618 28.7387Z" fill="#0F240F"/>
<path d="M2.92718 30.6278C2.83089 30.7812 3.00234 31.0674 3.31012 31.2677C3.61797 31.468 3.94558 31.5056 4.04193 31.3523C4.13822 31.1996 3.96671 30.9127 3.65893 30.7131C3.35108 30.5128 3.02347 30.4744 2.92718 30.6278Z" fill="#0F240F"/>
<defs>
<linearGradient id="paint0_linear_12664_1973" x1="15.1629" y1="13.5898" x2="15.1629" y2="0.70541" gradientUnits="userSpaceOnUse">
<stop/>
<stop offset="1" stop-color="#1B421A"/>
</linearGradient>
<linearGradient id="paint1_linear_12664_1973" x1="15.2701" y1="33.8564" x2="15.2701" y2="10.6788" gradientUnits="userSpaceOnUse">
<stop/>
<stop offset="1" stop-color="#1B421A"/>
</linearGradient>
</defs>
</svg>
