<svg width="22" height="20" viewBox="0 0 22 20" fill="none" xmlns="http://www.w3.org/2000/svg">
<path d="M2.9406 0.318545C2.83961 0.217554 2.71972 0.137443 2.58777 0.0827873C2.45581 0.0281312 2.31439 0 2.17157 0C2.02874 0 1.88732 0.0281312 1.75537 0.0827873C1.62342 0.137443 1.50352 0.217554 1.40253 0.318545C1.19857 0.522507 1.08398 0.799138 1.08398 1.08758C1.08398 1.37603 1.19857 1.65266 1.40253 1.85662L7.50067 7.95476C7.11485 8.67247 6.97056 9.4954 7.08916 10.3016C7.20777 11.1077 7.58297 11.8542 8.15915 12.4304C8.73533 13.0066 9.48183 13.3818 10.288 13.5004C11.0942 13.619 11.9171 13.4747 12.6348 13.0889L18.7329 19.187C18.8336 19.2885 18.9534 19.3691 19.0854 19.4241C19.2174 19.4791 19.359 19.5074 19.502 19.5074C19.645 19.5074 19.7865 19.4791 19.9185 19.4241C20.0505 19.3691 20.1703 19.2885 20.271 19.187C20.3725 19.0863 20.4531 18.9665 20.5081 18.8345C20.5631 18.7025 20.5914 18.561 20.5914 18.418C20.5914 18.275 20.5631 18.1334 20.5081 18.0014C20.4531 17.8694 20.3725 17.7496 20.271 17.649L2.9406 0.318545ZM10.8368 11.3775C10.4059 11.3775 9.99261 11.2063 9.68791 10.9016C9.38322 10.5969 9.21204 10.1837 9.21204 9.75278V9.67696L10.9018 11.3667L10.8368 11.3775Z" fill="#7E6613"/>
<path d="M11.0741 15.1686C6.41655 15.2769 3.36207 11.2801 2.4089 9.75281C3.08746 8.67041 3.90296 7.68016 4.83515 6.80664L3.25376 5.2794C2.03123 6.4313 0.983915 7.75595 0.145115 9.21124C0.0500484 9.3759 0 9.56268 0 9.75281C0 9.94294 0.0500484 10.1297 0.145115 10.2944C0.827499 11.475 4.47772 17.3349 10.8575 17.3349H11.1283C12.3279 17.2993 13.512 17.0537 14.6268 16.6092L12.9155 14.8978C12.3136 15.0561 11.696 15.1469 11.0741 15.1686ZM21.5265 9.21124C20.8333 8.00894 17.0098 1.97579 10.5434 2.17076C9.34371 2.20634 8.1596 2.45197 7.04478 2.89647L8.75616 4.60785C9.35799 4.44952 9.97558 4.3587 10.5975 4.33706C15.2442 4.21791 18.2987 8.22557 19.2627 9.75281C18.5674 10.8384 17.7336 11.8288 16.7823 12.699L18.4179 14.2262C19.6557 13.0773 20.7178 11.7525 21.5698 10.2944C21.6584 10.1259 21.701 9.93715 21.6934 9.747C21.6858 9.55685 21.6282 9.37206 21.5265 9.21124Z" fill="#7E6613"/>
</svg>
