<svg width="26" height="26" viewBox="0 0 26 26" fill="none" xmlns="http://www.w3.org/2000/svg">
<circle cx="13" cy="13" r="13" fill="#F2FFE4"/>
<g clip-path="url(#clip0_1068_4100)">
<path d="M18.5155 7.48486H7.48523C6.7269 7.48486 6.11334 8.10532 6.11334 8.86365L6.10645 17.1364C6.10645 17.8947 6.7269 18.5152 7.48523 18.5152H18.5155C19.2739 18.5152 19.8943 17.8947 19.8943 17.1364V8.86365C19.8943 8.10532 19.2739 7.48486 18.5155 7.48486ZM18.2398 10.4148L13.3658 13.4619C13.1452 13.5998 12.8556 13.5998 12.635 13.4619L7.76099 10.4148C7.58864 10.3045 7.48523 10.1183 7.48523 9.91842C7.48523 9.45653 7.98849 9.18077 8.38145 9.42206L13.0004 12.3106L17.6193 9.42206C18.0123 9.18077 18.5155 9.45653 18.5155 9.91842C18.5155 10.1183 18.4121 10.3045 18.2398 10.4148Z" fill="#4B8323"/>
</g>
<defs>
<clipPath id="clip0_1068_4100">
<rect width="16.5455" height="16.5455" fill="white" transform="translate(4.72754 4.72729)"/>
</clipPath>
</defs>
</svg>
