<svg width="127" height="127" viewBox="0 0 127 127" fill="none" xmlns="http://www.w3.org/2000/svg">
<circle cx="63.4648" cy="63.5" r="61.9235" fill="white" stroke="black" stroke-width="2.84706"/>
<path d="M62.7084 94.1058C61.648 94.2097 61.3295 93.4132 61.3295 94.1058C61.3295 95.3524 60.0243 98.0547 58.4669 98.5049C56.9758 98.9204 56.545 98.8858 52.7675 97.8123C49.023 96.7735 43.8206 96.5311 40.6727 97.2237C39.1153 97.57 36.5638 97.7777 33.8797 97.7777C31.3945 97.7777 28.611 98.0201 27.3187 98.2971C25.1317 98.7819 21.1885 100.409 21.4867 100.721C21.5861 100.79 22.7127 100.548 24.0051 100.202C25.2974 99.8554 27.0536 99.4398 27.9152 99.336L29.4726 99.0589L28.7767 100.479C28.3791 101.275 27.4513 102.556 26.656 103.353L25.2642 104.773L26.6228 104.08C28.1803 103.249 29.7377 101.518 30.3673 99.9246C30.798 98.8166 30.8312 98.8166 33.0844 98.8166C35.4371 98.8166 35.9342 99.1282 34.6087 99.7515C32.5874 100.721 27.0868 106.469 27.0868 107.647C27.0868 107.785 28.5116 106.469 30.2347 104.738C31.9909 103.006 33.8797 101.344 34.443 101.033L35.4703 100.479L35.2383 101.587C35.1389 102.21 35.0395 102.833 35.0395 102.972C35.0395 103.11 34.675 103.353 34.2442 103.457C32.9519 103.803 30.2347 106.261 29.6051 107.647C29.2738 108.339 29.1081 108.997 29.1743 109.101C29.2738 109.17 29.9365 108.582 30.6655 107.75C31.3945 106.919 32.6205 105.881 33.3495 105.465L34.7081 104.669V105.465C34.675 106.504 33.5152 109.17 32.6537 110.14C31.3613 111.56 32.256 111.317 33.6146 109.863L34.9401 108.478L35.9673 109.759C36.5969 110.555 37.1602 111.837 37.3922 112.91C37.6904 114.191 37.9223 114.641 38.1543 114.399C38.6845 113.845 37.8561 110.451 36.6963 108.478C35.7685 106.885 35.7022 106.642 36.0667 105.327C36.2655 104.565 36.5306 102.972 36.63 101.795L36.862 99.6822L38.5188 99.1282C39.4466 98.8166 40.7389 98.4356 41.4348 98.3318C42.6609 98.0894 42.6609 98.0894 42.6609 99.2321C42.6609 101.656 40.6727 104.703 37.6904 106.85L36.862 107.473L37.7898 107.127C38.32 106.919 39.0821 106.539 39.4466 106.261C40.4407 105.534 40.6727 105.569 42.3958 107.127L43.9532 108.512L42.3295 110.105C40.6395 111.767 39.6786 113.464 39.6786 114.78C39.6786 115.438 39.9105 115.195 40.8715 113.706C42.0644 111.733 43.8538 109.932 44.5496 109.897C45.0798 109.897 45.9745 111.698 45.9745 112.737C45.9745 113.187 45.7757 114.364 45.5106 115.369C44.9804 117.55 45.4443 117.723 46.3059 115.715L46.9354 114.26L47.3331 115.957C47.6644 117.273 47.797 117.481 47.9627 116.961C48.294 116.061 48.0289 113.983 47.2337 111.179C46.836 109.828 46.6704 108.685 46.836 108.512C47.1011 108.27 51.1106 107.127 51.7402 107.127C52.0716 107.127 50.713 109.032 49.5532 110.174C48.6585 111.075 48.294 112.668 48.9568 112.668C49.1556 112.668 49.2881 112.356 49.2881 112.01C49.2881 111.075 49.9177 110.728 50.1497 111.525C50.481 112.598 51.0444 113.706 51.2763 113.706C51.4089 113.706 51.442 112.875 51.3426 111.871C51.21 110.174 51.2763 109.897 52.2704 108.72C52.8669 108.028 53.629 107.3 53.9272 107.127C54.4574 106.816 54.4574 106.885 54.0266 108.235C53.5959 109.551 53.629 110.244 54.126 112.044C54.2255 112.425 54.0266 112.702 53.5296 112.841C51.5745 113.464 49.2881 116.13 49.2881 117.758C49.2881 118.762 49.8183 118.797 50.1165 117.827C50.6467 116.096 54.1592 113.118 54.8219 113.845C55.3521 114.399 55.0207 117.446 54.2917 118.727L53.5627 120.043L54.3249 119.524C55.3521 118.831 56.2468 116.927 56.2468 115.438C56.2468 114.78 55.9485 113.395 55.584 112.391C54.6562 109.828 54.7225 109.482 56.4125 108.651L57.8705 107.924L58.732 108.824C59.1628 109.343 59.6598 110.244 59.7592 110.867C60.0243 112.217 60.5545 111.975 60.5545 110.486C60.5545 109.724 60.2231 108.997 59.5604 108.235C58.2681 106.746 58.3012 105.638 59.6598 104.253C61.2172 102.66 61.88 101.552 61.88 100.513C61.88 99.9246 62.1782 99.4052 62.7084 99.0243C63.1391 98.7127 63.5699 98.4703 63.6031 98.4703C63.835 98.4703 63.4705 102.141 63.2054 102.799C63.0397 103.18 62.8409 103.941 62.7084 104.495C62.609 105.084 61.9794 106.054 61.3498 106.677C60.2231 107.785 60.4551 107.889 62.1782 107.023C62.609 106.781 63.2386 106.019 63.5699 105.257L64.1332 103.941L64.4646 105.569C64.7297 106.85 64.6966 107.404 64.3652 107.958C64.1332 108.374 63.8019 109.274 63.7025 109.967C63.5368 110.867 63.0729 111.663 62.1782 112.494C61.4492 113.152 61.0516 113.706 61.2172 113.706C61.9131 113.706 63.5036 112.668 64.1995 111.733L64.9285 110.763L64.796 113.706C64.6966 115.334 64.3983 117.308 64.1332 118.104C63.835 118.935 63.7687 119.593 63.9344 119.593C64.3983 119.593 66.1546 115.369 66.6516 113.083L67.0824 111.109L67.9108 112.494C68.7061 113.81 69.6339 116.234 69.9321 117.689C70.0315 118.07 70.0978 117.585 70.1309 116.65C70.1641 114.78 69.0374 111.733 67.8114 110.348C67.4137 109.967 67.1818 109.309 67.2481 108.893C67.3475 108.27 67.5463 108.339 69.1037 109.828C70.5948 111.179 70.8931 111.698 71.0587 112.91C71.2907 114.711 71.7215 114.849 71.9866 113.222C72.2185 111.975 71.854 110.936 70.7274 109.62L70.0646 108.859H70.9262C72.1191 108.859 73.4777 109.551 73.4777 110.174C73.4777 110.486 73.7428 111.005 74.0742 111.386C74.5381 111.94 74.6375 112.702 74.6375 115.646C74.6375 117.619 74.6706 119.247 74.7369 119.247C74.8032 119.247 75.0351 118.727 75.3002 118.07C75.9629 116.407 76.3274 112.148 75.8304 111.837C75.6316 111.698 75.4659 111.421 75.4659 111.213C75.4659 110.59 77.1227 112.356 78.0174 113.949C79.0446 115.784 79.6411 115.888 78.9452 114.157C77.7523 111.213 75.6316 109.239 71.9203 107.612C69.0043 106.365 67.5463 105.257 66.983 103.768C66.4859 102.591 66.6185 100.686 67.2481 99.4052C67.5131 98.8512 67.6457 98.8166 68.2753 99.2667C68.6729 99.5437 69.5345 99.8554 70.1972 99.9939C71.6221 100.271 72.2517 101.275 72.2848 103.491C72.3179 105.05 72.3179 105.084 72.8812 104.322C73.3783 103.699 73.5108 103.664 73.6765 104.149C73.7759 104.426 73.7428 104.842 73.6102 105.084C73.4777 105.327 73.544 105.43 73.8422 105.327C74.6375 105.05 74.6043 102.972 73.8091 101.864C73.4114 101.31 73.1463 100.756 73.2457 100.686C73.5771 100.306 75.1345 101.275 75.9298 102.383C76.6588 103.353 76.8245 103.976 76.8907 106.054C76.9239 107.404 77.0233 108.512 77.0896 108.512C77.1558 108.512 77.3878 108.27 77.5866 107.958C77.918 107.508 78.1168 107.508 78.8789 107.854C79.5748 108.201 79.7736 108.547 79.9393 109.863C80.1712 111.837 81.0991 115.23 81.331 114.953C81.4304 114.849 81.331 114.018 81.1322 113.118C80.6683 111.144 80.8671 105.707 81.4304 104.08L81.8281 102.903L82.789 104.115C83.8494 105.43 86.5666 107.473 87.3287 107.473C87.5607 107.473 87.0636 106.85 86.1358 106.123C85.2411 105.361 84.1145 104.08 83.6174 103.214C82.789 101.691 81.8281 98.2971 82.1263 97.9509C82.3582 97.7431 84.5121 98.3318 86.666 99.2321C88.3559 99.9246 88.3891 99.9593 88.1903 101.102C88.0908 101.725 88.1571 103.318 88.3891 104.669L88.7867 107.093L87.7263 108.651C86.5997 110.417 85.7382 112.668 85.7382 113.914C85.7382 115.195 86.3015 114.884 86.5666 113.499C86.7985 112.148 87.9252 110.036 88.853 109.239C89.3169 108.824 89.5488 108.962 90.6755 110.278C92.1335 111.975 92.9288 111.94 91.5702 110.244C90.7418 109.205 89.5488 105.742 89.7808 105.05C89.9465 104.53 93.5252 107.612 94.2211 108.824C94.8175 109.897 95.3477 110.209 95.3477 109.551C95.3477 108.062 92.4317 104.426 90.6755 103.664C89.6814 103.214 89.2506 102.106 89.7145 101.275C89.9796 100.825 90.7086 101.448 93.6909 104.669C95.6791 106.816 97.3359 108.408 97.3359 108.166C97.3359 107.473 94.5524 103.595 92.9619 102.037C92.1335 101.275 90.8412 100.202 90.079 99.6476C88.4222 98.5049 88.5879 98.2971 92.0009 97.6392L94.2873 97.189L94.9832 99.1282C95.7785 101.379 97.1371 103.214 98.6945 104.149C99.7549 104.773 99.7549 104.738 98.2306 103.006C97.3359 102.037 96.6732 101.033 96.7726 100.79C96.9714 100.167 100.384 100.375 101.71 101.102L102.803 101.691L102.141 100.929C101.213 99.8208 99.5229 99.1628 97.6673 99.1628C96.1098 99.1628 95.7122 98.7819 95.6791 97.2929C95.6791 97.1198 97.9324 97.0505 100.915 97.1544C105.918 97.3276 106.051 97.3276 104.792 96.8081C102.87 96.0117 91.8684 96.0117 88.3559 96.8081C86.1027 97.3276 85.6387 97.3276 84.0482 96.912C82.0932 96.358 75.731 96.2195 73.8091 96.6696C72.1854 97.0852 70.8979 95.387 69.8707 94.1058C69.0423 93.1016 68.6398 94.2111 66.4196 94.1418C65.0942 94.0726 63.3711 94.0019 62.7084 94.1058ZM80.5689 97.847C80.6683 98.0894 80.7677 98.9551 80.8671 99.7515L81.0328 101.171L79.9062 100.686C79.3097 100.409 77.7192 100.029 76.3937 99.8554C75.0682 99.6476 73.4446 99.3013 72.815 99.0936L71.6552 98.678L73.4777 98.0894C75.6647 97.3622 80.4032 97.2237 80.5689 97.847ZM48.6585 98.1586C51.3757 98.5395 53.2314 99.1282 51.7734 99.1628C50.7461 99.1628 47.2337 101.033 46.339 102.072C45.7094 102.799 45.6431 102.972 46.0739 102.972C46.3721 102.972 46.7035 102.799 46.8029 102.626C47.0017 102.314 50.0503 100.548 50.4148 100.548C50.8787 100.548 49.8183 102.937 49.0562 103.63L48.1615 104.461L48.9568 104.184C50.0503 103.838 51.2763 102.66 51.2763 101.933C51.2763 100.825 52.2704 99.8554 53.4302 99.8554C54.3911 99.8554 54.5237 99.9593 54.358 100.617C54.2586 101.067 53.9272 101.691 53.6621 102.002C53.0988 102.695 53.3308 102.799 54.2586 102.279C54.59 102.106 55.0207 101.448 55.2195 100.86C55.4846 100.098 55.7166 99.8208 56.1142 99.9939C56.3793 100.098 57.3734 100.202 58.2681 100.202C59.7592 100.202 59.8918 100.271 59.8918 100.998C59.8918 101.448 59.5604 102.141 59.1628 102.522C57.8042 103.838 54.2255 105.43 51.674 105.915C50.2491 106.158 48.4597 106.642 47.6313 106.954C44.9473 107.993 44.8479 107.958 44.649 105.396C44.5496 104.149 44.3177 102.833 44.0857 102.452C43.8206 101.968 43.8206 101.206 44.0857 99.7515C44.4834 97.4661 44.2514 97.57 48.6585 98.1586ZM79.5748 102.037C80.1381 102.591 80.2707 102.972 80.0718 103.491C79.9393 103.872 79.8067 104.876 79.7736 105.742L79.7405 107.3L78.9452 106.331C78.4813 105.811 78.1168 105.015 78.1168 104.599C78.1168 104.184 77.8186 103.18 77.4541 102.349L76.7913 100.825L77.8186 101.067C78.3487 101.206 79.144 101.656 79.5748 102.037ZM43.6549 105.292V106.123L42.7603 105.257C41.9981 104.495 41.9319 104.322 42.3295 103.838C42.7603 103.284 42.8265 103.318 43.2242 103.872C43.4561 104.218 43.6549 104.842 43.6549 105.292ZM56.2799 107.958C54.9876 109.274 54.9213 108.512 56.1474 106.816C56.9095 105.777 57.0752 105.673 57.1746 106.227C57.274 106.608 56.8764 107.3 56.2799 107.958Z" fill="#542C16"/>
</svg>
