<svg width="26" height="26" viewBox="0 0 26 26" fill="none" xmlns="http://www.w3.org/2000/svg">
<path d="M21.016 7.95164L18.0477 4.9833C17.6603 4.61941 17.1526 4.41061 16.6213 4.39662C16.09 4.38264 15.572 4.56445 15.166 4.90747L5.41601 14.6575C5.06584 15.0106 4.84781 15.4734 4.79851 15.9683L4.33268 20.4858C4.31808 20.6445 4.33867 20.8044 4.39298 20.9542C4.44728 21.104 4.53396 21.24 4.64684 21.3525C4.74807 21.4529 4.86812 21.5323 5.00011 21.5862C5.1321 21.6401 5.27344 21.6675 5.41601 21.6666H5.51351L10.031 21.255C10.5259 21.2057 10.9887 20.9876 11.3418 20.6375L21.0918 10.8875C21.4703 10.4877 21.6748 9.95419 21.6606 9.40388C21.6464 8.85358 21.4146 8.33135 21.016 7.95164ZM9.83601 19.0883L6.58601 19.3916L6.87851 16.1416L12.9993 10.0966L15.9243 13.0216L9.83601 19.0883ZM17.3327 11.57L14.4293 8.66664L16.5418 6.49997L19.4993 9.45747L17.3327 11.57Z" fill="#7E6613"/>
</svg>
