<svg width="587" height="520" viewBox="0 0 587 520" fill="none" xmlns="http://www.w3.org/2000/svg">
<path d="M586.972 456.14H3.89453V457.535H586.972V456.14Z" fill="#EBEBEB"/>
<path d="M574.281 479.215H528.078V479.563H574.281V479.215Z" fill="#EBEBEB"/>
<path d="M408.732 483H396.605V483.349H408.732V483Z" fill="#EBEBEB"/>
<path d="M526.682 466.261H499.91V466.61H526.682V466.261Z" fill="#EBEBEB"/>
<path d="M80.1318 468.605H19.8809V468.954H80.1318V468.605Z" fill="#EBEBEB"/>
<path d="M101.387 468.605H92.5527V468.954H101.387V468.605Z" fill="#EBEBEB"/>
<path d="M260.765 474.495H130.094V474.844H260.765V474.495Z" fill="#EBEBEB"/>
<path d="M277.32 394.551H7.96222C3.5724 394.551 0 390.979 0 386.589V7.96222C0 3.5724 3.5724 0 7.96222 0H277.32C281.709 0 285.281 3.5724 285.281 7.96222V386.589C285.281 390.979 281.709 394.551 277.32 394.551ZM7.96222 0.350125C3.7635 0.350125 0.348731 3.7649 0.348731 7.96361V386.59C0.348731 390.789 3.7635 394.204 7.96222 394.204H277.32C281.518 394.204 284.932 390.789 284.932 386.59V7.96222C284.932 3.7649 281.518 0.348731 277.32 0.348731L7.96222 0.350125Z" fill="#EBEBEB"/>
<path d="M579.04 394.551H309.683C305.294 394.551 301.723 390.979 301.723 386.589V7.96222C301.723 3.5724 305.295 0 309.683 0H579.04C583.431 0 587.003 3.5724 587.003 7.96222V386.589C587.004 390.979 583.431 394.551 579.04 394.551ZM309.683 0.350125C305.486 0.350125 302.071 3.7649 302.071 7.96361V386.59C302.071 390.789 305.486 394.204 309.683 394.204H579.04C583.239 394.204 586.654 390.789 586.654 386.59V7.96222C586.654 3.7649 583.239 0.348731 579.04 0.348731L309.683 0.350125Z" fill="#EBEBEB"/>
<path d="M284.75 165.891H86.6914V456.271H284.75V165.891Z" fill="#F0F0F0"/>
<path d="M277.749 175.032H93.6934V228.663H277.749V175.032Z" fill="#E0E0E0"/>
<path d="M104.148 183.714H93.6934V228.663H104.148V183.714Z" fill="#EBEBEB"/>
<path d="M154.706 183.714H144.25V228.663H154.706V183.714Z" fill="#EBEBEB"/>
<path d="M212.096 182.612L201.791 184.388L209.423 228.685L219.728 226.909L212.096 182.612Z" fill="#EBEBEB"/>
<path d="M117.103 189.637H106.648V228.662H117.103V189.637Z" fill="#EBEBEB"/>
<path d="M141.135 189.637H130.68V228.662H141.135V189.637Z" fill="#EBEBEB"/>
<path d="M201.797 189.637H191.342V228.662H201.797V189.637Z" fill="#EBEBEB"/>
<path d="M168.438 188.304L158.23 190.572L166.695 228.668L176.902 226.4L168.438 188.304Z" fill="#EBEBEB"/>
<path d="M126.146 181.483H120.918V228.662H126.146V181.483Z" fill="#EBEBEB"/>
<path d="M188.336 181.483H183.107V228.662H188.336V181.483Z" fill="#EBEBEB"/>
<path d="M93.6941 290.785H277.75V237.154L93.6941 237.154V290.785Z" fill="#E0E0E0"/>
<path d="M267.295 290.785H277.75V245.838H267.295V290.785Z" fill="#EBEBEB"/>
<path d="M216.737 290.785H227.193V245.838H216.737V290.785Z" fill="#EBEBEB"/>
<path d="M151.693 289.008L161.996 290.783L169.628 246.486L159.325 244.711L151.693 289.008Z" fill="#EBEBEB"/>
<path d="M254.339 290.784H264.795V251.76H254.339V290.784Z" fill="#EBEBEB"/>
<path d="M230.305 290.784H240.762V251.76H230.305V290.784Z" fill="#EBEBEB"/>
<path d="M169.645 290.784H180.102V251.76H169.645V290.784Z" fill="#EBEBEB"/>
<path d="M194.54 288.513L204.746 290.781L213.21 252.685L203.004 250.418L194.54 288.513Z" fill="#EBEBEB"/>
<path d="M245.295 290.784H250.523V243.605H245.295V290.784Z" fill="#EBEBEB"/>
<path d="M183.108 290.784H188.336V243.605H183.108V290.784Z" fill="#EBEBEB"/>
<path d="M104.148 245.836H93.6934V290.783H104.148V245.836Z" fill="#EBEBEB"/>
<path d="M117.103 251.76H106.648V290.785H117.103V251.76Z" fill="#EBEBEB"/>
<path d="M141.135 251.76H130.68V290.785H141.135V251.76Z" fill="#EBEBEB"/>
<path d="M126.146 243.605H120.918V290.784H126.146V243.605Z" fill="#EBEBEB"/>
<path d="M277.751 299.277H93.6953V352.907H277.751V299.277Z" fill="#E0E0E0"/>
<path d="M209.79 307.958H199.334V352.907H209.79V307.958Z" fill="#EBEBEB"/>
<path d="M267.176 306.861L256.871 308.637L264.503 352.934L274.808 351.158L267.176 306.861Z" fill="#EBEBEB"/>
<path d="M172.187 313.881H161.73V352.906H172.187V313.881Z" fill="#EBEBEB"/>
<path d="M196.221 313.881H185.766V352.906H196.221V313.881Z" fill="#EBEBEB"/>
<path d="M256.878 313.881H246.422V352.906H256.878V313.881Z" fill="#EBEBEB"/>
<path d="M223.523 312.547L213.316 314.814L221.781 352.91L231.987 350.642L223.523 312.547Z" fill="#EBEBEB"/>
<path d="M181.228 305.727H176V352.906H181.228V305.727Z" fill="#EBEBEB"/>
<path d="M243.422 305.727H238.193V352.906H243.422V305.727Z" fill="#EBEBEB"/>
<path d="M146.885 306.856L136.58 308.632L144.212 352.929L154.517 351.153L146.885 306.856Z" fill="#EBEBEB"/>
<path d="M136.593 313.881H126.137V352.906H136.593V313.881Z" fill="#EBEBEB"/>
<path d="M103.232 312.546L93.0254 314.814L101.49 352.91L111.696 350.642L103.232 312.546Z" fill="#EBEBEB"/>
<path d="M123.131 305.727H117.902V352.906H123.131V305.727Z" fill="#EBEBEB"/>
<path d="M52.5228 457.033H86.6914L86.6914 165.891H52.5228L52.5228 457.033Z" fill="#E0E0E0"/>
<path d="M400.664 449.433H371.633L386.895 325.136C387.541 319.874 392.329 315.608 397.591 315.608H407.567H524.262L505.693 449.433H400.664Z" fill="#F5F5F5"/>
<path d="M492.734 449.433H521.766L537.027 325.136C537.673 319.874 533.932 315.608 528.67 315.608H518.694C513.432 315.608 508.643 319.874 507.998 325.136L492.734 449.433Z" fill="#F0F0F0"/>
<path d="M482.042 449.287L487.302 389.167C487.536 386.482 489.612 384.324 492.286 383.982L494.449 383.706C498.036 383.248 500.819 380.352 501.134 376.751L502.094 365.789C502.487 361.296 498.945 357.432 494.436 357.432H542.952C547.462 357.432 551.004 361.296 550.61 365.789L549.651 376.751C549.336 380.352 546.553 383.248 542.966 383.706L540.803 383.982C538.129 384.324 536.054 386.482 535.82 389.167L530.56 449.287C530.176 453.67 526.506 457.033 522.107 457.033H473.59C477.988 457.033 481.658 453.67 482.042 449.287Z" fill="#E6E6E6"/>
<path d="M348.526 374.116C347.701 364.675 339.795 357.431 330.318 357.431H353.794H372.555C382.032 357.431 389.937 364.675 390.763 374.116L394.933 421.773H352.694L348.526 374.116Z" fill="#E6E6E6"/>
<path d="M311.555 357.431H330.317C339.794 357.431 347.699 364.675 348.525 374.116L352.694 421.772H453.292L457.461 374.114C458.287 364.673 466.192 357.43 475.669 357.43H494.431C498.941 357.43 502.483 361.293 502.089 365.787L501.129 376.748C500.814 380.35 498.031 383.245 494.445 383.703L492.281 383.979C489.607 384.321 487.533 386.479 487.297 389.164L482.037 449.284C481.654 453.667 477.983 457.03 473.584 457.03H332.401C328.001 457.03 324.331 453.667 323.948 449.284L318.687 389.164C318.453 386.479 316.377 384.321 313.705 383.979L311.541 383.703C307.955 383.245 305.172 380.35 304.857 376.748L303.897 365.787C303.504 361.296 307.045 357.431 311.555 357.431Z" fill="#F0F0F0"/>
<path d="M89.2075 151.384C89.2075 151.384 87.662 141.197 95.0927 134.665C102.522 128.132 101.869 124.247 99.7462 123.741C97.6231 123.235 95.6632 129.766 92.3977 131.562C92.3977 131.562 92.2945 122.254 95.6116 118.825C98.9288 115.397 100.67 106.563 97.5129 106.406C94.3562 106.251 94.0298 111.654 93.377 115.484C92.7241 119.315 89.2061 124.704 89.2061 124.704C89.2061 124.704 88.5198 116.374 86.3758 112.946C84.2318 109.517 89.9482 101.678 87.7429 98.2488C85.5389 94.8201 81.6192 101.351 81.9456 108.7C82.272 116.048 87.1709 123.886 86.0285 131.561C86.0285 131.561 83.8678 126.172 81.9274 125.683C79.9871 125.193 78.0272 121.629 76.7216 120.308C75.4145 118.987 73.7825 123.56 76.7216 127.806C79.6607 132.052 87.1723 143.411 86.0299 152.591L89.2075 151.384Z" fill="#E6E6E6"/>
<path d="M93.6514 146.75L96.0842 162.019C96.836 166.734 93.1925 171.004 88.4177 171.004H85.8217C81.0469 171.004 77.4034 166.734 78.1552 162.019L80.588 146.75H93.6514Z" fill="#E6E6E6"/>
<path d="M239.716 168.006H247.293V135.434H239.716V168.006Z" fill="#EBEBEB"/>
<path d="M203.077 168.006H210.654V135.434H203.077V168.006Z" fill="#EBEBEB"/>
<path d="M155.939 166.724L163.406 168.01L168.937 135.91L161.47 134.623L155.939 166.724Z" fill="#EBEBEB"/>
<path d="M230.327 168.007H237.904V139.726H230.327V168.007Z" fill="#EBEBEB"/>
<path d="M212.911 168.007H220.488V139.726H212.911V168.007Z" fill="#EBEBEB"/>
<path d="M168.95 168.007H176.527V139.726H168.95V168.007Z" fill="#EBEBEB"/>
<path d="M186.986 166.363L194.383 168.006L200.517 140.399L193.12 138.755L186.986 166.363Z" fill="#EBEBEB"/>
<path d="M223.776 168.006H227.564V133.815H223.776V168.006Z" fill="#EBEBEB"/>
<path d="M178.706 168.006H182.494V133.815H178.706V168.006Z" fill="#EBEBEB"/>
<path d="M151.681 142.153H114.762V167.641H151.681V142.153Z" fill="#EBEBEB"/>
<path d="M278.32 152.592H247.391V171.622H278.32V152.592Z" fill="#EBEBEB"/>
<path d="M271.09 135.866H255.625V154.894H271.09V135.866Z" fill="#EBEBEB"/>
<path d="M529.522 110.689H492.738V263.97H529.522V110.689Z" fill="#E0E0E0"/>
<path d="M388.011 264.373H525.574V110.687L388.011 110.687V264.373Z" fill="#E0E0E0"/>
<path d="M383.576 264.373H526.305V110.688L383.576 110.688V264.373Z" fill="#F0F0F0"/>
<path d="M389.67 257.312H520.436V115.589L389.67 115.589V257.312Z" fill="white"/>
<path d="M389.672 257.312H392.098V115.589H389.672V257.312Z" fill="#E0E0E0"/>
<path d="M391.691 217.504V221.326H520.779V217.504H391.691Z" fill="#E0E0E0"/>
<path d="M389.672 217.504L522.488 217.504V211.087L389.672 211.087V217.504Z" fill="#F0F0F0"/>
<path d="M295.437 519.761C444.808 519.761 565.897 512.689 565.897 503.966C565.897 495.243 444.808 488.172 295.437 488.172C146.066 488.172 24.9766 495.243 24.9766 503.966C24.9766 512.689 146.066 519.761 295.437 519.761Z" fill="#D8D8D8"/>
<path d="M395.806 450.806H146.227C140.591 450.806 136.021 446.238 136.021 440.601V146.729C136.021 141.094 140.59 136.524 146.227 136.524H395.805C401.44 136.524 406.01 141.093 406.01 146.729V440.601C406.012 446.236 401.442 450.806 395.806 450.806Z" fill="#6C7C6C"/>
<path opacity="0.6" d="M395.806 450.806H146.227C140.591 450.806 136.021 446.238 136.021 440.601V146.729C136.021 141.094 140.59 136.524 146.227 136.524H395.805C401.44 136.524 406.01 141.093 406.01 146.729V440.601C406.012 446.236 401.442 450.806 395.806 450.806Z" fill="white"/>
<path d="M362.269 280.652H179.762V311.902H362.269V280.652Z" fill="white"/>
<g opacity="0.4">
<path d="M196.079 299.317V300.136H189.746V291.181H195.887V291.999H190.693V295.185H195.324V295.99H190.693V299.317H196.079Z" fill="#263238"/>
<path d="M197.359 296.273H200.711V297.066H197.359V296.273Z" fill="#263238"/>
<path d="M213.848 296.234V300.136H212.94V296.323C212.94 294.903 212.223 294.175 211.008 294.175C209.627 294.175 208.756 295.071 208.756 296.605V300.136H207.848V296.323C207.848 294.903 207.131 294.175 205.904 294.175C204.535 294.175 203.652 295.071 203.652 296.605V300.136H202.744V293.407H203.615V294.636C204.087 293.829 204.958 293.356 206.084 293.356C207.197 293.356 208.066 293.829 208.476 294.776C208.963 293.907 209.922 293.356 211.137 293.356C212.774 293.356 213.848 294.304 213.848 296.234Z" fill="#263238"/>
<path d="M221.396 295.965V300.136H220.526V299.087C220.117 299.778 219.324 300.2 218.21 300.2C216.689 300.2 215.754 299.407 215.754 298.243C215.754 297.207 216.419 296.338 218.351 296.338H220.487V295.928C220.487 294.777 219.834 294.15 218.581 294.15C217.711 294.15 216.892 294.457 216.343 294.943L215.934 294.265C216.612 293.69 217.609 293.358 218.671 293.358C220.412 293.357 221.396 294.226 221.396 295.965ZM220.488 298.115V297.014H218.378C217.072 297.014 216.651 297.526 216.651 298.217C216.651 298.998 217.277 299.483 218.353 299.483C219.375 299.483 220.13 298.998 220.488 298.115Z" fill="#263238"/>
<path d="M223.662 291.284C223.662 290.939 223.956 290.645 224.327 290.645C224.699 290.645 224.993 290.927 224.993 291.271C224.993 291.642 224.711 291.936 224.327 291.936C223.956 291.935 223.662 291.641 223.662 291.284ZM223.866 293.407H224.774V300.136H223.866V293.407Z" fill="#263238"/>
<path d="M227.309 290.643H228.217V300.136H227.309V290.643Z" fill="#263238"/>
</g>
<path d="M362.269 323.341H179.762V354.591H362.269V323.341Z" fill="white"/>
<g opacity="0.4">
<path d="M196.761 336.987C196.761 338.894 195.38 340.045 193.102 340.045H190.697V342.871H189.75V333.917H193.102C195.38 333.919 196.761 335.069 196.761 336.987ZM195.814 336.987C195.814 335.556 194.868 334.737 193.077 334.737H190.697V339.214H193.077C194.868 339.214 195.814 338.395 195.814 336.987Z" fill="#263238"/>
<path d="M203.631 338.703V342.873H202.76V341.824C202.35 342.514 201.558 342.937 200.445 342.937C198.923 342.937 197.988 342.144 197.988 340.98C197.988 339.945 198.654 339.074 200.586 339.074H202.721V338.664C202.721 337.513 202.068 336.887 200.816 336.887C199.947 336.887 199.128 337.195 198.577 337.679L198.168 337.003C198.846 336.427 199.844 336.095 200.905 336.095C202.645 336.093 203.631 336.964 203.631 338.703ZM202.723 340.851V339.752H200.612C199.306 339.752 198.885 340.263 198.885 340.953C198.885 341.733 199.512 342.22 200.587 342.22C201.609 342.22 202.364 341.733 202.723 340.851Z" fill="#263238"/>
<path d="M205.166 342.105L205.575 341.388C206.112 341.811 207.021 342.143 207.967 342.143C209.246 342.143 209.771 341.706 209.771 341.042C209.771 339.29 205.409 340.671 205.409 338.011C205.409 336.911 206.356 336.092 208.07 336.092C208.939 336.092 209.886 336.335 210.45 336.718L210.054 337.448C209.465 337.039 208.762 336.873 208.072 336.873C206.855 336.873 206.32 337.346 206.32 337.986C206.32 339.802 210.682 338.432 210.682 341.017C210.682 342.182 209.659 342.937 207.906 342.937C206.791 342.937 205.716 342.578 205.166 342.105Z" fill="#263238"/>
<path d="M211.42 342.105L211.83 341.388C212.367 341.811 213.277 342.143 214.222 342.143C215.501 342.143 216.027 341.706 216.027 341.042C216.027 339.29 211.665 340.671 211.665 338.011C211.665 336.911 212.613 336.092 214.327 336.092C215.197 336.092 216.143 336.335 216.707 336.718L216.311 337.448C215.722 337.039 215.019 336.873 214.328 336.873C213.112 336.873 212.576 337.346 212.576 337.986C212.576 339.802 216.938 338.432 216.938 341.017C216.938 342.182 215.916 342.937 214.162 342.937C213.045 342.937 211.97 342.578 211.42 342.105Z" fill="#263238"/>
<path d="M228.36 336.145L225.814 342.873H224.958L222.833 337.36L220.71 342.873H219.853L217.32 336.145H218.189L220.3 341.863L222.462 336.145H223.243L225.391 341.863L227.528 336.145H228.36Z" fill="#263238"/>
<path d="M228.857 339.508C228.857 337.512 230.315 336.093 232.286 336.093C234.257 336.093 235.702 337.513 235.702 339.508C235.702 341.504 234.257 342.937 232.286 342.937C230.317 342.937 228.857 341.504 228.857 339.508ZM234.782 339.508C234.782 337.935 233.72 336.886 232.288 336.886C230.855 336.886 229.781 337.935 229.781 339.508C229.781 341.082 230.856 342.13 232.288 342.13C233.719 342.13 234.782 341.082 234.782 339.508Z" fill="#263238"/>
<path d="M240.948 336.093V336.976C240.872 336.976 240.795 336.964 240.731 336.964C239.323 336.964 238.467 337.859 238.467 339.444V342.873H237.559V336.145H238.429V337.462C238.85 336.565 239.708 336.093 240.948 336.093Z" fill="#263238"/>
<path d="M248.662 333.38V342.873H247.792V341.542C247.242 342.45 246.309 342.937 245.196 342.937C243.276 342.937 241.844 341.542 241.844 339.508C241.844 337.474 243.276 336.093 245.196 336.093C246.27 336.093 247.192 336.554 247.754 337.424V333.382H248.662V333.38ZM247.768 339.508C247.768 337.935 246.694 336.886 245.272 336.886C243.84 336.886 242.766 337.935 242.766 339.508C242.766 341.082 243.84 342.13 245.272 342.13C246.692 342.13 247.768 341.082 247.768 339.508Z" fill="#263238"/>
</g>
<path opacity="0.2" d="M362.269 386.465H179.762V417.715H362.269V386.465Z" fill="black"/>
<g opacity="0.5">
<path d="M224.147 372.103H221.168L220.526 373.531H219.938L222.383 368.182H222.941L225.386 373.531H224.79L224.147 372.103ZM223.942 371.644L222.659 368.77L221.376 371.644H223.942Z" fill="black"/>
<path d="M226.162 367.862H226.705V373.531H226.162V367.862Z" fill="black"/>
<path d="M230.244 369.482V370.009C230.198 370.009 230.152 370.001 230.114 370.001C229.273 370.001 228.761 370.536 228.761 371.485V373.533H228.219V369.512H228.738V370.299C228.992 369.765 229.502 369.482 230.244 369.482Z" fill="black"/>
<path d="M234.686 371.69H231.324C231.385 372.531 232.027 373.089 232.906 373.089C233.395 373.089 233.831 372.913 234.136 372.562L234.442 372.913C234.083 373.341 233.525 373.57 232.89 373.57C231.638 373.57 230.781 372.715 230.781 371.522C230.781 370.331 231.614 369.482 232.745 369.482C233.877 369.482 234.694 370.314 234.694 371.522C234.694 371.567 234.686 371.628 234.686 371.69ZM231.324 371.285H234.174C234.105 370.499 233.532 369.948 232.745 369.948C231.966 369.948 231.392 370.499 231.324 371.285Z" fill="black"/>
<path d="M238.722 371.04V373.531H238.203V372.905C237.959 373.318 237.484 373.57 236.819 373.57C235.91 373.57 235.352 373.096 235.352 372.401C235.352 371.782 235.749 371.263 236.903 371.263H238.179V371.019C238.179 370.331 237.79 369.956 237.041 369.956C236.521 369.956 236.032 370.139 235.703 370.43L235.459 370.024C235.863 369.681 236.461 369.482 237.094 369.482C238.133 369.482 238.722 370.001 238.722 371.04ZM238.179 372.325V371.666H236.918C236.138 371.666 235.886 371.973 235.886 372.386C235.886 372.852 236.261 373.142 236.903 373.142C237.514 373.142 237.964 372.852 238.179 372.325Z" fill="black"/>
<path d="M243.882 367.862V373.531H243.363V372.738C243.034 373.28 242.476 373.57 241.812 373.57C240.667 373.57 239.811 372.738 239.811 371.523C239.811 370.308 240.667 369.482 241.812 369.482C242.454 369.482 243.004 369.757 243.341 370.276V367.862H243.882ZM243.348 371.523C243.348 370.582 242.706 369.956 241.858 369.956C241.002 369.956 240.36 370.582 240.36 371.523C240.36 372.463 241.002 373.089 241.858 373.089C242.706 373.089 243.348 372.463 243.348 371.523Z" fill="black"/>
<path d="M248.777 369.512L246.769 374.014C246.433 374.801 246.004 375.053 245.431 375.053C245.057 375.053 244.697 374.932 244.453 374.686L244.706 374.282C244.904 374.481 245.148 374.587 245.439 374.587C245.798 374.587 246.043 374.42 246.272 373.915L246.448 373.526L244.651 369.514H245.216L246.73 372.93L248.242 369.514H248.777V369.512Z" fill="black"/>
<path d="M254.582 371.04V373.531H254.062V372.905C253.818 373.318 253.344 373.57 252.678 373.57C251.769 373.57 251.211 373.096 251.211 372.401C251.211 371.782 251.608 371.263 252.762 371.263H254.038V371.019C254.038 370.331 253.649 369.956 252.9 369.956C252.38 369.956 251.892 370.139 251.564 370.43L251.32 370.024C251.724 369.681 252.321 369.482 252.955 369.482C253.994 369.482 254.582 370.001 254.582 371.04ZM254.04 372.325V371.666H252.779C251.999 371.666 251.747 371.973 251.747 372.386C251.747 372.852 252.122 373.142 252.763 373.142C253.374 373.142 253.825 372.852 254.04 372.325Z" fill="black"/>
<path d="M264.693 371.2V373.531H264.151V371.253C264.151 370.407 263.723 369.97 262.997 369.97C262.171 369.97 261.652 370.506 261.652 371.422V373.531H261.11V371.253C261.11 370.407 260.682 369.97 259.948 369.97C259.13 369.97 258.603 370.506 258.603 371.422V373.531H258.061V369.511H258.579V370.245C258.863 369.764 259.382 369.48 260.054 369.48C260.719 369.48 261.238 369.764 261.482 370.329C261.772 369.808 262.346 369.48 263.071 369.48C264.052 369.482 264.693 370.047 264.693 371.2Z" fill="black"/>
<path d="M269.69 371.69H266.328C266.388 372.531 267.031 373.089 267.91 373.089C268.398 373.089 268.834 372.913 269.14 372.562L269.445 372.913C269.087 373.341 268.529 373.57 267.894 373.57C266.642 373.57 265.785 372.715 265.785 371.522C265.785 370.331 266.618 369.482 267.749 369.482C268.88 369.482 269.698 370.314 269.698 371.522C269.697 371.567 269.69 371.628 269.69 371.69ZM266.328 371.285H269.178C269.109 370.499 268.536 369.948 267.749 369.948C266.969 369.948 266.396 370.499 266.328 371.285Z" fill="black"/>
<path d="M277.441 371.2V373.531H276.899V371.253C276.899 370.407 276.471 369.97 275.745 369.97C274.919 369.97 274.401 370.506 274.401 371.422V373.531H273.858V371.253C273.858 370.407 273.43 369.97 272.696 369.97C271.878 369.97 271.351 370.506 271.351 371.422V373.531H270.809V369.511H271.327V370.245C271.611 369.764 272.13 369.48 272.802 369.48C273.467 369.48 273.986 369.764 274.23 370.329C274.52 369.808 275.094 369.48 275.819 369.48C276.8 369.482 277.441 370.047 277.441 371.2Z" fill="black"/>
<path d="M282.994 371.523C282.994 372.738 282.139 373.57 280.992 373.57C280.327 373.57 279.769 373.28 279.441 372.738V373.531H278.922V367.862H279.464V370.276C279.801 369.757 280.352 369.482 280.993 369.482C282.137 369.482 282.994 370.308 282.994 371.523ZM282.451 371.523C282.451 370.582 281.801 369.956 280.953 369.956C280.096 369.956 279.455 370.582 279.455 371.523C279.455 372.463 280.096 373.089 280.953 373.089C281.801 373.089 282.451 372.463 282.451 371.523Z" fill="black"/>
<path d="M287.608 371.69H284.246C284.307 372.531 284.949 373.089 285.828 373.089C286.317 373.089 286.752 372.913 287.058 372.562L287.363 372.913C287.005 373.341 286.447 373.57 285.812 373.57C284.56 373.57 283.703 372.715 283.703 371.522C283.703 370.331 284.536 369.482 285.667 369.482C286.798 369.482 287.616 370.314 287.616 371.522C287.614 371.567 287.608 371.628 287.608 371.69ZM284.246 371.285H287.096C287.027 370.499 286.454 369.948 285.667 369.948C284.887 369.948 284.314 370.499 284.246 371.285Z" fill="black"/>
<path d="M290.75 369.482V370.009C290.704 370.009 290.658 370.001 290.62 370.001C289.781 370.001 289.267 370.536 289.267 371.485V373.533H288.725V369.512H289.245V370.299C289.497 369.765 290.008 369.482 290.75 369.482Z" fill="black"/>
<path d="M294.266 369.552C294.266 369.001 293.815 368.618 293.035 368.618C292.387 368.618 291.913 368.832 291.576 369.238L291.172 368.931C291.585 368.427 292.219 368.137 293.075 368.137C294.144 368.137 294.832 368.649 294.832 369.466C294.832 370.772 293.434 370.833 293.434 371.927H292.868C292.868 370.666 294.266 370.552 294.266 369.552ZM292.754 373.173C292.754 372.952 292.929 372.784 293.151 372.784C293.381 372.784 293.556 372.952 293.556 373.173C293.556 373.386 293.38 373.57 293.151 373.57C292.929 373.57 292.754 373.386 292.754 373.173Z" fill="black"/>
<path d="M298.045 368.183H299.284V372.524H301.965V373.533H298.045V368.183Z" fill="black"/>
<path d="M302.244 371.477C302.244 370.238 303.2 369.359 304.507 369.359C305.814 369.359 306.761 370.238 306.761 371.477C306.761 372.715 305.814 373.594 304.507 373.594C303.198 373.593 302.244 372.715 302.244 371.477ZM305.553 371.477C305.553 370.765 305.102 370.338 304.505 370.338C303.91 370.338 303.451 370.766 303.451 371.477C303.451 372.188 303.91 372.615 304.505 372.615C305.102 372.615 305.553 372.188 305.553 371.477Z" fill="black"/>
<path d="M311.8 369.42V372.844C311.8 374.372 310.976 375.075 309.493 375.075C308.713 375.075 307.957 374.884 307.476 374.51L307.95 373.655C308.301 373.937 308.875 374.121 309.401 374.121C310.242 374.121 310.609 373.739 310.609 372.997V372.821C310.295 373.166 309.844 373.333 309.31 373.333C308.172 373.333 307.254 372.546 307.254 371.347C307.254 370.147 308.17 369.359 309.31 369.359C309.883 369.359 310.358 369.552 310.67 369.948V369.42H311.8ZM310.623 371.347C310.623 370.743 310.172 370.337 309.546 370.337C308.919 370.337 308.461 370.743 308.461 371.347C308.461 371.951 308.919 372.355 309.546 372.355C310.172 372.355 310.623 371.951 310.623 371.347Z" fill="black"/>
<path d="M314.93 368.183C314.93 367.809 315.227 367.518 315.67 367.518C316.114 367.518 316.411 367.793 316.411 368.161C316.411 368.557 316.114 368.847 315.67 368.847C315.228 368.847 314.93 368.557 314.93 368.183ZM315.075 369.42H316.266V373.531H315.075V369.42Z" fill="black"/>
<path d="M321.579 371.178V373.533H320.388V371.362C320.388 370.697 320.082 370.393 319.555 370.393C318.982 370.393 318.57 370.744 318.57 371.5V373.533H317.379V369.422H318.517V369.905C318.838 369.553 319.319 369.361 319.877 369.361C320.845 369.359 321.579 369.926 321.579 371.178Z" fill="black"/>
</g>
<path d="M362.269 384.552H179.762V415.803H362.269V384.552Z" fill="#6C7C6C"/>
<path d="M247.451 405.033L245.143 401.748C244.929 401.763 244.7 401.777 244.471 401.777H241.828V405.033H240.299V394.335H244.471C247.253 394.335 248.933 395.741 248.933 398.064C248.933 399.715 248.078 400.907 246.58 401.442L249.116 405.033H247.451ZM247.405 398.062C247.405 396.534 246.381 395.663 244.425 395.663H241.828V400.477H244.425C246.381 400.478 247.405 399.591 247.405 398.062Z" fill="white"/>
<path d="M258.49 401.472H251.919C252.103 402.893 253.248 403.84 254.854 403.84C255.801 403.84 256.596 403.518 257.191 402.862L258.002 403.81C257.268 404.666 256.152 405.124 254.808 405.124C252.193 405.124 250.451 403.398 250.451 400.982C250.451 398.583 252.178 396.856 254.517 396.856C256.855 396.856 258.521 398.537 258.521 401.028C258.519 401.149 258.504 401.334 258.49 401.472ZM251.917 400.417H257.113C256.961 399.056 255.936 398.095 254.516 398.095C253.11 398.095 252.071 399.042 251.917 400.417Z" fill="white"/>
<path d="M268.309 396.933V403.932C268.309 406.79 266.857 408.089 264.106 408.089C262.623 408.089 261.127 407.676 260.241 406.881L260.944 405.75C261.693 406.392 262.869 406.804 264.061 406.804C265.972 406.804 266.843 405.919 266.843 404.084V403.443C266.14 404.284 265.085 404.695 263.923 404.695C261.585 404.695 259.812 403.105 259.812 400.769C259.812 398.431 261.585 396.856 263.923 396.856C265.131 396.856 266.231 397.298 266.918 398.185V396.933H268.309ZM266.871 400.769C266.871 399.194 265.709 398.139 264.089 398.139C262.454 398.139 261.293 399.194 261.293 400.769C261.293 402.327 262.454 403.413 264.089 403.413C265.71 403.412 266.871 402.327 266.871 400.769Z" fill="white"/>
<path d="M270.852 394.426C270.852 393.892 271.28 393.463 271.845 393.463C272.41 393.463 272.838 393.876 272.838 394.397C272.838 394.948 272.425 395.374 271.845 395.374C271.28 395.374 270.852 394.962 270.852 394.426ZM271.111 396.933H272.578V405.033H271.111V396.933Z" fill="white"/>
<path d="M274.357 404.176L274.968 403.014C275.656 403.504 276.757 403.856 277.811 403.856C279.171 403.856 279.738 403.443 279.738 402.755C279.738 400.936 274.618 402.511 274.618 399.287C274.618 397.835 275.917 396.857 277.995 396.857C279.05 396.857 280.241 397.132 280.944 397.59L280.318 398.751C279.584 398.277 278.774 398.11 277.98 398.11C276.697 398.11 276.069 398.584 276.069 399.226C276.069 401.135 281.205 399.577 281.205 402.726C281.205 404.193 279.86 405.125 277.705 405.125C276.359 405.123 275.03 404.711 274.357 404.176Z" fill="white"/>
<path d="M287.594 404.559C287.15 404.941 286.478 405.124 285.821 405.124C284.186 405.124 283.254 404.221 283.254 402.588V398.141H281.879V396.934H283.254V395.161H284.722V396.934H287.044V398.141H284.722V402.528C284.722 403.399 285.181 403.889 285.99 403.889C286.418 403.889 286.829 403.751 287.136 403.507L287.594 404.559Z" fill="white"/>
<path d="M296.387 401.472H289.814C289.998 402.893 291.143 403.84 292.749 403.84C293.696 403.84 294.491 403.518 295.087 402.862L295.897 403.81C295.163 404.666 294.047 405.124 292.703 405.124C290.089 405.124 288.348 403.398 288.348 400.982C288.348 398.583 290.075 396.856 292.414 396.856C294.752 396.856 296.417 398.537 296.417 401.028C296.416 401.149 296.401 401.334 296.387 401.472ZM289.814 400.417H295.01C294.858 399.056 293.832 398.095 292.412 398.095C291.006 398.095 289.967 399.042 289.814 400.417Z" fill="white"/>
<path d="M302.811 396.856V398.277C302.69 398.262 302.583 398.262 302.475 398.262C300.902 398.262 299.923 399.224 299.923 400.997V405.033H298.455V396.933H299.861V398.294C300.381 397.345 301.39 396.856 302.811 396.856Z" fill="white"/>
<g opacity="0.6">
<path d="M239.068 171.096L239.688 169.79C240.558 170.577 242.047 171.146 243.553 171.146C245.577 171.146 246.447 170.359 246.447 169.34C246.447 166.479 239.354 168.286 239.354 163.936C239.354 162.129 240.759 160.591 243.838 160.591C245.209 160.591 246.632 160.959 247.602 161.628L247.05 162.968C246.03 162.315 244.875 162.013 243.838 162.013C241.847 162.013 240.995 162.85 240.995 163.87C240.995 166.731 248.088 164.941 248.088 169.24C248.088 171.03 246.65 172.57 243.554 172.57C241.762 172.569 240.006 171.966 239.068 171.096Z" fill="#263238"/>
<path d="M250.016 160.825C250.016 160.239 250.483 159.771 251.102 159.771C251.722 159.771 252.19 160.222 252.19 160.792C252.19 161.394 251.738 161.863 251.102 161.863C250.483 161.861 250.016 161.41 250.016 160.825ZM250.3 163.567H251.906V172.435H250.3V163.567Z" fill="#263238"/>
<path d="M263.454 163.568V171.23C263.454 174.359 261.865 175.782 258.853 175.782C257.23 175.782 255.591 175.33 254.62 174.459L255.39 173.22C256.21 173.923 257.497 174.375 258.803 174.375C260.894 174.375 261.848 173.406 261.848 171.397V170.694C261.08 171.615 259.925 172.067 258.652 172.067C256.093 172.067 254.152 170.326 254.152 167.766C254.152 165.207 256.093 163.484 258.652 163.484C259.973 163.484 261.179 163.969 261.932 164.939V163.568H263.454ZM261.882 167.768C261.882 166.045 260.611 164.89 258.836 164.89C257.047 164.89 255.775 166.045 255.775 167.768C255.775 169.474 257.047 170.662 258.836 170.662C260.611 170.661 261.882 169.474 261.882 167.768Z" fill="#263238"/>
<path d="M274.934 167.332V172.435H273.328V167.516C273.328 165.776 272.459 164.923 270.936 164.923C269.228 164.923 268.125 165.944 268.125 167.868V172.435H266.52V163.567H268.06V164.906C268.712 164.004 269.849 163.484 271.254 163.484C273.412 163.484 274.934 164.722 274.934 167.332Z" fill="#263238"/>
<path d="M290.687 163.567V172.435H289.165V171.096C288.512 172.016 287.408 172.534 286.153 172.534C283.861 172.534 282.338 171.28 282.338 168.669V163.566H283.943V168.484C283.943 170.225 284.814 171.094 286.336 171.094C288.008 171.094 289.08 170.056 289.08 168.15V163.566L290.687 163.567Z" fill="#263238"/>
<path d="M302.938 168.002C302.938 170.729 301.048 172.535 298.455 172.535C297.201 172.535 296.096 172.05 295.359 171.097V175.681H293.754V163.569H295.294V164.973C296.014 163.986 297.151 163.485 298.456 163.485C301.047 163.484 302.938 165.292 302.938 168.002ZM301.314 168.002C301.314 166.128 300.027 164.89 298.321 164.89C296.632 164.89 295.343 166.128 295.343 168.002C295.343 169.892 296.63 171.131 298.321 171.131C300.027 171.129 301.314 169.892 301.314 168.002Z" fill="#263238"/>
</g>
<path d="M362.269 237.963H179.762V269.213H362.269V237.963Z" fill="white"/>
<g opacity="0.4">
<path d="M189.75 248.493H190.697V256.628H195.712V257.447H189.751V248.493H189.75Z" fill="#263238"/>
<path d="M202.199 253.278V257.447H201.329V256.398C200.92 257.089 200.126 257.511 199.013 257.511C197.491 257.511 196.557 256.719 196.557 255.554C196.557 254.519 197.222 253.649 199.154 253.649H201.29V253.24C201.29 252.089 200.637 251.462 199.384 251.462C198.514 251.462 197.695 251.77 197.145 252.255L196.735 251.577C197.413 251.001 198.41 250.669 199.472 250.669C201.214 250.666 202.199 251.537 202.199 253.278ZM201.291 255.427V254.327H199.18C197.875 254.327 197.454 254.839 197.454 255.529C197.454 256.309 198.08 256.794 199.155 256.794C200.178 256.794 200.933 256.307 201.291 255.427Z" fill="#263238"/>
<path d="M203.732 256.68L204.143 255.963C204.68 256.386 205.589 256.718 206.535 256.718C207.814 256.718 208.34 256.282 208.34 255.617C208.34 253.865 203.978 255.246 203.978 252.586C203.978 251.485 204.925 250.666 206.639 250.666C207.508 250.666 208.456 250.911 209.018 251.293L208.622 252.022C208.033 251.612 207.33 251.446 206.639 251.446C205.423 251.446 204.887 251.919 204.887 252.559C204.887 254.375 209.249 253.007 209.249 255.592C209.249 256.755 208.227 257.51 206.473 257.51C205.358 257.511 204.282 257.153 203.732 256.68Z" fill="#263238"/>
<path d="M214.467 257.038C214.109 257.358 213.572 257.511 213.047 257.511C211.78 257.511 211.077 256.794 211.077 255.554V251.487H209.875V250.719H211.077V249.248H211.986V250.719H214.032V251.487H211.986V255.504C211.986 256.296 212.394 256.732 213.149 256.732C213.52 256.732 213.891 256.617 214.146 256.387L214.467 257.038Z" fill="#263238"/>
<path d="M227.142 248.493V257.447H226.361L220.605 250.181V257.447H219.658V248.493H220.439L226.209 255.759V248.493H227.142Z" fill="#263238"/>
<path d="M234.948 253.278V257.447H234.079V256.398C233.669 257.089 232.876 257.511 231.763 257.511C230.241 257.511 229.307 256.719 229.307 255.554C229.307 254.519 229.972 253.649 231.904 253.649H234.04V253.24C234.04 252.089 233.387 251.462 232.134 251.462C231.264 251.462 230.446 251.77 229.895 252.255L229.487 251.577C230.165 251.001 231.162 250.669 232.223 250.669C233.963 250.666 234.948 251.537 234.948 253.278ZM234.04 255.427V254.327H231.929C230.623 254.327 230.202 254.839 230.202 255.529C230.202 256.309 230.829 256.794 231.904 256.794C232.926 256.794 233.681 256.307 234.04 255.427Z" fill="#263238"/>
<path d="M248.52 253.545V257.447H247.611V253.636C247.611 252.215 246.895 251.487 245.68 251.487C244.299 251.487 243.428 252.383 243.428 253.917V257.447H242.52V253.636C242.52 252.215 241.803 251.487 240.576 251.487C239.207 251.487 238.324 252.383 238.324 253.917V257.447H237.416V250.719H238.285V251.947C238.758 251.142 239.628 250.668 240.754 250.668C241.867 250.668 242.736 251.142 243.146 252.089C243.633 251.219 244.593 250.668 245.808 250.668C247.445 250.666 248.52 251.613 248.52 253.545Z" fill="#263238"/>
<path d="M256.875 254.364H251.247C251.35 255.772 252.424 256.706 253.894 256.706C254.713 256.706 255.442 256.412 255.954 255.823L256.466 256.412C255.865 257.128 254.931 257.511 253.87 257.511C251.772 257.511 250.34 256.079 250.34 254.084C250.34 252.088 251.733 250.668 253.628 250.668C255.521 250.668 256.889 252.063 256.889 254.084C256.889 254.159 256.875 254.262 256.875 254.364ZM251.247 253.685H256.019C255.903 252.368 254.944 251.447 253.626 251.447C252.322 251.447 251.362 252.368 251.247 253.685Z" fill="#263238"/>
</g>
<path d="M362.269 195.274H179.762V226.524H362.269V195.274Z" fill="white"/>
<g opacity="0.4">
<path d="M190.693 206.622V210.14H195.324V210.959H190.693V214.758H189.746V205.804H195.887V206.623L190.693 206.622Z" fill="#263238"/>
<path d="M197.322 205.906C197.322 205.56 197.617 205.267 197.988 205.267C198.359 205.267 198.653 205.549 198.653 205.895C198.653 206.266 198.371 206.56 197.988 206.56C197.615 206.558 197.322 206.263 197.322 205.906ZM197.526 208.029H198.434V214.758H197.526V208.029Z" fill="#263238"/>
<path d="M204.358 207.978V208.861C204.282 208.861 204.205 208.848 204.141 208.848C202.733 208.848 201.877 209.744 201.877 211.33V214.758H200.969V208.029H201.839V209.348C202.26 208.452 203.118 207.978 204.358 207.978Z" fill="#263238"/>
<path d="M205.111 213.99L205.52 213.273C206.057 213.696 206.967 214.028 207.912 214.028C209.191 214.028 209.716 213.594 209.716 212.928C209.716 211.176 205.354 212.557 205.354 209.897C205.354 208.798 206.301 207.978 208.016 207.978C208.886 207.978 209.832 208.22 210.395 208.604L209.999 209.334C209.41 208.925 208.707 208.758 208.017 208.758C206.801 208.758 206.265 209.23 206.265 209.871C206.265 211.687 210.627 210.318 210.627 212.902C210.627 214.067 209.604 214.821 207.851 214.821C206.738 214.823 205.662 214.464 205.111 213.99Z" fill="#263238"/>
<path d="M215.846 214.348C215.487 214.668 214.95 214.821 214.426 214.821C213.159 214.821 212.456 214.104 212.456 212.864V208.796H211.254V208.029H212.456V206.558H213.364V208.029H215.411V208.796H213.364V212.812C213.364 213.606 213.775 214.04 214.529 214.04C214.9 214.04 215.271 213.924 215.527 213.695L215.846 214.348Z" fill="#263238"/>
<path d="M228.523 205.803V214.757H227.742L221.986 207.491V214.757H221.039V205.803H221.82L227.59 213.069V205.803H228.523Z" fill="#263238"/>
<path d="M236.326 210.588V214.758H235.456V213.709C235.046 214.4 234.253 214.823 233.14 214.823C231.618 214.823 230.684 214.029 230.684 212.865C230.684 211.829 231.349 210.96 233.281 210.96H235.417V210.55C235.417 209.399 234.764 208.771 233.511 208.771C232.641 208.771 231.822 209.078 231.272 209.565L230.864 208.887C231.541 208.311 232.539 207.979 233.6 207.979C235.34 207.978 236.326 208.848 236.326 210.588ZM235.417 212.737V211.637H233.306C232 211.637 231.579 212.148 231.579 212.839C231.579 213.619 232.205 214.106 233.281 214.106C234.305 214.106 235.059 213.619 235.417 212.737Z" fill="#263238"/>
<path d="M249.899 210.857V214.758H248.99V210.946C248.99 209.526 248.273 208.798 247.058 208.798C245.677 208.798 244.807 209.694 244.807 211.228V214.758H243.899V210.946C243.899 209.526 243.182 208.798 241.954 208.798C240.586 208.798 239.703 209.694 239.703 211.228V214.758H238.795V208.029H239.665V209.257C240.138 208.451 241.009 207.978 242.134 207.978C243.248 207.978 244.117 208.451 244.527 209.398C245.013 208.527 245.973 207.978 247.188 207.978C248.824 207.978 249.899 208.925 249.899 210.857Z" fill="#263238"/>
<path d="M258.254 211.676H252.625C252.729 213.083 253.803 214.016 255.273 214.016C256.092 214.016 256.821 213.722 257.333 213.133L257.845 213.722C257.244 214.438 256.309 214.823 255.249 214.823C253.151 214.823 251.719 213.39 251.719 211.394C251.719 209.398 253.112 207.978 255.007 207.978C256.9 207.978 258.268 209.373 258.268 211.394C258.267 211.471 258.254 211.573 258.254 211.676ZM252.625 210.996H257.397C257.282 209.68 256.323 208.758 255.005 208.758C253.7 208.759 252.74 209.68 252.625 210.996Z" fill="#263238"/>
</g>
<path d="M137.032 405.362C137.032 405.362 127.798 397.663 119.88 405.362C111.962 413.06 110.434 460.756 110.434 460.756" stroke="#6C7C6C" stroke-width="0.9446" stroke-miterlimit="10"/>
<path d="M109.778 469.965C109.778 469.965 115.221 413.992 94.7266 390.47" stroke="#6C7C6C" stroke-width="0.9446" stroke-miterlimit="10"/>
<path d="M111.731 464.066C111.731 464.066 107.539 400.346 122.91 386.208" stroke="#6C7C6C" stroke-width="0.9446" stroke-miterlimit="10"/>
<path d="M109.779 464.066C109.779 464.066 109.422 421.96 97.9993 415.414C86.5763 408.869 80.7539 430.217 80.7539 430.217" stroke="#6C7C6C" stroke-width="0.9446" stroke-miterlimit="10"/>
<path d="M114.293 464.066C114.293 464.066 112.429 431.741 121.28 420.188C130.129 408.636 139.446 425.137 139.446 425.137" stroke="#6C7C6C" stroke-width="0.9446" stroke-miterlimit="10"/>
<path d="M111.207 468.396C111.207 468.396 116.931 392.799 107.459 379.99" stroke="#6C7C6C" stroke-width="0.9446" stroke-miterlimit="10"/>
<path d="M88.218 421.549C88.218 421.549 93.9135 423.648 92.22 428.605C90.5266 433.563 72.5167 441.721 72.5167 441.721C72.5167 441.721 64.9744 434.807 71.9016 423.563C78.8288 412.32 88.0646 418.001 88.218 421.549Z" fill="#6C7C6C"/>
<path opacity="0.2" d="M88.218 421.549C88.218 421.549 93.9135 423.648 92.22 428.605C90.5266 433.563 72.5167 441.721 72.5167 441.721C72.5167 441.721 64.9744 434.807 71.9016 423.563C78.8288 412.32 88.0646 418.001 88.218 421.549Z" fill="black"/>
<path d="M112.975 412.112C112.975 412.112 106.91 411.858 106.565 417.085C106.221 422.312 119.704 436.773 119.704 436.773C119.704 436.773 129.326 433.294 127.259 420.25C125.193 407.208 114.483 408.897 112.975 412.112Z" fill="#6C7C6C"/>
<path opacity="0.2" d="M112.975 412.112C112.975 412.112 106.91 411.858 106.565 417.085C106.221 422.312 119.704 436.773 119.704 436.773C119.704 436.773 129.326 433.294 127.259 420.25C125.193 407.208 114.483 408.897 112.975 412.112Z" fill="black"/>
<path d="M118.111 387.091C118.111 387.091 114.067 386.657 114.394 384.194C114.719 381.731 130.113 375.392 139.194 385.642C139.194 385.642 133.379 395.631 124.973 395.762C116.567 395.893 118.111 387.091 118.111 387.091Z" fill="#6C7C6C"/>
<path opacity="0.2" d="M118.111 387.091C118.111 387.091 114.067 386.657 114.394 384.194C114.719 381.731 130.113 375.392 139.194 385.642C139.194 385.642 133.379 395.631 124.973 395.762C116.567 395.893 118.111 387.091 118.111 387.091Z" fill="black"/>
<path d="M110.577 381.11C110.577 381.11 114.239 382.88 115.264 380.617C116.291 378.355 106.579 364.834 93.45 368.73C93.45 368.73 93.1027 380.284 100.168 384.84C107.232 389.397 110.577 381.11 110.577 381.11Z" fill="#6C7C6C"/>
<path opacity="0.2" d="M110.577 381.11C110.577 381.11 114.239 382.88 115.264 380.617C116.291 378.355 106.579 364.834 93.45 368.73C93.45 368.73 93.1027 380.284 100.168 384.84C107.232 389.397 110.577 381.11 110.577 381.11Z" fill="black"/>
<path d="M129.721 419.555C129.721 419.555 126.93 417.303 129.941 416.202C132.953 415.103 147.731 415.415 147.884 430.054C147.884 430.054 130.674 432.913 128.542 427.338C126.414 421.762 129.721 419.555 129.721 419.555Z" fill="#6C7C6C"/>
<path opacity="0.2" d="M129.721 419.555C129.721 419.555 126.93 417.303 129.941 416.202C132.953 415.103 147.731 415.415 147.884 430.054C147.884 430.054 130.674 432.913 128.542 427.338C126.414 421.762 129.721 419.555 129.721 419.555Z" fill="black"/>
<path d="M94.6242 386.724C94.6242 386.724 97.4155 384.472 94.4038 383.371C91.3922 382.27 76.6144 382.583 76.4609 397.221C76.4609 397.221 93.6715 400.082 95.8029 394.505C97.9316 388.931 94.6242 386.724 94.6242 386.724Z" fill="#6C7C6C"/>
<path opacity="0.2" d="M94.6242 386.724C94.6242 386.724 97.4155 384.472 94.4038 383.371C91.3922 382.27 76.6144 382.583 76.4609 397.221C76.4609 397.221 93.6715 400.082 95.8029 394.505C97.9316 388.931 94.6242 386.724 94.6242 386.724Z" fill="black"/>
<path d="M103.725 398.516C103.725 398.516 103.971 395.776 101.76 396.85C99.549 397.924 91.8449 406.235 99.8308 414.122C99.8308 414.122 110.58 406.161 108.643 402.016C106.704 397.868 103.725 398.516 103.725 398.516Z" fill="#6C7C6C"/>
<path opacity="0.2" d="M103.725 398.516C103.725 398.516 103.971 395.776 101.76 396.85C99.549 397.924 91.8449 406.235 99.8308 414.122C99.8308 414.122 110.58 406.161 108.643 402.016C106.704 397.868 103.725 398.516 103.725 398.516Z" fill="black"/>
<path d="M132.217 402.42C132.217 402.42 130.549 400.234 132.993 399.963C135.435 399.693 146.386 402.615 143.836 413.544C143.836 413.544 130.496 412.541 129.925 408.001C129.352 403.46 132.217 402.42 132.217 402.42Z" fill="#6C7C6C"/>
<path opacity="0.2" d="M132.217 402.42C132.217 402.42 130.549 400.234 132.993 399.963C135.435 399.693 146.386 402.615 143.836 413.544C143.836 413.544 130.496 412.541 129.925 408.001C129.352 403.46 132.217 402.42 132.217 402.42Z" fill="black"/>
<path d="M89.2103 504.643H132.334L138.066 462.709H83.4785L89.2103 504.643Z" fill="#263238"/>
<path opacity="0.2" d="M89.2103 504.643H132.334L138.066 462.709H83.4785L89.2103 504.643Z" fill="white"/>
<path d="M143.473 459.309V463.293C143.473 465.959 141.312 468.121 138.645 468.121H82.363C79.6973 468.121 77.5352 465.96 77.5352 463.293V459.309H143.473Z" fill="#263238"/>
<path d="M502.749 61.8706H462.675C455.86 61.8706 450.336 67.3959 450.336 74.2101V109.086C450.336 115.9 455.861 121.425 462.675 121.425H474.376L471.547 132.437L482.674 121.425H502.749C509.563 121.425 515.088 115.902 515.088 109.086V74.2101C515.088 67.3959 509.564 61.8706 502.749 61.8706Z" fill="#6C7C6C"/>
<path opacity="0.7" d="M502.749 61.8706H462.675C455.86 61.8706 450.336 67.3959 450.336 74.2101V109.086C450.336 115.9 455.861 121.425 462.675 121.425H474.376L471.547 132.437L482.674 121.425H502.749C509.563 121.425 515.088 115.902 515.088 109.086V74.2101C515.088 67.3959 509.564 61.8706 502.749 61.8706Z" fill="white"/>
<path d="M496.77 105.563C504.537 97.7961 504.537 85.2033 496.77 77.4364C489.003 69.6694 476.41 69.6694 468.643 77.4364C460.876 85.2034 460.876 97.7961 468.643 105.563C476.41 113.33 489.003 113.33 496.77 105.563Z" fill="#6C7C6C"/>
<path d="M480.625 100.382C480.088 100.382 479.579 100.146 479.231 99.7372L471.428 90.5432C470.775 89.7732 470.87 88.621 471.639 87.9668C472.407 87.3154 473.561 87.4074 474.215 88.1774L480.625 95.7296L491.209 83.2589C491.864 82.4876 493.017 82.3955 493.786 83.0483C494.556 83.7011 494.651 84.8547 493.996 85.6247L482.018 99.7386C481.671 100.146 481.162 100.382 480.625 100.382Z" fill="white"/>
<path d="M495.814 277.039C495.814 277.039 471.521 273.981 434.729 284.068C434.729 284.068 428.806 218.314 429.512 209.282C430.217 200.25 486.317 202.894 486.317 202.894C486.317 202.894 487.765 229.211 491.375 245.089C494.985 260.966 497.663 273.985 495.814 277.039Z" fill="#6C7C6C"/>
<path opacity="0.2" d="M495.814 277.039C495.814 277.039 471.521 273.981 434.729 284.068C434.729 284.068 428.806 218.314 429.512 209.282C430.217 200.25 486.317 202.894 486.317 202.894C486.317 202.894 487.765 229.211 491.375 245.089C494.985 260.966 497.663 273.985 495.814 277.039Z" fill="black"/>
<path d="M416.977 494.736L426.881 497.54L429.238 482.126L430.507 473.882L420.603 471.078L418.916 482.126L416.977 494.736Z" fill="#E4897B"/>
<path d="M473.918 495.545L484.129 496.898L484.226 482.126L484.296 472.947L474.071 471.608L474.002 482.126L473.918 495.545Z" fill="#E4897B"/>
<path opacity="0.2" d="M474.068 471.608L473.998 482.126H484.223L484.293 472.947L474.068 471.608Z" fill="black"/>
<path opacity="0.2" d="M418.912 482.126H429.235L430.504 473.882L420.6 471.078L418.912 482.126Z" fill="black"/>
<path d="M373.009 214.62L363.178 211.714L364.973 222.942C364.973 222.942 373.901 225.005 374.77 220.36L373.009 214.62Z" fill="#E4897B"/>
<path d="M353.363 214.321L358.184 223.451L364.972 222.941L363.177 211.714L353.363 214.321Z" fill="#E4897B"/>
<path d="M386.582 217.489L370.436 213.875L368.969 221.717L383.628 225.292L386.582 217.489Z" fill="#E4897B"/>
<path d="M435.451 210.413C435.451 210.413 435.103 210.831 434.503 211.543C432.466 213.928 427.486 219.689 422.381 224.655C418.196 228.7 413.956 232.229 411.194 232.941C403.285 234.977 374.535 226.51 374.535 226.51L377.506 214.849C377.506 214.849 404.289 218.406 406.367 218.406C407.944 218.406 424.236 194.804 428.184 192.865L435.451 210.413Z" fill="#6C7C6C"/>
<path opacity="0.2" d="M434.503 211.543C432.466 213.928 427.486 219.689 422.381 224.655C423.413 216.481 426.412 208.976 430.36 204.233C430.778 203.731 431.197 203.313 431.615 203.006L434.503 211.543Z" fill="black"/>
<path d="M417.098 493.19L428.345 492.888C428.766 492.876 429.141 493.158 429.247 493.564L431.61 502.621C431.856 503.56 431.167 504.475 430.195 504.485C426.135 504.525 420.264 504.447 415.164 504.584C409.201 504.745 405.411 504.452 398.418 504.64C394.19 504.754 392.864 500.53 394.62 500.098C402.614 498.127 407.84 498.516 414.648 494.055C415.386 493.571 416.209 493.214 417.098 493.19Z" fill="#263238"/>
<path d="M416.134 494.634C416.125 494.638 416.114 494.641 416.102 494.644C414.456 495.018 411.519 495.502 410.352 494.536C410.001 494.245 409.834 493.853 409.853 493.367C409.866 493.079 409.997 492.851 410.233 492.71C411.463 491.971 415.674 493.962 416.15 494.189C416.243 494.234 416.299 494.333 416.288 494.435C416.28 494.525 416.218 494.602 416.134 494.634ZM410.573 493.087C410.541 493.1 410.512 493.112 410.485 493.127C410.389 493.185 410.345 493.263 410.34 493.391C410.327 493.72 410.432 493.973 410.662 494.164C411.316 494.705 413.014 494.758 415.275 494.32C413.615 493.589 411.34 492.798 410.573 493.087Z" fill="#6C7C6C"/>
<path d="M416.134 494.634C416.077 494.656 416.013 494.656 415.954 494.631C414.692 494.11 412.149 491.959 412.295 490.795C412.33 490.522 412.511 490.18 413.18 490.092C413.676 490.028 414.135 490.156 414.548 490.472C415.897 491.507 416.273 494.26 416.289 494.377C416.3 494.464 416.265 494.548 416.195 494.601C416.176 494.615 416.155 494.626 416.134 494.634ZM412.998 490.631C412.799 490.706 412.785 490.816 412.779 490.859C412.691 491.558 414.428 493.255 415.724 493.98C415.562 493.176 415.137 491.535 414.251 490.855C413.943 490.618 413.613 490.526 413.245 490.573C413.142 490.587 413.061 490.607 412.998 490.631Z" fill="#6C7C6C"/>
<path d="M474.322 493.19L485.569 492.888C485.991 492.876 486.366 493.158 486.472 493.564L488.835 502.621C489.08 503.56 488.391 504.475 487.419 504.485C483.36 504.525 477.489 504.447 472.389 504.584C466.426 504.744 462.636 504.451 455.643 504.64C451.415 504.754 450.088 500.53 451.844 500.098C459.839 498.127 465.064 498.516 471.873 494.055C472.609 493.571 473.434 493.214 474.322 493.19Z" fill="#263238"/>
<path d="M473.361 494.634C473.351 494.638 473.34 494.641 473.329 494.644C471.682 495.018 468.745 495.502 467.579 494.536C467.228 494.245 467.06 493.853 467.08 493.368C467.092 493.079 467.223 492.851 467.459 492.711C468.689 491.971 472.901 493.962 473.376 494.189C473.47 494.234 473.526 494.333 473.514 494.435C473.506 494.525 473.445 494.602 473.361 494.634ZM467.799 493.087C467.767 493.1 467.738 493.112 467.712 493.128C467.615 493.185 467.572 493.263 467.568 493.391C467.555 493.72 467.66 493.973 467.89 494.164C468.544 494.705 470.242 494.758 472.503 494.32C470.842 493.589 468.567 492.798 467.799 493.087Z" fill="#6C7C6C"/>
<path d="M473.36 494.634C473.303 494.656 473.239 494.656 473.181 494.631C471.918 494.11 469.375 491.959 469.522 490.795C469.557 490.522 469.738 490.18 470.406 490.092C470.903 490.028 471.363 490.156 471.774 490.472C473.123 491.507 473.5 494.26 473.515 494.377C473.526 494.464 473.492 494.548 473.422 494.601C473.402 494.615 473.381 494.626 473.36 494.634ZM470.225 490.631C470.025 490.706 470.011 490.816 470.006 490.859C469.918 491.558 471.654 493.255 472.95 493.98C472.789 493.176 472.363 491.535 471.477 490.855C471.169 490.618 470.84 490.526 470.473 490.573C470.367 490.587 470.287 490.607 470.225 490.631Z" fill="#6C7C6C"/>
<path d="M494.979 271.04C500.389 294.497 491.105 478.975 491.105 478.975H473.164L465.493 325.233L437.239 478.975L418.064 477.578C430.599 358.484 441.68 287.381 441.68 287.381L441.654 278.396L494.979 271.04Z" fill="#263238"/>
<path opacity="0.4" d="M418.062 477.578L437.243 478.973L459.478 357.95L465.49 325.239L473.162 478.973H491.101C491.101 478.973 500.391 294.495 494.979 271.046L441.651 278.397L441.679 287.38C441.679 287.38 430.603 358.48 418.062 477.578Z" fill="white"/>
<path d="M485.318 184.183C484.67 195.672 485.162 207.131 486.172 217.802C486.915 225.608 487.955 232.988 489.057 239.648C491.636 255.258 494.565 266.958 494.982 271.041C487.168 272.122 457.717 276.186 441.657 278.396C422.212 224.025 429.535 192.378 429.535 192.378C429.535 192.378 435.095 190.003 441.766 188.193C442.643 187.949 443.542 187.729 444.457 187.518C450.378 186.146 460.271 185.005 467.128 184.389C468.571 184.261 470.037 184.169 471.468 184.102C478.752 183.77 485.318 184.183 485.318 184.183Z" fill="#263238"/>
<path d="M456.774 159.716C457.165 167.184 457.958 181.186 464.163 184.737C464.163 184.737 460.3 192.095 451.943 192.842C445.623 193.409 446.043 187.175 446.043 187.175C449.699 184.442 448.822 179.826 446.039 174.622L456.774 159.716Z" fill="#E4897B"/>
<path opacity="0.2" d="M452.402 165.796L446.047 174.614C446.711 175.844 447.304 177.112 447.722 178.381C450.661 177.207 454.012 172.863 453.535 169.606C453.298 167.981 452.847 166.473 452.402 165.796Z" fill="black"/>
<path d="M429.577 144.699C428.358 148.57 429.026 156.524 434.436 153.938C439.845 151.352 431.672 138.046 429.577 144.699Z" fill="#263238"/>
<path d="M457.471 149.93C458.066 159.88 458.922 165.679 454.535 171.31C447.937 179.78 435.156 176.621 431.59 167.021C428.38 158.379 427.948 143.56 437.167 138.543C446.251 133.601 456.877 139.98 457.471 149.93Z" fill="#E4897B"/>
<path d="M450.496 144.521V133.405C450.496 133.405 462.328 132.526 461.802 138.581C468.355 141.832 465.257 152.027 456.455 157.026C451.632 153.165 452.183 143.867 452.183 143.867C451.662 144.097 451.09 144.313 450.496 144.521Z" fill="#263238"/>
<path d="M462.285 157.7C461.805 160.339 460.143 162.5 458.304 163.711C455.535 165.533 453.113 163.294 453.014 160.148C452.925 157.317 454.258 152.957 457.455 152.397C460.604 151.846 462.834 154.683 462.285 157.7Z" fill="#E4897B"/>
<path d="M442.78 154.372C442.877 155.177 442.53 155.877 442.003 155.936C441.475 155.994 440.969 155.39 440.87 154.585C440.772 153.78 441.12 153.08 441.647 153.022C442.174 152.963 442.682 153.567 442.78 154.372Z" fill="#263238"/>
<path d="M433.658 155.39C433.756 156.195 433.409 156.895 432.882 156.954C432.354 157.012 431.848 156.408 431.749 155.604C431.651 154.799 431.999 154.098 432.526 154.04C433.053 153.981 433.559 154.585 433.658 155.39Z" fill="#263238"/>
<path d="M436.605 155.467C436.605 155.467 435.268 160.145 433.494 162.543C435.055 163.642 437.407 162.762 437.407 162.762L436.605 155.467Z" fill="#DE5753"/>
<path d="M442.108 165.357C441.783 165.439 441.435 165.502 441.066 165.544C440.935 165.558 440.816 165.464 440.801 165.334C440.784 165.203 440.882 165.086 441.009 165.072C444.552 164.672 445.902 162.024 445.916 161.998C445.973 161.881 446.118 161.834 446.235 161.892C446.354 161.95 446.403 162.094 446.344 162.211C446.291 162.317 445.126 164.602 442.108 165.357Z" fill="#263238"/>
<path d="M445.232 151.12C445.071 151.161 444.893 151.116 444.769 150.986C443.289 149.449 441.559 149.745 441.541 149.748C441.281 149.795 441.032 149.624 440.981 149.367C440.931 149.109 441.103 148.861 441.359 148.813C441.45 148.796 443.619 148.424 445.455 150.332C445.638 150.523 445.633 150.823 445.444 151.005C445.382 151.063 445.308 151.101 445.232 151.12Z" fill="#263238"/>
<path d="M429.349 152.701C429.261 152.723 429.166 152.72 429.074 152.688C428.824 152.6 428.692 152.328 428.778 152.081C429.639 149.597 431.766 149.077 431.858 149.04C432.114 148.979 432.373 149.137 432.437 149.39C432.501 149.644 432.348 149.9 432.094 149.964C432.005 149.982 430.37 150.405 429.68 152.398C429.627 152.554 429.498 152.663 429.349 152.701Z" fill="#263238"/>
<path d="M455.748 148.65C455.748 148.65 448.812 146.107 445.589 142.06C445.589 142.06 439.259 143.716 437.961 146.291C437.961 146.291 435.766 144.451 437.41 142.06C437.41 142.06 432.673 143.06 431.733 146.291C431.733 146.291 429.369 145.481 429.51 142.06C429.51 142.06 427.398 142.855 426.731 146.291C426.731 146.291 421.492 135.392 438.773 132.265C438.773 132.265 437.409 131.69 434.725 131.575C434.725 131.575 446.78 126.71 456.345 131.166C465.911 135.623 464.164 144.176 455.748 148.65Z" fill="#263238"/>
<path d="M499.099 280.424L482.374 282.656C482.374 282.656 475.469 234.406 472.428 218.824V185.542L481.174 183.24L487.911 185.542C489.529 190.94 490.952 198.026 492.194 205.907C493.017 211.124 493.756 216.704 494.412 222.354C495.318 230.054 496.072 237.893 496.713 245.23C497.718 257.073 498.387 267.563 498.75 273.952C498.987 278.025 499.099 280.424 499.099 280.424Z" fill="#6C7C6C"/>
<path d="M472.431 218.82C472.431 218.82 473.82 195.346 481.178 183.236C481.178 183.236 480.994 179.771 479.522 179.218C478.051 178.666 472.431 181.977 472.431 181.977C472.431 181.977 468.927 179.586 468.155 180.69C467.384 181.793 465.522 189.259 472.431 218.82Z" fill="#6C7C6C"/>
<path opacity="0.7" d="M472.431 218.82C472.431 218.82 473.82 195.346 481.178 183.236C481.178 183.236 480.994 179.771 479.522 179.218C478.051 178.666 472.431 181.977 472.431 181.977C472.431 181.977 468.927 179.586 468.155 180.69C467.384 181.793 465.522 189.259 472.431 218.82Z" fill="white"/>
<path d="M434.372 286.884L436.283 288.265C436.283 288.265 433.521 272.706 434.637 233.369C434.692 231.472 434.762 229.645 434.832 227.901C436.255 194.618 441.416 188.564 441.751 188.201L436.924 189.847L428.178 192.86C425.598 221.261 434.372 286.884 434.372 286.884Z" fill="#6C7C6C"/>
<path d="M435.13 222.175C435.13 222.175 430.299 199.362 431.736 191.498C433.171 183.633 438.323 187.127 438.323 187.127C438.323 187.127 443.055 183.308 444.46 187.517C444.46 187.517 437.964 192.093 435.13 222.175Z" fill="#6C7C6C"/>
<path opacity="0.7" d="M435.13 222.175C435.13 222.175 430.299 199.362 431.736 191.498C433.171 183.633 438.323 187.127 438.323 187.127C438.323 187.127 443.055 183.308 444.46 187.517C444.46 187.517 437.964 192.093 435.13 222.175Z" fill="white"/>
<path opacity="0.2" d="M494.415 222.353C487.273 218.35 486.324 207.902 486.324 207.902C486.757 207.735 489.407 206.828 492.197 205.907C493.02 211.124 493.759 216.704 494.415 222.353Z" fill="black"/>
<path opacity="0.2" d="M459.478 357.95L465.49 325.239L464.332 307.928C464.332 307.928 456.088 337.947 459.478 357.95Z" fill="black"/>
<path opacity="0.2" d="M498.754 273.952C494.262 273.645 490.37 273.352 490.37 273.352L489.52 255.092C489.52 255.092 490.97 253.879 494.22 254.227C494.22 254.227 495.685 250.656 496.717 245.23C497.722 257.073 498.391 267.563 498.754 273.952Z" fill="black"/>
<path d="M500.285 245.212L491.539 259.256L498.456 263.233L506.674 250.578L500.285 245.212Z" fill="#E4897B"/>
<path d="M487.565 185.366C493.454 186.013 518.471 220.352 519.574 230.705C520.677 241.057 504.879 258.926 504.879 258.926L494.32 252.714C494.32 252.714 505.042 236.24 505.594 231.843C506.146 227.446 486 209.421 486 209.421C486 209.421 483.8 204.126 483.521 196.504C483.241 188.882 487.565 185.366 487.565 185.366Z" fill="#6C7C6C"/>
<path d="M489.511 255.095C489.511 255.095 498.515 257.027 502.132 262.682C502.132 262.682 498.374 274.469 495.685 275.753C492.997 277.036 486.316 277.036 486.316 277.036C486.316 277.036 485.888 263.925 489.511 255.095Z" fill="#6C7C6C"/>
</svg>
