<svg width="33" height="35" viewBox="0 0 33 35" fill="none" xmlns="http://www.w3.org/2000/svg">
<path d="M32.095 5.86004C31.8913 5.57701 31.6217 5.3466 31.309 5.18827C30.9963 5.02994 30.6496 4.94833 30.2983 4.95033H8.47752C8.46179 4.95033 8.45 4.95811 8.43427 4.9594L7.65716 1.96852C7.53494 1.49746 7.25763 1.08002 6.86897 0.782033C6.48031 0.484046 6.00239 0.322461 5.51059 0.322754H1.26071C1.08693 0.322754 0.920265 0.391019 0.797384 0.512531C0.674503 0.634043 0.605469 0.798849 0.605469 0.970693C0.605469 1.14254 0.674503 1.30734 0.797384 1.42885C0.920265 1.55037 1.08693 1.61863 1.26071 1.61863H5.51059C5.71152 1.61848 5.90678 1.68451 6.06554 1.8063C6.2243 1.92809 6.33751 2.0987 6.38731 2.29119L12.177 24.5906C12.2989 25.0617 12.5759 25.4793 12.9643 25.7775C13.3528 26.0757 13.8305 26.2376 14.3223 26.2377H28.4283C28.602 26.2377 28.7687 26.1694 28.8916 26.0479C29.0145 25.9264 29.0835 25.7616 29.0835 25.5898C29.0835 25.4179 29.0145 25.2531 28.8916 25.1316C28.7687 25.0101 28.602 24.9418 28.4283 24.9418H14.3223C14.1216 24.9417 13.9266 24.8755 13.7681 24.7538C13.6096 24.632 13.4966 24.4615 13.4469 24.2693L12.3723 20.1315H26.6578C27.1229 20.1317 27.5762 19.9871 27.9535 19.7182C28.3307 19.4493 28.6129 19.0698 28.7598 18.6335L32.4003 7.83495C32.5133 7.50568 32.5446 7.15436 32.4914 6.81064C32.4383 6.46692 32.3023 6.14088 32.095 5.86004ZM26.6591 18.8357H12.0355L8.76714 6.24621H30.2983C30.4419 6.24515 30.5836 6.27842 30.7114 6.34318C30.8391 6.40793 30.9492 6.50226 31.0322 6.61813C31.1166 6.73286 31.1719 6.86593 31.1936 7.00617C31.2152 7.14641 31.2026 7.28975 31.1567 7.42416L30.4307 9.57921H18.4214C18.2477 9.57921 18.081 9.64747 17.9581 9.76898C17.8352 9.89049 17.7662 10.0553 17.7662 10.2271C17.7662 10.399 17.8352 10.5638 17.9581 10.6853C18.081 10.8068 18.2477 10.8751 18.4214 10.8751H29.9943L28.8712 14.2068H19.9822C19.8084 14.2068 19.6418 14.275 19.5189 14.3966C19.396 14.5181 19.327 14.6829 19.327 14.8547C19.327 15.0266 19.396 15.1914 19.5189 15.3129C19.6418 15.4344 19.8084 15.5027 19.9822 15.5027H28.4335L27.5162 18.2227C27.457 18.4012 27.3422 18.5567 27.1883 18.6668C27.0343 18.7769 26.8491 18.836 26.6591 18.8357ZM14.5215 28.0921C13.7274 28.0928 12.966 28.4049 12.4044 28.9601C11.8427 29.5152 11.5267 30.268 11.5257 31.0532C11.5257 32.6873 12.8689 34.0156 14.5215 34.0156C16.174 34.0156 17.5172 32.6873 17.5172 31.0532C17.5162 30.268 17.2002 29.5152 16.6385 28.9601C16.0769 28.4049 15.3155 28.0928 14.5215 28.0921ZM14.5215 32.7197C14.1878 32.7199 13.8615 32.6223 13.5839 32.4392C13.3064 32.256 13.09 31.9955 12.9622 31.6907C12.8344 31.3859 12.8009 31.0505 12.8659 30.7268C12.9309 30.4032 13.0916 30.1059 13.3275 29.8726C13.5635 29.6393 13.8641 29.4804 14.1914 29.4161C14.5187 29.3518 14.8579 29.3849 15.1662 29.5113C15.4744 29.6377 15.7378 29.8517 15.923 30.1261C16.1083 30.4006 16.207 30.7232 16.2067 31.0532C16.2067 31.972 15.4506 32.7197 14.5215 32.7197ZM27.0025 28.0921C26.2084 28.0928 25.447 28.4049 24.8854 28.9601C24.3237 29.5152 24.0077 30.268 24.0067 31.0532C24.0067 32.6873 25.3499 34.0156 27.0025 34.0156C28.655 34.0156 29.9982 32.6873 29.9982 31.0532C29.9972 30.268 29.6812 29.5152 29.1195 28.9601C28.5579 28.4049 27.7965 28.0928 27.0025 28.0921ZM27.0025 32.7197C26.6688 32.7199 26.3425 32.6223 26.0649 32.4392C25.7874 32.256 25.571 31.9955 25.4432 31.6907C25.3154 31.3859 25.2819 31.0505 25.3469 30.7268C25.4119 30.4032 25.5726 30.1059 25.8086 29.8726C26.0445 29.6393 26.3451 29.4804 26.6724 29.4161C26.9997 29.3518 27.3389 29.3849 27.6472 29.5113C27.9554 29.6377 28.2188 29.8517 28.404 30.1261C28.5893 30.4006 28.688 30.7232 28.6877 31.0532C28.6877 31.972 27.9316 32.7197 27.0025 32.7197Z" fill="white"/>
</svg>
