<svg width="74" height="73" viewBox="0 0 74 73" fill="none" xmlns="http://www.w3.org/2000/svg">
<path d="M37.2711 71.8063C57.0239 71.8063 73.0525 55.9694 73.0525 36.4143C73.0525 16.8592 57.0239 1.02237 37.2711 1.02237C17.5183 1.02237 1.48965 16.8592 1.48965 36.4143C1.48965 55.9694 17.5183 71.8063 37.2711 71.8063Z" fill="white" stroke="black" stroke-width="1.6496"/>
<path d="M36.8348 53.9009C36.2221 53.9603 36.0381 53.5052 36.0381 53.9009C36.0381 54.6132 35.2839 56.1572 34.3841 56.4144C33.5225 56.6518 33.2736 56.632 31.091 56.0187C28.9274 55.4252 25.9215 55.2867 24.1026 55.6824C23.2028 55.8802 21.7285 55.9989 20.1777 55.9989C18.7417 55.9989 17.1335 56.1374 16.3868 56.2957C15.1231 56.5727 12.8447 57.5026 13.0171 57.6806C13.0745 57.7202 13.7255 57.5817 14.4722 57.3839C15.2189 57.186 16.2336 56.9486 16.7314 56.8892L17.6313 56.731L17.2292 57.5421C16.9994 57.9972 16.4633 58.7292 16.0038 59.1843L15.1997 59.9954L15.9847 59.5998C16.8846 59.1249 17.7844 58.1357 18.1482 57.2256C18.3971 56.5925 18.4162 56.5925 19.7182 56.5925C21.0776 56.5925 21.3647 56.7705 20.5989 57.1266C19.431 57.6806 16.2527 60.9649 16.2527 61.6376C16.2527 61.7167 17.076 60.9649 18.0716 59.9757C19.0864 58.9864 20.1777 58.0368 20.5032 57.8587L21.0967 57.5421L20.9627 58.1752C20.9052 58.5314 20.8478 58.8875 20.8478 58.9666C20.8478 59.0458 20.6372 59.1843 20.3883 59.2436C19.6416 59.4415 18.0716 60.8462 17.7078 61.6376C17.5164 62.0333 17.4207 62.4092 17.4589 62.4685C17.5164 62.5081 17.8993 62.1718 18.3205 61.6969C18.7417 61.2221 19.4501 60.6286 19.8714 60.3911L20.6563 59.9361V60.3911C20.6372 60.9847 19.9671 62.5081 19.4693 63.0621C18.7226 63.8733 19.2395 63.7348 20.0245 62.9038L20.7904 62.1124L21.3839 62.8445C21.7477 63.2995 22.0731 64.0315 22.2072 64.6449C22.3795 65.3769 22.5135 65.6341 22.6475 65.4956C22.9539 65.1791 22.4752 63.2402 21.8051 62.1124C21.269 61.2023 21.2307 61.0638 21.4413 60.312C21.5562 59.8767 21.7094 58.9666 21.7668 58.294L21.9008 57.0871L22.8581 56.7705C23.3942 56.5925 24.1409 56.3748 24.543 56.3155C25.2514 56.177 25.2514 56.177 25.2514 56.8299C25.2514 58.2148 24.1026 59.9559 22.3795 61.1825L21.9008 61.5387L22.4369 61.3408C22.7433 61.2221 23.1836 61.0045 23.3942 60.8462C23.9686 60.4307 24.1026 60.4505 25.0982 61.3408L25.9981 62.1322L25.0599 63.0423C24.0835 63.992 23.5283 64.9614 23.5283 65.7133C23.5283 66.0892 23.6623 65.9507 24.2175 65.0999C24.9068 63.9722 25.9407 62.9434 26.3427 62.9236C26.6491 62.9236 27.166 63.9524 27.166 64.546C27.166 64.8032 27.0511 65.4758 26.898 66.0496C26.5916 67.296 26.8597 67.395 27.3575 66.2474L27.7212 65.4165L27.951 66.3859C28.1425 67.1378 28.219 67.2565 28.3148 66.9597C28.5062 66.4453 28.3531 65.2582 27.8936 63.6556C27.6638 62.884 27.5681 62.2311 27.6638 62.1322C27.817 61.9937 30.1336 61.3408 30.4974 61.3408C30.6889 61.3408 29.9039 62.429 29.2338 63.0819C28.7168 63.5963 28.5062 64.5064 28.8892 64.5064C29.004 64.5064 29.0806 64.3283 29.0806 64.1305C29.0806 63.5963 29.4444 63.3984 29.5784 63.8535C29.7699 64.4668 30.0954 65.0999 30.2294 65.0999C30.306 65.0999 30.3251 64.6251 30.2677 64.0513C30.1911 63.0819 30.2294 62.9236 30.8038 62.2509C31.1484 61.8552 31.5887 61.4397 31.7611 61.3408C32.0674 61.1628 32.0674 61.2023 31.8185 61.9739C31.5696 62.7258 31.5887 63.1214 31.8759 64.1503C31.9334 64.3679 31.8185 64.5262 31.5313 64.6053C30.4017 64.9614 29.0806 66.4849 29.0806 67.4148C29.0806 67.9885 29.3869 68.0083 29.5593 67.4543C29.8656 66.4651 31.8951 64.7636 32.278 65.1791C32.5843 65.4956 32.3929 67.2367 31.9717 67.9687L31.5505 68.7205L31.9908 68.4238C32.5843 68.0281 33.1013 66.9399 33.1013 66.0892C33.1013 65.7133 32.929 64.9219 32.7184 64.3481C32.1823 62.884 32.2206 62.6862 33.197 62.2113L34.0394 61.7959L34.5372 62.3103C34.7861 62.607 35.0733 63.1214 35.1308 63.4776C35.2839 64.2492 35.5903 64.1107 35.5903 63.2599C35.5903 62.8247 35.3988 62.4092 35.0159 61.9739C34.2692 61.1232 34.2883 60.4901 35.0733 59.6987C35.9732 58.7886 36.3561 58.1555 36.3561 57.5619C36.3561 57.2256 36.5284 56.9288 36.8348 56.7112C37.0837 56.5331 37.3326 56.3946 37.3517 56.3946C37.4857 56.3946 37.2751 58.4918 37.122 58.8677C37.0262 59.0853 36.9114 59.5206 36.8348 59.8372C36.7773 60.1735 36.4136 60.7275 36.0498 61.0836C35.3988 61.7167 35.5328 61.7761 36.5284 61.2815C36.7773 61.143 37.1411 60.7077 37.3326 60.2724L37.6581 59.5206L37.8495 60.4505C38.0027 61.1825 37.9835 61.4991 37.7921 61.8156C37.6581 62.0531 37.4666 62.5675 37.4092 62.9632C37.3134 63.4776 37.0454 63.9326 36.5284 64.4075C36.1072 64.7834 35.8775 65.0999 35.9732 65.0999C36.3753 65.0999 37.2943 64.5064 37.6963 63.9722L38.1176 63.4182L38.041 65.0999C37.9835 66.0298 37.8112 67.1575 37.6581 67.6126C37.4857 68.0874 37.4474 68.4633 37.5432 68.4633C37.8112 68.4633 38.826 66.0496 39.1132 64.7438L39.3621 63.6161L39.8407 64.4075C40.3002 65.1593 40.8363 66.5442 41.0086 67.3752C41.0661 67.5928 41.1043 67.3158 41.1235 66.7816C41.1426 65.7133 40.4917 63.9722 39.7833 63.1808C39.5535 62.9632 39.4195 62.5873 39.4578 62.3498C39.5152 61.9937 39.6301 62.0333 40.53 62.884C41.3915 63.6556 41.5639 63.9524 41.6596 64.6449C41.7936 65.6737 42.0425 65.7528 42.1957 64.8229C42.3297 64.1107 42.1191 63.5171 41.4681 62.7653L41.0852 62.3301H41.583C42.2723 62.3301 43.0572 62.7258 43.0572 63.0819C43.0572 63.2599 43.2104 63.5567 43.4019 63.7743C43.6699 64.0909 43.7274 64.5262 43.7274 66.2079C43.7274 67.3356 43.7465 68.2655 43.7848 68.2655C43.8231 68.2655 43.9571 67.9687 44.1103 67.5928C44.4932 66.6431 44.7038 64.2096 44.4166 64.0315C44.3017 63.9524 44.206 63.7941 44.206 63.6754C44.206 63.3193 45.1633 64.3283 45.6803 65.2384C46.2738 66.287 46.6184 66.3464 46.2164 65.3571C45.5271 63.6754 44.3017 62.5477 42.1574 61.6178C40.4725 60.9055 39.6301 60.2724 39.3046 59.4217C39.0174 58.749 39.094 57.6608 39.4578 56.9288C39.611 56.6122 39.6875 56.5925 40.0513 56.8497C40.2811 57.0079 40.7789 57.186 41.1618 57.2651C41.9851 57.4234 42.3488 57.9972 42.368 59.2634C42.3871 60.1537 42.3871 60.1735 42.7126 59.7382C42.9998 59.3821 43.0764 59.3623 43.1721 59.6393C43.2296 59.7976 43.2104 60.035 43.1338 60.1735C43.0572 60.312 43.0955 60.3714 43.2679 60.312C43.7274 60.1537 43.7082 58.9666 43.2487 58.3335C43.019 58.017 42.8658 57.7004 42.9232 57.6608C43.1147 57.4432 44.0146 57.9972 44.4741 58.6303C44.8953 59.1843 44.991 59.5404 45.0293 60.7275C45.0484 61.4991 45.1059 62.1322 45.1442 62.1322C45.1825 62.1322 45.3165 61.9937 45.4314 61.8156C45.6228 61.5584 45.7377 61.5584 46.1781 61.7563C46.5801 61.9541 46.695 62.152 46.7907 62.9038C46.9248 64.0315 47.4608 65.9705 47.5949 65.8122C47.6523 65.7528 47.5949 65.278 47.48 64.7636C47.2119 63.6359 47.3268 60.5296 47.6523 59.5998L47.8821 58.9271L48.4373 59.6195C49.05 60.3714 50.6199 61.5387 51.0603 61.5387C51.1943 61.5387 50.9071 61.1825 50.371 60.7671C49.8541 60.3318 49.2031 59.5998 48.9159 59.1051C48.4373 58.2346 47.8821 56.2957 48.0544 56.0978C48.1884 55.9791 49.4329 56.3155 50.6774 56.8299C51.6538 57.2256 51.673 57.2454 51.5581 57.8983C51.5007 58.2544 51.539 59.1645 51.673 59.9361L51.9027 61.321L51.2901 62.2113C50.6391 63.2204 50.1413 64.5064 50.1413 65.2186C50.1413 65.9507 50.4668 65.7726 50.6199 64.9812C50.754 64.2096 51.4049 63.0027 51.941 62.5477C52.2091 62.3103 52.3431 62.3894 52.9941 63.1412C53.8365 64.1107 54.296 64.0909 53.511 63.1214C53.0324 62.5279 52.3431 60.5494 52.4771 60.1537C52.5728 59.857 54.6406 61.6178 55.0427 62.3103C55.3873 62.9236 55.6937 63.1017 55.6937 62.7258C55.6937 61.875 54.0088 59.7976 52.9941 59.3623C52.4197 59.1051 52.1708 58.472 52.4388 57.9972C52.592 57.74 53.0132 58.0961 54.7364 59.9361C55.8851 61.1628 56.8424 62.0729 56.8424 61.9344C56.8424 61.5387 55.2341 59.3228 54.3151 58.4324C53.8365 57.9972 53.0898 57.3839 52.6494 57.0673C51.6921 56.4144 51.7879 56.2957 53.7599 55.9198L55.081 55.6626L55.483 56.7705C55.9426 58.0565 56.7275 59.1051 57.6274 59.6393C58.2401 59.9954 58.2401 59.9757 57.3594 58.9864C56.8424 58.4324 56.4595 57.8587 56.5169 57.7202C56.6318 57.3641 58.6039 57.4828 59.3697 57.8983L60.0015 58.2346L59.6186 57.7993C59.0825 57.1662 58.1061 56.7903 57.0339 56.7903C56.134 56.7903 55.9043 56.5727 55.8851 55.7219C55.8851 55.623 57.187 55.5834 58.9102 55.6428C61.8013 55.7417 61.8778 55.7417 61.1503 55.4449C60.0398 54.9899 53.6833 54.9899 51.6538 55.4449C50.3519 55.7417 50.0839 55.7417 49.1648 55.5043C48.0352 55.1877 44.3592 55.1086 43.2487 55.3658C42.3106 55.6032 41.5667 54.633 40.9731 53.9009C40.4945 53.3272 40.2619 53.9611 38.9791 53.9215C38.2133 53.8819 37.2177 53.8416 36.8348 53.9009ZM47.1545 56.0385C47.2119 56.177 47.2694 56.6716 47.3268 57.1266L47.4226 57.9378L46.7716 57.6608C46.427 57.5026 45.5079 57.2849 44.7421 57.186C43.9763 57.0673 43.0381 56.8694 42.6743 56.7507L42.0042 56.5133L43.0572 56.177C44.3209 55.7615 47.0588 55.6824 47.1545 56.0385ZM28.7168 56.2165C30.2868 56.4342 31.359 56.7705 30.5166 56.7903C29.923 56.7903 27.8936 57.8587 27.3766 58.4522C27.0128 58.8677 26.9745 58.9666 27.2234 58.9666C27.3958 58.9666 27.5872 58.8677 27.6447 58.7688C27.7595 58.5907 29.521 57.5817 29.7316 57.5817C29.9996 57.5817 29.3869 58.9469 28.9466 59.3425L28.4296 59.8174L28.8892 59.6591C29.521 59.4613 30.2294 58.7886 30.2294 58.3731C30.2294 57.74 30.8038 57.186 31.4739 57.186C32.0291 57.186 32.1057 57.2454 32.01 57.6213C31.9525 57.8785 31.7611 58.2346 31.6079 58.4127C31.2824 58.8084 31.4164 58.8677 31.9525 58.5709C32.144 58.472 32.3929 58.0961 32.5078 57.7598C32.6609 57.3245 32.795 57.1662 33.0247 57.2651C33.1779 57.3245 33.7523 57.3839 34.2692 57.3839C35.1308 57.3839 35.2074 57.4234 35.2074 57.8389C35.2074 58.0961 35.0159 58.4918 34.7861 58.7094C34.0012 59.4613 31.9334 60.3714 30.4591 60.6483C29.6358 60.7868 28.602 61.0638 28.1233 61.2419C26.5725 61.8354 26.515 61.8156 26.4002 60.3516C26.3427 59.6393 26.2087 58.8875 26.0747 58.6699C25.9215 58.3929 25.9215 57.9576 26.0747 57.1266C26.3044 55.8209 26.1704 55.8802 28.7168 56.2165ZM46.5801 58.4324C46.9056 58.749 46.9822 58.9666 46.8673 59.2634C46.7907 59.481 46.7141 60.0548 46.695 60.5494L46.6759 61.4397L46.2164 60.8858C45.9483 60.589 45.7377 60.1339 45.7377 59.8965C45.7377 59.6591 45.5654 59.0853 45.3548 58.6105L44.9719 57.74L45.5654 57.8785C45.8717 57.9576 46.3312 58.2148 46.5801 58.4324ZM25.8258 60.2922V60.7671L25.3088 60.2724C24.8685 59.8372 24.8302 59.7382 25.0599 59.4613C25.3088 59.1447 25.3471 59.1645 25.5769 59.481C25.7109 59.6789 25.8258 60.035 25.8258 60.2922ZM33.1204 61.8156C32.3737 62.5675 32.3354 62.1322 33.0439 61.1628C33.4842 60.5692 33.5799 60.5099 33.6374 60.8264C33.6948 61.044 33.4651 61.4397 33.1204 61.8156Z" fill="#542C16"/>
</svg>
