<svg width="38" height="38" viewBox="0 0 38 38" fill="none" xmlns="http://www.w3.org/2000/svg">
<path d="M25.9218 20.2532C25.7284 20.1762 25.5218 20.1381 25.3137 20.1411C25.1056 20.144 24.9001 20.1879 24.709 20.2702C24.5178 20.3525 24.3448 20.4717 24.1997 20.6209C24.0546 20.7701 23.9404 20.9465 23.8634 21.1398C23.7865 21.3332 23.7484 21.5398 23.7513 21.7479C23.7543 21.956 23.7981 22.1615 23.8805 22.3526C23.9628 22.5438 24.082 22.7168 24.2312 22.8619C24.3804 23.007 24.5567 23.1212 24.7501 23.1982C27.0618 24.1165 28.5026 25.5415 28.5026 26.919C28.5026 29.1673 24.6076 31.669 19.0026 31.669C13.3976 31.669 9.5026 29.1673 9.5026 26.919C9.5026 25.5415 10.9434 24.1165 13.2551 23.1982C13.6456 23.0428 13.9584 22.7386 14.1247 22.3526C14.291 21.9666 14.2971 21.5304 14.1418 21.1398C13.9864 20.7493 13.6823 20.4365 13.2962 20.2702C12.9102 20.1039 12.474 20.0978 12.0834 20.2532C8.48927 21.6782 6.33594 24.164 6.33594 26.919C6.33594 31.3523 11.8934 34.8357 19.0026 34.8357C26.1118 34.8357 31.6693 31.3523 31.6693 26.919C31.6693 24.164 29.5159 21.6782 25.9218 20.2532ZM17.4193 15.614V26.919C17.4193 27.3389 17.5861 27.7417 17.883 28.0386C18.18 28.3355 18.5827 28.5023 19.0026 28.5023C19.4225 28.5023 19.8253 28.3355 20.1222 28.0386C20.4191 27.7417 20.5859 27.3389 20.5859 26.919V15.614C22.0785 15.2286 23.3792 14.3121 24.2444 13.0363C25.1095 11.7605 25.4797 10.2129 25.2855 8.68374C25.0912 7.15454 24.3459 5.74867 23.1893 4.72965C22.0327 3.71064 20.5441 3.14844 19.0026 3.14844C17.4611 3.14844 15.9725 3.71064 14.8159 4.72965C13.6593 5.74867 12.914 7.15454 12.7197 8.68374C12.5255 10.2129 12.8957 11.7605 13.7608 13.0363C14.626 14.3121 15.9267 15.2286 17.4193 15.614Z" fill="#4B8323"/>
</svg>
