<svg width="22" height="21" viewBox="0 0 22 21" fill="none" xmlns="http://www.w3.org/2000/svg">
<path d="M16.5287 15.0758C17.9503 13.5027 18.7354 11.4662 18.7339 9.35619C18.7339 4.60658 14.8266 0.746582 10.03 0.746582C5.22843 0.746582 1.32617 4.61161 1.32617 9.35619C1.32617 14.1008 5.23351 17.9658 10.03 17.9658C12.1632 17.9673 14.2219 17.1907 15.8123 15.7845L20.4005 20.323C20.4477 20.37 20.5039 20.4071 20.5659 20.4322C20.6279 20.4572 20.6943 20.4696 20.7613 20.4688C20.8961 20.4682 21.0254 20.416 21.122 20.323C21.1691 20.2765 21.2065 20.2213 21.232 20.1605C21.2575 20.0997 21.2706 20.0345 21.2706 19.9687C21.2706 19.9028 21.2575 19.8377 21.232 19.7769C21.2065 19.7161 21.1691 19.6608 21.122 19.6143L16.5287 15.0758ZM2.3373 9.35619C2.3373 5.16447 5.78735 1.75179 10.025 1.75179C14.2626 1.75179 17.7126 5.16447 17.7126 9.35619C17.7126 13.5479 14.2626 16.9606 10.025 16.9606C5.78735 16.9606 2.3373 13.5479 2.3373 9.35619Z" fill="#222222" stroke="#222222" stroke-width="0.8"/>
</svg>
