<svg width="22" height="22" viewBox="0 0 22 22" fill="none" xmlns="http://www.w3.org/2000/svg">
<path d="M16.5268 15.4863C17.9483 13.8688 18.7335 11.775 18.732 9.60555C18.732 4.72215 14.8246 0.753418 10.0281 0.753418C5.22648 0.753418 1.32422 4.72732 1.32422 9.60555C1.32422 14.4838 5.23156 18.4577 10.0281 18.4577C12.1612 18.4592 14.22 17.6607 15.8103 16.2149L20.3986 20.8813C20.4457 20.9296 20.502 20.9678 20.5639 20.9935C20.6259 21.0193 20.6924 21.0321 20.7593 21.0312C20.8941 21.0306 21.0234 20.9769 21.1201 20.8813C21.1672 20.8335 21.2045 20.7767 21.23 20.7142C21.2556 20.6517 21.2687 20.5847 21.2687 20.517C21.2687 20.4493 21.2556 20.3823 21.23 20.3198C21.2045 20.2572 21.1672 20.2005 21.1201 20.1527L16.5268 15.4863ZM2.33535 9.60555C2.33535 5.29575 5.7854 1.78694 10.023 1.78694C14.2606 1.78694 17.7107 5.29575 17.7107 9.60555C17.7107 13.9153 14.2606 17.4242 10.023 17.4242C5.7854 17.4242 2.33535 13.9153 2.33535 9.60555Z" fill="#222222" stroke="#222222" stroke-width="0.8"/>
</svg>
