<svg width="21" height="16" viewBox="0 0 21 16" fill="none" xmlns="http://www.w3.org/2000/svg">
<path d="M6.35563 14.9654L6.35491 14.9647L1.02661 9.50682L1.02609 9.50629L1.02609 9.50629C0.848601 9.3234 0.75 9.07724 0.75 8.82186C0.75 8.56648 0.848601 8.32032 1.02609 8.13743C1.11469 8.04598 1.22042 7.97305 1.33734 7.92315C1.45436 7.87322 1.58009 7.84742 1.70723 7.84742C1.83437 7.84742 1.96011 7.87322 2.07713 7.92315C2.19396 7.97301 2.29962 8.04587 2.38819 8.13723C2.38831 8.13737 2.38844 8.1375 2.38857 8.13763L7.03554 12.8976L18.6157 1.03585L18.6162 1.03532C18.795 0.853292 19.0381 0.75 19.2928 0.75C19.5474 0.75 19.7904 0.853215 19.9691 1.03512L6.35563 14.9654ZM6.35563 14.9654C6.44474 15.056 6.55076 15.1279 6.66775 15.1769C6.78463 15.2258 6.91 15.2507 7.03662 15.25M6.35563 14.9654L7.03662 15.25M7.03662 15.25C7.03675 15.25 7.03689 15.25 7.03702 15.25L7.03554 15L7.03662 15.25Z" fill="white" stroke="white" stroke-width="0.5"/>
</svg>
