<svg width="22" height="21" viewBox="0 0 22 21" fill="none" xmlns="http://www.w3.org/2000/svg">
<path d="M21.0766 9.86063L11.7653 0.549383C11.5917 0.374635 11.3851 0.236091 11.1576 0.141785C10.93 0.0474796 10.686 -0.000710913 10.4397 7.92487e-06H1.75001C1.45164 7.92487e-06 1.16549 0.118534 0.954513 0.329513C0.743534 0.540491 0.625008 0.826639 0.625008 1.12501V9.8147C0.624289 10.061 0.67248 10.305 0.766785 10.5326C0.861091 10.7601 0.999635 10.9667 1.17438 11.1403L10.4856 20.4516C10.8372 20.8031 11.3141 21.0005 11.8113 21.0005C12.3084 21.0005 12.7853 20.8031 13.1369 20.4516L21.0766 12.5119C21.4281 12.1603 21.6255 11.6834 21.6255 11.1863C21.6255 10.6891 21.4281 10.2122 21.0766 9.86063ZM11.8113 18.5953L2.87501 9.65626V2.25001H10.2813L19.2175 11.1863L11.8113 18.5953ZM7.37501 5.25001C7.37501 5.54668 7.28703 5.83669 7.12221 6.08336C6.95739 6.33004 6.72312 6.5223 6.44903 6.63583C6.17494 6.74936 5.87334 6.77906 5.58237 6.72119C5.2914 6.66331 5.02413 6.52045 4.81435 6.31067C4.60457 6.10089 4.46171 5.83361 4.40383 5.54264C4.34595 5.25167 4.37566 4.95007 4.48919 4.67598C4.60272 4.40189 4.79498 4.16763 5.04165 4.0028C5.28833 3.83798 5.57834 3.75001 5.87501 3.75001C6.27283 3.75001 6.65436 3.90804 6.93567 4.18935C7.21697 4.47065 7.37501 4.85218 7.37501 5.25001Z" fill="#A9A9A9"/>
</svg>
