<svg width="239" height="58" viewBox="0 0 239 58" fill="none" xmlns="http://www.w3.org/2000/svg">
<path d="M199.031 18.1279C195.876 12.4945 190.4 7.89619 183.517 5.09964C176.635 2.3031 168.761 1.47738 161.209 2.76019C153.657 4.043 146.884 7.3568 142.018 12.149C137.152 16.9412 134.488 22.9221 134.471 29.0943C134.453 35.2666 137.083 41.2572 141.921 46.0671C146.76 50.8769 153.514 54.2154 161.059 55.5257C168.603 56.8361 176.482 56.0391 183.38 53.2677C190.279 50.4963 195.78 45.9179 198.967 40.2962" stroke="#7E6613" stroke-width="3"/>
<path d="M194.335 29.2632H237.003M237.003 29.2632L224.202 45.7632M237.003 29.2632L224.202 12.7632" stroke="#7E6613" stroke-width="3"/>
<path d="M37.945 18.1367C41.1707 12.5003 46.7686 7.89937 53.8052 5.10127C60.8418 2.30317 68.8917 1.477 76.6125 2.76052C84.3334 4.04405 91.2585 7.35969 96.2331 12.1545C101.208 16.9494 103.931 22.9336 103.949 29.1093C103.967 35.285 101.279 41.2789 96.3321 46.0915C91.3855 50.904 84.4797 54.2444 76.7664 55.5554C69.0531 56.8665 60.9985 56.0691 53.9457 53.2961C46.8929 50.5231 41.2682 45.9423 38.0096 40.3174" stroke="#222222" stroke-width="3"/>
<path d="M65.1211 29.1714H2.99944M2.99944 29.1714L21.6359 45.6714M2.99944 29.1714L21.6359 12.6714" stroke="#222222" stroke-width="3"/>
</svg>
