<svg width="4" height="18" viewBox="0 0 4 18" fill="none" xmlns="http://www.w3.org/2000/svg">
<path d="M1.75 14C2.21413 14 2.65925 14.1844 2.98744 14.5126C3.31562 14.8408 3.5 15.2859 3.5 15.75C3.5 16.2141 3.31562 16.6592 2.98744 16.9874C2.65925 17.3156 2.21413 17.5 1.75 17.5C1.28587 17.5 0.840751 17.3156 0.512562 16.9874C0.184374 16.6592 -7.08742e-07 16.2141 -6.88454e-07 15.75C-6.68167e-07 15.2859 0.184374 14.8408 0.512563 14.5126C0.840751 14.1844 1.28587 14 1.75 14ZM1.75 7C2.21413 7 2.65925 7.18437 2.98744 7.51256C3.31563 7.84075 3.5 8.28587 3.5 8.75C3.5 9.21413 3.31563 9.65925 2.98744 9.98744C2.65925 10.3156 2.21413 10.5 1.75 10.5C1.28587 10.5 0.840751 10.3156 0.512563 9.98744C0.184374 9.65925 -4.02762e-07 9.21413 -3.82475e-07 8.75C-3.62187e-07 8.28587 0.184374 7.84075 0.512563 7.51256C0.840752 7.18437 1.28587 7 1.75 7ZM1.75 -7.64949e-08C2.21413 -5.62072e-08 2.65925 0.184374 2.98744 0.512563C3.31563 0.840752 3.5 1.28587 3.5 1.75C3.5 2.21413 3.31563 2.65925 2.98744 2.98744C2.65925 3.31563 2.21413 3.5 1.75 3.5C1.28587 3.5 0.840752 3.31563 0.512563 2.98744C0.184374 2.65925 -9.67826e-08 2.21413 -7.64949e-08 1.75C-5.62072e-08 1.28587 0.184375 0.840752 0.512563 0.512563C0.840752 0.184374 1.28587 -9.67826e-08 1.75 -7.64949e-08Z" fill="#393939"/>
</svg>
