<svg width="30" height="37" viewBox="0 0 30 37" fill="none" xmlns="http://www.w3.org/2000/svg">
<path d="M25.9741 25.5048V25.8257L26.2062 26.0473L28.6653 28.3948C29.3195 29.0194 28.9299 30.2142 27.8297 30.2142H2.7238C1.64078 30.2142 1.24087 29.031 1.90727 28.3948L4.36639 26.0473L4.59851 25.8257V25.5048V16.4058C4.59851 11.0879 7.52129 6.78317 12.5923 5.63619L13.1768 5.50397V4.90467V3.6672C13.1768 2.60342 14.0851 1.6875 15.2863 1.6875C16.4875 1.6875 17.3957 2.60342 17.3957 3.6672V4.90467V5.50351L17.9797 5.63606C23.0327 6.78296 25.9741 11.1067 25.9741 16.4058V25.5048ZM18.2423 33.534C17.8923 34.7448 16.7178 35.6736 15.2863 35.6736C13.8406 35.6736 12.6751 34.7461 12.3289 33.534H18.2423Z" stroke="white" stroke-width="1.5"/>
</svg>
