<svg width="30" height="35" viewBox="0 0 30 35" fill="none" xmlns="http://www.w3.org/2000/svg">
<path d="M25.9741 23.9567V24.2838L26.2137 24.5064L28.6729 26.7896C29.0215 27.1133 29.063 27.5199 28.9085 27.8649C28.7505 28.2177 28.3765 28.5166 27.8297 28.5166H2.7238C2.17817 28.5166 1.81048 28.2193 1.65647 27.8693C1.50529 27.5258 1.54801 27.1161 1.8997 26.7896L4.35882 24.5064L4.59851 24.2838V23.9567V15.107C4.59851 9.95808 7.50706 5.77119 12.588 4.65346L13.1768 4.52392V3.92098V2.71741C13.1768 1.71402 14.0649 0.8125 15.2863 0.8125C16.5077 0.8125 17.3957 1.71402 17.3957 2.71741V3.92098V4.52347L17.9841 4.65334C23.0469 5.771 25.9741 9.9764 25.9741 15.107V23.9567ZM18.2337 31.7865C17.8759 32.9327 16.721 33.8264 15.2863 33.8264C13.8376 33.8264 12.6914 32.9339 12.3374 31.7865H18.2337Z" stroke="white" stroke-width="1.5"/>
</svg>
