<svg width="132" height="39" viewBox="0 0 132 39" fill="none" xmlns="http://www.w3.org/2000/svg">
<path d="M127.123 0.78C128.209 0.78 129.251 1.21144 130.019 1.9794C130.787 2.74736 131.218 3.78894 131.218 4.875V34.125C131.218 35.2111 130.787 36.2526 130.019 37.0206C129.251 37.7886 128.209 38.22 127.123 38.22H5.24805C4.16199 38.22 3.12041 37.7886 2.35244 37.0206C1.58448 36.2526 1.15305 35.2111 1.15305 34.125V4.875C1.15305 3.78894 1.58448 2.74736 2.35244 1.9794C3.12041 1.21144 4.16199 0.78 5.24805 0.78H127.123ZM127.123 0H5.24805C3.95512 0 2.71514 0.513615 1.8009 1.42785C0.886661 2.34209 0.373047 3.58207 0.373047 4.875V34.125C0.373047 35.4179 0.886661 36.6579 1.8009 37.5721C2.71514 38.4864 3.95512 39 5.24805 39H127.123C128.416 39 129.656 38.4864 130.57 37.5721C131.484 36.6579 131.998 35.4179 131.998 34.125V4.875C131.998 3.58207 131.484 2.34209 130.57 1.42785C129.656 0.513615 128.416 0 127.123 0Z" fill="#A6A6A6"/>
</svg>
