<svg width="22" height="24" viewBox="0 0 22 24" fill="none" xmlns="http://www.w3.org/2000/svg">
<path d="M21.0833 3.69231H16.5V2.76923C16.5 2.03479 16.2103 1.33042 15.6945 0.811089C15.1788 0.291757 14.4793 0 13.75 0H8.25C7.52065 0 6.82118 0.291757 6.30546 0.811089C5.78973 1.33042 5.5 2.03479 5.5 2.76923V3.69231H0.916667C0.673552 3.69231 0.440394 3.78956 0.268486 3.96267C0.0965773 4.13578 0 4.37057 0 4.61538C0 4.8602 0.0965773 5.09499 0.268486 5.2681C0.440394 5.44121 0.673552 5.53846 0.916667 5.53846H1.83333V22.1538C1.83333 22.6435 2.02649 23.1131 2.3703 23.4593C2.71412 23.8055 3.18044 24 3.66667 24H18.3333C18.8196 24 19.2859 23.8055 19.6297 23.4593C19.9735 23.1131 20.1667 22.6435 20.1667 22.1538V5.53846H21.0833C21.3264 5.53846 21.5596 5.44121 21.7315 5.2681C21.9034 5.09499 22 4.8602 22 4.61538C22 4.37057 21.9034 4.13578 21.7315 3.96267C21.5596 3.78956 21.3264 3.69231 21.0833 3.69231ZM9.16667 17.5385C9.16667 17.7833 9.07009 18.0181 8.89818 18.1912C8.72627 18.3643 8.49312 18.4615 8.25 18.4615C8.00688 18.4615 7.77373 18.3643 7.60182 18.1912C7.42991 18.0181 7.33333 17.7833 7.33333 17.5385V10.1538C7.33333 9.90903 7.42991 9.67424 7.60182 9.50113C7.77373 9.32802 8.00688 9.23077 8.25 9.23077C8.49312 9.23077 8.72627 9.32802 8.89818 9.50113C9.07009 9.67424 9.16667 9.90903 9.16667 10.1538V17.5385ZM14.6667 17.5385C14.6667 17.7833 14.5701 18.0181 14.3982 18.1912C14.2263 18.3643 13.9931 18.4615 13.75 18.4615C13.5069 18.4615 13.2737 18.3643 13.1018 18.1912C12.9299 18.0181 12.8333 17.7833 12.8333 17.5385V10.1538C12.8333 9.90903 12.9299 9.67424 13.1018 9.50113C13.2737 9.32802 13.5069 9.23077 13.75 9.23077C13.9931 9.23077 14.2263 9.32802 14.3982 9.50113C14.5701 9.67424 14.6667 9.90903 14.6667 10.1538V17.5385ZM14.6667 3.69231H7.33333V2.76923C7.33333 2.52442 7.42991 2.28963 7.60182 2.11652C7.77373 1.94341 8.00688 1.84615 8.25 1.84615H13.75C13.9931 1.84615 14.2263 1.94341 14.3982 2.11652C14.5701 2.28963 14.6667 2.52442 14.6667 2.76923V3.69231Z" fill="#FF3333"/>
</svg>
