<svg width="84" height="18" viewBox="0 0 84 18" fill="none" xmlns="http://www.w3.org/2000/svg">
<path d="M26.81 5.20615C25.9885 5.20808 25.186 5.45357 24.5041 5.91156C23.8221 6.36956 23.2913 7.01949 22.9787 7.77918C22.6661 8.53887 22.5858 9.37419 22.748 10.1795C22.9101 10.9848 23.3074 11.724 23.8897 12.3035C24.4719 12.883 25.2129 13.2768 26.019 13.4352C26.8251 13.5936 27.66 13.5094 28.4182 13.1932C29.1764 12.8771 29.8239 12.3432 30.2787 11.6591C30.7335 10.975 30.9752 10.1714 30.9732 9.3499C30.9812 8.80189 30.8788 8.25788 30.6721 7.75026C30.4655 7.24264 30.1588 6.7818 29.7703 6.39517C29.3819 6.00853 28.9196 5.70402 28.411 5.49975C27.9024 5.29548 27.358 5.19563 26.81 5.20615ZM26.81 11.8654C26.3065 11.9006 25.804 11.7835 25.3679 11.5294C24.9318 11.2753 24.5823 10.8958 24.3647 10.4404C24.1471 9.98494 24.0716 9.47458 24.1479 8.97565C24.2242 8.47671 24.4489 8.01228 24.7927 7.64271C25.1365 7.27315 25.5835 7.01555 26.0756 6.90341C26.5677 6.79126 27.0822 6.82975 27.5521 7.01388C28.0221 7.19801 28.4258 7.51926 28.7108 7.93586C28.9957 8.35247 29.1488 8.84516 29.15 9.3499C29.1657 9.66971 29.1172 9.98944 29.0074 10.2902C28.8975 10.591 28.7286 10.8667 28.5105 11.1012C28.2924 11.3356 28.0296 11.524 27.7375 11.6553C27.4455 11.7865 27.1301 11.858 26.81 11.8654ZM17.723 5.20615C16.9015 5.20808 16.099 5.45357 15.4171 5.91156C14.7351 6.36956 14.2043 7.01949 13.8917 7.77918C13.5791 8.53887 13.4988 9.37419 13.661 10.1795C13.8231 10.9848 14.2204 11.724 14.8027 12.3035C15.3849 12.883 16.1259 13.2768 16.932 13.4352C17.7381 13.5936 18.573 13.5094 19.3312 13.1932C20.0894 12.8771 20.7369 12.3432 21.1917 11.6591C21.6465 10.975 21.8882 10.1714 21.8862 9.3499C21.8942 8.80189 21.7918 8.25788 21.5851 7.75026C21.3785 7.24264 21.0718 6.7818 20.6833 6.39517C20.2949 6.00853 19.8326 5.70402 19.324 5.49975C18.8154 5.29548 18.271 5.19563 17.723 5.20615ZM17.723 11.8654C17.2195 11.9006 16.717 11.7835 16.2809 11.5294C15.8448 11.2753 15.4953 10.8958 15.2777 10.4404C15.0601 9.98494 14.9846 9.47458 15.0609 8.97565C15.1372 8.47671 15.3619 8.01228 15.7057 7.64271C16.0495 7.27315 16.4965 7.01555 16.9886 6.90341C17.4807 6.79126 17.9952 6.82975 18.4651 7.01388C18.9351 7.19801 19.3388 7.51926 19.6238 7.93586C19.9087 8.35247 20.0618 8.84516 20.063 9.3499C20.0787 9.66971 20.0302 9.98944 19.9204 10.2902C19.8105 10.591 19.6416 10.8667 19.4235 11.1012C19.2054 11.3356 18.9426 11.524 18.6505 11.6553C18.3585 11.7865 18.0431 11.858 17.723 11.8654ZM6.91999 6.4834V8.2384H11.132C11.0659 9.06501 10.7223 9.845 10.157 10.4517C9.73448 10.8821 9.2263 11.2191 8.66534 11.4408C8.10438 11.6625 7.50313 11.764 6.90049 11.7387C5.65927 11.7387 4.46889 11.2456 3.59122 10.3679C2.71355 9.49024 2.22048 8.29987 2.22048 7.05865C2.22048 5.81744 2.71355 4.62706 3.59122 3.74939C4.46889 2.87172 5.65927 2.37865 6.90049 2.37865C8.09042 2.36095 9.23941 2.81284 10.0985 3.6364L11.3367 2.39815C10.7556 1.8234 10.0656 1.37039 9.30723 1.06569C8.54882 0.760983 7.73722 0.610702 6.91999 0.62365C6.05321 0.589917 5.18854 0.731511 4.37779 1.03995C3.56704 1.34838 2.82691 1.81731 2.20172 2.41864C1.57654 3.01996 1.07918 3.7413 0.739454 4.53944C0.399723 5.33758 0.224609 6.19609 0.224609 7.06352C0.224609 7.93096 0.399723 8.78947 0.739454 9.58761C1.07918 10.3857 1.57654 11.1071 2.20172 11.7084C2.82691 12.3097 3.56704 12.7787 4.37779 13.0871C5.18854 13.3955 6.05321 13.5371 6.91999 13.5034C7.75402 13.5367 8.58567 13.3932 9.36032 13.0824C10.135 12.7715 10.8351 12.3003 11.4147 11.6997C12.4386 10.5749 12.9842 9.0956 12.9357 7.5754C12.9392 7.20951 12.9099 6.84404 12.848 6.4834H6.91999ZM51.0972 7.8484C50.843 7.10032 50.3675 6.44712 49.7337 5.97528C49.0999 5.50344 48.3378 5.23523 47.5482 5.20615C47.0149 5.20511 46.487 5.31346 45.9972 5.52452C45.5075 5.73558 45.0662 6.04485 44.7006 6.43322C44.3351 6.82159 44.0531 7.2808 43.8721 7.78247C43.6911 8.28415 43.6149 8.81761 43.6482 9.3499C43.6399 10.2399 43.9197 11.1088 44.4459 11.8267C44.9721 12.5445 45.7164 13.0729 46.5676 13.3329C47.4189 13.5929 48.3314 13.5705 49.1689 13.2691C50.0064 12.9677 50.7239 12.4035 51.2142 11.6606L49.8005 10.6856C49.5897 11.0369 49.2908 11.327 48.9334 11.5271C48.5759 11.7272 48.1724 11.8304 47.7627 11.8264C47.3401 11.8438 46.9222 11.7331 46.5637 11.5086C46.2052 11.2841 45.9231 10.9564 45.7542 10.5687L51.302 8.2774L51.0972 7.8484ZM45.4422 9.2329C45.4225 8.93005 45.4633 8.62629 45.5624 8.33943C45.6615 8.05256 45.8169 7.78835 46.0193 7.56226C46.2218 7.33617 46.4674 7.15276 46.7416 7.02276C47.0159 6.89275 47.3133 6.81877 47.6165 6.80515C47.9306 6.78597 48.2435 6.85994 48.5158 7.01777C48.7881 7.1756 49.0077 7.41027 49.1472 7.6924L45.4422 9.2329ZM40.9377 13.2499H42.761V1.0624H40.9377V13.2499ZM37.9542 6.1324H37.886C37.6136 5.82221 37.2775 5.57451 36.9005 5.40623C36.5236 5.23796 36.1148 5.15308 35.702 5.1574C34.6365 5.20907 33.6317 5.66871 32.8959 6.44107C32.1601 7.21343 31.7497 8.23928 31.7497 9.30603C31.7497 10.3728 32.1601 11.3986 32.8959 12.171C33.6317 12.9433 34.6365 13.403 35.702 13.4546C36.1154 13.4629 36.5254 13.3798 36.903 13.2113C37.2805 13.0428 37.6162 12.7929 37.886 12.4796H37.9542V13.0744C37.9542 14.6637 37.106 15.5119 35.741 15.5119C35.285 15.5019 34.8423 15.3566 34.469 15.0944C34.0958 14.8323 33.8089 14.4652 33.6447 14.0397L32.0652 14.6929C32.3573 15.4263 32.865 16.0539 33.5213 16.4926C34.1776 16.9313 34.9516 17.1605 35.741 17.1499C37.8762 17.1499 39.641 15.8922 39.641 12.8307V5.4499H37.9542V6.1324ZM35.858 11.8654C35.2192 11.8256 34.6196 11.5437 34.1813 11.0773C33.743 10.6108 33.499 9.99483 33.499 9.35478C33.499 8.71472 33.743 8.09874 34.1813 7.63228C34.6196 7.16582 35.2192 6.88398 35.858 6.84415C36.1702 6.85763 36.4766 6.93377 36.7588 7.06805C37.041 7.20233 37.2933 7.392 37.5007 7.62578C37.7081 7.85957 37.8663 8.13268 37.966 8.42888C38.0657 8.72507 38.1048 9.03829 38.081 9.3499C38.1076 9.66257 38.0705 9.9774 37.9719 10.2753C37.8734 10.5733 37.7155 10.8481 37.5077 11.0832C37.2999 11.3184 37.0465 11.5089 36.763 11.6434C36.4794 11.7778 36.1716 11.8533 35.858 11.8654ZM59.6382 1.0624H55.2702V13.2499H57.0935V8.6284H59.6382C60.1579 8.66573 60.6796 8.59561 61.1709 8.42241C61.6623 8.24921 62.1127 7.97664 62.494 7.62171C62.8754 7.26677 63.1795 6.83707 63.3875 6.35941C63.5954 5.88175 63.7028 5.36637 63.7028 4.8454C63.7028 4.32443 63.5954 3.80905 63.3875 3.33139C63.1795 2.85373 62.8754 2.42403 62.494 2.06909C62.1127 1.71416 61.6623 1.44159 61.1709 1.26839C60.6796 1.09519 60.1579 1.02507 59.6382 1.0624ZM59.6382 6.9124H57.0935V2.7589H59.6772C59.9512 2.7589 60.2226 2.81287 60.4757 2.91772C60.7289 3.02258 60.9589 3.17627 61.1526 3.37002C61.3464 3.56377 61.5001 3.79379 61.6049 4.04693C61.7098 4.30008 61.7637 4.5714 61.7637 4.8454C61.7637 5.1194 61.7098 5.39073 61.6049 5.64387C61.5001 5.89702 61.3464 6.12703 61.1526 6.32078C60.9589 6.51453 60.7289 6.66822 60.4757 6.77307C60.2226 6.87793 59.9512 6.9319 59.6772 6.9319L59.6382 6.9124ZM70.8897 5.16715C70.2258 5.12621 69.5644 5.28079 68.9873 5.61177C68.4103 5.94274 67.9429 6.43561 67.643 7.0294L69.2517 7.70215C69.4143 7.40907 69.6582 7.16932 69.9541 7.01188C70.25 6.85443 70.5851 6.78602 70.919 6.8149C71.1504 6.78787 71.385 6.8072 71.6089 6.87177C71.8328 6.93633 72.0416 7.04484 72.2231 7.19097C72.4046 7.33709 72.5552 7.5179 72.6661 7.72284C72.777 7.92779 72.846 8.15276 72.869 8.38465V8.50165C72.2827 8.19347 71.6301 8.03284 70.9677 8.03365C69.2322 8.03365 67.4577 9.00865 67.4577 10.7832C67.4749 11.1603 67.5677 11.5302 67.7306 11.8708C67.8935 12.2114 68.1232 12.5158 68.4061 12.7659C68.6889 13.016 69.0191 13.2067 69.3771 13.3267C69.7351 13.4467 70.1135 13.4935 70.49 13.4644C70.9475 13.4897 71.4035 13.3929 71.8113 13.1839C72.2191 12.9748 72.5639 12.6611 72.8105 12.2749H72.869V13.2499H74.624V8.56015C74.624 6.4249 73.0055 5.18665 70.9287 5.18665L70.8897 5.16715ZM70.6655 11.8459C70.0707 11.8459 69.242 11.5437 69.242 10.8124C69.242 9.8374 70.2755 9.5059 71.192 9.5059C71.7712 9.49161 72.3436 9.63303 72.8495 9.9154C72.7883 10.4449 72.5372 10.9342 72.1428 11.2928C71.7484 11.6513 71.2374 11.8548 70.7045 11.8654L70.6655 11.8459ZM81.02 5.4499L78.9335 10.7344H78.875L76.7105 5.4499H74.7605L78.0072 12.8404L76.1547 16.9452H78.056L83.048 5.4499H81.02ZM64.64 13.2499H66.4535V1.0624H64.64V13.2499Z" fill="white"/>
</svg>
